<svg xmlns="http://www.w3.org/2000/svg" xmlns:xlink="http://www.w3.org/1999/xlink" viewBox="0 0 762.02 170.5"><defs><style>.cls-1{fill:none;}.cls-2{clip-path:url(#clip-path);}.cls-3{fill:#db4437;}.cls-4{fill:url(#무제_그라디언트_5);}.cls-19,.cls-21,.cls-5{fill:#3e2723;}.cls-5,.cls-8{fill-opacity:0.15;}.cls-6{fill:#0f9d58;}.cls-7{fill:url(#무제_그라디언트_7);}.cls-8{fill:#263238;}.cls-9{clip-path:url(#clip-path-6);}.cls-10{fill:#ffcd40;}.cls-11{fill:url(#무제_그라디언트_4);}.cls-12{clip-path:url(#clip-path-9);}.cls-13{fill:url(#무제_그라디언트_8);}.cls-14{clip-path:url(#clip-path-12);}.cls-15{fill:url(#무제_그라디언트_8-2);}.cls-16{fill:url(#무제_그라디언트_9);}.cls-17{fill:#f1f1f1;}.cls-18{fill:#4285f4;}.cls-19,.cls-22{fill-opacity:0.2;}.cls-20,.cls-22{fill:#fff;}.cls-20{fill-opacity:0.1;}.cls-21{opacity:0.1;}.cls-21,.cls-37,.cls-41,.cls-43{isolation:isolate;}.cls-23{fill:url(#무제_그라디언트_10);}.cls-24{fill:#0078d7;}.cls-25{fill:url(#무제_그라디언트_21);}.cls-26{fill:url(#무제_그라디언트_20);}.cls-27{fill:url(#무제_그라디언트_19);}.cls-28{fill:url(#무제_그라디언트_18);}.cls-29{fill:url(#무제_그라디언트_17);}.cls-30{fill:url(#무제_그라디언트_16);}.cls-31{fill:url(#무제_그라디언트_15);}.cls-32{fill:url(#무제_그라디언트_14);}.cls-33{fill:url(#무제_그라디언트_13);}.cls-34{fill:url(#무제_그라디언트_6);}.cls-35{fill:url(#무제_그라디언트_11);}.cls-36{fill:url(#무제_그라디언트_12);}.cls-37{opacity:0.53;}.cls-38{stroke:#cdcdcd;stroke-linecap:round;stroke-linejoin:round;stroke-width:0.09px;fill:url(#무제_그라디언트_3);}.cls-39{fill:url(#무제_그라디언트_2);}.cls-40{fill:#f4f2f3;}.cls-41{opacity:0.41;}.cls-42{fill:#ff5150;}.cls-43{opacity:0.24;}</style><clipPath id="clip-path"><circle class="cls-1" cx="82.63" cy="82.76" r="82.63"/></clipPath><linearGradient id="무제_그라디언트_5" x1="-227.82" y1="496.69" x2="-211.55" y2="506.19" gradientTransform="matrix(3.03, 0, 0, -3.03, 710.41, 1568.17)" gradientUnits="userSpaceOnUse"><stop offset="0" stop-color="#a52714" stop-opacity="0.6"/><stop offset="0.66" stop-color="#a52714" stop-opacity="0"/></linearGradient><linearGradient id="무제_그라디언트_7" x1="-202.56" y1="468.96" x2="-220.63" y2="479.55" gradientTransform="matrix(3.03, 0, 0, -3.03, 710.41, 1568.17)" gradientUnits="userSpaceOnUse"><stop offset="0" stop-color="#055524" stop-opacity="0.4"/><stop offset="0.33" stop-color="#055524" stop-opacity="0"/></linearGradient><clipPath id="clip-path-6"><polygon class="cls-1" points="0 165.39 78.66 165.39 115.17 128.88 115.17 101.54 50.11 101.54 0 15.6 0 165.39"/></clipPath><linearGradient id="무제_그라디언트_4" x1="-199.15" y1="504.5" x2="-194.6" y2="484.57" gradientTransform="matrix(3.03, 0, 0, -3.03, 710.41, 1568.17)" gradientUnits="userSpaceOnUse"><stop offset="0" stop-color="#ea6100" stop-opacity="0.3"/><stop offset="0.66" stop-color="#ea6100" stop-opacity="0"/></linearGradient><clipPath id="clip-path-9"><polygon class="cls-1" points="82.63 45.2 115.17 101.54 78.66 165.39 165.27 165.39 165.27 45.2 82.63 45.2"/></clipPath><radialGradient id="무제_그라디언트_8" cx="368.72" cy="510.17" r="31.3" gradientTransform="matrix(2.52, 0, 0, -2.52, -851.12, 1332.16)" gradientUnits="userSpaceOnUse"><stop offset="0" stop-color="#3e2723" stop-opacity="0.2"/><stop offset="1" stop-color="#3e2723" stop-opacity="0"/></radialGradient><clipPath id="clip-path-12"><polygon class="cls-1" points="13.12 0.12 13.12 38 50.11 101.54 82.63 45.2 165.27 45.2 165.27 0.12 13.12 0.12"/></clipPath><radialGradient id="무제_그라디언트_8-2" cx="342.55" cy="512.93" r="29.05" xlink:href="#무제_그라디언트_8"/><radialGradient id="무제_그라디언트_9" cx="370.08" cy="495.21" r="32.71" gradientTransform="matrix(2.52, 0, 0, -2.52, -851.12, 1332.16)" gradientUnits="userSpaceOnUse"><stop offset="0" stop-color="#263238" stop-opacity="0.2"/><stop offset="1" stop-color="#263238" stop-opacity="0"/></radialGradient><radialGradient id="무제_그라디언트_10" cx="-228.83" cy="519.08" r="65.79" gradientTransform="matrix(2.52, 0, 0, -2.52, 601.97, 1332.16)" gradientUnits="userSpaceOnUse"><stop offset="0" stop-color="#fff" stop-opacity="0.1"/><stop offset="1" stop-color="#fff" stop-opacity="0"/></radialGradient><linearGradient id="무제_그라디언트_21" x1="344.8" y1="334.6" x2="209.39" y2="203.95" gradientTransform="matrix(1, 0, 0, -1, 3.7, 359)" gradientUnits="userSpaceOnUse"><stop offset="0.05" stop-color="#fff44f"/><stop offset="0.11" stop-color="#ffe847"/><stop offset="0.23" stop-color="#ffc830"/><stop offset="0.37" stop-color="#ff980e"/><stop offset="0.4" stop-color="#ff8b16"/><stop offset="0.46" stop-color="#ff672a"/><stop offset="0.53" stop-color="#ff3647"/><stop offset="0.7" stop-color="#e31587"/></linearGradient><radialGradient id="무제_그라디언트_20" cx="-7643.27" cy="8878.92" r="176.76" gradientTransform="matrix(0.98, 0, 0, -0.94, 7801.18, 8406.09)" gradientUnits="userSpaceOnUse"><stop offset="0.13" stop-color="#ffbd4f"/><stop offset="0.19" stop-color="#ffac31"/><stop offset="0.25" stop-color="#ff9d17"/><stop offset="0.28" stop-color="#ff980e"/><stop offset="0.4" stop-color="#ff563b"/><stop offset="0.47" stop-color="#ff3750"/><stop offset="0.71" stop-color="#f5156c"/><stop offset="0.78" stop-color="#eb0878"/><stop offset="0.86" stop-color="#e50080"/></radialGradient><radialGradient id="무제_그라디언트_19" cx="-7707.86" cy="8806.66" r="176.76" gradientTransform="matrix(0.98, 0, 0, -0.94, 7801.18, 8406.09)" gradientUnits="userSpaceOnUse"><stop offset="0.3" stop-color="#960e18"/><stop offset="0.35" stop-color="#b11927" stop-opacity="0.74"/><stop offset="0.43" stop-color="#db293d" stop-opacity="0.34"/><stop offset="0.5" stop-color="#f5334b" stop-opacity="0.09"/><stop offset="0.53" stop-color="#ff3750" stop-opacity="0"/></radialGradient><radialGradient id="무제_그라디언트_18" cx="-7686.54" cy="8919.04" r="128.05" gradientTransform="matrix(0.98, 0, 0, -0.94, 7801.18, 8406.09)" gradientUnits="userSpaceOnUse"><stop offset="0.13" stop-color="#fff44f"/><stop offset="0.25" stop-color="#ffdc3e"/><stop offset="0.51" stop-color="#ff9d12"/><stop offset="0.53" stop-color="#ff980e"/></radialGradient><radialGradient id="무제_그라디언트_17" cx="-7727.41" cy="8760.49" r="84.16" gradientTransform="matrix(0.98, 0, 0, -0.94, 7801.18, 8406.09)" gradientUnits="userSpaceOnUse"><stop offset="0.35" stop-color="#3a8ee6"/><stop offset="0.47" stop-color="#5c79f0"/><stop offset="0.67" stop-color="#9059ff"/><stop offset="1" stop-color="#c139e6"/></radialGradient><radialGradient id="무제_그라디언트_16" cx="-7768.24" cy="8773.93" r="44.62" gradientTransform="matrix(0.95, -0.22, -0.27, -1.08, 10011.67, 7780.76)" gradientUnits="userSpaceOnUse"><stop offset="0.21" stop-color="#9059ff" stop-opacity="0"/><stop offset="0.28" stop-color="#8c4ff3" stop-opacity="0.06"/><stop offset="0.75" stop-color="#7716a8" stop-opacity="0.45"/><stop offset="0.97" stop-color="#6e008b" stop-opacity="0.6"/></radialGradient><radialGradient id="무제_그라디언트_15" cx="-7710.09" cy="8886.15" r="60.55" gradientTransform="matrix(0.98, 0, 0, -0.94, 7801.18, 8406.09)" gradientUnits="userSpaceOnUse"><stop offset="0" stop-color="#ffe226"/><stop offset="0.12" stop-color="#ffdb27"/><stop offset="0.29" stop-color="#ffc82a"/><stop offset="0.5" stop-color="#ffa930"/><stop offset="0.73" stop-color="#ff7e37"/><stop offset="0.79" stop-color="#ff7139"/></radialGradient><radialGradient id="무제_그라디언트_14" cx="-7662.5" cy="8924.56" r="258.33" gradientTransform="matrix(0.98, 0, 0, -0.94, 7801.18, 8406.09)" gradientUnits="userSpaceOnUse"><stop offset="0.11" stop-color="#fff44f"/><stop offset="0.46" stop-color="#ff980e"/><stop offset="0.62" stop-color="#ff5634"/><stop offset="0.72" stop-color="#ff3647"/><stop offset="0.9" stop-color="#e31587"/></radialGradient><radialGradient id="무제_그라디언트_13" cx="-7908.71" cy="9742.21" r="189.24" gradientTransform="matrix(0.1, 0.94, 0.64, -0.07, -5094.22, 8057.68)" gradientUnits="userSpaceOnUse"><stop offset="0" stop-color="#fff44f"/><stop offset="0.06" stop-color="#ffe847"/><stop offset="0.17" stop-color="#ffc830"/><stop offset="0.3" stop-color="#ff980e"/><stop offset="0.36" stop-color="#ff8b16"/><stop offset="0.46" stop-color="#ff672a"/><stop offset="0.57" stop-color="#ff3647"/><stop offset="0.74" stop-color="#e31587"/></radialGradient><radialGradient id="무제_그라디언트_6" cx="-7711.51" cy="8863.73" r="161.28" gradientTransform="matrix(0.98, 0, 0, -0.94, 7801.18, 8406.09)" gradientUnits="userSpaceOnUse"><stop offset="0.14" stop-color="#fff44f"/><stop offset="0.48" stop-color="#ff980e"/><stop offset="0.59" stop-color="#ff5634"/><stop offset="0.66" stop-color="#ff3647"/><stop offset="0.9" stop-color="#e31587"/></radialGradient><radialGradient id="무제_그라디언트_11" cx="-7668.94" cy="8854.29" r="176.52" gradientTransform="matrix(0.98, 0, 0, -0.94, 7801.18, 8406.09)" gradientUnits="userSpaceOnUse"><stop offset="0.09" stop-color="#fff44f"/><stop offset="0.23" stop-color="#ffe141"/><stop offset="0.51" stop-color="#ffaf1e"/><stop offset="0.63" stop-color="#ff980e"/></radialGradient><linearGradient id="무제_그라디언트_12" x1="342.58" y1="334.71" x2="227.96" y2="220.09" gradientTransform="matrix(1, 0, 0, -1, 3.7, 359)" gradientUnits="userSpaceOnUse"><stop offset="0.17" stop-color="#fff44f" stop-opacity="0.8"/><stop offset="0.27" stop-color="#fff44f" stop-opacity="0.63"/><stop offset="0.49" stop-color="#fff44f" stop-opacity="0.22"/><stop offset="0.6" stop-color="#fff44f" stop-opacity="0"/></linearGradient><linearGradient id="무제_그라디언트_3" x1="802.96" y1="128.73" x2="802.96" y2="293.8" gradientTransform="matrix(1, 0, 0, -1, -318.49, 298)" gradientUnits="userSpaceOnUse"><stop offset="0" stop-color="#bdbdbd"/><stop offset="1" stop-color="#fff"/></linearGradient><radialGradient id="무제_그라디언트_2" cx="773.49" cy="259.93" r="95.25" gradientTransform="matrix(0.87, 0, 0, -0.86, -189.05, 300.87)" gradientUnits="userSpaceOnUse"><stop offset="0" stop-color="#06c2e7"/><stop offset="0.25" stop-color="#0db8ec"/><stop offset="0.5" stop-color="#12aef1"/><stop offset="0.75" stop-color="#1f86f9"/><stop offset="1" stop-color="#107ddd"/></radialGradient></defs><title>자산 5</title><g id="레이어_2" data-name="레이어 2"><g id="레이어_1-2" data-name="레이어 1"><g class="cls-2"><path class="cls-3" d="M13.12.12V101.54h37L82.63,45.2h82.64V.12Z"/><path class="cls-4" d="M13.12.12V101.54h37L82.63,45.2h82.64V.12Z"/></g><g class="cls-2"><path class="cls-5" d="M51,101.21,13.6,37.07l-.55.93,37.13,63.67Z"/></g><g class="cls-2"><path class="cls-6" d="M0,165.39H78.66l36.51-36.51V101.54H50.11L0,15.6Z"/><path class="cls-7" d="M0,165.39H78.66l36.51-36.51V101.54H50.11L0,15.6Z"/></g><g class="cls-2"><path class="cls-8" d="M114.41,102.79l-.78-.45-36,63h1.08l35.78-62.57Z"/></g><g class="cls-2"><g class="cls-9"><path class="cls-10" d="M82.63,45.2l32.54,56.34L78.66,165.39h86.61V45.2Z"/><path class="cls-11" d="M82.63,45.2l32.54,56.34L78.66,165.39h86.61V45.2Z"/></g><g class="cls-2"><path class="cls-10" d="M82.63,45.2l32.54,56.34L78.66,165.39h86.61V45.2Z"/><path class="cls-11" d="M82.63,45.2l32.54,56.34L78.66,165.39h86.61V45.2Z"/></g><g class="cls-2"><g class="cls-12"><path class="cls-3" d="M13.12.12V101.54h37L82.63,45.2h82.64V.12Z"/><path class="cls-4" d="M13.12.12V101.54h37L82.63,45.2h82.64V.12Z"/></g><g class="cls-2"><path class="cls-13" d="M82.63,45.2V64.87L156.25,45.2Z"/></g><g class="cls-2"><g class="cls-14"><path class="cls-6" d="M0,165.39H78.66l36.51-36.51V101.54H50.11L0,15.6Z"/><path class="cls-7" d="M0,165.39H78.66l36.51-36.51V101.54H50.11L0,15.6Z"/></g><g class="cls-2"><path class="cls-15" d="M13.12,38.11,66.88,91.86l-16.77,9.68Z"/></g><g class="cls-2"><path class="cls-16" d="M78.72,165.29,98.4,91.86l16.77,9.68Z"/></g><g class="cls-2"><circle class="cls-17" cx="82.63" cy="82.76" r="37.56"/><circle class="cls-18" cx="82.63" cy="82.76" r="30.05"/></g><g class="cls-2"><path class="cls-19" d="M82.63,44.26A37.56,37.56,0,0,0,45.07,81.82v.94A37.56,37.56,0,0,1,82.63,45.2h82.64v-.94Z"/><path class="cls-20" d="M115.12,101.54a37.5,37.5,0,0,1-65,0h0L0,15.6v.94l50.11,85.94h0a37.5,37.5,0,0,0,65,0h.05v-.94Z"/><path class="cls-21" d="M83.57,45.2c-.16,0-.31,0-.47,0a37.53,37.53,0,0,1,0,75.06c.16,0,.31,0,.47,0a37.56,37.56,0,0,0,0-75.12Z"/><path class="cls-22" d="M115.5,102.79a37.5,37.5,0,0,0,3.29-30.1,37.64,37.64,0,0,1,1.41,10.08,37.23,37.23,0,0,1-5,18.74l0,0L78.66,165.4h1.09l35.77-62.57Z"/></g><g class="cls-2"><path class="cls-22" d="M82.63,1.06a82.64,82.64,0,0,1,82.63,82.17c0-.16,0-.31,0-.47A82.64,82.64,0,1,0,0,82.76c0,.16,0,.31,0,.47A82.63,82.63,0,0,1,82.63,1.06Z"/><path class="cls-5" d="M82.63,164.45a82.63,82.63,0,0,0,82.63-82.16c0,.16,0,.31,0,.47A82.64,82.64,0,0,1,0,82.76c0-.16,0-.31,0-.47A82.63,82.63,0,0,0,82.63,164.45Z"/></g><circle class="cls-23" cx="82.63" cy="82.76" r="82.63"/></g></g></g><path class="cls-24" d="M648.45,98.82a28.83,28.83,0,0,0,1.94,10.85,30.21,30.21,0,0,0,5.5,8.57,33.59,33.59,0,0,0,8.16,6.46,50.05,50.05,0,0,0,9.94,4.46,64.64,64.64,0,0,0,11,2.64,75.35,75.35,0,0,0,11.25.85,80.91,80.91,0,0,0,13.27-1,102.29,102.29,0,0,0,12.21-2.9,112.77,112.77,0,0,0,11.72-4.31c3.88-1.65,7.83-3.46,11.88-5.47v35a139.5,139.5,0,0,1-13.41,5.3c-4.44,1.44-8.88,2.71-13.41,3.72a112.17,112.17,0,0,1-13.8,2.27c-4.69.46-9.49.72-14.49.72a86.08,86.08,0,0,1-19.29-2.14,79,79,0,0,1-17.44-6.15,73,73,0,0,1-14.93-9.76A62.45,62.45,0,0,1,626.85,135a58.55,58.55,0,0,1-10.19-33.62,62.52,62.52,0,0,1,3-19.42,59.79,59.79,0,0,1,8.66-17A63.61,63.61,0,0,1,642.06,51.2a74.11,74.11,0,0,1,18.27-9.81,35.69,35.69,0,0,0-8.61,12.21,49.89,49.89,0,0,0-4,14.16H711a55.52,55.52,0,0,0-1.94-15.55,25.45,25.45,0,0,0-6.3-11.05,26.44,26.44,0,0,0-11.19-6.61A54.61,54.61,0,0,0,675,32.33a84.5,84.5,0,0,0-22.91,3.17,100.67,100.67,0,0,0-21.76,8.78,105.15,105.15,0,0,0-19,13.38,84.71,84.71,0,0,0-14.58,16.73,90.79,90.79,0,0,1,4.8-20.06,82.88,82.88,0,0,1,9-17.82,81.31,81.31,0,0,1,12.88-14.82,76.51,76.51,0,0,1,16.38-11.37A87,87,0,0,1,659.19,3,106.42,106.42,0,0,1,681.29.69a82.94,82.94,0,0,1,13.6,1.14A101.7,101.7,0,0,1,708.13,5,81.21,81.21,0,0,1,731,16.39,75.08,75.08,0,0,1,748,33.26a73.16,73.16,0,0,1,10.44,21.09A80,80,0,0,1,762,78.29V98.82Z"/><path id="path980" class="cls-25" d="M360.35,55.44c-3.59-8.37-10.88-17.41-16.59-20.27a81.57,81.57,0,0,1,8.38,24.31v.14C342.8,37,326.93,27.93,314,8.11c-.66-1-1.31-2-2-3.07-.37-.6-.66-1.15-.91-1.65A14.59,14.59,0,0,1,309.88.22a.21.21,0,0,0-.19-.21h-.15l0,0-.06,0,0,0C288.69,11.79,281.64,33.6,281,44.51A42.2,42.2,0,0,0,258.22,53a23.26,23.26,0,0,0-2.13-1.56,36,36,0,0,1-.24-19.58,61,61,0,0,0-19.91,14.9h0c-3.28-4-3.05-17.29-2.86-20.06a14.12,14.12,0,0,0-2.76,1.42,59.84,59.84,0,0,0-8.09,6.7,70.26,70.26,0,0,0-7.73,9h0v0a66.63,66.63,0,0,0-11.11,24.27l-.11.53c-.15.71-.71,4.24-.81,5a1.1,1.1,0,0,1,0,.18,74.46,74.46,0,0,0-1.34,11v.42c0,44.24,37.12,80.07,82.81,80,40.24,0,74.63-28.1,81.47-66.49.13-1,.25-2.06.37-3.1A79.86,79.86,0,0,0,360.35,55.44ZM265,118.14c.38.18.74.38,1.14.55l.06,0C265.8,118.54,265.4,118.34,265,118.14Zm87.16-58.51v0Z"/><path id="path982" class="cls-26" d="M360.35,55.44c-3.59-8.37-10.88-17.41-16.59-20.27a81.57,81.57,0,0,1,8.38,24.31v.16a70.39,70.39,0,0,1-2.57,54.06c-9.49,19.7-32.44,39.89-68.37,38.91-38.82-1.06-73-29-79.4-65.48-1.16-5.76,0-8.68.59-13.36a58,58,0,0,0-1.33,11v.42c0,44.24,37.12,80.07,82.81,80,40.24,0,74.63-28.1,81.47-66.49.13-1,.25-2.06.37-3.1A79.86,79.86,0,0,0,360.35,55.44Z"/><path id="path984" class="cls-27" d="M360.35,55.44c-3.59-8.37-10.88-17.41-16.59-20.27a81.57,81.57,0,0,1,8.38,24.31v.16a70.39,70.39,0,0,1-2.57,54.06c-9.49,19.7-32.44,39.89-68.37,38.91-38.82-1.06-73-29-79.4-65.48-1.16-5.76,0-8.68.59-13.36a58,58,0,0,0-1.33,11v.42c0,44.24,37.12,80.07,82.81,80,40.24,0,74.63-28.1,81.47-66.49.13-1,.25-2.06.37-3.1A79.86,79.86,0,0,0,360.35,55.44Z"/><path id="path986" class="cls-28" d="M320.15,64.86c.18.12.34.24.51.37A43.83,43.83,0,0,0,313,55.52c-25.72-24.9-6.74-54-3.54-55.46l0,0C288.69,11.79,281.64,33.6,281,44.51c1-.07,1.92-.15,2.91-.15A42,42,0,0,1,320.15,64.86Z"/><path id="path988" class="cls-29" d="M284,69.83c-.14,2-7.41,8.87-9.95,8.87-23.53,0-27.35,13.77-27.35,13.77,1,11.61,9.4,21.16,19.49,26.22.46.23.93.44,1.4.64.81.35,1.62.67,2.43,1a38.2,38.2,0,0,0,10.76,2C322,124.18,330,74.57,300.2,60.17a29.33,29.33,0,0,1,19.95,4.69,42,42,0,0,0-36.25-20.5c-1,0-1.95.08-2.91.15A42.2,42.2,0,0,0,258.22,53c1.26,1,2.69,2.42,5.68,5.28C269.52,63.63,283.92,69.18,284,69.83Z"/><path id="path990" class="cls-30" d="M284,69.83c-.14,2-7.41,8.87-9.95,8.87-23.53,0-27.35,13.77-27.35,13.77,1,11.61,9.4,21.16,19.49,26.22.46.23.93.44,1.4.64.81.35,1.62.67,2.43,1a38.2,38.2,0,0,0,10.76,2C322,124.18,330,74.57,300.2,60.17a29.33,29.33,0,0,1,19.95,4.69,42,42,0,0,0-36.25-20.5c-1,0-1.95.08-2.91.15A42.2,42.2,0,0,0,258.22,53c1.26,1,2.69,2.42,5.68,5.28C269.52,63.63,283.92,69.18,284,69.83Z"/><path id="path992" class="cls-31" d="M254.36,50.34c.67.41,1.23.77,1.71,1.1a35.89,35.89,0,0,1-.23-19.58,61.06,61.06,0,0,0-19.92,14.9C236.33,46.75,248.33,46.54,254.36,50.34Z"/><path id="path994" class="cls-32" d="M201.82,87.13c6.39,36.53,40.58,64.42,79.4,65.48,35.93,1,58.88-19.21,68.37-38.91a70.39,70.39,0,0,0,2.57-54.06v-.07c0-.06,0-.1,0-.08l0,.13c2.93,18.56-6.82,36.53-22.05,48.69l-.05.1c-29.69,23.41-58.1,14.12-63.85,10.33-.41-.18-.81-.38-1.21-.58-17.31-8-24.46-23.28-22.93-36.37a21.33,21.33,0,0,1-19.6-11.94,32.09,32.09,0,0,1,30.42-1.18A42.44,42.44,0,0,0,284,69.85c0-.65-14.44-6.2-20.05-11.55-3-2.86-4.42-4.24-5.68-5.28a24.86,24.86,0,0,0-2.14-1.56c-.49-.33-1-.68-1.71-1.1-6-3.8-18-3.59-18.43-3.58h0c-3.28-4-3.05-17.29-2.86-20.06a14.12,14.12,0,0,0-2.76,1.42,59.84,59.84,0,0,0-8.09,6.7,70.32,70.32,0,0,0-7.76,9h0v0a66.63,66.63,0,0,0-11.11,24.27C203.31,68.24,200.37,80.68,201.82,87.13Z"/><path id="path996" class="cls-33" d="M313,55.52a43.7,43.7,0,0,1,7.69,9.72c.45.33.88.66,1.24,1,18.76,16.74,8.93,40.4,8.2,42.09,15.23-12.16,25-30.13,22-48.68C342.8,37,326.93,27.93,314,8.11c-.66-1-1.31-2-2-3.07-.37-.6-.66-1.15-.91-1.65A14.59,14.59,0,0,1,309.88.22a.21.21,0,0,0-.19-.21h-.15l0,0-.06,0C306.24,1.53,287.26,30.62,313,55.52Z"/><path id="path998" class="cls-34" d="M321.89,66.21a15.36,15.36,0,0,0-1.24-1c-.16-.13-.33-.25-.51-.37a29.33,29.33,0,0,0-19.95-4.69c29.76,14.41,21.78,64-19.47,62.14a38.2,38.2,0,0,1-10.76-2c-.81-.3-1.62-.62-2.43-1-.47-.2-.94-.41-1.4-.64l.06,0c5.75,3.8,34.16,13.09,63.86-10.33l0-.1C330.83,106.61,340.66,82.94,321.89,66.21Z"/><path id="path1000" class="cls-35" d="M246.65,92.47S250.47,78.7,274,78.7c2.54,0,9.82-6.88,9.95-8.87a42.41,42.41,0,0,1-31.06-1.18,32.09,32.09,0,0,0-30.42,1.18,21.31,21.31,0,0,0,19.6,11.94c-1.54,13.09,5.61,28.36,22.93,36.37.38.18.74.38,1.14.55C256,113.63,247.7,104.08,246.65,92.47Z"/><path id="path1002" class="cls-36" d="M360.35,55.44c-3.59-8.37-10.88-17.41-16.59-20.27a81.57,81.57,0,0,1,8.38,24.31v.14C342.8,37,326.93,27.93,314,8.11c-.66-1-1.31-2-2-3.07-.37-.6-.66-1.15-.91-1.65A14.59,14.59,0,0,1,309.88.22a.21.21,0,0,0-.19-.21h-.15l0,0-.06,0,0,0C288.69,11.79,281.64,33.6,281,44.51c1-.07,1.92-.15,2.91-.15a42,42,0,0,1,36.25,20.5,29.33,29.33,0,0,0-19.95-4.69c29.76,14.41,21.77,64-19.47,62.14a38.2,38.2,0,0,1-10.76-2c-.81-.3-1.62-.62-2.43-1-.47-.2-.94-.41-1.4-.64l.06,0c-.4-.18-.8-.38-1.2-.58.38.18.74.38,1.14.55-10.1-5.06-18.44-14.61-19.49-26.22,0,0,3.82-13.77,27.35-13.77,2.54,0,9.82-6.88,9.95-8.87,0-.65-14.43-6.2-20.05-11.55-3-2.86-4.42-4.24-5.68-5.28a23.26,23.26,0,0,0-2.13-1.56,36,36,0,0,1-.24-19.58,61,61,0,0,0-19.91,14.9h0c-3.28-4-3.05-17.29-2.86-20.06a14.12,14.12,0,0,0-2.76,1.42,59.84,59.84,0,0,0-8.09,6.7,70.26,70.26,0,0,0-7.73,9h0v0a66.63,66.63,0,0,0-11.11,24.27l-.11.53c-.15.71-.85,4.29-1,5.06h0a89,89,0,0,0-1.22,11.16v.42c0,44.24,37.12,80.07,82.81,80,40.24,0,74.63-28.1,81.47-66.49.13-1,.25-2.06.37-3.1A79.86,79.86,0,0,0,360.35,55.44Zm-8.2,4.12v0Z"/><g id="layer1"><g id="g2858"><g id="path2226" class="cls-37"><ellipse cx="481.66" cy="94.21" rx="79.6" ry="76.29"/></g><path id="path826" class="cls-38" d="M564.29,87.48c0,45.42-37,82.24-82.63,82.24h0C436,169.72,399,132.9,399,87.48S436,5.23,481.66,5.23h0c45.64,0,82.63,36.82,82.63,82.25Z"/><path id="circle828" class="cls-39" d="M557.82,87.48c0,41.86-34.1,75.79-76.16,75.79h0c-42.06,0-76.16-33.93-76.16-75.79h0c0-41.87,34.1-75.8,76.16-75.8h0c42.06,0,76.16,33.93,76.16,75.8Z"/><path id="rect830" class="cls-40" d="M481.66,15.63a1.1,1.1,0,0,0-1.11,1.1V29.48a1.11,1.11,0,0,0,2.22,0V16.73A1.11,1.11,0,0,0,481.66,15.63Zm-7.26.46a.89.89,0,0,0-.23,0,1.1,1.1,0,0,0-1,1.21l.56,5.33A1.11,1.11,0,0,0,476,22.4l-.56-5.33A1.11,1.11,0,0,0,474.4,16.09Zm14.57,0a1.11,1.11,0,0,0-1,1l-.56,5.33a1.11,1.11,0,0,0,2.2.23l.57-5.33a1.12,1.12,0,0,0-1-1.22.89.89,0,0,0-.23,0Zm-22,1.07a.83.83,0,0,0-.22,0,1.11,1.11,0,0,0-.86,1.31L468.51,31a1.09,1.09,0,0,0,1.31.85,1.11,1.11,0,0,0,.86-1.31L468,18a1.12,1.12,0,0,0-1.1-.88Zm29.51,0a1.11,1.11,0,0,0-1.1.88l-2.66,12.47a1.11,1.11,0,0,0,.86,1.31,1.09,1.09,0,0,0,1.31-.85l2.67-12.47a1.11,1.11,0,0,0-.86-1.31l-.22,0Zm-36.63,2a1.13,1.13,0,0,0-.44.05,1.1,1.1,0,0,0-.71,1.39l1.67,5.1a1.11,1.11,0,0,0,2.11-.68l-1.67-5.1a1.1,1.1,0,0,0-1-.76Zm43.71,0a1.12,1.12,0,0,0-1,.76L500.89,25a1.11,1.11,0,0,0,2.11.69l1.67-5.1a1.11,1.11,0,0,0-.71-1.4,1.35,1.35,0,0,0-.44-.05Zm-50.75,2.57a1.09,1.09,0,0,0-1,1.55L457,34.93a1.11,1.11,0,0,0,2-.9L453.8,22.38A1.09,1.09,0,0,0,452.77,21.73Zm57.87,0a1.11,1.11,0,0,0-1,.65l-5.22,11.64a1.11,1.11,0,0,0,2,.9l5.22-11.64a1.09,1.09,0,0,0-1-1.55Zm-64.41,3.4a1.1,1.1,0,0,0-.63.14,1.11,1.11,0,0,0-.41,1.51l2.7,4.65a1.11,1.11,0,0,0,1.92-1.11l-2.69-4.64a1.1,1.1,0,0,0-.89-.55Zm70.86,0a1.1,1.1,0,0,0-.89.55l-2.69,4.64a1.1,1.1,0,0,0,.4,1.51,1.11,1.11,0,0,0,1.52-.4l2.69-4.65a1.1,1.1,0,0,0-1-1.65Zm-77.2,3.94a1.11,1.11,0,0,0-.87,1.75l7.53,10.32a1.11,1.11,0,1,0,1.79-1.3l-7.52-10.31a1.11,1.11,0,0,0-.93-.46Zm83.62.05a1.11,1.11,0,0,0-.93.46L515,39.93a1.1,1.1,0,0,0,.25,1.54,1.12,1.12,0,0,0,1.55-.24l7.53-10.31a1.11,1.11,0,0,0-.86-1.76Zm-89.3,4.68a1.12,1.12,0,0,0-.8.29,1.1,1.1,0,0,0-.08,1.56l3.6,4a1.11,1.11,0,1,0,1.65-1.48l-3.6-4a1.13,1.13,0,0,0-.77-.37Zm94.9,0a1.11,1.11,0,0,0-.76.37l-3.61,4a1.11,1.11,0,0,0,1.65,1.48l3.61-4a1.11,1.11,0,0,0-.08-1.56,1.13,1.13,0,0,0-.81-.29ZM428.77,39a1.11,1.11,0,0,0-.68,1.93l9.52,8.53a1.11,1.11,0,1,0,1.48-1.65l-9.51-8.52a1.13,1.13,0,0,0-.81-.29Zm105.81,0a1.1,1.1,0,0,0-.8.28l-9.53,8.52a1.11,1.11,0,1,0,1.49,1.65L535.26,41a1.11,1.11,0,0,0-.68-1.93ZM424.25,44.83a1.11,1.11,0,0,0-.93.46,1.09,1.09,0,0,0,.24,1.54L427.92,50a1.11,1.11,0,1,0,1.31-1.79L424.87,45a1.18,1.18,0,0,0-.62-.21Zm114.85,0a1.18,1.18,0,0,0-.62.21l-4.36,3.15a1.1,1.1,0,0,0-.25,1.54,1.12,1.12,0,0,0,1.56.25l4.36-3.15a1.11,1.11,0,0,0-.69-2ZM420,51a1.14,1.14,0,0,0-.89.55,1.11,1.11,0,0,0,.41,1.51l11.09,6.38a1.12,1.12,0,0,0,1.52-.41,1.1,1.1,0,0,0-.41-1.51l-11.09-6.37A1.11,1.11,0,0,0,420,51Zm123.26,0a1.11,1.11,0,0,0-.63.15l-11.09,6.37a1.09,1.09,0,0,0-.41,1.51,1.12,1.12,0,0,0,1.52.41l11.09-6.38a1.11,1.11,0,0,0,.41-1.51,1.14,1.14,0,0,0-.89-.55ZM416.83,57.58a1.11,1.11,0,0,0-.47,2.12l4.92,2.18a1.11,1.11,0,1,0,.9-2l-4.92-2.18A1.28,1.28,0,0,0,416.83,57.58Zm129.68.05a1.07,1.07,0,0,0-.43.09l-4.92,2.18a1.1,1.1,0,0,0-.57,1.46,1.11,1.11,0,0,0,1.47.56L547,59.74a1.1,1.1,0,0,0,.56-1.46,1.09,1.09,0,0,0-1-.65ZM414,64.46a1.12,1.12,0,0,0-1,.76,1.1,1.1,0,0,0,.72,1.39l12.17,4a1.11,1.11,0,0,0,1.4-.71,1.09,1.09,0,0,0-.71-1.39l-12.18-3.95a1.09,1.09,0,0,0-.44-.05Zm135.37.05a1,1,0,0,0-.44,0L536.73,68.5a1.11,1.11,0,1,0,.69,2.1l12.18-3.94a1.1,1.1,0,0,0,.71-1.39,1.09,1.09,0,0,0-1-.76ZM412.21,71.68a1.1,1.1,0,0,0-.24,2.18L417.24,75a1.11,1.11,0,0,0,1.32-.85,1.09,1.09,0,0,0-.86-1.31l-5.27-1.12-.22,0Zm138.9,0-.22,0-5.27,1.12a1.1,1.1,0,1,0,.46,2.16l5.27-1.12a1.1,1.1,0,0,0-.24-2.18ZM410.87,78.94a1.1,1.1,0,0,0,0,2.2l12.74,1.34a1.11,1.11,0,1,0,.23-2.2l-12.74-1.34ZM552.46,79h-.22L539.5,80.36a1.11,1.11,0,1,0,.23,2.2l12.74-1.33a1.1,1.1,0,0,0,1-1.21,1.12,1.12,0,0,0-1-1ZM410.65,86.37a1.11,1.11,0,1,0,0,2.21H416a1.11,1.11,0,1,0,0-2.21Zm136.63,0a1.11,1.11,0,1,0,0,2.21h5.39a1.11,1.11,0,1,0,0-2.21Zm-123.47,6a.81.81,0,0,0-.22,0l-12.74,1.32a1.11,1.11,0,1,0,.23,2.2l12.74-1.32a1.1,1.1,0,0,0,0-2.2Zm115.69.07a1.12,1.12,0,0,0-1,1,1.1,1.1,0,0,0,1,1.21L552.23,96a1.1,1.1,0,1,0,.23-2.19l-12.74-1.34Zm-122,7.47-.23,0L412,101.08a1.1,1.1,0,0,0,.46,2.16l5.27-1.11a1.11,1.11,0,0,0-.23-2.19Zm128.38,0a1.11,1.11,0,0,0-.24,2.19l5.27,1.11a1.11,1.11,0,1,0,.47-2.16L546.08,100a.91.91,0,0,0-.23,0ZM426.34,104.3a1.35,1.35,0,0,0-.44,0l-12.18,4a1.11,1.11,0,1,0,.69,2.1l12.18-3.94a1.11,1.11,0,0,0-.25-2.16Zm110.63,0a1.12,1.12,0,0,0-1,.76,1.11,1.11,0,0,0,.71,1.4l12.18,3.94a1.1,1.1,0,1,0,.68-2.1l-12.17-4a1.35,1.35,0,0,0-.44,0Zm-115.28,8.59a1.34,1.34,0,0,0-.43.1l-4.92,2.18a1.11,1.11,0,0,0,.9,2l4.92-2.18a1.1,1.1,0,0,0,.57-1.46,1.14,1.14,0,0,0-1-.66Zm119.92,0a1.11,1.11,0,0,0-1,.65,1.1,1.1,0,0,0,.57,1.46l4.92,2.19a1.11,1.11,0,0,0,.9-2L542,113.07a1.11,1.11,0,0,0-.43-.09Zm-110.34,2.39a1.11,1.11,0,0,0-.63.15l-11.09,6.37a1.11,1.11,0,0,0-.41,1.51,1.12,1.12,0,0,0,1.52.41l11.09-6.38a1.1,1.1,0,0,0,.41-1.51,1.12,1.12,0,0,0-.89-.55Zm100.77,0a1.12,1.12,0,0,0-.88.55,1.09,1.09,0,0,0,.41,1.51l11.09,6.38a1.12,1.12,0,0,0,1.52-.41,1.11,1.11,0,0,0-.41-1.51l-11.09-6.37a1.12,1.12,0,0,0-.64-.15Zm-103.53,9.35a1.11,1.11,0,0,0-.62.22l-4.36,3.15a1.09,1.09,0,0,0-.24,1.54,1.11,1.11,0,0,0,1.55.24l4.36-3.14a1.11,1.11,0,0,0-.69-2Zm106.27,0a1.11,1.11,0,0,0-.69,2l4.36,3.15a1.11,1.11,0,0,0,1.55-.24,1.09,1.09,0,0,0-.24-1.54L535.4,125a1.18,1.18,0,0,0-.62-.21Zm-96.4.38a1.12,1.12,0,0,0-.8.29L428.06,134a1.1,1.1,0,0,0-.09,1.56,1.12,1.12,0,0,0,1.57.08l9.53-8.52a1.11,1.11,0,0,0,.08-1.56A1.13,1.13,0,0,0,438.38,125.14Zm86.53,0a1.15,1.15,0,0,0-.77.37,1.11,1.11,0,0,0,.08,1.56l9.52,8.53a1.12,1.12,0,0,0,1.57-.08,1.1,1.1,0,0,0-.08-1.56l-9.52-8.53a1.12,1.12,0,0,0-.8-.29Zm-77.49,8.1a1.12,1.12,0,0,0-.94.46L439,144a1.11,1.11,0,1,0,1.79,1.3l7.54-10.3a1.11,1.11,0,0,0-.25-1.55A1.15,1.15,0,0,0,447.42,133.27Zm68.42,0a1,1,0,0,0-.62.21,1.08,1.08,0,0,0-.24,1.54l7.52,10.32a1.11,1.11,0,0,0,1.55.24,1.1,1.1,0,0,0,.24-1.54l-7.52-10.32a1.07,1.07,0,0,0-.93-.45Zm-78.15,1.59a1.09,1.09,0,0,0-.76.36l-3.61,4a1.11,1.11,0,0,0,.08,1.56,1.12,1.12,0,0,0,1.57-.08l3.61-4a1.1,1.1,0,0,0-.09-1.56,1.08,1.08,0,0,0-.8-.28Zm87.93,0a1.1,1.1,0,0,0-.8.29,1.09,1.09,0,0,0-.08,1.56l3.6,4a1.11,1.11,0,0,0,1.65-1.48l-3.6-4a1.15,1.15,0,0,0-.77-.37Zm-67.68,4.42a1.1,1.1,0,0,0-1,.66l-5.22,11.64a1.1,1.1,0,0,0,.56,1.46,1.11,1.11,0,0,0,1.47-.56l5.21-11.64a1.1,1.1,0,0,0-.56-1.46,1.28,1.28,0,0,0-.43-.1Zm47.37,0a1.07,1.07,0,0,0-.43.09,1.1,1.1,0,0,0-.57,1.46l5.2,11.65a1.11,1.11,0,0,0,1.47.56,1.1,1.1,0,0,0,.56-1.46L506.34,140a1.1,1.1,0,0,0-1-.65Zm-56.54,3.56a1.12,1.12,0,0,0-.88.55l-2.7,4.65a1.11,1.11,0,0,0,.41,1.51,1.12,1.12,0,0,0,1.52-.41l2.69-4.64a1.09,1.09,0,0,0-.41-1.51,1.11,1.11,0,0,0-.63-.15Zm65.78,0a1.21,1.21,0,0,0-.64.15,1.1,1.1,0,0,0-.4,1.51l2.69,4.64a1.12,1.12,0,0,0,1.52.41,1.1,1.1,0,0,0,.4-1.51l-2.69-4.65a1.12,1.12,0,0,0-.88-.55Zm-45,.17a1.09,1.09,0,0,0-1.09.88l-2.67,12.46a1.11,1.11,0,0,0,2.18.46l2.66-12.47a1.11,1.11,0,0,0-.86-1.31l-.22,0Zm24.16,0-.22,0a1.11,1.11,0,0,0-.86,1.31l2.65,12.47a1.11,1.11,0,0,0,2.18-.46L494.81,144a1.09,1.09,0,0,0-1.09-.87Zm-12.06,1.26a1.1,1.1,0,0,0-1.11,1.1v12.75a1.11,1.11,0,0,0,2.22,0V145.47A1.11,1.11,0,0,0,481.66,144.37Zm-20.38,4.11a1.12,1.12,0,0,0-1,.76l-1.67,5.1a1.11,1.11,0,0,0,2.11.69l1.67-5.1a1.1,1.1,0,0,0-.71-1.39,1.14,1.14,0,0,0-.44-.06Zm40.75,0a1,1,0,0,0-.44,0,1.1,1.1,0,0,0-.71,1.39l1.67,5.1a1.11,1.11,0,0,0,2.11-.68l-1.67-5.1a1.09,1.09,0,0,0-1-.76Zm-27.34,2.84a1.11,1.11,0,0,0-1,1l-.56,5.33a1.11,1.11,0,0,0,2.21.24l.56-5.34a1.09,1.09,0,0,0-1-1.21A.81.81,0,0,0,474.69,151.33Zm13.89,0a.81.81,0,0,0-.22,0,1.12,1.12,0,0,0-1,1.22l.56,5.33a1.11,1.11,0,0,0,2.21-.23l-.56-5.33a1.12,1.12,0,0,0-1-1Z"/><g id="path2150" class="cls-41"><polygon points="533.7 43.27 472.95 78.4 434.54 138.58 490.73 97.16 533.7 43.27"/></g><g id="g2847"><path id="path2096" class="cls-42" d="M490.37,96.55,473,78.4,534.72,37Z"/><path id="path2099" class="cls-17" d="M490.37,96.55,473,78.4,428.6,137.91Z"/><path id="path2112" class="cls-43" d="M428.6,137.91l61.77-41.36L534.72,37Z"/></g></g></g></g></g></svg>