<svg xmlns="http://www.w3.org/2000/svg" viewBox="0 0 617 376"><defs><style>.cls-1{fill:#00aa94;}.cls-1,.cls-5{stroke:#000;stroke-miterlimit:10;}.cls-1,.cls-2{opacity:0.8;}.cls-3{opacity:0.5;}.cls-4{fill:#666;}.cls-5{fill:none;}.cls-6{font-size:18px;font-family:NanumGothic, Nanum Gothic;}</style></defs><title>자산 13</title><g id="레이어_2" data-name="레이어 2"><g id="레이어_1-2" data-name="레이어 1"><rect class="cls-1" x="489.5" y="107.49" width="52" height="52" rx="26" ry="26" transform="translate(382.01 648.99) rotate(-90)"/><rect class="cls-1" x="522.5" y="199.49" width="52" height="52" rx="26" ry="26" transform="translate(323.01 773.99) rotate(-90)"/><rect class="cls-1" x="564.5" y="287.49" width="52" height="52" rx="26" ry="26" transform="translate(277.01 903.99) rotate(-90)"/><g class="cls-2"><path d="M508.83,124.11a55,55,0,0,1-.7,8.09,1.52,1.52,0,0,0,2.2,1.69c3.56-1.8,6.07,3.89,5.41,6.29-.52,1.85-6.13,4.46-7.2,1.18-.6-1.83-3.5-1-2.89.8,1.69,5.16,11.59,4.73,12.94-.57,1.45-5.69-3.59-13.42-9.77-10.29L511,133a58.75,58.75,0,0,0,.81-8.88,1.5,1.5,0,0,0-3,0Z"/></g><g class="cls-2"><path d="M512,126.09l6.58-.54c1.91-.15,1.92-3.15,0-3l-6.58.54c-1.91.16-1.93,3.16,0,3Z"/></g><rect class="cls-1" x="176.5" y="112.49" width="52" height="52" rx="26" ry="26" transform="translate(64.01 340.99) rotate(-90)"/><g class="cls-3"><path class="cls-4" d="M557.92,357.88a1.19,1.19,0,0,1,2.38,0,1.19,1.19,0,0,1-2.38,0Zm.31,3.22H560v10.2h-1.73Z"/><path class="cls-4" d="M563.41,361.1h1.42l.15,1.47H565a4.85,4.85,0,0,1,3.42-1.72c2.15,0,3.12,1.38,3.12,4v6.46h-1.73v-6.24c0-1.9-.58-2.71-1.93-2.71-1,0-1.76.53-2.79,1.56v7.39h-1.72Z"/><path class="cls-4" d="M574.11,373.27a2.86,2.86,0,0,1,1.5-2.31v-.09a1.89,1.89,0,0,1-.92-1.67,2.43,2.43,0,0,1,1.13-1.89v-.09a3.53,3.53,0,0,1-1.32-2.74,3.62,3.62,0,0,1,3.83-3.63,4.18,4.18,0,0,1,1.44.25h3.56v1.33h-2.1a3,3,0,0,1,.83,2.1,3.68,3.68,0,0,1-5.25,3.19,1.51,1.51,0,0,0-.66,1.21c0,.65.42,1.11,1.79,1.11h2c2.37,0,3.56.74,3.56,2.43,0,1.9-2,3.53-5.16,3.53C575.83,376,574.11,375,574.11,373.27Zm7.69-.54c0-.94-.71-1.27-2-1.27H578a5.83,5.83,0,0,1-1.33-.15,2.13,2.13,0,0,0-1,1.71c0,1.1,1.1,1.79,3,1.79S581.8,373.8,581.8,372.73Zm-1.31-8.25a2.17,2.17,0,1,0-4.33,0,2.18,2.18,0,1,0,4.33,0Z"/><path class="cls-4" d="M584.7,373.27a2.86,2.86,0,0,1,1.5-2.31v-.09a1.89,1.89,0,0,1-.92-1.67,2.43,2.43,0,0,1,1.13-1.89v-.09a3.53,3.53,0,0,1-1.32-2.74,3.62,3.62,0,0,1,3.83-3.63,4.18,4.18,0,0,1,1.44.25h3.56v1.33h-2.1a3,3,0,0,1,.83,2.1,3.68,3.68,0,0,1-5.25,3.19,1.51,1.51,0,0,0-.66,1.21c0,.65.42,1.11,1.79,1.11h2c2.37,0,3.56.74,3.56,2.43,0,1.9-2,3.53-5.16,3.53C586.42,376,584.7,375,584.7,373.27Zm7.69-.54c0-.94-.71-1.27-2-1.27h-1.76a5.83,5.83,0,0,1-1.33-.15,2.13,2.13,0,0,0-1,1.71c0,1.1,1.1,1.79,3,1.79S592.39,373.8,592.39,372.73Zm-1.31-8.25a2.17,2.17,0,1,0-4.33,0,2.18,2.18,0,1,0,4.33,0Z"/><path class="cls-4" d="M595.71,370.25a1.25,1.25,0,1,1,1.25,1.31A1.26,1.26,0,0,1,595.71,370.25Z"/><path class="cls-4" d="M601,357.88a1.2,1.2,0,0,1,2.39,0,1.2,1.2,0,0,1-2.39,0Zm.32,3.22H603v10.2H601.3Z"/><path class="cls-4" d="M605.71,366.21c0-3.4,2.23-5.36,4.73-5.36s4.73,2,4.73,5.36-2.23,5.35-4.73,5.35S605.71,369.59,605.71,366.21Zm7.68,0c0-2.33-1.19-3.92-2.95-3.92s-2.94,1.59-2.94,3.92,1.19,3.91,2.94,3.91S613.39,368.55,613.39,366.21Z"/></g><line class="cls-5" x1="140.5" y1="74.49" x2="117.5" y2="115.49"/><line class="cls-5" x1="169.5" y1="72.49" x2="194.32" y2="113.85"/><rect class="cls-1" x="127.5" y="25.49" width="52" height="52" rx="26" ry="26" transform="translate(102.01 204.99) rotate(-90)"/><rect class="cls-1" x="75.5" y="109.49" width="52" height="52" rx="26" ry="26" transform="translate(-33.99 236.99) rotate(-90)"/><g class="cls-2"><path d="M99.77,123.89a202.12,202.12,0,0,1-12.11,17.48,1.51,1.51,0,0,0,1.82,2.36,80.5,80.5,0,0,1,22.69-7.2c1.9-.31,1.1-3.2-.79-2.89A83.24,83.24,0,0,0,88,141.14l1.82,2.35a208.52,208.52,0,0,0,12.58-18.09c1-1.64-1.58-3.15-2.59-1.51Z"/></g><g class="cls-2"><path d="M99.25,127.05v21.3a1.5,1.5,0,0,0,3,0v-21.3a1.5,1.5,0,0,0-3,0Z"/></g><g class="cls-2"><path d="M145.39,50.09l12.48-6.61-2.21-1.69a80.79,80.79,0,0,0-2.15,24.4c.12,1.92,3.12,1.93,3,0a77.87,77.87,0,0,1,2.05-23.61,1.52,1.52,0,0,0-2.21-1.69L143.88,47.5c-1.71.9-.2,3.49,1.51,2.59Z"/></g><g class="cls-2"><path d="M207,130.29c-3.9-.27-8.42-.21-10.94,3.31-2,2.78-2.76,7.32,0,9.82s7.46,2.32,10.28,0c3.11-2.61,3.5-6.87,3.11-10.64-.2-1.89-3.14-2-3,0q.69,9.76,1.86,19.47c.23,1.9,3.23,1.92,3,0q-1.17-9.71-1.86-19.47h-3a14.05,14.05,0,0,1-.17,5.21c-.81,2.93-4.61,6-7.69,3.62-3.3-2.58,0-7.2,2.6-8a15.45,15.45,0,0,1,5.83-.25c1.93.13,1.92-2.87,0-3Z"/></g><g class="cls-2"><path d="M550.52,226.09c3.2-2.2,6.86-7.29,3.8-11.1-2.55-3.18-8.88-2-11.26.83-3.36,4,.7,8,4.33,9.58,1.27.56,2.91.79,4.05,1.5,5.13,3.22,3.83,7.68-1.25,8.72-3.78.77-6.27-2.34-3.58-5.6a30.59,30.59,0,0,1,4.25-4.11c1.49-1.22-.64-3.33-2.12-2.12-3,2.5-9.29,7.82-6.75,12.53,2,3.72,9.58,3,12.68,1.59,4-1.78,4-8.53,1.54-11.58-1.37-1.7-3.52-2.11-5.46-2.82a19.63,19.63,0,0,1-3.68-1.58q-3.48-4.73.63-5.45c2.3-1,3.78.07,4.45,3.11A7.07,7.07,0,0,1,549,223.5c-1.58,1.09-.08,3.69,1.51,2.59Z"/></g><g class="cls-2"><path d="M594.72,305.8c-9,1.84-7.56,19.53,2.46,18.72,9.79-.8,5.77-17.28-1.72-19-1.88-.43-2.68,2.46-.8,2.89,4.11.95,8.19,10.76,3.16,12.91-6.64,2.83-8.36-11.36-2.31-12.61,1.89-.38,1.09-3.28-.79-2.89Z"/></g><line class="cls-5" x1="97.5" y1="161.49" x2="74.5" y2="202.49"/><rect class="cls-1" x="42.5" y="201.49" width="52" height="52" rx="26" ry="26" transform="translate(-158.99 295.99) rotate(-90)"/><g class="cls-2"><path d="M60.5,224.56a21.65,21.65,0,0,1,5.68-4.28c1.47-.73,2.65-1.64,3.92-.45s.84,2.69.42,4.35c-1.27,5.08-5.09,8.85-8.86,12.23-1.28,1.15.36,3.21,1.82,2.36a25.58,25.58,0,0,1,16-3.43c1.92.19,1.9-2.81,0-3A28.28,28.28,0,0,0,62,236.18l1.82,2.35c3.24-2.91,6.43-6.05,8.33-10,1.33-2.81,2.73-7.3,1.4-10.38-2.66-6.21-12.52,1.66-15.13,4.32-1.36,1.38.76,3.51,2.12,2.13Z"/></g><line class="cls-5" x1="55.5" y1="249.49" x2="32.5" y2="290.49"/><rect class="cls-1" x="0.5" y="289.49" width="52" height="52" rx="26" ry="26" transform="translate(-288.99 341.99) rotate(-90)"/><g class="cls-2"><path d="M25.36,312.31a25.47,25.47,0,0,1,4.52-5.45l-2.5-1.46c-2.67,7.7-3.18,15.94-4.24,24-.25,1.91,2.76,1.89,3,0,1-7.8,1.55-15.73,4.13-23.19.51-1.5-1.48-2.41-2.51-1.46a28.18,28.18,0,0,0-5,6.05c-1,1.65,1.57,3.16,2.59,1.52Z"/></g><g class="cls-2"><path d="M581.36,309.31a25.47,25.47,0,0,1,4.52-5.45l-2.5-1.46c-2.67,7.7-3.18,15.94-4.24,24-.25,1.91,2.76,1.89,3,0,1-7.8,1.55-15.73,4.13-23.19.51-1.5-1.48-2.41-2.51-1.46a28.18,28.18,0,0,0-5,6.05c-1,1.65,1.57,3.16,2.59,1.52Z"/></g><rect class="cls-1" x="388.5" y="110.49" width="52" height="52" rx="26" ry="26" transform="translate(278.01 550.99) rotate(-90)"/><line class="cls-5" x1="476.5" y1="72.49" x2="499.5" y2="113.49"/><line class="cls-5" x1="447.5" y1="70.49" x2="422.68" y2="111.85"/><rect class="cls-1" x="437.5" y="23.49" width="52" height="52" rx="26" ry="26" transform="translate(414.01 512.99) rotate(-90)"/><line class="cls-5" x1="519.5" y1="159.49" x2="542.5" y2="200.49"/><line class="cls-5" x1="561.5" y1="247.49" x2="584.5" y2="288.49"/><g class="cls-2"><path d="M459.23,44.25c1-5.18,10.65-5.37,9.84.34-.44,3.12-3.85,3.17-6.37,3.58-1.62.27-1.21,2.42,0,2.9,3.21,1.25,6.08,3.82,4.67,7.78-1,2.83-8.55,4.29-9.59.3a1.5,1.5,0,0,0-2.89.8c1.38,5.31,10.81,6.29,14.14,2.27,4.7-5.67-.14-11.94-5.53-14v2.9c2.87-.48,7.13-1.15,8.3-4.19.93-2.42.35-6.51-1.44-8.46-4.18-4.57-13-.44-14,5-.36,1.88,2.53,2.69,2.89.79Z"/></g><g class="cls-2"><path d="M405.5,134.56a21.65,21.65,0,0,1,5.68-4.28c1.47-.73,2.65-1.64,3.92-.45s.84,2.69.42,4.35c-1.27,5.08-5.09,8.85-8.86,12.23-1.28,1.15.36,3.21,1.82,2.36a25.58,25.58,0,0,1,15.95-3.43c1.92.19,1.9-2.81,0-3A28.28,28.28,0,0,0,407,146.18l1.82,2.35c3.24-2.91,6.43-6.05,8.33-10,1.33-2.81,2.73-7.3,1.4-10.38-2.66-6.21-12.52,1.66-15.13,4.32-1.36,1.38.76,3.51,2.12,2.13Z"/></g><text class="cls-6" transform="translate(138.89 15.4)"><tspan xml:space="preserve"> +2</tspan></text><text class="cls-6" transform="translate(447.89 14.4)"><tspan xml:space="preserve"> -2</tspan></text><text class="cls-6" transform="translate(72.89 98.4)"><tspan xml:space="preserve"> +2</tspan></text><text class="cls-6" transform="translate(33.89 189.4)"><tspan xml:space="preserve"> +1</tspan></text><text class="cls-6" transform="translate(202.89 100.4)">0</text><text class="cls-6" transform="translate(400.89 98.4)">0</text><text class="cls-6" transform="translate(586.89 273.4)">0</text><text class="cls-6" transform="translate(8.89 280.4)">0</text><text class="cls-6" transform="translate(506.89 96.4)"><tspan xml:space="preserve"> -2</tspan></text><text class="cls-6" transform="translate(548.89 189.4)"><tspan xml:space="preserve"> -1</tspan></text></g></g></svg>