<svg xmlns="http://www.w3.org/2000/svg" viewBox="0 0 552.17 306"><defs><style>.cls-1{fill:#c1272d;}.cls-2{opacity:0.5;}.cls-3{fill:#666;}.cls-4,.cls-6{fill:#00aa94;}.cls-4,.cls-6,.cls-7,.cls-8{stroke:#000;}.cls-10,.cls-4,.cls-6,.cls-7,.cls-8{stroke-miterlimit:10;}.cls-4,.cls-5{opacity:0.8;}.cls-6,.cls-7{opacity:0.2;}.cls-10,.cls-7,.cls-8{fill:none;}.cls-9{font-size:18px;font-family:NanumGothic, Nanum Gothic;}.cls-10{stroke:#c1272d;}</style></defs><title>자산 14</title><g id="레이어_2" data-name="레이어 2"><g id="레이어_1-2" data-name="레이어 1"><polygon class="cls-1" points="257 175.99 258.06 130.47 280.19 155.4 257 175.99"/><g class="cls-2"><path class="cls-3" d="M494.92,287.88a1.19,1.19,0,0,1,2.38,0,1.19,1.19,0,0,1-2.38,0Zm.31,3.22H497v10.2h-1.73Z"/><path class="cls-3" d="M500.41,291.1h1.42l.15,1.47H502a4.85,4.85,0,0,1,3.42-1.72c2.15,0,3.12,1.38,3.12,4v6.46h-1.73v-6.24c0-1.9-.58-2.71-1.93-2.71-1,0-1.76.53-2.79,1.56v7.39h-1.72Z"/><path class="cls-3" d="M511.11,303.27a2.86,2.86,0,0,1,1.5-2.31v-.09a1.89,1.89,0,0,1-.92-1.67,2.43,2.43,0,0,1,1.13-1.89v-.09a3.53,3.53,0,0,1-1.32-2.74,3.62,3.62,0,0,1,3.83-3.63,4.18,4.18,0,0,1,1.44.25h3.56v1.33h-2.1a3,3,0,0,1,.83,2.1,3.68,3.68,0,0,1-5.25,3.19,1.51,1.51,0,0,0-.66,1.21c0,.65.42,1.11,1.79,1.11h2c2.37,0,3.56.74,3.56,2.43,0,1.9-2,3.53-5.16,3.53C512.83,306,511.11,305,511.11,303.27Zm7.69-.54c0-.94-.71-1.27-2-1.27H515a5.83,5.83,0,0,1-1.33-.15,2.13,2.13,0,0,0-1,1.71c0,1.1,1.1,1.79,3,1.79S518.8,303.8,518.8,302.73Zm-1.31-8.25a2.17,2.17,0,1,0-4.33,0,2.18,2.18,0,1,0,4.33,0Z"/><path class="cls-3" d="M521.7,303.27a2.86,2.86,0,0,1,1.5-2.31v-.09a1.89,1.89,0,0,1-.92-1.67,2.43,2.43,0,0,1,1.13-1.89v-.09a3.53,3.53,0,0,1-1.32-2.74,3.62,3.62,0,0,1,3.83-3.63,4.18,4.18,0,0,1,1.44.25h3.56v1.33h-2.1a3,3,0,0,1,.83,2.1,3.68,3.68,0,0,1-5.25,3.19,1.51,1.51,0,0,0-.66,1.21c0,.65.42,1.11,1.79,1.11h2c2.37,0,3.56.74,3.56,2.43,0,1.9-2,3.53-5.16,3.53C523.42,306,521.7,305,521.7,303.27Zm7.69-.54c0-.94-.71-1.27-2-1.27h-1.76a5.83,5.83,0,0,1-1.33-.15,2.13,2.13,0,0,0-1,1.71c0,1.1,1.1,1.79,3,1.79S529.39,303.8,529.39,302.73Zm-1.31-8.25a2.17,2.17,0,1,0-4.33,0,2.18,2.18,0,1,0,4.33,0Z"/><path class="cls-3" d="M532.71,300.25a1.25,1.25,0,1,1,1.25,1.31A1.26,1.26,0,0,1,532.71,300.25Z"/><path class="cls-3" d="M538,287.88a1.2,1.2,0,0,1,2.39,0,1.2,1.2,0,0,1-2.39,0Zm.32,3.22H540v10.2H538.3Z"/><path class="cls-3" d="M542.71,296.21c0-3.4,2.23-5.36,4.73-5.36s4.73,2,4.73,5.36-2.23,5.35-4.73,5.35S542.71,299.59,542.71,296.21Zm7.68,0c0-2.33-1.19-3.92-2.95-3.92s-2.94,1.59-2.94,3.92,1.19,3.91,2.94,3.91S550.39,298.55,550.39,296.21Z"/></g><rect class="cls-4" x="81.5" y="27.49" width="52" height="52" rx="26" ry="26" transform="translate(54.01 160.99) rotate(-90)"/><g class="cls-5"><path d="M105.77,41.89A202.12,202.12,0,0,1,93.66,59.37a1.51,1.51,0,0,0,1.82,2.36,80.5,80.5,0,0,1,22.69-7.2c1.9-.31,1.1-3.2-.79-2.89A83.24,83.24,0,0,0,94,59.14l1.82,2.35A208.52,208.52,0,0,0,108.36,43.4c1-1.64-1.58-3.15-2.59-1.51Z"/></g><g class="cls-5"><path d="M105.25,45.05v21.3a1.5,1.5,0,0,0,3,0V45.05a1.5,1.5,0,0,0-3,0Z"/></g><rect class="cls-4" x="466.5" y="207.49" width="52" height="52" rx="26" ry="26" transform="translate(259.01 725.99) rotate(-90)"/><g class="cls-5"><path d="M490.77,221.89a202.12,202.12,0,0,1-12.11,17.48,1.51,1.51,0,0,0,1.82,2.36,80.5,80.5,0,0,1,22.69-7.2c1.9-.31,1.1-3.2-.79-2.89a83.24,83.24,0,0,0-23.42,7.5l1.82,2.35a208.52,208.52,0,0,0,12.58-18.09c1-1.64-1.58-3.15-2.59-1.51Z"/></g><g class="cls-5"><path d="M490.25,225.05v21.3a1.5,1.5,0,0,0,3,0v-21.3a1.5,1.5,0,0,0-3,0Z"/></g><path class="cls-6" d="M522.5,53.49h0a26,26,0,0,1-26,26h0a26,26,0,0,1-26-26h0a26,26,0,1,1,52,0Z"/><line class="cls-7" x1="479.5" y1="72.49" x2="448.5" y2="122.49"/><line class="cls-8" x1="97.5" y1="77.49" x2="74.5" y2="118.49"/><rect class="cls-4" x="42.5" y="117.49" width="52" height="52" rx="26" ry="26" transform="translate(-74.99 211.99) rotate(-90)"/><g class="cls-5"><path d="M60.5,140.56a21.65,21.65,0,0,1,5.68-4.28c1.47-.73,2.65-1.64,3.92-.45s.84,2.69.42,4.35c-1.27,5.08-5.09,8.85-8.86,12.23-1.28,1.15.36,3.21,1.82,2.36a25.58,25.58,0,0,1,16-3.43c1.92.19,1.9-2.81,0-3A28.28,28.28,0,0,0,62,152.18l1.82,2.35c3.24-2.91,6.43-6.05,8.33-10,1.33-2.81,2.73-7.3,1.4-10.38-2.66-6.21-12.52,1.66-15.13,4.32-1.36,1.38.76,3.51,2.12,2.13Z"/></g><line class="cls-8" x1="55.5" y1="165.49" x2="32.5" y2="206.49"/><line class="cls-8" x1="451.5" y1="168.49" x2="479.5" y2="210.49"/><rect class="cls-4" x="0.5" y="205.49" width="52" height="52" rx="26" ry="26" transform="translate(-204.99 257.99) rotate(-90)"/><g class="cls-5"><path d="M25.36,228.31a25.47,25.47,0,0,1,4.52-5.45l-2.5-1.46c-2.67,7.7-3.18,15.94-4.24,24-.25,1.91,2.76,1.89,3,0,1-7.8,1.55-15.73,4.13-23.19.51-1.5-1.48-2.41-2.51-1.46a28.18,28.18,0,0,0-5,6c-1,1.65,1.57,3.16,2.59,1.52Z"/></g><text class="cls-9" transform="translate(72.89 14.4)"><tspan xml:space="preserve"> +2</tspan></text><text class="cls-9" transform="translate(33.89 105.4)"><tspan xml:space="preserve"> +1</tspan></text><text class="cls-9" transform="translate(8.89 196.4)">0</text><rect class="cls-4" x="411.5" y="120.49" width="52" height="52" rx="26" ry="26" transform="translate(291.01 583.99) rotate(-90)"/><g class="cls-5"><path d="M429.5,143.56a21.65,21.65,0,0,1,5.68-4.28c1.47-.73,2.65-1.64,3.92-.45s.84,2.69.42,4.35c-1.27,5.08-5.09,8.85-8.86,12.23-1.28,1.15.36,3.21,1.82,2.36a25.58,25.58,0,0,1,15.95-3.43c1.92.19,1.9-2.81,0-3A28.28,28.28,0,0,0,431,155.18l1.82,2.35c3.24-2.91,6.43-6.05,8.33-10,1.33-2.81,2.73-7.3,1.4-10.38-2.66-6.21-12.52,1.66-15.13,4.32-1.36,1.38.76,3.51,2.12,2.13Z"/></g><line class="cls-8" x1="424.5" y1="168.49" x2="401.5" y2="209.49"/><rect class="cls-4" x="369.5" y="208.49" width="52" height="52" rx="26" ry="26" transform="translate(161.01 629.99) rotate(-90)"/><g class="cls-5"><path d="M394.36,231.31a25.47,25.47,0,0,1,4.52-5.45l-2.5-1.46c-2.67,7.7-3.18,15.94-4.24,24-.25,1.91,2.76,1.89,3,0,1-7.8,1.55-15.73,4.13-23.19.51-1.5-1.48-2.41-2.51-1.46a28.18,28.18,0,0,0-5,6c-1,1.65,1.57,3.16,2.59,1.52Z"/></g><path class="cls-10" d="M514.5,77.49c19,8.93,32.44,28.6,35,51.46,2.84,25.41-8.19,50.72-28,64"/><polygon class="cls-1" points="519.85 187.22 527.55 193.61 517.43 197.92 519.85 187.22"/></g></g></svg>