<svg xmlns="http://www.w3.org/2000/svg" viewBox="0 0 539.17 241.01"><defs><style>.cls-1{fill:#00aa94;}.cls-1,.cls-6{stroke:#000;stroke-miterlimit:10;}.cls-1,.cls-3{opacity:0.8;}.cls-2{fill:#c1272d;}.cls-4{opacity:0.5;}.cls-5{fill:#666;}.cls-6{fill:none;}</style></defs><title>자산 15</title><g id="레이어_2" data-name="레이어 2"><g id="레이어_1-2" data-name="레이어 1"><rect class="cls-1" x="52.5" y="84.5" width="52" height="52" rx="26" ry="26" transform="translate(-32 189) rotate(-90)"/><rect class="cls-1" x="85.5" y="176.5" width="52" height="52" rx="26" ry="26" transform="translate(-91 314) rotate(-90)"/><polygon class="cls-2" points="235 134 236.06 88.48 258.19 113.41 235 134"/><g class="cls-3"><path d="M71.83,101.11a54.76,54.76,0,0,1-.7,8.09,1.52,1.52,0,0,0,2.2,1.7c3.56-1.8,6.07,3.89,5.41,6.29-.52,1.85-6.13,4.46-7.2,1.18-.6-1.83-3.5-1.05-2.89.8,1.69,5.16,11.59,4.73,12.94-.57,1.45-5.69-3.59-13.42-9.77-10.29L74,110a58.76,58.76,0,0,0,.81-8.89c0-1.93-3-1.93-3,0Z"/></g><g class="cls-3"><path d="M75,103.1l6.58-.54c1.91-.15,1.92-3.16,0-3L75,100.1c-1.91.15-1.93,3.15,0,3Z"/></g><rect class="cls-1" x="433.5" y="40.5" width="52" height="52" rx="26" ry="26" transform="translate(393 526) rotate(-90)"/><g class="cls-3"><path d="M452.83,57.11a54.76,54.76,0,0,1-.7,8.09,1.52,1.52,0,0,0,2.2,1.7c3.56-1.8,6.07,3.89,5.41,6.29-.52,1.85-6.13,4.46-7.2,1.18-.6-1.83-3.5-1.05-2.89.8,1.69,5.16,11.59,4.73,12.94-.57,1.45-5.69-3.59-13.42-9.77-10.29L455,66a58.76,58.76,0,0,0,.81-8.89c0-1.93-3-1.93-3,0Z"/></g><g class="cls-3"><path d="M456,59.1l6.58-.54c1.91-.15,1.92-3.16,0-3L456,56.1c-1.91.15-1.93,3.15,0,3Z"/></g><g class="cls-4"><path class="cls-5" d="M481.92,222.89a1.19,1.19,0,0,1,2.38,0,1.19,1.19,0,0,1-2.38,0Zm.31,3.22H484v10.2h-1.73Z"/><path class="cls-5" d="M487.41,226.11h1.42l.15,1.47H489a4.85,4.85,0,0,1,3.42-1.72c2.15,0,3.12,1.38,3.12,4v6.46h-1.73v-6.24c0-1.9-.58-2.72-1.93-2.72-1,0-1.76.54-2.79,1.57v7.39h-1.72Z"/><path class="cls-5" d="M498.11,238.27a2.86,2.86,0,0,1,1.5-2.3v-.09a1.89,1.89,0,0,1-.92-1.67,2.47,2.47,0,0,1,1.13-1.9v-.08a3.53,3.53,0,0,1-1.32-2.74,3.62,3.62,0,0,1,3.83-3.63,4,4,0,0,1,1.44.25h3.56v1.33h-2.1a3,3,0,0,1,.83,2.1,3.49,3.49,0,0,1-3.73,3.54,3.67,3.67,0,0,1-1.52-.35,1.51,1.51,0,0,0-.66,1.21c0,.64.42,1.1,1.79,1.1h2c2.37,0,3.56.75,3.56,2.44,0,1.9-2,3.53-5.16,3.53C499.83,241,498.11,240,498.11,238.27Zm7.69-.53c0-1-.71-1.27-2.05-1.27H502a5.83,5.83,0,0,1-1.33-.15,2.13,2.13,0,0,0-1,1.71c0,1.1,1.1,1.79,3,1.79S505.8,238.8,505.8,237.74Zm-1.31-8.25a2.17,2.17,0,1,0-4.33,0,2.18,2.18,0,1,0,4.33,0Z"/><path class="cls-5" d="M508.7,238.27a2.86,2.86,0,0,1,1.5-2.3v-.09a1.89,1.89,0,0,1-.92-1.67,2.47,2.47,0,0,1,1.13-1.9v-.08a3.53,3.53,0,0,1-1.32-2.74,3.62,3.62,0,0,1,3.83-3.63,4,4,0,0,1,1.44.25h3.56v1.33h-2.1a3,3,0,0,1,.83,2.1,3.49,3.49,0,0,1-3.73,3.54,3.67,3.67,0,0,1-1.52-.35,1.51,1.51,0,0,0-.66,1.21c0,.64.42,1.1,1.79,1.1h2c2.37,0,3.56.75,3.56,2.44,0,1.9-2,3.53-5.16,3.53C510.42,241,508.7,240,508.7,238.27Zm7.69-.53c0-1-.71-1.27-2-1.27h-1.76a5.83,5.83,0,0,1-1.33-.15,2.13,2.13,0,0,0-1,1.71c0,1.1,1.1,1.79,3,1.79S516.39,238.8,516.39,237.74Zm-1.31-8.25a2.17,2.17,0,1,0-4.33,0,2.18,2.18,0,1,0,4.33,0Z"/><path class="cls-5" d="M519.71,235.26a1.25,1.25,0,1,1,1.25,1.3A1.26,1.26,0,0,1,519.71,235.26Z"/><path class="cls-5" d="M525,222.89a1.2,1.2,0,0,1,2.39,0,1.2,1.2,0,0,1-2.39,0Zm.32,3.22H527v10.2H525.3Z"/><path class="cls-5" d="M529.71,231.22c0-3.4,2.23-5.36,4.73-5.36s4.73,2,4.73,5.36-2.23,5.34-4.73,5.34S529.71,234.6,529.71,231.22Zm7.68,0c0-2.34-1.19-3.93-2.95-3.93s-2.94,1.59-2.94,3.93,1.19,3.91,2.94,3.91S537.39,233.56,537.39,231.22Z"/></g><g class="cls-3"><path d="M113.52,203.1c3.2-2.21,6.86-7.29,3.8-11.11-2.55-3.18-8.88-2-11.26.84-3.36,4,.7,8,4.33,9.58,1.27.56,2.91.79,4,1.5,5.13,3.22,3.83,7.68-1.25,8.71-3.78.78-6.27-2.34-3.58-5.59a30,30,0,0,1,4.25-4.11c1.49-1.23-.64-3.34-2.12-2.12-3,2.5-9.29,7.82-6.75,12.53,2,3.71,9.58,3,12.68,1.58,4-1.77,4-8.52,1.54-11.57-1.37-1.7-3.52-2.11-5.46-2.82a19.63,19.63,0,0,1-3.68-1.58q-3.48-4.73.63-5.45,3.45-1.45,4.45,3.11a7.1,7.1,0,0,1-3.14,3.91c-1.58,1.09-.08,3.69,1.51,2.59Z"/></g><rect class="cls-1" x="484.5" y="129.5" width="52" height="52" rx="26" ry="26" transform="translate(355 666) rotate(-90)"/><g class="cls-3"><path d="M512.52,156.1c3.2-2.21,6.86-7.29,3.8-11.11-2.55-3.18-8.88-2-11.26.84-3.36,4,.7,8,4.33,9.58,1.27.56,2.91.79,4.05,1.5,5.13,3.22,3.83,7.68-1.25,8.71-3.78.78-6.27-2.34-3.58-5.59a30,30,0,0,1,4.25-4.11c1.49-1.23-.64-3.34-2.12-2.12-3,2.5-9.29,7.82-6.75,12.53,2,3.71,9.58,3,12.68,1.58,4-1.77,4-8.52,1.54-11.57-1.37-1.7-3.52-2.11-5.46-2.82a19.63,19.63,0,0,1-3.68-1.58q-3.48-4.73.63-5.45,3.45-1.45,4.45,3.11a7.1,7.1,0,0,1-3.14,3.91c-1.58,1.09-.08,3.69,1.51,2.59Z"/></g><line class="cls-6" x1="473.5" y1="89.5" x2="501.5" y2="131.5"/><line class="cls-6" x1="39.5" y1="49.5" x2="62.5" y2="90.5"/><rect class="cls-1" x="0.5" y="0.5" width="52" height="52" rx="26" ry="26" transform="translate(0 53) rotate(-90)"/><line class="cls-6" x1="82.5" y1="136.5" x2="105.5" y2="177.5"/><g class="cls-3"><path d="M22.23,21.26c1-5.19,10.65-5.37,9.84.33-.44,3.13-3.85,3.17-6.37,3.59-1.62.27-1.21,2.42,0,2.89,3.21,1.26,6.08,3.83,4.67,7.79-1,2.83-8.55,4.28-9.59.3a1.5,1.5,0,0,0-2.89.79c1.38,5.32,10.81,6.3,14.14,2.28,4.7-5.67-.14-11.95-5.53-14v2.89c2.87-.47,7.13-1.15,8.3-4.18.93-2.42.35-6.51-1.44-8.46-4.18-4.58-13-.44-14,5-.36,1.89,2.53,2.7,2.89.8Z"/></g><line class="cls-6" x1="446.5" y1="89.5" x2="423.5" y2="130.5"/><rect class="cls-1" x="391.5" y="129.5" width="52" height="52" rx="26" ry="26" transform="translate(262 573) rotate(-90)"/><g class="cls-3"><path d="M413.23,150.26c1-5.19,10.65-5.37,9.84.33-.44,3.13-3.85,3.17-6.37,3.59-1.62.27-1.21,2.42,0,2.89,3.21,1.26,6.08,3.83,4.67,7.79-1,2.83-8.55,4.28-9.59.3a1.5,1.5,0,0,0-2.89.79c1.38,5.32,10.81,6.3,14.14,2.28,4.7-5.67-.14-11.95-5.53-14v2.89c2.87-.47,7.13-1.15,8.3-4.18.93-2.42.35-6.51-1.44-8.46-4.18-4.58-13-.44-14,5-.36,1.89,2.53,2.7,2.89.8Z"/></g></g></g></svg>