<svg xmlns="http://www.w3.org/2000/svg" viewBox="0 0 1147.17 249.01"><defs><style>.cls-1{fill:#29abe2;}.cls-1,.cls-2,.cls-4{opacity:0.8;}.cls-2,.cls-7{fill:#00aa94;}.cls-2,.cls-7,.cls-8,.cls-9{stroke:#000;stroke-miterlimit:10;}.cls-3{fill:#c1272d;}.cls-5{opacity:0.5;}.cls-6{fill:#666;}.cls-11,.cls-7,.cls-8{opacity:0.2;}.cls-8,.cls-9{fill:none;}.cls-10{font-size:18px;font-family:NanumGothic, Nanum Gothic;}</style></defs><title>자산 16</title><g id="레이어_2" data-name="레이어 2"><g id="레이어_1-2" data-name="레이어 1"><rect class="cls-1" x="6.5" y="68.5" width="165" height="178" rx="9.65" ry="9.65" transform="translate(-68.5 246.5) rotate(-90)"/><rect class="cls-1" x="312.5" y="68.5" width="165" height="178" rx="9.65" ry="9.65" transform="translate(237.5 552.5) rotate(-90)"/><rect class="cls-2" x="106.5" y="3.5" width="52" height="52" rx="26" ry="26" transform="translate(103 162) rotate(-90)"/><rect class="cls-2" x="91.5" y="173.5" width="52" height="52" rx="26" ry="26" transform="translate(-82 317) rotate(-90)"/><polygon class="cls-3" points="239 99 240.06 53.48 262.19 78.41 239 99"/><polygon class="cls-3" points="577 99 578.06 53.48 600.2 78.41 577 99"/><polygon class="cls-3" points="883 99 884.06 53.48 906.2 78.41 883 99"/><rect class="cls-2" x="35.5" y="91.5" width="52" height="52" rx="26" ry="26" transform="translate(-56 179) rotate(-90)"/><g class="cls-4"><path d="M128.83,20.11a54.76,54.76,0,0,1-.7,8.09,1.52,1.52,0,0,0,2.2,1.7c3.56-1.8,6.07,3.89,5.41,6.29-.52,1.85-6.13,4.46-7.2,1.18-.6-1.83-3.5-1-2.89.8,1.69,5.16,11.59,4.73,12.94-.57,1.45-5.69-3.59-13.42-9.77-10.29L131,29a58.76,58.76,0,0,0,.81-8.89c0-1.93-3-1.93-3,0Z"/></g><g class="cls-4"><path d="M132,22.1l6.58-.54c1.91-.15,1.92-3.16,0-3L132,19.1c-1.91.15-1.93,3.15,0,3Z"/></g><rect class="cls-2" x="1042.5" y="49.5" width="52" height="52" rx="26" ry="26" transform="translate(993 1144) rotate(-90)"/><g class="cls-5"><path class="cls-6" d="M1089.92,230.89a1.19,1.19,0,0,1,2.38,0,1.19,1.19,0,0,1-2.38,0Zm.31,3.22H1092v10.2h-1.73Z"/><path class="cls-6" d="M1095.41,234.11h1.42l.15,1.47h.06a4.85,4.85,0,0,1,3.42-1.72c2.15,0,3.12,1.38,3.12,4v6.46h-1.73v-6.24c0-1.9-.58-2.72-1.93-2.72-1,0-1.76.54-2.79,1.57v7.39h-1.72Z"/><path class="cls-6" d="M1106.11,246.27a2.86,2.86,0,0,1,1.5-2.3v-.09a1.88,1.88,0,0,1-.91-1.67,2.46,2.46,0,0,1,1.12-1.9v-.08a3.53,3.53,0,0,1-1.32-2.74,3.62,3.62,0,0,1,3.83-3.63,4,4,0,0,1,1.44.25h3.56v1.33h-2.1a3,3,0,0,1,.83,2.1,3.49,3.49,0,0,1-3.73,3.54,3.75,3.75,0,0,1-1.53-.35,1.52,1.52,0,0,0-.65,1.21c0,.64.42,1.1,1.79,1.1h2c2.37,0,3.56.75,3.56,2.44,0,1.9-2,3.53-5.16,3.53C1107.83,249,1106.11,248,1106.11,246.27Zm7.69-.53c0-1-.71-1.27-2-1.27H1110a5.83,5.83,0,0,1-1.33-.15,2.13,2.13,0,0,0-1,1.71c0,1.1,1.1,1.79,3,1.79S1113.8,246.8,1113.8,245.74Zm-1.31-8.25a2.17,2.17,0,1,0-4.33,0,2.18,2.18,0,1,0,4.33,0Z"/><path class="cls-6" d="M1116.7,246.27a2.86,2.86,0,0,1,1.5-2.3v-.09a1.88,1.88,0,0,1-.91-1.67,2.46,2.46,0,0,1,1.12-1.9v-.08a3.53,3.53,0,0,1-1.32-2.74,3.62,3.62,0,0,1,3.83-3.63,4,4,0,0,1,1.44.25h3.56v1.33h-2.1a3,3,0,0,1,.83,2.1,3.49,3.49,0,0,1-3.73,3.54,3.75,3.75,0,0,1-1.53-.35,1.52,1.52,0,0,0-.65,1.21c0,.64.42,1.1,1.79,1.1h2c2.37,0,3.56.75,3.56,2.44,0,1.9-2,3.53-5.16,3.53C1118.42,249,1116.7,248,1116.7,246.27Zm7.69-.53c0-1-.71-1.27-2.05-1.27h-1.76a5.83,5.83,0,0,1-1.33-.15,2.13,2.13,0,0,0-1,1.71c0,1.1,1.1,1.79,3,1.79S1124.39,246.8,1124.39,245.74Zm-1.31-8.25a2.17,2.17,0,1,0-4.33,0,2.18,2.18,0,1,0,4.33,0Z"/><path class="cls-6" d="M1127.71,243.26a1.25,1.25,0,1,1,1.25,1.3A1.26,1.26,0,0,1,1127.71,243.26Z"/><path class="cls-6" d="M1133,230.89a1.2,1.2,0,0,1,2.39,0,1.2,1.2,0,0,1-2.39,0Zm.32,3.22H1135v10.2h-1.73Z"/><path class="cls-6" d="M1137.71,239.22c0-3.4,2.23-5.36,4.73-5.36s4.73,2,4.73,5.36-2.23,5.34-4.73,5.34S1137.71,242.6,1137.71,239.22Zm7.68,0c0-2.34-1.19-3.93-3-3.93s-2.94,1.59-2.94,3.93,1.19,3.91,2.94,3.91S1145.39,241.56,1145.39,239.22Z"/></g><path class="cls-7" d="M512.5,26.5h0a26,26,0,0,1-26,26h0a26,26,0,0,1-26-26h0a26,26,0,0,1,52,0Z"/><rect class="cls-2" x="1093.5" y="138.5" width="52" height="52" rx="26" ry="26" transform="translate(955 1284) rotate(-90)"/><line class="cls-8" x1="469.5" y1="45.5" x2="438.5" y2="95.5"/><line class="cls-9" x1="1082.5" y1="98.5" x2="1110.5" y2="140.5"/><line class="cls-9" x1="114.5" y1="49.5" x2="72.5" y2="94.5"/><line class="cls-9" x1="406.5" y1="135.5" x2="376.5" y2="173.5"/><line class="cls-9" x1="75.5" y1="139.5" x2="103.5" y2="177.5"/><g class="cls-4"><path d="M113.23,193.26c1-5.19,10.65-5.37,9.84.33-.44,3.13-3.85,3.17-6.37,3.59-1.62.27-1.21,2.42,0,2.89,3.21,1.26,6.08,3.83,4.67,7.79-1,2.83-8.55,4.28-9.59.3a1.5,1.5,0,0,0-2.89.79c1.38,5.32,10.81,6.3,14.14,2.28,4.7-5.67-.14-11.95-5.53-14v2.89c2.87-.47,7.13-1.15,8.3-4.18.93-2.42.35-6.51-1.44-8.46-4.18-4.58-13-.44-14,5-.36,1.89,2.53,2.7,2.89.8Z"/></g><text class="cls-10" transform="translate(74.89 20.41)"><tspan xml:space="preserve"> +2</tspan></text><text class="cls-10" transform="translate(367 97.41)">+1</text><line class="cls-9" x1="1055.5" y1="98.5" x2="1032.5" y2="139.5"/><rect class="cls-2" x="1000.5" y="138.5" width="52" height="52" rx="26" ry="26" transform="translate(862 1191) rotate(-90)"/><g class="cls-4"><path d="M60.36,114.32a25.23,25.23,0,0,1,4.52-5.45l-2.5-1.46c-2.67,7.7-3.18,15.94-4.24,24-.25,1.91,2.76,1.89,3,0,1-7.8,1.55-15.73,4.13-23.2.51-1.49-1.48-2.41-2.51-1.45a28.18,28.18,0,0,0-5,6c-1,1.65,1.57,3.16,2.59,1.52Z"/></g><rect class="cls-2" x="395.5" y="88.5" width="52" height="52" rx="26" ry="26" transform="translate(307 536) rotate(-90)"/><rect class="cls-2" x="338.5" y="170.5" width="52" height="52" rx="26" ry="26" transform="translate(168 561) rotate(-90)"/><g class="cls-4"><path d="M417.23,108.26c1-5.19,10.65-5.37,9.84.33-.44,3.13-3.85,3.17-6.37,3.59-1.62.27-1.21,2.42,0,2.89,3.21,1.26,6.08,3.83,4.67,7.79-1,2.83-8.55,4.28-9.59.3a1.5,1.5,0,0,0-2.89.79c1.38,5.32,10.81,6.3,14.14,2.28,4.7-5.67-.14-12-5.53-14v2.89c2.87-.47,7.13-1.15,8.3-4.18.93-2.42.35-6.51-1.44-8.46-4.18-4.58-13-.44-14,5-.36,1.89,2.53,2.7,2.89.8Z"/></g><g class="cls-4"><path d="M363.36,193.32a25.23,25.23,0,0,1,4.52-5.45l-2.5-1.46c-2.67,7.7-3.18,15.94-4.24,24-.25,1.91,2.76,1.89,3,0,1-7.8,1.55-15.73,4.13-23.2.51-1.49-1.48-2.41-2.51-1.45a28.18,28.18,0,0,0-5,6.05c-1,1.65,1.57,3.16,2.59,1.52Z"/></g><g class="cls-4"><path d="M1064.23,70.26c1-5.19,10.65-5.37,9.84.33-.44,3.13-3.85,3.17-6.37,3.59-1.62.27-1.21,2.42,0,2.89,3.21,1.26,6.08,3.83,4.67,7.79-1,2.83-8.55,4.28-9.59.3a1.5,1.5,0,0,0-2.89.79c1.38,5.32,10.81,6.3,14.14,2.28,4.7-5.67-.14-12-5.53-14v2.89c2.87-.47,7.13-1.15,8.3-4.18.93-2.42.35-6.51-1.44-8.46-4.18-4.58-13-.44-14,5-.36,1.89,2.53,2.7,2.89.8Z"/></g><rect class="cls-2" x="736.5" y="14.5" width="52" height="52" rx="26" ry="26" transform="translate(722 803) rotate(-90)"/><rect class="cls-2" x="668.5" y="99.5" width="52" height="52" rx="26" ry="26" transform="translate(569 820) rotate(-90)"/><rect class="cls-2" x="612.5" y="182.5" width="52" height="52" rx="26" ry="26" transform="translate(430 847) rotate(-90)"/><g class="cls-4"><path d="M758.83,31.11a54.76,54.76,0,0,1-.7,8.09,1.52,1.52,0,0,0,2.2,1.7c3.56-1.8,6.07,3.89,5.41,6.29-.52,1.85-6.13,4.46-7.2,1.18-.6-1.83-3.5-1-2.89.8,1.69,5.16,11.59,4.73,12.94-.57,1.45-5.69-3.59-13.42-9.77-10.29L761,40a58.76,58.76,0,0,0,.81-8.89c0-1.93-3-1.93-3,0Z"/></g><g class="cls-4"><path d="M762,33.1l6.58-.54c1.91-.15,1.92-3.16,0-3L762,30.1c-1.91.15-1.93,3.15,0,3Z"/></g><g class="cls-11"><path d="M483.83,17.11a54.76,54.76,0,0,1-.7,8.09,1.52,1.52,0,0,0,2.2,1.7c3.56-1.8,6.07,3.89,5.41,6.29-.52,1.85-6.13,4.46-7.2,1.18-.6-1.83-3.5-1-2.89.8,1.69,5.16,11.59,4.73,12.94-.57,1.45-5.69-3.59-13.42-9.77-10.29L486,26a58.76,58.76,0,0,0,.81-8.89c0-1.93-3-1.93-3,0Z"/></g><g class="cls-11"><path d="M487,19.1l6.58-.54c1.91-.15,1.92-3.16,0-3L487,16.1c-1.91.15-1.93,3.15,0,3Z"/></g><line class="cls-9" x1="744.5" y1="60.5" x2="709.5" y2="104.5"/><line class="cls-9" x1="677.5" y1="144.5" x2="649.57" y2="184.91"/><g class="cls-4"><path d="M690.23,119.26c1-5.19,10.65-5.37,9.84.33-.44,3.13-3.85,3.17-6.37,3.59-1.62.27-1.21,2.42,0,2.89,3.21,1.26,6.08,3.83,4.67,7.79-1,2.83-8.55,4.28-9.59.3a1.5,1.5,0,0,0-2.89.79c1.38,5.32,10.81,6.3,14.14,2.28,4.7-5.67-.14-11.95-5.53-14v2.89c2.87-.47,7.13-1.15,8.3-4.18.93-2.42.35-6.51-1.44-8.46-4.18-4.58-13-.44-14,5-.36,1.89,2.53,2.7,2.89.8Z"/></g><g class="cls-4"><path d="M637.36,205.32a25.23,25.23,0,0,1,4.52-5.45l-2.5-1.46c-2.67,7.7-3.18,15.94-4.24,24-.25,1.91,2.76,1.89,3,0,1-7.8,1.55-15.73,4.13-23.2.51-1.49-1.48-2.41-2.51-1.45a28.18,28.18,0,0,0-5,6.05c-1,1.65,1.57,3.16,2.59,1.52Z"/></g><g class="cls-4"><path d="M1025.36,161.32a25.23,25.23,0,0,1,4.52-5.45l-2.5-1.46c-2.67,7.7-3.18,15.94-4.24,24-.25,1.91,2.76,1.89,3,0,1-7.8,1.55-15.73,4.13-23.2.51-1.49-1.48-2.41-2.51-1.45a28.18,28.18,0,0,0-5,6.05c-1,1.65,1.57,3.16,2.59,1.52Z"/></g><g class="cls-4"><path d="M1115.83,156.11a54.76,54.76,0,0,1-.7,8.09,1.52,1.52,0,0,0,2.2,1.7c3.56-1.8,6.07,3.89,5.41,6.29-.52,1.85-6.13,4.46-7.2,1.18-.6-1.83-3.5-1.05-2.89.8,1.69,5.16,11.59,4.73,12.94-.57,1.45-5.69-3.59-13.42-9.77-10.29L1118,165a58.76,58.76,0,0,0,.81-8.89c0-1.93-3-1.93-3,0Z"/></g><g class="cls-4"><path d="M1119,158.1l6.58-.54c1.91-.15,1.92-3.16,0-3l-6.58.54c-1.91.15-1.93,3.15,0,3Z"/></g><text class="cls-10" transform="translate(77.89 188.41)">0</text><text class="cls-10" transform="translate(336.89 171.41)">0</text><text class="cls-10" transform="translate(20 94.41)">-1</text><text class="cls-10" transform="translate(426.89 14.41)"><tspan xml:space="preserve"> +2</tspan></text></g></g></svg>