<svg xmlns="http://www.w3.org/2000/svg" viewBox="0 0 468 305"><defs><style>.cls-1{fill:#00aa94;}.cls-1,.cls-5{stroke:#000;stroke-miterlimit:10;}.cls-1,.cls-2{opacity:0.8;}.cls-3{opacity:0.5;}.cls-4{fill:#666;}.cls-5{fill:none;}.cls-6{font-size:18px;font-family:NanumGothic, Nanum Gothic;}</style></defs><title>자산 17</title><g id="레이어_2" data-name="레이어 2"><g id="레이어_1-2" data-name="레이어 1"><rect class="cls-1" x="404.5" y="96.49" width="52" height="52" rx="26" ry="26" transform="translate(308.01 552.99) rotate(-90)"/><rect class="cls-1" x="348.5" y="178.49" width="52" height="52" rx="26" ry="26" transform="translate(170.01 578.99) rotate(-90)"/><rect class="cls-1" x="333.5" y="8.49" width="52" height="52" rx="26" ry="26" transform="translate(325.01 393.99) rotate(-90)"/><rect class="cls-1" x="86.5" y="8.49" width="52" height="52" rx="26" ry="26" transform="translate(78.01 146.99) rotate(-90)"/><rect class="cls-1" x="71.5" y="178.49" width="52" height="52" rx="26" ry="26" transform="translate(-106.99 301.99) rotate(-90)"/><rect class="cls-1" x="15.5" y="96.49" width="52" height="52" rx="26" ry="26" transform="translate(-80.99 163.99) rotate(-90)"/><g class="cls-2"><path d="M108.83,25.11a55,55,0,0,1-.7,8.09,1.52,1.52,0,0,0,2.2,1.69c3.56-1.8,6.07,3.89,5.41,6.29-.52,1.85-6.13,4.46-7.2,1.18-.6-1.83-3.5-1-2.89.8,1.69,5.16,11.59,4.73,12.94-.57C120,36.9,115,29.17,108.82,32.3L111,34a58.75,58.75,0,0,0,.81-8.88,1.5,1.5,0,0,0-3,0Z"/></g><g class="cls-2"><path d="M112,27.09l6.58-.54c1.91-.15,1.92-3.15,0-3l-6.58.54c-1.91.16-1.93,3.16,0,3Z"/></g><g class="cls-2"><path d="M426.83,113.11a55,55,0,0,1-.7,8.09,1.52,1.52,0,0,0,2.2,1.69c3.56-1.8,6.07,3.89,5.41,6.29-.52,1.85-6.13,4.46-7.2,1.18-.6-1.83-3.5-1-2.89.8,1.69,5.16,11.59,4.73,12.94-.57,1.45-5.69-3.59-13.42-9.77-10.29L429,122a58.75,58.75,0,0,0,.81-8.88,1.5,1.5,0,0,0-3,0Z"/></g><g class="cls-2"><path d="M430,115.09l6.58-.54c1.91-.15,1.92-3.15,0-3l-6.58.54c-1.91.16-1.93,3.16,0,3Z"/></g><g class="cls-3"><path class="cls-4" d="M392.92,286.88a1.19,1.19,0,0,1,2.38,0,1.19,1.19,0,0,1-2.38,0Zm.31,3.22H395v10.2h-1.73Z"/><path class="cls-4" d="M398.41,290.1h1.42l.15,1.47H400a4.85,4.85,0,0,1,3.42-1.72c2.15,0,3.12,1.38,3.12,4v6.46h-1.73v-6.24c0-1.9-.58-2.71-1.93-2.71-1,0-1.76.53-2.79,1.56v7.39h-1.72Z"/><path class="cls-4" d="M409.11,302.27a2.86,2.86,0,0,1,1.5-2.31v-.09a1.89,1.89,0,0,1-.92-1.67,2.43,2.43,0,0,1,1.13-1.89v-.09a3.53,3.53,0,0,1-1.32-2.74,3.62,3.62,0,0,1,3.83-3.63,4.18,4.18,0,0,1,1.44.25h3.56v1.33h-2.1a3,3,0,0,1,.83,2.1,3.68,3.68,0,0,1-5.25,3.19,1.51,1.51,0,0,0-.66,1.21c0,.65.42,1.11,1.79,1.11h2c2.37,0,3.56.74,3.56,2.43,0,1.9-2,3.53-5.16,3.53C410.83,305,409.11,304,409.11,302.27Zm7.69-.54c0-.94-.71-1.27-2.05-1.27H413a5.83,5.83,0,0,1-1.33-.15,2.13,2.13,0,0,0-1,1.71c0,1.1,1.1,1.79,3,1.79S416.8,302.8,416.8,301.73Zm-1.31-8.25a2.17,2.17,0,1,0-4.33,0,2.18,2.18,0,1,0,4.33,0Z"/><path class="cls-4" d="M419.7,302.27a2.86,2.86,0,0,1,1.5-2.31v-.09a1.89,1.89,0,0,1-.92-1.67,2.43,2.43,0,0,1,1.13-1.89v-.09a3.53,3.53,0,0,1-1.32-2.74,3.62,3.62,0,0,1,3.83-3.63,4.18,4.18,0,0,1,1.44.25h3.56v1.33h-2.1a3,3,0,0,1,.83,2.1,3.68,3.68,0,0,1-5.25,3.19,1.51,1.51,0,0,0-.66,1.21c0,.65.42,1.11,1.79,1.11h2c2.37,0,3.56.74,3.56,2.43,0,1.9-2,3.53-5.16,3.53C421.42,305,419.7,304,419.7,302.27Zm7.69-.54c0-.94-.71-1.27-2.05-1.27h-1.76a5.83,5.83,0,0,1-1.33-.15,2.13,2.13,0,0,0-1,1.71c0,1.1,1.1,1.79,3,1.79S427.39,302.8,427.39,301.73Zm-1.31-8.25a2.17,2.17,0,1,0-4.33,0,2.18,2.18,0,1,0,4.33,0Z"/><path class="cls-4" d="M430.71,299.25a1.25,1.25,0,1,1,1.25,1.31A1.26,1.26,0,0,1,430.71,299.25Z"/><path class="cls-4" d="M436,286.88a1.2,1.2,0,0,1,2.39,0,1.2,1.2,0,0,1-2.39,0Zm.32,3.22H438v10.2H436.3Z"/><path class="cls-4" d="M440.71,295.21c0-3.4,2.23-5.36,4.73-5.36s4.73,2,4.73,5.36-2.23,5.35-4.73,5.35S440.71,298.59,440.71,295.21Zm7.68,0c0-2.33-1.19-3.92-2.95-3.92s-2.94,1.59-2.94,3.92,1.19,3.91,2.94,3.91S448.39,297.55,448.39,295.21Z"/></g><line class="cls-5" x1="94.5" y1="54.49" x2="52.5" y2="99.49"/><line class="cls-5" x1="55.5" y1="144.49" x2="83.5" y2="182.49"/><g class="cls-2"><path d="M93.23,198.25c1-5.18,10.65-5.37,9.84.34-.44,3.12-3.85,3.17-6.37,3.58-1.62.27-1.21,2.42,0,2.9,3.21,1.25,6.08,3.82,4.67,7.78-1,2.83-8.55,4.29-9.59.3a1.5,1.5,0,0,0-2.89.8c1.38,5.31,10.81,6.29,14.14,2.27,4.7-5.67-.14-11.94-5.53-14.05v2.9c2.87-.48,7.13-1.15,8.3-4.19.93-2.42.35-6.51-1.44-8.46-4.18-4.57-13-.44-14,5-.36,1.88,2.53,2.69,2.89.79Z"/></g><g class="cls-2"><path d="M370.23,198.25c1-5.18,10.65-5.37,9.84.34-.44,3.12-3.85,3.17-6.37,3.58-1.62.27-1.21,2.42,0,2.9,3.21,1.25,6.08,3.82,4.67,7.78-1,2.83-8.55,4.29-9.59.3a1.5,1.5,0,0,0-2.89.8c1.38,5.31,10.81,6.29,14.14,2.27,4.7-5.67-.14-11.94-5.53-14.05v2.9c2.87-.48,7.13-1.15,8.3-4.19.93-2.42.35-6.51-1.44-8.46-4.18-4.57-13-.44-14,5-.36,1.88,2.53,2.69,2.89.79Z"/></g><text class="cls-6" transform="translate(54.89 25.4)"><tspan xml:space="preserve"> +2</tspan></text><text class="cls-6" transform="translate(302.89 14.4)"><tspan xml:space="preserve"> -2</tspan></text><text class="cls-6" transform="translate(444 93.4)">+1</text><g class="cls-2"><path d="M40.36,119.31a25.47,25.47,0,0,1,4.52-5.45l-2.5-1.46c-2.67,7.7-3.18,15.94-4.24,24-.25,1.91,2.76,1.89,3,0,1-7.8,1.55-15.73,4.13-23.19.51-1.5-1.48-2.41-2.51-1.46a28.18,28.18,0,0,0-5,6.05c-1,1.65,1.57,3.16,2.59,1.52Z"/></g><g class="cls-2"><path d="M358.36,29.31a25.47,25.47,0,0,1,4.52-5.45l-2.5-1.46c-2.67,7.7-3.18,15.94-4.24,24-.25,1.91,2.76,1.89,3,0,1-7.8,1.55-15.73,4.13-23.19.51-1.5-1.48-2.41-2.51-1.46a28.18,28.18,0,0,0-5,6.05c-1,1.65,1.57,3.16,2.59,1.52Z"/></g><text class="cls-6" transform="translate(57.89 193.4)">0</text><text class="cls-6" transform="translate(334.89 192.4)">0</text><text class="cls-6" transform="translate(0 99.4)">-1</text><line class="cls-5" x1="377.5" y1="54.49" x2="419.5" y2="99.49"/><line class="cls-5" x1="416.5" y1="144.49" x2="388.5" y2="182.49"/><text class="cls-6" transform="translate(351.39 267.4)">RL상태</text><text class="cls-6" transform="translate(33.89 267.4)">LR상태</text></g></g></svg>