<svg xmlns="http://www.w3.org/2000/svg" viewBox="0 0 1110.17 246.01"><defs><style>.cls-1{fill:#29abe2;}.cls-1,.cls-2,.cls-8{opacity:0.8;}.cls-2{fill:#00aa94;}.cls-2,.cls-6{stroke:#000;stroke-miterlimit:10;}.cls-3{fill:#c1272d;}.cls-4{opacity:0.5;}.cls-5{fill:#666;}.cls-6{fill:none;}.cls-7{font-size:18px;font-family:NanumGothic, Nanum Gothic;}</style></defs><title>자산 64</title><g id="레이어_2" data-name="레이어 2"><g id="레이어_1-2" data-name="레이어 1"><rect class="cls-1" x="6.5" y="65.5" width="165" height="178" rx="9.65" ry="9.65" transform="translate(-65.5 243.5) rotate(-90)"/><rect class="cls-1" x="348.5" y="65.5" width="165" height="178" rx="9.65" ry="9.65" transform="translate(276.5 585.5) rotate(-90)"/><rect class="cls-2" x="22" y="0.5" width="52" height="52" rx="26" ry="26" transform="translate(21.5 74.5) rotate(-90)"/><rect class="cls-2" x="37" y="170.5" width="52" height="52" rx="26" ry="26" transform="translate(-133.5 259.5) rotate(-90)"/><polygon class="cls-3" points="241 96 242.06 50.48 264.19 75.41 241 96"/><polygon class="cls-3" points="586 96 587.06 50.48 609.2 75.41 586 96"/><polygon class="cls-3" points="885 96 886.06 50.48 908.2 75.41 885 96"/><rect class="cls-2" x="1005.5" y="46.5" width="52" height="52" rx="26" ry="26" transform="translate(959 1104) rotate(-90)"/><g class="cls-4"><path class="cls-5" d="M1052.92,227.89a1.19,1.19,0,0,1,2.38,0,1.19,1.19,0,0,1-2.38,0Zm.31,3.22H1055v10.2h-1.73Z"/><path class="cls-5" d="M1058.41,231.11h1.42l.15,1.47h.06a4.85,4.85,0,0,1,3.42-1.72c2.15,0,3.12,1.38,3.12,4v6.46h-1.73v-6.24c0-1.9-.58-2.72-1.93-2.72-1,0-1.76.54-2.79,1.57v7.39h-1.72Z"/><path class="cls-5" d="M1069.11,243.27a2.86,2.86,0,0,1,1.5-2.3v-.09a1.88,1.88,0,0,1-.91-1.67,2.46,2.46,0,0,1,1.12-1.9v-.08a3.53,3.53,0,0,1-1.32-2.74,3.62,3.62,0,0,1,3.83-3.63,4,4,0,0,1,1.44.25h3.56v1.33h-2.1a3,3,0,0,1,.83,2.1,3.49,3.49,0,0,1-3.73,3.54,3.75,3.75,0,0,1-1.53-.35,1.52,1.52,0,0,0-.65,1.21c0,.64.42,1.1,1.79,1.1h2c2.37,0,3.56.75,3.56,2.44,0,1.9-2,3.53-5.16,3.53C1070.83,246,1069.11,245,1069.11,243.27Zm7.69-.53c0-1-.71-1.27-2-1.27H1073a5.83,5.83,0,0,1-1.33-.15,2.13,2.13,0,0,0-1,1.71c0,1.1,1.1,1.79,3,1.79S1076.8,243.8,1076.8,242.74Zm-1.31-8.25a2.17,2.17,0,1,0-4.33,0,2.18,2.18,0,1,0,4.33,0Z"/><path class="cls-5" d="M1079.7,243.27a2.86,2.86,0,0,1,1.5-2.3v-.09a1.88,1.88,0,0,1-.91-1.67,2.46,2.46,0,0,1,1.12-1.9v-.08a3.53,3.53,0,0,1-1.32-2.74,3.62,3.62,0,0,1,3.83-3.63,4,4,0,0,1,1.44.25h3.56v1.33h-2.1a3,3,0,0,1,.83,2.1,3.49,3.49,0,0,1-3.73,3.54,3.75,3.75,0,0,1-1.53-.35,1.52,1.52,0,0,0-.65,1.21c0,.64.42,1.1,1.79,1.1h2c2.37,0,3.56.75,3.56,2.44,0,1.9-2,3.53-5.16,3.53C1081.42,246,1079.7,245,1079.7,243.27Zm7.69-.53c0-1-.71-1.27-2.05-1.27h-1.76a5.83,5.83,0,0,1-1.33-.15,2.13,2.13,0,0,0-1,1.71c0,1.1,1.1,1.79,3,1.79S1087.39,243.8,1087.39,242.74Zm-1.31-8.25a2.17,2.17,0,1,0-4.33,0,2.18,2.18,0,1,0,4.33,0Z"/><path class="cls-5" d="M1090.71,240.26a1.25,1.25,0,1,1,1.25,1.3A1.26,1.26,0,0,1,1090.71,240.26Z"/><path class="cls-5" d="M1096,227.89a1.2,1.2,0,0,1,2.39,0,1.2,1.2,0,0,1-2.39,0Zm.32,3.22H1098v10.2h-1.73Z"/><path class="cls-5" d="M1100.71,236.22c0-3.4,2.23-5.36,4.73-5.36s4.73,2,4.73,5.36-2.23,5.34-4.73,5.34S1100.71,239.6,1100.71,236.22Zm7.68,0c0-2.34-1.19-3.93-3-3.93s-2.94,1.59-2.94,3.93,1.19,3.91,2.94,3.91S1108.39,238.56,1108.39,236.22Z"/></g><rect class="cls-2" x="1056.5" y="135.5" width="52" height="52" rx="26" ry="26" transform="translate(921 1244) rotate(-90)"/><line class="cls-6" x1="1045.5" y1="95.5" x2="1073.5" y2="137.5"/><line class="cls-6" x1="66" y1="46.5" x2="108" y2="91.5"/><line class="cls-6" x1="105" y1="136.5" x2="77" y2="174.5"/><text class="cls-7" transform="translate(77.5 17.41)">-2</text><line class="cls-6" x1="1018.5" y1="95.5" x2="995.5" y2="136.5"/><rect class="cls-2" x="963.5" y="135.5" width="52" height="52" rx="26" ry="26" transform="translate(828 1151) rotate(-90)"/><g class="cls-8"><path d="M59.23,190.26c1-5.19,10.65-5.37,9.84.33-.44,3.13-3.85,3.17-6.37,3.59-1.62.27-1.21,2.42,0,2.89,3.21,1.26,6.08,3.83,4.67,7.79-1,2.83-8.55,4.28-9.59.3a1.5,1.5,0,0,0-2.89.79c1.38,5.32,10.81,6.3,14.14,2.28,4.7-5.67-.14-11.95-5.53-14v2.89c2.87-.47,7.13-1.15,8.3-4.18.93-2.42.35-6.51-1.44-8.46-4.18-4.58-13-.44-14,5-.36,1.89,2.53,2.7,2.89.8Z"/></g><g class="cls-8"><path d="M46.36,21.32a25.23,25.23,0,0,1,4.52-5.45l-2.5-1.46c-2.67,7.7-3.18,15.94-4.24,24-.25,1.91,2.76,1.89,3,0,1-7.8,1.55-15.73,4.13-23.2.51-1.49-1.48-2.41-2.51-1.45a28.18,28.18,0,0,0-5,6.05c-1,1.65,1.57,3.16,2.59,1.52Z"/></g><g class="cls-8"><path d="M1027.23,67.26c1-5.19,10.65-5.37,9.84.33-.44,3.13-3.85,3.17-6.37,3.59-1.62.27-1.21,2.42,0,2.89,3.21,1.26,6.08,3.83,4.67,7.79-1,2.83-8.55,4.28-9.59.3a1.5,1.5,0,0,0-2.89.79c1.38,5.32,10.81,6.3,14.14,2.28,4.7-5.67-.14-12-5.53-14v2.89c2.87-.47,7.13-1.15,8.3-4.18.93-2.42.35-6.51-1.44-8.46-4.18-4.58-13-.44-14,5-.36,1.89,2.53,2.7,2.89.8Z"/></g><rect class="cls-2" x="434.5" y="167.5" width="52" height="52" rx="26" ry="26" transform="translate(267 654) rotate(-90)"/><g class="cls-8"><path d="M456.83,184.11a54.76,54.76,0,0,1-.7,8.09,1.52,1.52,0,0,0,2.2,1.7c3.56-1.8,6.07,3.89,5.41,6.29-.52,1.85-6.13,4.46-7.2,1.18-.6-1.83-3.5-1.05-2.89.8,1.69,5.16,11.59,4.73,12.94-.57,1.45-5.69-3.59-13.42-9.77-10.29L459,193a58.76,58.76,0,0,0,.81-8.89c0-1.93-3-1.93-3,0Z"/></g><g class="cls-8"><path d="M460,186.1l6.58-.54c1.91-.15,1.92-3.16,0-3l-6.58.54c-1.91.15-1.93,3.15,0,3Z"/></g><rect class="cls-2" x="375.5" y="88.5" width="52" height="52" rx="26" ry="26" transform="translate(287 516) rotate(-90)"/><g class="cls-8"><path d="M397.23,108.26c1-5.19,10.65-5.37,9.84.33-.44,3.13-3.85,3.17-6.37,3.59-1.62.27-1.21,2.42,0,2.89,3.21,1.26,6.08,3.83,4.67,7.79-1,2.83-8.55,4.28-9.59.3a1.5,1.5,0,0,0-2.89.79c1.38,5.32,10.81,6.3,14.14,2.28,4.7-5.67-.14-12-5.53-14v2.89c2.87-.47,7.13-1.15,8.3-4.18.93-2.42.35-6.51-1.44-8.46-4.18-4.58-13-.44-14,5-.36,1.89,2.53,2.7,2.89.8Z"/></g><g class="cls-8"><path d="M988.36,158.32a25.23,25.23,0,0,1,4.52-5.45l-2.5-1.46c-2.67,7.7-3.18,15.94-4.24,24-.25,1.91,2.76,1.89,3,0,1-7.8,1.55-15.73,4.13-23.2.51-1.49-1.48-2.41-2.51-1.45a28.18,28.18,0,0,0-5,6.05c-1,1.65,1.57,3.16,2.59,1.52Z"/></g><g class="cls-8"><path d="M1078.83,153.11a54.76,54.76,0,0,1-.7,8.09,1.52,1.52,0,0,0,2.2,1.7c3.56-1.8,6.07,3.89,5.41,6.29-.52,1.85-6.13,4.46-7.2,1.18-.6-1.83-3.5-1.05-2.89.8,1.69,5.16,11.59,4.73,12.94-.57,1.45-5.69-3.59-13.42-9.77-10.29L1081,162a58.76,58.76,0,0,0,.81-8.89c0-1.93-3-1.93-3,0Z"/></g><g class="cls-8"><path d="M1082,155.1l6.58-.54c1.91-.15,1.92-3.16,0-3l-6.58.54c-1.91.15-1.93,3.15,0,3Z"/></g><text class="cls-7" transform="matrix(-1, 0, 0, 1, 40.61, 167.41)">0</text><text class="cls-7" transform="translate(136.5 91.41)">+1</text><rect class="cls-2" x="93.5" y="88.5" width="52" height="52" rx="26" ry="26" transform="translate(5 234) rotate(-90)"/><g class="cls-8"><path d="M115.83,105.11a54.76,54.76,0,0,1-.7,8.09,1.52,1.52,0,0,0,2.2,1.7c3.56-1.8,6.07,3.89,5.41,6.29-.52,1.85-6.13,4.46-7.2,1.18-.6-1.83-3.5-1.05-2.89.8,1.69,5.16,11.59,4.73,12.94-.57,1.45-5.69-3.59-13.42-9.77-10.29L118,114a58.76,58.76,0,0,0,.81-8.89c0-1.93-3-1.93-3,0Z"/></g><g class="cls-8"><path d="M119,107.1l6.58-.54c1.91-.15,1.92-3.16,0-3l-6.58.54c-1.91.15-1.93,3.15,0,3Z"/></g><rect class="cls-2" x="303" y="0.5" width="52" height="52" rx="26" ry="26" transform="translate(302.5 355.5) rotate(-90)"/><line class="cls-6" x1="347" y1="46.5" x2="389" y2="91.5"/><line class="cls-6" x1="421.5" y1="132.5" x2="449.5" y2="170.5"/><g class="cls-8"><path d="M327.36,21.32a25.23,25.23,0,0,1,4.52-5.45l-2.5-1.46c-2.67,7.7-3.18,15.94-4.24,24-.25,1.91,2.76,1.89,3,0,1-7.8,1.55-15.73,4.13-23.2.51-1.49-1.48-2.41-2.51-1.45a28.18,28.18,0,0,0-5,6.05c-1,1.65,1.57,3.16,2.59,1.52Z"/></g><rect class="cls-2" x="784.5" y="164.5" width="52" height="52" rx="26" ry="26" transform="translate(620 1001) rotate(-90)"/><g class="cls-8"><path d="M806.83,181.11a54.76,54.76,0,0,1-.7,8.09,1.52,1.52,0,0,0,2.2,1.7c3.56-1.8,6.07,3.89,5.41,6.29-.52,1.85-6.13,4.46-7.2,1.18-.6-1.83-3.5-1.05-2.89.8,1.69,5.16,11.59,4.73,12.94-.57,1.45-5.69-3.59-13.42-9.77-10.29L809,190a58.76,58.76,0,0,0,.81-8.89c0-1.93-3-1.93-3,0Z"/></g><g class="cls-8"><path d="M810,183.1l6.58-.54c1.91-.15,1.92-3.16,0-3l-6.58.54c-1.91.15-1.93,3.15,0,3Z"/></g><rect class="cls-2" x="724.5" y="88.5" width="52" height="52" rx="26" ry="26" transform="translate(636 865) rotate(-90)"/><g class="cls-8"><path d="M746.23,108.26c1-5.19,10.65-5.37,9.84.33-.44,3.13-3.85,3.17-6.37,3.59-1.62.27-1.21,2.42,0,2.89,3.21,1.26,6.08,3.83,4.67,7.79-1,2.83-8.55,4.28-9.59.3a1.5,1.5,0,0,0-2.89.79c1.38,5.32,10.81,6.3,14.14,2.28,4.7-5.67-.14-12-5.53-14v2.89c2.87-.47,7.13-1.15,8.3-4.18.93-2.42.35-6.51-1.44-8.46-4.18-4.58-13-.44-14,5-.36,1.89,2.53,2.7,2.89.8Z"/></g><rect class="cls-2" x="652" y="0.5" width="52" height="52" rx="26" ry="26" transform="translate(651.5 704.5) rotate(-90)"/><line class="cls-6" x1="696" y1="46.5" x2="738" y2="91.5"/><line class="cls-6" x1="771.5" y1="129.5" x2="799.5" y2="167.5"/><g class="cls-8"><path d="M676.36,21.32a25.23,25.23,0,0,1,4.52-5.45l-2.5-1.46c-2.67,7.7-3.18,15.94-4.24,24-.25,1.91,2.76,1.89,3,0,1-7.8,1.55-15.73,4.13-23.2.51-1.49-1.48-2.41-2.51-1.45a28.18,28.18,0,0,0-5,6.05c-1,1.65,1.57,3.16,2.59,1.52Z"/></g><text class="cls-7" transform="translate(711.5 18.41)">-2</text><text class="cls-7" transform="translate(752.5 80.41)">-1</text><text class="cls-7" transform="matrix(-1, 0, 0, 1, 822.61, 151.41)">0</text></g></g></svg>