<svg xmlns="http://www.w3.org/2000/svg" viewBox="0 0 866 251.01"><defs><style>.cls-1{fill:#00aa94;}.cls-1,.cls-2,.cls-6,.cls-7{stroke:#000;stroke-miterlimit:10;}.cls-1,.cls-8{opacity:0.8;}.cls-2,.cls-4{opacity:0.5;}.cls-2{font-size:25px;font-family:NanumGothic, Nanum Gothic;}.cls-3{fill:#c1272d;}.cls-5{fill:#666;}.cls-6{fill:#007994;}.cls-7{fill:none;}</style></defs><title>자산 11</title><g id="레이어_2" data-name="레이어 2"><g id="레이어_1-2" data-name="레이어 1"><rect class="cls-1" x="148.5" y="0.5" width="52" height="52" rx="26" ry="26" transform="translate(148 201) rotate(-90)"/><text class="cls-2" transform="translate(626.52 181.88)">NULL</text><polygon class="cls-3" points="441 127 442.06 81.48 464.19 106.41 441 127"/><g class="cls-4"><path class="cls-5" d="M805.92,232.89a1.19,1.19,0,0,1,2.38,0,1.19,1.19,0,0,1-2.38,0Zm.31,3.22H808v10.2h-1.73Z"/><path class="cls-5" d="M811.41,236.11h1.42l.15,1.47H813a4.85,4.85,0,0,1,3.42-1.72c2.15,0,3.12,1.38,3.12,4v6.46h-1.73v-6.24c0-1.9-.58-2.72-1.93-2.72-1,0-1.76.54-2.79,1.57v7.39h-1.72Z"/><path class="cls-5" d="M822.11,248.27a2.86,2.86,0,0,1,1.5-2.3v-.09a1.88,1.88,0,0,1-.91-1.67,2.46,2.46,0,0,1,1.12-1.9v-.08a3.53,3.53,0,0,1-1.32-2.74,3.62,3.62,0,0,1,3.83-3.63,4.18,4.18,0,0,1,1.44.25h3.56v1.33h-2.1a3,3,0,0,1,.83,2.1,3.49,3.49,0,0,1-3.73,3.54,3.75,3.75,0,0,1-1.53-.35,1.52,1.52,0,0,0-.65,1.21c0,.64.42,1.1,1.79,1.1h2c2.37,0,3.56.75,3.56,2.44,0,1.9-2,3.53-5.16,3.53C823.83,251,822.11,250,822.11,248.27Zm7.69-.53c0-1-.71-1.27-2-1.27H826a5.83,5.83,0,0,1-1.33-.15,2.12,2.12,0,0,0-1,1.71c0,1.1,1.1,1.79,3,1.79S829.8,248.8,829.8,247.74Zm-1.31-8.25a2.17,2.17,0,1,0-4.33,0,2.18,2.18,0,1,0,4.33,0Z"/><path class="cls-5" d="M832.7,248.27a2.86,2.86,0,0,1,1.5-2.3v-.09a1.88,1.88,0,0,1-.91-1.67,2.46,2.46,0,0,1,1.12-1.9v-.08a3.53,3.53,0,0,1-1.32-2.74,3.62,3.62,0,0,1,3.83-3.63,4.18,4.18,0,0,1,1.44.25h3.56v1.33h-2.1a3,3,0,0,1,.83,2.1,3.49,3.49,0,0,1-3.73,3.54,3.75,3.75,0,0,1-1.53-.35,1.52,1.52,0,0,0-.65,1.21c0,.64.42,1.1,1.79,1.1h2c2.37,0,3.56.75,3.56,2.44,0,1.9-2,3.53-5.16,3.53C834.42,251,832.7,250,832.7,248.27Zm7.69-.53c0-1-.71-1.27-2-1.27h-1.76a5.83,5.83,0,0,1-1.33-.15,2.12,2.12,0,0,0-1,1.71c0,1.1,1.1,1.79,3,1.79S840.39,248.8,840.39,247.74Zm-1.31-8.25a2.17,2.17,0,1,0-4.33,0,2.18,2.18,0,1,0,4.33,0Z"/><path class="cls-5" d="M843.71,245.26a1.25,1.25,0,1,1,1.25,1.3A1.26,1.26,0,0,1,843.71,245.26Z"/><path class="cls-5" d="M849,232.89a1.2,1.2,0,0,1,2.39,0,1.2,1.2,0,0,1-2.39,0Zm.32,3.22H851v10.2H849.3Z"/><path class="cls-5" d="M853.71,241.22c0-3.4,2.23-5.36,4.73-5.36s4.73,2,4.73,5.36-2.23,5.34-4.73,5.34S853.71,244.6,853.71,241.22Zm7.68,0c0-2.34-1.19-3.93-2.95-3.93s-2.94,1.59-2.94,3.93,1.19,3.91,2.94,3.91S861.39,243.56,861.39,241.22Z"/></g><rect class="cls-6" x="121.5" y="147.5" width="52" height="52" rx="26" ry="26" transform="translate(-26 321) rotate(-90)"/><rect class="cls-1" x="248.5" y="67.5" width="52" height="52" rx="26" ry="26" transform="translate(181 368) rotate(-90)"/><line class="cls-7" x1="153.5" y1="42.5" x2="102.5" y2="81.5"/><line class="cls-7" x1="195.47" y1="41.29" x2="256.5" y2="74.5"/><line class="cls-7" x1="65.7" y1="118.3" x2="32.5" y2="151.5"/><line class="cls-7" x1="105.88" y1="115.95" x2="140.32" y2="147.85"/><rect class="cls-1" x="0.5" y="150.5" width="52" height="52" rx="26" ry="26" transform="translate(-150 203) rotate(-90)"/><rect class="cls-1" x="304.5" y="147.5" width="52" height="52" rx="26" ry="26" transform="translate(157 504) rotate(-90)"/><line class="cls-7" x1="290.5" y1="114.5" x2="318.5" y2="150.5"/><rect class="cls-1" x="58.5" y="74.5" width="52" height="52" rx="26" ry="26" transform="translate(-16 185) rotate(-90)"/><g class="cls-8"><path d="M82.77,88.9a203.67,203.67,0,0,1-12.11,17.48,1.51,1.51,0,0,0,1.82,2.35,80.81,80.81,0,0,1,22.69-7.19c1.9-.31,1.1-3.2-.79-2.89A83.54,83.54,0,0,0,71,106.14l1.82,2.36A208.52,208.52,0,0,0,85.36,90.41c1-1.65-1.58-3.16-2.59-1.51Z"/></g><g class="cls-8"><path d="M82.25,92.06v21.3a1.5,1.5,0,0,0,3,0V92.06a1.5,1.5,0,0,0-3,0Z"/></g><g class="cls-8"><path d="M139.39,171.1l12.48-6.61-2.21-1.7a80.86,80.86,0,0,0-2.15,24.41c.12,1.92,3.12,1.93,3,0a77.87,77.87,0,0,1,2.05-23.61,1.52,1.52,0,0,0-2.21-1.69l-12.47,6.6c-1.71.91-.2,3.5,1.51,2.6Z"/></g><g class="cls-8"><path d="M320.94,163.84v18.34a1.5,1.5,0,0,0,3,0V163.84a1.5,1.5,0,0,0-3,0Z"/></g><g class="cls-8"><path d="M175.52,28.1c3.2-2.21,6.86-7.29,3.8-11.11-2.55-3.18-8.88-2-11.26.84-3.36,4,.7,8,4.33,9.58,1.27.56,2.91.79,4.05,1.5,5.13,3.22,3.83,7.68-1.25,8.71-3.78.78-6.27-2.34-3.58-5.59a30,30,0,0,1,4.25-4.11c1.49-1.23-.64-3.34-2.12-2.12-3,2.5-9.29,7.82-6.75,12.53,2,3.71,9.58,3,12.68,1.58,4-1.77,4-8.52,1.54-11.57-1.37-1.7-3.52-2.11-5.46-2.82a19.63,19.63,0,0,1-3.68-1.58q-3.48-4.73.63-5.45,3.45-1.45,4.45,3.11A7.1,7.1,0,0,1,174,25.51c-1.58,1.09-.08,3.69,1.51,2.59Z"/></g><g class="cls-8"><path d="M276,82.3c-3.9-.27-8.42-.21-10.94,3.31-2,2.78-2.76,7.31,0,9.82s7.46,2.31,10.28-.05c3.11-2.6,3.5-6.86,3.11-10.63-.2-1.89-3.14-2-3,0q.69,9.77,1.86,19.47c.23,1.9,3.23,1.92,3,0q-1.17-9.7-1.86-19.47h-3a14,14,0,0,1-.17,5.2c-.81,2.94-4.61,6-7.69,3.63-3.3-2.59,0-7.2,2.6-8A15.45,15.45,0,0,1,276,85.3c1.93.13,1.92-2.87,0-3Z"/></g><g class="cls-8"><path d="M334.72,163.81c-9,1.84-7.56,19.53,2.46,18.71,9.79-.79,5.77-17.28-1.72-19-1.88-.44-2.68,2.46-.8,2.89,4.11.95,8.19,10.76,3.16,12.9-6.64,2.84-8.36-11.36-2.31-12.6,1.89-.39,1.09-3.28-.79-2.89Z"/></g><g class="cls-8"><path d="M18.5,173.56a21.4,21.4,0,0,1,5.68-4.27c1.47-.74,2.65-1.64,3.92-.45s.84,2.69.42,4.35c-1.27,5.08-5.09,8.85-8.86,12.23-1.28,1.15.36,3.2,1.82,2.36a25.51,25.51,0,0,1,16-3.43c1.92.19,1.9-2.81,0-3A28.28,28.28,0,0,0,20,185.18l1.82,2.36c3.24-2.91,6.43-6,8.33-10,1.33-2.81,2.73-7.3,1.4-10.38-2.66-6.22-12.52,1.66-15.13,4.32-1.36,1.38.76,3.5,2.12,2.12Z"/></g><rect class="cls-1" x="657.5" y="0.5" width="52" height="52" rx="26" ry="26" transform="translate(657 710) rotate(-90)"/><rect class="cls-1" x="757.5" y="67.5" width="52" height="52" rx="26" ry="26" transform="translate(690 877) rotate(-90)"/><line class="cls-7" x1="662.5" y1="42.5" x2="611.5" y2="81.5"/><line class="cls-7" x1="704.47" y1="41.29" x2="765.5" y2="74.5"/><line class="cls-7" x1="574.7" y1="118.3" x2="541.5" y2="151.5"/><line class="cls-7" x1="614.88" y1="115.95" x2="649.32" y2="147.85"/><rect class="cls-1" x="509.5" y="150.5" width="52" height="52" rx="26" ry="26" transform="translate(359 712) rotate(-90)"/><rect class="cls-1" x="813.5" y="147.5" width="52" height="52" rx="26" ry="26" transform="translate(666 1013) rotate(-90)"/><line class="cls-7" x1="799.5" y1="114.5" x2="827.5" y2="150.5"/><rect class="cls-1" x="567.5" y="74.5" width="52" height="52" rx="26" ry="26" transform="translate(493 694) rotate(-90)"/><g class="cls-8"><path d="M591.77,88.9a203.67,203.67,0,0,1-12.11,17.48,1.51,1.51,0,0,0,1.82,2.35,80.81,80.81,0,0,1,22.69-7.19c1.9-.31,1.1-3.2-.79-2.89A83.54,83.54,0,0,0,580,106.14l1.82,2.36a208.52,208.52,0,0,0,12.58-18.09c1-1.65-1.58-3.16-2.59-1.51Z"/></g><g class="cls-8"><path d="M591.25,92.06v21.3a1.5,1.5,0,0,0,3,0V92.06a1.5,1.5,0,0,0-3,0Z"/></g><g class="cls-8"><path d="M829.94,163.84v18.34a1.5,1.5,0,0,0,3,0V163.84a1.5,1.5,0,0,0-3,0Z"/></g><g class="cls-8"><path d="M684.52,28.1c3.2-2.21,6.86-7.29,3.8-11.11-2.55-3.18-8.88-2-11.26.84-3.36,4,.7,8,4.33,9.58,1.27.56,2.91.79,4.05,1.5,5.13,3.22,3.83,7.68-1.25,8.71-3.78.78-6.27-2.34-3.58-5.59a30,30,0,0,1,4.25-4.11c1.49-1.23-.64-3.34-2.12-2.12-3,2.5-9.29,7.82-6.75,12.53,2,3.71,9.58,3,12.68,1.58,4-1.77,4-8.52,1.54-11.57-1.37-1.7-3.52-2.11-5.46-2.82a19.63,19.63,0,0,1-3.68-1.58q-3.48-4.73.63-5.45,3.45-1.45,4.45,3.11A7.1,7.1,0,0,1,683,25.51c-1.58,1.09-.08,3.69,1.51,2.59Z"/></g><g class="cls-8"><path d="M785,82.3c-3.9-.27-8.42-.21-10.94,3.31-2,2.78-2.76,7.31,0,9.82s7.46,2.31,10.28-.05c3.11-2.6,3.5-6.86,3.11-10.63-.2-1.89-3.14-2-3,0q.69,9.77,1.86,19.47c.23,1.9,3.23,1.92,3,0q-1.17-9.7-1.86-19.47h-3a14,14,0,0,1-.17,5.2c-.81,2.94-4.61,6-7.69,3.63-3.3-2.59,0-7.2,2.6-8A15.45,15.45,0,0,1,785,85.3c1.93.13,1.92-2.87,0-3Z"/></g><g class="cls-8"><path d="M843.72,163.81c-9,1.84-7.56,19.53,2.46,18.71,9.79-.79,5.77-17.28-1.72-19-1.88-.44-2.68,2.46-.8,2.89,4.11.95,8.19,10.76,3.16,12.9-6.64,2.84-8.36-11.36-2.31-12.6,1.89-.39,1.09-3.28-.79-2.89Z"/></g><g class="cls-8"><path d="M527.5,173.56a21.4,21.4,0,0,1,5.68-4.27c1.47-.74,2.65-1.64,3.92-.45s.84,2.69.42,4.35c-1.27,5.08-5.09,8.85-8.86,12.23-1.28,1.15.36,3.2,1.82,2.36a25.51,25.51,0,0,1,15.95-3.43c1.92.19,1.9-2.81,0-3A28.28,28.28,0,0,0,529,185.18l1.82,2.36c3.24-2.91,6.43-6,8.33-10,1.33-2.81,2.73-7.3,1.4-10.38-2.66-6.22-12.52,1.66-15.13,4.32-1.36,1.38.76,3.5,2.12,2.12Z"/></g></g></g></svg>