<svg xmlns="http://www.w3.org/2000/svg" viewBox="0 0 821.17 283"><defs><style>.cls-1{fill:#00aa94;}.cls-1,.cls-3,.cls-7{stroke:#000;stroke-miterlimit:10;}.cls-1,.cls-4{opacity:0.8;}.cls-2{fill:#c1272d;}.cls-3{fill:none;}.cls-5{opacity:0.5;}.cls-6{fill:#666;}.cls-7{fill:#007994;}</style></defs><title>자산 13</title><g id="레이어_2" data-name="레이어 2"><g id="레이어_1-2" data-name="레이어 1"><rect class="cls-1" x="212.5" y="0.5" width="52" height="52" rx="26" ry="26" transform="translate(212 265) rotate(-90)"/><rect class="cls-1" x="214.5" y="145.5" width="52" height="52" rx="26" ry="26" transform="translate(69 412) rotate(-90)"/><polygon class="cls-2" points="421 175 422.06 129.48 444.19 154.41 421 175"/><line class="cls-3" x1="218.5" y1="44.5" x2="167.5" y2="83.5"/><line class="cls-3" x1="262.5" y1="37.5" x2="322.5" y2="72.5"/><g class="cls-4"><path d="M229.36,21.32a25.23,25.23,0,0,1,4.52-5.45l-2.5-1.46c-2.67,7.7-3.18,15.94-4.24,24-.25,1.91,2.76,1.89,3,0,1-7.8,1.55-15.73,4.13-23.2.51-1.49-1.48-2.41-2.51-1.45a28.18,28.18,0,0,0-5,6.05c-1,1.65,1.57,3.16,2.59,1.52Z"/></g><rect class="cls-1" x="122.5" y="226.5" width="52" height="52" rx="26" ry="26" transform="translate(-104 401) rotate(-90)"/><g class="cls-5"><path class="cls-6" d="M763.92,260.89a1.19,1.19,0,0,1,2.38,0,1.19,1.19,0,0,1-2.38,0Zm.31,3.22H766v10.2h-1.73Z"/><path class="cls-6" d="M769.41,264.11h1.42l.15,1.47H771a4.85,4.85,0,0,1,3.42-1.72c2.15,0,3.12,1.38,3.12,4v6.46h-1.73v-6.24c0-1.9-.58-2.72-1.93-2.72-1,0-1.76.54-2.79,1.57v7.39h-1.72Z"/><path class="cls-6" d="M780.11,276.27a2.86,2.86,0,0,1,1.5-2.3v-.09a1.88,1.88,0,0,1-.91-1.67,2.46,2.46,0,0,1,1.12-1.9v-.08a3.53,3.53,0,0,1-1.32-2.74,3.62,3.62,0,0,1,3.83-3.63,4.18,4.18,0,0,1,1.44.25h3.56v1.33h-2.1a3,3,0,0,1,.83,2.1,3.49,3.49,0,0,1-3.73,3.54,3.75,3.75,0,0,1-1.53-.35,1.52,1.52,0,0,0-.65,1.21c0,.64.42,1.1,1.79,1.1h2c2.37,0,3.56.75,3.56,2.44,0,1.9-2,3.53-5.16,3.53C781.83,279,780.11,278,780.11,276.27Zm7.69-.53c0-.95-.71-1.27-2-1.27H784a5.83,5.83,0,0,1-1.33-.15,2.12,2.12,0,0,0-1,1.71c0,1.1,1.1,1.79,3,1.79S787.8,276.8,787.8,275.74Zm-1.31-8.25a2.17,2.17,0,1,0-4.33,0,2.18,2.18,0,1,0,4.33,0Z"/><path class="cls-6" d="M790.7,276.27a2.86,2.86,0,0,1,1.5-2.3v-.09a1.88,1.88,0,0,1-.91-1.67,2.46,2.46,0,0,1,1.12-1.9v-.08a3.53,3.53,0,0,1-1.32-2.74,3.62,3.62,0,0,1,3.83-3.63,4.18,4.18,0,0,1,1.44.25h3.56v1.33h-2.1a3,3,0,0,1,.83,2.1,3.49,3.49,0,0,1-3.73,3.54,3.75,3.75,0,0,1-1.53-.35,1.52,1.52,0,0,0-.65,1.21c0,.64.42,1.1,1.79,1.1h2c2.37,0,3.56.75,3.56,2.44,0,1.9-2,3.53-5.16,3.53C792.42,279,790.7,278,790.7,276.27Zm7.69-.53c0-.95-.71-1.27-2-1.27h-1.76a5.83,5.83,0,0,1-1.33-.15,2.12,2.12,0,0,0-1,1.71c0,1.1,1.1,1.79,3,1.79S798.39,276.8,798.39,275.74Zm-1.31-8.25a2.17,2.17,0,1,0-4.33,0,2.18,2.18,0,1,0,4.33,0Z"/><path class="cls-6" d="M801.71,273.26a1.25,1.25,0,1,1,1.25,1.3A1.26,1.26,0,0,1,801.71,273.26Z"/><path class="cls-6" d="M807,260.89a1.2,1.2,0,0,1,2.39,0,1.2,1.2,0,0,1-2.39,0Zm.32,3.22H809v10.2H807.3Z"/><path class="cls-6" d="M811.71,269.22c0-3.4,2.23-5.36,4.73-5.36s4.73,2,4.73,5.36-2.23,5.34-4.73,5.34S811.71,272.6,811.71,269.22Zm7.68,0c0-2.34-1.19-3.93-2.95-3.93s-2.94,1.59-2.94,3.93,1.19,3.91,2.94,3.91S819.39,271.56,819.39,269.22Z"/></g><rect class="cls-7" x="131.5" y="78.5" width="52" height="52" rx="26" ry="26" transform="translate(53 262) rotate(-90)"/><line class="cls-3" x1="136.5" y1="120.5" x2="96.5" y2="157.5"/><line class="cls-3" x1="178.47" y1="119.29" x2="225.5" y2="149.5"/><line class="cls-3" x1="65.7" y1="198.3" x2="32.5" y2="231.5"/><line class="cls-3" x1="105.88" y1="195.95" x2="140.32" y2="227.85"/><rect class="cls-1" x="0.5" y="230.5" width="52" height="52" rx="26" ry="26" transform="translate(-230 283) rotate(-90)"/><rect class="cls-1" x="270.5" y="225.5" width="52" height="52" rx="26" ry="26" transform="translate(45 548) rotate(-90)"/><line class="cls-3" x1="256.5" y1="192.5" x2="284.5" y2="228.5"/><rect class="cls-1" x="58.5" y="154.5" width="52" height="52" rx="26" ry="26" transform="translate(-96 265) rotate(-90)"/><g class="cls-4"><path d="M82.77,168.9a203.67,203.67,0,0,1-12.11,17.48,1.51,1.51,0,0,0,1.82,2.35,80.81,80.81,0,0,1,22.69-7.19c1.9-.31,1.1-3.2-.79-2.89A83.54,83.54,0,0,0,71,186.14l1.82,2.36a208.52,208.52,0,0,0,12.58-18.09c1-1.65-1.58-3.16-2.59-1.51Z"/></g><g class="cls-4"><path d="M82.25,172.06v21.3a1.5,1.5,0,0,0,3,0v-21.3a1.5,1.5,0,0,0-3,0Z"/></g><g class="cls-4"><path d="M139.39,251.1l12.48-6.61-2.21-1.7a80.86,80.86,0,0,0-2.15,24.41c.12,1.92,3.12,1.93,3,0a77.87,77.87,0,0,1,2.05-23.61,1.52,1.52,0,0,0-2.21-1.69l-12.47,6.6c-1.71.91-.2,3.5,1.51,2.6Z"/></g><g class="cls-4"><path d="M286.94,241.84v18.34a1.5,1.5,0,0,0,3,0V241.84a1.5,1.5,0,0,0-3,0Z"/></g><g class="cls-4"><path d="M158.52,106.1c3.2-2.21,6.86-7.29,3.8-11.11-2.55-3.18-8.88-2-11.26.84-3.36,4,.7,8,4.33,9.58,1.27.56,2.91.79,4.05,1.5,5.13,3.22,3.83,7.68-1.25,8.71-3.78.78-6.27-2.34-3.58-5.59a30,30,0,0,1,4.25-4.11c1.49-1.23-.64-3.34-2.12-2.12-3,2.5-9.29,7.82-6.75,12.53,2,3.71,9.58,3,12.68,1.58,4-1.77,4-8.52,1.54-11.57-1.37-1.7-3.52-2.11-5.46-2.82a19.63,19.63,0,0,1-3.68-1.58q-3.48-4.72.63-5.45,3.45-1.45,4.45,3.11a7.1,7.1,0,0,1-3.14,3.91c-1.58,1.09-.08,3.69,1.51,2.59Z"/></g><g class="cls-4"><path d="M242,160.3c-3.9-.27-8.42-.21-10.94,3.31-2,2.78-2.76,7.31,0,9.82s7.46,2.31,10.28-.05c3.11-2.6,3.5-6.86,3.11-10.63-.2-1.89-3.14-1.95-3,0q.69,9.76,1.86,19.47c.23,1.9,3.23,1.92,3,0q-1.17-9.71-1.86-19.47h-3a14,14,0,0,1-.17,5.2c-.81,2.94-4.61,6-7.69,3.63-3.3-2.59,0-7.2,2.6-8a15.45,15.45,0,0,1,5.83-.25c1.93.13,1.92-2.87,0-3Z"/></g><g class="cls-4"><path d="M300.72,241.81c-9,1.84-7.56,19.53,2.46,18.71,9.79-.79,5.77-17.28-1.72-19-1.88-.44-2.68,2.46-.8,2.89,4.11.95,8.19,10.76,3.16,12.9-6.64,2.84-8.36-11.36-2.31-12.6,1.89-.39,1.09-3.28-.79-2.89Z"/></g><g class="cls-4"><path d="M18.5,253.56a21.4,21.4,0,0,1,5.68-4.27c1.47-.74,2.65-1.64,3.92-.45s.84,2.69.42,4.35c-1.27,5.08-5.09,8.85-8.86,12.23-1.28,1.15.36,3.2,1.82,2.36a25.51,25.51,0,0,1,16-3.43c1.92.19,1.9-2.81,0-3A28.28,28.28,0,0,0,20,265.18l1.82,2.36c3.24-2.91,6.43-6.05,8.33-10,1.33-2.81,2.73-7.3,1.4-10.38-2.66-6.22-12.52,1.66-15.13,4.32-1.36,1.38.76,3.5,2.12,2.12Z"/></g><g class="cls-4"><path d="M237.5,23.56a21.4,21.4,0,0,1,5.68-4.27c1.47-.74,2.65-1.64,3.92-.45s.84,2.69.42,4.35c-1.27,5.08-5.09,8.85-8.86,12.23-1.28,1.15.36,3.2,1.82,2.36a25.51,25.51,0,0,1,16-3.43c1.92.19,1.9-2.81,0-3A28.28,28.28,0,0,0,239,35.18l1.82,2.36c3.24-2.91,6.43-6.05,8.33-10,1.33-2.81,2.73-7.3,1.4-10.38-2.66-6.22-12.52,1.66-15.13,4.32-1.36,1.38.76,3.5,2.12,2.12Z"/></g><rect class="cls-1" x="699.5" y="0.5" width="52" height="52" rx="26" ry="26" transform="translate(699 752) rotate(-90)"/><rect class="cls-1" x="701.5" y="145.5" width="52" height="52" rx="26" ry="26" transform="translate(556 899) rotate(-90)"/><line class="cls-3" x1="705.5" y1="44.5" x2="654.5" y2="83.5"/><line class="cls-3" x1="749.5" y1="37.5" x2="809.5" y2="72.5"/><g class="cls-4"><path d="M716.36,21.32a25.23,25.23,0,0,1,4.52-5.45l-2.5-1.46c-2.67,7.7-3.18,15.94-4.24,24-.25,1.91,2.76,1.89,3,0,1-7.8,1.55-15.73,4.13-23.2.51-1.49-1.48-2.41-2.51-1.45a28.18,28.18,0,0,0-5,6.05c-1,1.65,1.57,3.16,2.59,1.52Z"/></g><rect class="cls-1" x="609.5" y="226.5" width="52" height="52" rx="26" ry="26" transform="translate(383 888) rotate(-90)"/><rect class="cls-7" x="618.5" y="78.5" width="52" height="52" rx="26" ry="26" transform="translate(540 749) rotate(-90)"/><line class="cls-3" x1="623.5" y1="120.5" x2="583.5" y2="157.5"/><line class="cls-3" x1="665.47" y1="119.29" x2="712.5" y2="149.5"/><line class="cls-3" x1="552.7" y1="198.3" x2="519.5" y2="231.5"/><line class="cls-3" x1="592.88" y1="195.95" x2="627.32" y2="227.85"/><rect class="cls-1" x="487.5" y="230.5" width="52" height="52" rx="26" ry="26" transform="translate(257 770) rotate(-90)"/><rect class="cls-1" x="545.5" y="154.5" width="52" height="52" rx="26" ry="26" transform="translate(391 752) rotate(-90)"/><g class="cls-4"><path d="M569.77,168.9a203.67,203.67,0,0,1-12.11,17.48,1.51,1.51,0,0,0,1.82,2.35,80.81,80.81,0,0,1,22.69-7.19c1.9-.31,1.1-3.2-.79-2.89A83.54,83.54,0,0,0,558,186.14l1.82,2.36a208.52,208.52,0,0,0,12.58-18.09c1-1.65-1.58-3.16-2.59-1.51Z"/></g><g class="cls-4"><path d="M569.25,172.06v21.3a1.5,1.5,0,0,0,3,0v-21.3a1.5,1.5,0,0,0-3,0Z"/></g><g class="cls-4"><path d="M626.39,251.1l12.48-6.61-2.21-1.7a80.86,80.86,0,0,0-2.15,24.41c.12,1.92,3.12,1.93,3,0a77.87,77.87,0,0,1,2-23.61,1.52,1.52,0,0,0-2.21-1.69l-12.47,6.6c-1.71.91-.2,3.5,1.51,2.6Z"/></g><g class="cls-4"><path d="M717.94,162.84v18.34a1.5,1.5,0,0,0,3,0V162.84a1.5,1.5,0,0,0-3,0Z"/></g><g class="cls-4"><path d="M646,92.3c-3.9-.27-8.42-.21-10.94,3.31-2,2.78-2.76,7.31,0,9.82s7.46,2.31,10.28-.05c3.11-2.6,3.5-6.86,3.11-10.63-.2-1.89-3.14-2-3,0q.69,9.77,1.86,19.47c.23,1.9,3.23,1.92,3,0q-1.17-9.7-1.86-19.47h-3a14,14,0,0,1-.17,5.2c-.81,2.94-4.61,6-7.69,3.63-3.3-2.59,0-7.2,2.6-8A15.45,15.45,0,0,1,646,95.3c1.93.13,1.92-2.87,0-3Z"/></g><g class="cls-4"><path d="M732.72,162.81c-9,1.84-7.56,19.53,2.46,18.71,9.79-.79,5.77-17.28-1.72-19-1.88-.44-2.68,2.46-.8,2.89,4.11.95,8.19,10.76,3.16,12.9-6.64,2.84-8.36-11.36-2.31-12.6,1.89-.39,1.09-3.28-.79-2.89Z"/></g><g class="cls-4"><path d="M505.5,253.56a21.4,21.4,0,0,1,5.68-4.27c1.47-.74,2.65-1.64,3.92-.45s.84,2.69.42,4.35c-1.27,5.08-5.09,8.85-8.86,12.23-1.28,1.15.36,3.2,1.82,2.36a25.51,25.51,0,0,1,15.95-3.43c1.92.19,1.9-2.81,0-3A28.28,28.28,0,0,0,507,265.18l1.82,2.36c3.24-2.91,6.43-6.05,8.33-10,1.33-2.81,2.73-7.3,1.4-10.38-2.66-6.22-12.52,1.66-15.13,4.32-1.36,1.38.76,3.5,2.12,2.12Z"/></g><g class="cls-4"><path d="M724.5,23.56a21.4,21.4,0,0,1,5.68-4.27c1.47-.74,2.65-1.64,3.92-.45s.84,2.69.42,4.35c-1.27,5.08-5.09,8.85-8.86,12.23-1.28,1.15.36,3.2,1.82,2.36a25.51,25.51,0,0,1,15.95-3.43c1.92.19,1.9-2.81,0-3A28.28,28.28,0,0,0,726,35.18l1.82,2.36c3.24-2.91,6.43-6.05,8.33-10,1.33-2.81,2.73-7.3,1.4-10.38-2.66-6.22-12.52,1.66-15.13,4.32-1.36,1.38.76,3.5,2.12,2.12Z"/></g></g></g></svg>