<svg xmlns="http://www.w3.org/2000/svg" viewBox="0 0 1045.84 248.91"><defs><style>.cls-1,.cls-9{fill:#00aa94;}.cls-1,.cls-10,.cls-4,.cls-7,.cls-9{stroke:#000;}.cls-1,.cls-10,.cls-2,.cls-4,.cls-7,.cls-9{stroke-miterlimit:10;}.cls-1,.cls-8{opacity:0.8;}.cls-10,.cls-2,.cls-4{fill:none;}.cls-2{stroke:#c1272d;stroke-width:3px;}.cls-3{fill:#c1272d;}.cls-5{opacity:0.5;}.cls-6{fill:#666;}.cls-7{fill:#007994;}.cls-10,.cls-11,.cls-9{opacity:0.2;}</style></defs><title>자산 14</title><g id="레이어_2" data-name="레이어 2"><g id="레이어_1-2" data-name="레이어 1"><rect class="cls-1" x="118.34" y="96.4" width="52" height="52" rx="26" ry="26" transform="translate(21.94 266.74) rotate(-90)"/><path class="cls-2" d="M144.18,96c-.26-26.49-14-44.6-30.69-40.5"/><polygon class="cls-3" points="320.84 125.9 321.9 80.37 344.03 105.3 320.84 125.9"/><polygon class="cls-3" points="114.7 47.39 116.14 64.26 106.98 56.51 114.7 47.39"/><line class="cls-4" x1="131.34" y1="0.4" x2="80.34" y2="39.4"/><g class="cls-5"><path class="cls-6" d="M984.76,230.79a1.19,1.19,0,0,1,2.38,0,1.19,1.19,0,0,1-2.38,0Zm.31,3.21h1.73v10.21h-1.73Z"/><path class="cls-6" d="M990.25,234h1.42l.15,1.48h.06a4.86,4.86,0,0,1,3.42-1.73c2.15,0,3.12,1.39,3.12,4v6.47h-1.73V238c0-1.9-.58-2.72-1.93-2.72-1,0-1.76.53-2.79,1.57v7.39h-1.72Z"/><path class="cls-6" d="M1001,246.17a2.88,2.88,0,0,1,1.5-2.31v-.08a1.9,1.9,0,0,1-.92-1.67,2.45,2.45,0,0,1,1.13-1.9v-.08a3.53,3.53,0,0,1-1.32-2.74,3.62,3.62,0,0,1,3.83-3.64,4.18,4.18,0,0,1,1.44.25h3.56v1.33h-2.1a3,3,0,0,1,.83,2.1,3.48,3.48,0,0,1-3.73,3.54,3.74,3.74,0,0,1-1.53-.34,1.49,1.49,0,0,0-.65,1.2c0,.65.42,1.11,1.79,1.11h2c2.37,0,3.56.74,3.56,2.44,0,1.89-2,3.53-5.16,3.53C1002.67,248.91,1001,247.93,1001,246.17Zm7.69-.53c0-.95-.71-1.27-2-1.27h-1.77a5.81,5.81,0,0,1-1.32-.15,2.11,2.11,0,0,0-1,1.71c0,1.09,1.1,1.79,3,1.79S1008.64,246.7,1008.64,245.64Zm-1.31-8.25a2.18,2.18,0,1,0-4.33,0,2.18,2.18,0,1,0,4.33,0Z"/><path class="cls-6" d="M1011.54,246.17a2.88,2.88,0,0,1,1.5-2.31v-.08a1.9,1.9,0,0,1-.92-1.67,2.45,2.45,0,0,1,1.13-1.9v-.08a3.53,3.53,0,0,1-1.32-2.74,3.62,3.62,0,0,1,3.83-3.64,4.23,4.23,0,0,1,1.44.25h3.56v1.33h-2.1a3,3,0,0,1,.83,2.1,3.48,3.48,0,0,1-3.73,3.54,3.74,3.74,0,0,1-1.53-.34,1.47,1.47,0,0,0-.65,1.2c0,.65.42,1.11,1.79,1.11h2c2.37,0,3.56.74,3.56,2.44,0,1.89-2,3.53-5.16,3.53C1013.26,248.91,1011.54,247.93,1011.54,246.17Zm7.69-.53c0-.95-.71-1.27-2.05-1.27h-1.77a5.81,5.81,0,0,1-1.32-.15,2.11,2.11,0,0,0-1,1.71c0,1.09,1.1,1.79,3,1.79S1019.23,246.7,1019.23,245.64Zm-1.31-8.25a2.18,2.18,0,1,0-4.33,0,2.18,2.18,0,1,0,4.33,0Z"/><path class="cls-6" d="M1022.55,243.15a1.25,1.25,0,1,1,1.25,1.31A1.26,1.26,0,0,1,1022.55,243.15Z"/><path class="cls-6" d="M1027.82,230.79a1.2,1.2,0,0,1,2.39,0,1.2,1.2,0,0,1-2.39,0Zm.32,3.21h1.72v10.21h-1.72Z"/><path class="cls-6" d="M1032.55,239.12c0-3.41,2.23-5.37,4.73-5.37s4.73,2,4.73,5.37-2.23,5.34-4.73,5.34S1032.55,242.5,1032.55,239.12Zm7.68,0c0-2.34-1.19-3.93-3-3.93s-2.94,1.59-2.94,3.93,1.19,3.9,2.94,3.9S1040.23,241.46,1040.23,239.12Z"/></g><rect class="cls-7" x="35.34" y="29.4" width="52" height="52" rx="26" ry="26" transform="translate(5.94 116.74) rotate(-90)"/><line class="cls-4" x1="40.34" y1="71.4" x2="0.34" y2="108.4"/><line class="cls-4" x1="82.31" y1="70.19" x2="129.34" y2="100.4"/><rect class="cls-1" x="174.34" y="176.4" width="52" height="52" rx="26" ry="26" transform="translate(-2.06 402.74) rotate(-90)"/><line class="cls-4" x1="160.34" y1="143.4" x2="188.34" y2="179.4"/><g class="cls-8"><path d="M190.78,192.74v18.33a1.5,1.5,0,0,0,3,0V192.74a1.5,1.5,0,0,0-3,0Z"/></g><g class="cls-8"><path d="M62.36,57c3.2-2.21,6.86-7.3,3.8-11.11-2.55-3.18-8.88-2-11.26.83-3.36,4,.7,8,4.33,9.59,1.27.56,2.91.78,4.05,1.5C68.41,61,67.11,65.48,62,66.52c-3.78.77-6.27-2.34-3.58-5.6a30.52,30.52,0,0,1,4.25-4.1c1.49-1.23-.64-3.34-2.12-2.12-3,2.5-9.29,7.81-6.75,12.53,2,3.71,9.58,3,12.68,1.58,3.95-1.78,4-8.53,1.54-11.58-1.37-1.69-3.52-2.1-5.46-2.82a19.59,19.59,0,0,1-3.68-1.57c-2.32-3.16-2.11-5,.63-5.46Q63,45.94,64,50.5a7.1,7.1,0,0,1-3.14,3.91c-1.58,1.08-.08,3.69,1.51,2.59Z"/></g><g class="cls-8"><path d="M145.88,111.19c-3.9-.26-8.42-.2-10.94,3.32-2,2.78-2.76,7.31,0,9.81s7.46,2.32,10.28,0c3.11-2.6,3.5-6.86,3.11-10.64-.2-1.88-3.14-1.94-3,0q.69,9.77,1.86,19.48c.23,1.89,3.23,1.92,3,0q-1.17-9.72-1.86-19.48h-3a14,14,0,0,1-.17,5.21c-.81,2.94-4.61,6-7.69,3.63-3.3-2.59,0-7.2,2.6-8a15.45,15.45,0,0,1,5.83-.25c1.93.13,1.92-2.87,0-3Z"/></g><g class="cls-8"><path d="M204.56,192.71c-9,1.84-7.56,19.53,2.46,18.71,9.79-.79,5.77-17.28-1.72-19-1.88-.44-2.68,2.45-.8,2.89,4.11.95,8.19,10.76,3.16,12.9-6.64,2.84-8.36-11.36-2.31-12.6,1.89-.39,1.09-3.28-.79-2.89Z"/></g><rect class="cls-1" x="535.34" y="96.4" width="52" height="52" rx="26" ry="26" transform="translate(438.94 683.74) rotate(-90)"/><line class="cls-4" x1="548.34" y1="0.4" x2="497.34" y2="39.4"/><rect class="cls-7" x="452.34" y="29.4" width="52" height="52" rx="26" ry="26" transform="translate(422.94 533.74) rotate(-90)"/><line class="cls-4" x1="457.34" y1="71.4" x2="417.34" y2="108.4"/><line class="cls-4" x1="499.31" y1="70.19" x2="546.34" y2="100.4"/><rect class="cls-1" x="591.34" y="176.4" width="52" height="52" rx="26" ry="26" transform="translate(414.94 819.74) rotate(-90)"/><line class="cls-4" x1="577.34" y1="143.4" x2="605.34" y2="179.4"/><g class="cls-8"><path d="M607.78,192.74v18.33a1.5,1.5,0,0,0,3,0V192.74a1.5,1.5,0,0,0-3,0Z"/></g><g class="cls-8"><path d="M478.88,45.19c-3.9-.26-8.42-.2-10.94,3.32-2,2.78-2.76,7.31,0,9.81s7.46,2.32,10.28,0c3.11-2.6,3.5-6.86,3.11-10.64-.2-1.88-3.14-1.94-3,0q.69,9.77,1.86,19.48c.23,1.89,3.23,1.92,3,0Q482,57.4,481.31,47.64h-3a14,14,0,0,1-.17,5.21c-.81,2.94-4.61,6-7.69,3.63-3.3-2.59,0-7.2,2.6-8a15.45,15.45,0,0,1,5.83-.25c1.93.13,1.92-2.87,0-3Z"/></g><g class="cls-8"><path d="M621.56,192.71c-9,1.84-7.56,19.53,2.46,18.71,9.79-.79,5.77-17.28-1.72-19-1.88-.44-2.68,2.45-.8,2.89,4.11.95,8.19,10.76,3.16,12.9-6.64,2.84-8.36-11.36-2.31-12.6,1.89-.39,1.09-3.28-.79-2.89Z"/></g><polygon class="cls-3" points="745.84 125.9 746.9 80.37 769.03 105.3 745.84 125.9"/><line class="cls-4" x1="973.34" y1="0.4" x2="922.34" y2="39.4"/><rect class="cls-7" x="877.34" y="29.4" width="52" height="52" rx="26" ry="26" transform="translate(847.94 958.74) rotate(-90)"/><line class="cls-4" x1="882.34" y1="71.4" x2="842.34" y2="108.4"/><rect class="cls-1" x="958.34" y="136.4" width="52" height="52" rx="26" ry="26" transform="translate(821.94 1146.74) rotate(-90)"/><line class="cls-4" x1="918.34" y1="76.4" x2="972.34" y2="139.4"/><g class="cls-8"><path d="M974.78,152.74v18.33a1.5,1.5,0,0,0,3,0V152.74a1.5,1.5,0,0,0-3,0Z"/></g><g class="cls-8"><path d="M988.56,152.71c-9,1.84-7.56,19.53,2.46,18.71,9.79-.79,5.77-17.28-1.72-19-1.88-.44-2.68,2.45-.8,2.89,4.11.95,8.19,10.76,3.16,12.9-6.64,2.84-8.36-11.36-2.31-12.6,1.89-.39,1.09-3.28-.79-2.89Z"/></g><g class="cls-8"><path d="M562.88,110.19c-3.9-.26-8.42-.2-10.94,3.32-2,2.78-2.76,7.31,0,9.81s7.46,2.32,10.28,0c3.11-2.6,3.5-6.86,3.11-10.64-.2-1.88-3.14-1.94-3,0q.69,9.77,1.86,19.48c.23,1.89,3.23,1.92,3,0q-1.17-9.72-1.86-19.48h-3a14,14,0,0,1-.17,5.21c-.81,2.94-4.61,6-7.69,3.63-3.3-2.59,0-7.2,2.6-8a15.45,15.45,0,0,1,5.83-.25c1.93.13,1.92-2.87,0-3Z"/></g><g class="cls-8"><path d="M904.88,43.19c-3.9-.26-8.42-.2-10.94,3.32-2,2.78-2.76,7.31,0,9.81s7.46,2.32,10.28,0c3.11-2.6,3.5-6.86,3.11-10.64-.2-1.88-3.14-1.94-3,0q.69,9.77,1.86,19.48c.23,1.89,3.23,1.92,3,0Q908,55.4,907.31,45.64h-3a14,14,0,0,1-.17,5.21c-.81,2.94-4.61,6-7.69,3.63-3.3-2.59,0-7.2,2.6-8a15.45,15.45,0,0,1,5.83-.25c1.93.13,1.92-2.87,0-3Z"/></g><rect class="cls-9" x="993.34" y="77.4" width="52" height="52" rx="26" ry="26" transform="translate(915.94 1122.74) rotate(-90)"/><line class="cls-10" x1="929.34" y1="55.4" x2="996.34" y2="92.4"/><g class="cls-11"><path d="M1020.88,91.19c-3.9-.26-8.42-.2-10.94,3.32-2,2.78-2.76,7.31,0,9.81s7.46,2.32,10.28,0c3.11-2.6,3.5-6.86,3.11-10.64-.2-1.88-3.14-1.94-3,0q.69,9.77,1.86,19.48c.23,1.89,3.23,1.92,3,0q-1.17-9.72-1.86-19.48h-3a14,14,0,0,1-.17,5.21c-.81,2.94-4.61,6-7.69,3.63-3.3-2.59,0-7.2,2.6-8a15.45,15.45,0,0,1,5.83-.25c1.93.13,1.92-2.87,0-3Z"/></g><line class="cls-10" x1="1007.89" y1="127.35" x2="1000.34" y2="142.4"/></g></g></svg>