<svg xmlns="http://www.w3.org/2000/svg" viewBox="0 0 479.17 165.01"><defs><style>.cls-1{fill:#00aa94;}.cls-1,.cls-5{stroke:#000;stroke-miterlimit:10;}.cls-1,.cls-2{opacity:0.8;}.cls-3{opacity:0.5;}.cls-4{fill:#666;}.cls-5{fill:none;}</style></defs><title>자산 15</title><g id="레이어_2" data-name="레이어 2"><g id="레이어_1-2" data-name="레이어 1"><rect class="cls-1" x="101.5" y="94.5" width="52" height="52" rx="26" ry="26" transform="translate(7 248) rotate(-90)"/><rect class="cls-1" x="288.5" y="0.5" width="52" height="52" rx="26" ry="26" transform="translate(288 341) rotate(-90)"/><g class="cls-2"><path d="M312.77,14.9a203.67,203.67,0,0,1-12.11,17.48,1.51,1.51,0,0,0,1.82,2.35,80.81,80.81,0,0,1,22.69-7.19c1.9-.31,1.1-3.2-.79-2.89A83.54,83.54,0,0,0,301,32.14l1.82,2.36a208.52,208.52,0,0,0,12.58-18.09c1-1.65-1.58-3.16-2.59-1.51Z"/></g><g class="cls-2"><path d="M312.25,18.06v21.3a1.5,1.5,0,0,0,3,0V18.06a1.5,1.5,0,0,0-3,0Z"/></g><g class="cls-2"><path d="M120.83,111.11a54.76,54.76,0,0,1-.7,8.09,1.52,1.52,0,0,0,2.2,1.7c3.56-1.8,6.07,3.89,5.41,6.29-.52,1.85-6.13,4.46-7.2,1.18-.6-1.83-3.5-1.05-2.89.8,1.69,5.16,11.59,4.73,12.94-.57,1.45-5.69-3.59-13.42-9.77-10.29L123,120a58.76,58.76,0,0,0,.81-8.89c0-1.93-3-1.93-3,0Z"/></g><g class="cls-2"><path d="M124,113.1l6.58-.54c1.91-.15,1.92-3.16,0-3l-6.58.54c-1.91.15-1.93,3.15,0,3Z"/></g><g class="cls-3"><path class="cls-4" d="M421.92,146.89a1.19,1.19,0,0,1,2.38,0,1.19,1.19,0,0,1-2.38,0Zm.31,3.22H424v10.2h-1.73Z"/><path class="cls-4" d="M427.41,150.11h1.42l.15,1.47H429a4.85,4.85,0,0,1,3.42-1.72c2.15,0,3.12,1.38,3.12,4v6.46h-1.73v-6.24c0-1.9-.58-2.72-1.93-2.72-1,0-1.76.54-2.79,1.57v7.39h-1.72Z"/><path class="cls-4" d="M438.11,162.27a2.86,2.86,0,0,1,1.5-2.3v-.09a1.88,1.88,0,0,1-.91-1.67,2.46,2.46,0,0,1,1.12-1.9v-.08a3.53,3.53,0,0,1-1.32-2.74,3.62,3.62,0,0,1,3.83-3.63,4.18,4.18,0,0,1,1.44.25h3.56v1.33h-2.1a3,3,0,0,1,.83,2.1,3.49,3.49,0,0,1-3.73,3.54,3.75,3.75,0,0,1-1.53-.35,1.52,1.52,0,0,0-.65,1.21c0,.64.42,1.1,1.79,1.1h2c2.37,0,3.56.75,3.56,2.44,0,1.9-2,3.53-5.16,3.53C439.83,165,438.11,164,438.11,162.27Zm7.69-.53c0-1-.71-1.27-2.05-1.27H442a5.83,5.83,0,0,1-1.33-.15,2.12,2.12,0,0,0-1,1.71c0,1.1,1.1,1.79,3,1.79S445.8,162.8,445.8,161.74Zm-1.31-8.25a2.17,2.17,0,1,0-4.33,0,2.18,2.18,0,1,0,4.33,0Z"/><path class="cls-4" d="M448.7,162.27a2.86,2.86,0,0,1,1.5-2.3v-.09a1.88,1.88,0,0,1-.91-1.67,2.46,2.46,0,0,1,1.12-1.9v-.08a3.53,3.53,0,0,1-1.32-2.74,3.62,3.62,0,0,1,3.83-3.63,4.18,4.18,0,0,1,1.44.25h3.56v1.33h-2.1a3,3,0,0,1,.83,2.1,3.49,3.49,0,0,1-3.73,3.54,3.75,3.75,0,0,1-1.53-.35,1.52,1.52,0,0,0-.65,1.21c0,.64.42,1.1,1.79,1.1h2c2.37,0,3.56.75,3.56,2.44,0,1.9-2,3.53-5.16,3.53C450.42,165,448.7,164,448.7,162.27Zm7.69-.53c0-1-.71-1.27-2.05-1.27h-1.76a5.83,5.83,0,0,1-1.33-.15,2.12,2.12,0,0,0-1,1.71c0,1.1,1.1,1.79,3,1.79S456.39,162.8,456.39,161.74Zm-1.31-8.25a2.17,2.17,0,1,0-4.33,0,2.18,2.18,0,1,0,4.33,0Z"/><path class="cls-4" d="M459.71,159.26a1.25,1.25,0,1,1,1.25,1.3A1.26,1.26,0,0,1,459.71,159.26Z"/><path class="cls-4" d="M465,146.89a1.2,1.2,0,0,1,2.39,0,1.2,1.2,0,0,1-2.39,0Zm.32,3.22H467v10.2H465.3Z"/><path class="cls-4" d="M469.71,155.22c0-3.4,2.23-5.36,4.73-5.36s4.73,2,4.73,5.36-2.23,5.34-4.73,5.34S469.71,158.6,469.71,155.22Zm7.68,0c0-2.34-1.19-3.93-2.95-3.93s-2.94,1.59-2.94,3.93,1.19,3.91,2.94,3.91S477.39,157.56,477.39,155.22Z"/></g><rect class="cls-1" x="403.5" y="18.5" width="52" height="52" rx="26" ry="26" transform="translate(385 474) rotate(-90)"/><line class="cls-5" x1="101.5" y1="120.5" x2="52.5" y2="123.5"/><line class="cls-5" x1="339.5" y1="29.5" x2="403.5" y2="38.5"/><rect class="cls-1" x="49.5" y="10.5" width="52" height="52" rx="26" ry="26" transform="translate(39 112) rotate(-90)"/><g class="cls-2"><path d="M73.36,33.32a25.23,25.23,0,0,1,4.52-5.45l-2.5-1.46c-2.67,7.7-3.18,15.94-4.24,24-.25,1.91,2.76,1.89,3,0,1-7.8,1.55-15.73,4.13-23.2.51-1.49-1.48-2.41-2.51-1.45a28.18,28.18,0,0,0-5,6.05c-1,1.65,1.57,3.16,2.59,1.52Z"/></g><rect class="cls-1" x="0.5" y="97.5" width="52" height="52" rx="26" ry="26" transform="translate(-97 150) rotate(-90)"/><line class="cls-5" x1="88.5" y1="59.5" x2="111.5" y2="100.5"/><line class="cls-5" x1="59.5" y1="57.5" x2="34.68" y2="98.85"/><rect class="cls-1" x="268.5" y="94.5" width="52" height="52" rx="26" ry="26" transform="translate(174 415) rotate(-90)"/><g class="cls-2"><path d="M290.23,115.26c1-5.19,10.65-5.37,9.84.33-.44,3.13-3.85,3.17-6.37,3.59-1.62.27-1.21,2.42,0,2.89,3.21,1.26,6.08,3.83,4.67,7.79-1,2.83-8.55,4.28-9.59.3a1.5,1.5,0,0,0-2.89.79c1.38,5.32,10.81,6.3,14.14,2.28,4.7-5.67-.14-11.95-5.53-14v2.89c2.87-.47,7.13-1.15,8.3-4.18.93-2.42.35-6.51-1.44-8.46-4.18-4.58-13-.44-14,5-.36,1.89,2.53,2.7,2.89.8Z"/></g><g class="cls-2"><path d="M17.5,121.56a21.4,21.4,0,0,1,5.68-4.27c1.47-.74,2.65-1.64,3.92-.45s.84,2.69.42,4.35c-1.27,5.08-5.09,8.85-8.86,12.23-1.28,1.15.36,3.2,1.82,2.36a25.51,25.51,0,0,1,16-3.43c1.92.19,1.9-2.81,0-3A28.28,28.28,0,0,0,19,133.18l1.82,2.36c3.24-2.91,6.43-6,8.33-10,1.33-2.81,2.73-7.3,1.4-10.38-2.66-6.22-12.52,1.66-15.13,4.32-1.36,1.38.76,3.5,2.12,2.12Z"/></g><line class="cls-5" x1="303.5" y1="50.5" x2="294.5" y2="94.5"/><path d="M431.24,31.59A21.29,21.29,0,0,0,419.19,44.7c-1.45,4.94,0,11.62,6,12.51,4.6.69,7.67-3.6,7-7.88-.8-5-5.8-7.14-10.34-7.51-1.92-.16-1.91,2.84,0,3,3.12.25,7.39,1.74,7.45,5.56L429,52.05q-4.44,4-6.14,0c-1.52-2.16-1.58-3.93-.81-6.53,1.54-5.26,5.78-9.16,10.66-11.32,1.76-.78.24-3.36-1.51-2.59Z"/></g></g></svg>