<svg xmlns="http://www.w3.org/2000/svg" viewBox="0 0 262 229"><defs><style>.cls-1{fill:#00aa94;}.cls-1,.cls-3{stroke:#000;stroke-miterlimit:10;}.cls-1,.cls-2{opacity:0.8;}.cls-3{fill:none;}</style></defs><title>자산 15</title><g id="레이어_2" data-name="레이어 2"><g id="레이어_1-2" data-name="레이어 1"><rect class="cls-1" x="0.5" y="170.5" width="52" height="52" rx="26" ry="26" transform="translate(-170 223) rotate(-90)"/><g class="cls-2"><path d="M19.83,187.11a54.76,54.76,0,0,1-.7,8.09,1.52,1.52,0,0,0,2.2,1.7c3.56-1.8,6.07,3.89,5.41,6.29-.52,1.85-6.13,4.46-7.2,1.18-.6-1.83-3.5-1.05-2.89.8,1.69,5.16,11.59,4.73,12.94-.57,1.45-5.69-3.59-13.42-9.77-10.29L22,196a58.76,58.76,0,0,0,.81-8.89c0-1.93-3-1.93-3,0Z"/></g><g class="cls-2"><path d="M23,189.1l6.58-.54c1.91-.15,1.92-3.16,0-3L23,186.1c-1.91.15-1.93,3.15,0,3Z"/></g><rect class="cls-1" x="209.5" y="0.5" width="52" height="52" rx="26" ry="26" transform="translate(209 262) rotate(-90)"/><g class="cls-2"><path d="M233.77,14.9a203.67,203.67,0,0,1-12.11,17.48,1.51,1.51,0,0,0,1.82,2.35,80.81,80.81,0,0,1,22.69-7.19c1.9-.31,1.1-3.2-.79-2.89A83.54,83.54,0,0,0,222,32.14l1.82,2.36a208.52,208.52,0,0,0,12.58-18.09c1-1.65-1.58-3.16-2.59-1.51Z"/></g><g class="cls-2"><path d="M233.25,18.06v21.3a1.5,1.5,0,0,0,3,0V18.06a1.5,1.5,0,0,0-3,0Z"/></g><rect class="cls-1" x="209.5" y="176.5" width="52" height="52" rx="26" ry="26" transform="translate(33 438) rotate(-90)"/><line class="cls-3" x1="209.5" y1="202.5" x2="52.5" y2="200.5"/><line class="cls-3" x1="218.5" y1="45.5" x2="52.5" y2="201.5"/><line class="cls-3" x1="52.88" y1="108.95" x2="209.5" y2="111.5"/><line class="cls-3" x1="52.5" y1="34.5" x2="209.5" y2="202.5"/><rect class="cls-1" x="0.5" y="85.5" width="52" height="52" rx="26" ry="26" transform="translate(-85 138) rotate(-90)"/><g class="cls-2"><path d="M18.5,108.56a21.4,21.4,0,0,1,5.68-4.27c1.47-.74,2.65-1.64,3.92-.45s.84,2.69.42,4.35c-1.27,5.08-5.09,8.85-8.86,12.23-1.28,1.15.36,3.2,1.82,2.36a25.51,25.51,0,0,1,16-3.43c1.92.19,1.9-2.81,0-3A28.28,28.28,0,0,0,20,120.18l1.82,2.36c3.24-2.91,6.43-6.05,8.33-10,1.33-2.81,2.73-7.3,1.4-10.38-2.66-6.22-12.52,1.66-15.13,4.32-1.36,1.38.76,3.5,2.12,2.12Z"/></g><rect class="cls-1" x="2.5" y="0.5" width="52" height="52" rx="26" ry="26" transform="translate(2 55) rotate(-90)"/><g class="cls-2"><path d="M27.36,23.32a25.23,25.23,0,0,1,4.52-5.45l-2.5-1.46c-2.67,7.7-3.18,15.94-4.24,24-.25,1.91,2.76,1.89,3,0,1-7.8,1.55-15.73,4.13-23.2.51-1.49-1.48-2.41-2.51-1.45a28.18,28.18,0,0,0-5,6.05c-1,1.65,1.57,3.16,2.59,1.52Z"/></g><rect class="cls-1" x="209.5" y="85.5" width="52" height="52" rx="26" ry="26" transform="translate(124 347) rotate(-90)"/><g class="cls-2"><path d="M231.23,106.26c1-5.19,10.65-5.37,9.84.33-.44,3.13-3.85,3.17-6.37,3.59-1.62.27-1.21,2.42,0,2.89,3.21,1.26,6.08,3.83,4.67,7.79-1,2.83-8.55,4.28-9.59.3a1.5,1.5,0,0,0-2.89.79c1.38,5.32,10.81,6.3,14.14,2.28,4.7-5.67-.14-12-5.53-14v2.89c2.87-.47,7.13-1.15,8.3-4.18.93-2.42.35-6.51-1.44-8.46-4.18-4.58-13-.44-14,5-.36,1.89,2.53,2.7,2.89.8Z"/></g><path d="M235.22,190.41c-5.57,3.21-11,8.07-11.91,14.8-.74,5.42,2.29,11.65,7.62,13.55,3.66,1.3,10.08-.18,9.45-5.2-.73-5.78-8.67-7.12-13-5.51-1.8.65-1,3.56.79,2.89a7.86,7.86,0,0,1,5.78-.12c3.33,1.59,2.34,6.32-1.6,5.27-3.18-.86-5.36-4.32-6-7.39-1.37-7,5-12.6,10.4-15.7a1.5,1.5,0,0,0-1.52-2.59Z"/><line class="cls-3" x1="209.5" y1="26.5" x2="53" y2="32.5"/></g></g></svg>