<svg xmlns="http://www.w3.org/2000/svg" viewBox="0 0 626 337.36"><defs><style>.cls-1{opacity:0.5;}.cls-2{fill:#666;}.cls-3{fill:#00a99d;}.cls-3,.cls-4,.cls-6{opacity:0.8;}.cls-4{fill:#b4fff9;}.cls-5{fill:none;stroke:#000;stroke-width:3px;}.cls-5,.cls-8,.cls-9{stroke-miterlimit:10;}.cls-7{font-size:24px;font-family:NanumGothic, Nanum Gothic;}.cls-8,.cls-9{fill:#b3b3b3;stroke:#b3b3b3;}.cls-9{stroke-width:2px;}</style></defs><title>자산 7</title><g id="레이어_2" data-name="레이어 2"><g id="레이어_1-2" data-name="레이어 1"><g class="cls-1"><path class="cls-2" d="M511.92,319.24a1.19,1.19,0,1,1,1.19,1.11A1.11,1.11,0,0,1,511.92,319.24Zm.31,3.21H514v10.21h-1.73Z"/><path class="cls-2" d="M517.41,322.45h1.42l.15,1.48H519a4.86,4.86,0,0,1,3.42-1.73c2.15,0,3.12,1.39,3.12,4v6.47h-1.73v-6.24c0-1.91-.58-2.72-1.93-2.72-1,0-1.76.53-2.79,1.57v7.39h-1.72Z"/><path class="cls-2" d="M528.11,334.62a2.88,2.88,0,0,1,1.5-2.31v-.08a1.89,1.89,0,0,1-.91-1.67,2.44,2.44,0,0,1,1.12-1.9v-.08a3.55,3.55,0,0,1-1.32-2.74,3.62,3.62,0,0,1,3.83-3.64,4.18,4.18,0,0,1,1.44.25h3.56v1.33h-2.1a3,3,0,0,1,.83,2.1,3.48,3.48,0,0,1-3.73,3.54,3.6,3.6,0,0,1-1.53-.35,1.52,1.52,0,0,0-.65,1.21c0,.65.42,1.11,1.79,1.11h2c2.37,0,3.56.74,3.56,2.44,0,1.89-2,3.53-5.15,3.53C529.84,337.36,528.11,336.38,528.11,334.62Zm7.69-.54c0-.94-.71-1.26-2-1.26H532a5.83,5.83,0,0,1-1.33-.15,2.11,2.11,0,0,0-1,1.71c0,1.09,1.1,1.79,3,1.79S535.8,335.15,535.8,334.08Zm-1.31-8.24a2.18,2.18,0,1,0-4.33,0,2.18,2.18,0,1,0,4.33,0Z"/><path class="cls-2" d="M538.7,334.62a2.88,2.88,0,0,1,1.5-2.31v-.08a1.89,1.89,0,0,1-.91-1.67,2.44,2.44,0,0,1,1.12-1.9v-.08a3.55,3.55,0,0,1-1.32-2.74,3.62,3.62,0,0,1,3.83-3.64,4.18,4.18,0,0,1,1.44.25h3.56v1.33h-2.1a3,3,0,0,1,.83,2.1,3.48,3.48,0,0,1-3.73,3.54,3.6,3.6,0,0,1-1.53-.35,1.52,1.52,0,0,0-.65,1.21c0,.65.42,1.11,1.79,1.11h2c2.37,0,3.56.74,3.56,2.44,0,1.89-2,3.53-5.16,3.53C540.42,337.36,538.7,336.38,538.7,334.62Zm7.69-.54c0-.94-.71-1.26-2-1.26h-1.76a5.83,5.83,0,0,1-1.33-.15,2.11,2.11,0,0,0-1,1.71c0,1.09,1.1,1.79,3,1.79S546.39,335.15,546.39,334.08Zm-1.31-8.24a2.18,2.18,0,1,0-4.33,0,2.18,2.18,0,1,0,4.33,0Z"/><path class="cls-2" d="M549.71,331.6a1.25,1.25,0,1,1,1.25,1.31A1.26,1.26,0,0,1,549.71,331.6Z"/><path class="cls-2" d="M555,319.24a1.2,1.2,0,0,1,2.39,0,1.2,1.2,0,0,1-2.39,0Zm.32,3.21H557v10.21H555.3Z"/><path class="cls-2" d="M559.71,327.57c0-3.41,2.23-5.37,4.73-5.37s4.73,2,4.73,5.37-2.23,5.34-4.73,5.34S559.71,331,559.71,327.57Zm7.68,0c0-2.34-1.19-3.93-2.95-3.93s-2.94,1.59-2.94,3.93,1.19,3.9,2.94,3.9S567.39,329.91,567.39,327.57Z"/></g><rect class="cls-3" x="4" y="82.35" width="52" height="60" rx="9.65" ry="9.65" transform="translate(-82.35 142.35) rotate(-90)"/><rect class="cls-3" x="138" y="82.35" width="52" height="60" rx="9.65" ry="9.65" transform="translate(51.65 276.35) rotate(-90)"/><rect class="cls-3" x="71" y="82.35" width="52" height="60" rx="9.65" ry="9.65" transform="translate(-15.35 209.35) rotate(-90)"/><rect class="cls-3" x="204" y="82.35" width="52" height="60" rx="9.65" ry="9.65" transform="translate(117.65 342.35) rotate(-90)"/><rect class="cls-4" x="271" y="82.35" width="52" height="60" rx="9.65" ry="9.65" transform="translate(184.65 409.35) rotate(-90)"/><rect class="cls-4" x="405" y="82.35" width="52" height="60" rx="9.65" ry="9.65" transform="translate(318.65 543.35) rotate(-90)"/><rect class="cls-4" x="338" y="82.35" width="52" height="60" rx="9.65" ry="9.65" transform="translate(251.65 476.35) rotate(-90)"/><rect class="cls-4" x="471" y="82.35" width="52" height="60" rx="9.65" ry="9.65" transform="translate(384.65 609.35) rotate(-90)"/><polygon points="174.93 66.15 158 65.75 166.3 74.42 174.93 66.15"/><line class="cls-5" x1="166.5" y1="40.35" x2="166.5" y2="66.35"/><polygon points="584.93 64.15 568 63.75 576.3 72.42 584.93 64.15"/><line class="cls-5" x1="576.5" y1="38.35" x2="576.5" y2="64.35"/><polygon points="505.93 66.15 489 65.75 497.3 74.42 505.93 66.15"/><line class="cls-5" x1="497.5" y1="40.35" x2="497.5" y2="66.35"/><g class="cls-6"><path d="M296.36,108a30.18,30.18,0,0,1,4.52-6.62l-2.5-1.46c-2.69,9.35-3.18,19.15-4.24,28.8-.2,1.91,2.8,1.9,3,0,1-9.37,1.52-18.93,4.13-28a1.51,1.51,0,0,0-2.51-1.45,33,33,0,0,0-5,7.22c-.89,1.72,1.7,3.24,2.59,1.52Z"/></g><g class="cls-6"><path d="M93.23,106.61c1-5.19,10.65-5.37,9.84.33-.44,3.13-3.84,3.17-6.37,3.59-1.62.26-1.21,2.42,0,2.89,3.21,1.25,6.08,3.83,4.67,7.79-1,2.82-8.55,4.28-9.59.29-.48-1.87-3.38-1.07-2.89.8,1.38,5.31,10.81,6.29,14.14,2.28,4.7-5.68-.14-12-5.53-14v2.89c2.87-.48,7.13-1.15,8.3-4.18.93-2.42.35-6.51-1.44-8.46-4.18-4.58-13-.44-14,5-.36,1.89,2.54,2.7,2.89.8Z"/></g><g class="cls-6"><path d="M366.1,98.24a234.52,234.52,0,0,1-15.44,20.21,1.51,1.51,0,0,0,1.82,2.36,109.53,109.53,0,0,1,28.92-8.32c1.9-.28,1.09-3.17-.8-2.9A112.31,112.31,0,0,0,351,118.22l1.82,2.36a241.1,241.1,0,0,0,15.91-20.82c1.09-1.6-1.51-3.11-2.59-1.52Z"/></g><g class="cls-6"><path d="M365.5,101.77v24.58a1.5,1.5,0,0,0,3,0V101.77a1.5,1.5,0,0,0-3,0Z"/></g><g class="cls-6"><path d="M230.6,114c3.73-2.22,8.88-8.29,4.53-12.48-3.33-3.2-11.67-1.78-14.21,1.86-3.7,5.32,3.59,9.07,7.61,10.42,3,1,4.67,1,6.59,3.72,2.14,3,2.27,2.78-.56,5.35-2.23,2-2,2-4.42,2.12a10,10,0,0,1-3,.08c-1.47-.46-3.1-4.48-2.41-5.9,1-2,4.22-3.92,5.9-5.11s.07-3.7-1.51-2.59c-3.71,2.61-11.93,8.33-9.06,13.85,2.29,4.4,12.46,3.43,16.14,1.8,4.28-1.89,4.57-8.42,2.12-11.95-2-2.9-5.91-3.19-9-4.26-2.84-1-3.08-.79-3.86-4.08-.83-3.48-.37-3.27,2.73-3.77,2.57-.41,2.32-.48,3.59,2.32,1.49,3.3.43,4.17-2.69,6A1.5,1.5,0,0,0,230.6,114Z"/></g><g class="cls-6"><path d="M156.39,109.85l16.37-7.21L170.55,101a73.76,73.76,0,0,0-2.8,26.59c.14,1.92,3.15,1.93,3,0a71.24,71.24,0,0,1,2.7-25.8,1.52,1.52,0,0,0-2.21-1.69l-16.36,7.21c-1.77.78-.24,3.36,1.51,2.59Z"/></g><g class="cls-6"><path d="M21.3,110c.68-1.61,3.76-6.71,6.2-5.88s.61,7.53.38,8.95c-.79,4.88-1.54,10.31-4.58,14.34-1,1.3.85,2.66,2.05,2.06l16.47-8.34c1.72-.87.2-3.46-1.52-2.59l-16.47,8.34,2.06,2.05c2.87-3.81,3.71-8.58,4.55-13.18.48-2.63.86-5.29,1.13-8,.15-1.47.84-4.22-.07-5.63-3.36-5.19-11.45,3.19-12.8,6.31-.75,1.76,1.83,3.29,2.6,1.52Z"/></g><g class="cls-6"><path d="M498.88,97.37c-5.22,3.69-10.25,9.81-9.89,16.58.28,5.23,2.61,12.19,8.46,13.16,2.67.44,5.34.41,6.7-2.09s1.91-6.23,1-8.84c-2.14-5.9-10.55-3.85-14.82-1.89-1.75.81-.23,3.39,1.51,2.59a13.8,13.8,0,0,1,5.85-1.51c2.83.13,5.95,4.41,4.25,7-3.58,5.43-8.32-1.48-9.28-5.23-1.79-7,2.14-13.18,7.76-17.16,1.56-1.1.07-3.71-1.51-2.59Z"/></g><g class="cls-6"><path d="M436.85,98.86a68.32,68.32,0,0,0-15.35,1.62,1.52,1.52,0,0,0-1,1.85,26.74,26.74,0,0,1,.92,9.42,1.51,1.51,0,0,0,1.5,1.5c3-.08,13.6-1.22,12,4.25-1.16,4-8.19,4.45-11.24,3.68-1.87-.47-2.67,2.42-.8,2.9,5.5,1.38,13.73-.53,15.39-6.84,2.05-7.79-11.09-7.11-15.36-7l1.5,1.5a28.67,28.67,0,0,0-1-10.22l-1.05,1.84a64.16,64.16,0,0,1,14.55-1.51,1.5,1.5,0,0,0,0-3Z"/></g><rect class="cls-3" x="73" y="272.35" width="52" height="60" rx="9.65" ry="9.65" transform="translate(-203.35 401.35) rotate(-90)"/><rect class="cls-3" x="140" y="272.35" width="52" height="60" rx="9.65" ry="9.65" transform="translate(-136.35 468.35) rotate(-90)"/><rect class="cls-4" x="4" y="272.35" width="52" height="60" rx="9.65" ry="9.65" transform="translate(-272.35 332.35) rotate(-90)"/><rect class="cls-4" x="274" y="272.35" width="52" height="60" rx="9.65" ry="9.65" transform="translate(-2.35 602.35) rotate(-90)"/><rect class="cls-4" x="207" y="272.35" width="52" height="60" rx="9.65" ry="9.65" transform="translate(-69.35 535.35) rotate(-90)"/><rect class="cls-4" x="340" y="272.35" width="52" height="60" rx="9.65" ry="9.65" transform="translate(63.65 668.35) rotate(-90)"/><g class="cls-6"><path d="M29.36,298a30.18,30.18,0,0,1,4.52-6.62L31.38,290c-2.69,9.35-3.18,19.15-4.24,28.8-.2,1.91,2.8,1.9,3,0,1-9.37,1.52-18.93,4.13-28a1.51,1.51,0,0,0-2.51-1.45,33,33,0,0,0-5,7.22c-.89,1.72,1.7,3.24,2.59,1.52Z"/></g><g class="cls-6"><path d="M162.23,296.61c1-5.19,10.65-5.37,9.84.33-.44,3.13-3.84,3.17-6.37,3.59-1.62.26-1.21,2.42,0,2.89,3.21,1.25,6.08,3.83,4.67,7.79-1,2.82-8.55,4.28-9.59.29-.48-1.87-3.38-1.07-2.89.8,1.38,5.31,10.81,6.29,14.14,2.28,4.7-5.68-.14-11.95-5.53-14.05v2.89c2.87-.48,7.13-1.15,8.3-4.18.93-2.42.35-6.51-1.44-8.46-4.18-4.58-13-.44-14,5-.36,1.89,2.54,2.7,2.89.8Z"/></g><g class="cls-6"><path d="M235.1,288.24a234.52,234.52,0,0,1-15.44,20.21,1.51,1.51,0,0,0,1.82,2.36,109.53,109.53,0,0,1,28.92-8.32c1.9-.28,1.09-3.17-.8-2.9A112.31,112.31,0,0,0,220,308.22l1.82,2.36a241.1,241.1,0,0,0,15.91-20.82c1.09-1.6-1.51-3.11-2.59-1.52Z"/></g><g class="cls-6"><path d="M234.5,291.77v24.58a1.5,1.5,0,0,0,3,0V291.77a1.5,1.5,0,0,0-3,0Z"/></g><g class="cls-6"><path d="M90.3,300c.68-1.61,3.76-6.71,6.2-5.88s.61,7.53.38,8.95c-.79,4.88-1.54,10.31-4.58,14.34-1,1.3.85,2.66,2,2.06l16.47-8.34c1.72-.87.2-3.46-1.52-2.59l-16.47,8.34,2.06,2.05c2.87-3.81,3.71-8.58,4.55-13.18.48-2.63.86-5.29,1.13-7.95.15-1.47.84-4.22-.07-5.63-3.36-5.19-11.45,3.19-12.8,6.31-.75,1.76,1.83,3.29,2.6,1.52Z"/></g><g class="cls-6"><path d="M367.88,287.37c-5.22,3.69-10.25,9.81-9.89,16.58.28,5.23,2.61,12.19,8.46,13.16,2.67.44,5.34.41,6.7-2.09s1.91-6.23,1-8.84c-2.14-5.9-10.55-3.85-14.82-1.89-1.75.81-.23,3.39,1.51,2.59a13.8,13.8,0,0,1,5.85-1.51c2.83.13,5.95,4.41,4.25,7-3.58,5.43-8.32-1.48-9.28-5.23-1.79-7,2.14-13.18,7.76-17.16,1.56-1.1.07-3.71-1.51-2.59Z"/></g><g class="cls-6"><path d="M305.85,288.86a68.32,68.32,0,0,0-15.35,1.62,1.52,1.52,0,0,0-1,1.85,26.74,26.74,0,0,1,.92,9.42,1.51,1.51,0,0,0,1.5,1.5c3-.08,13.6-1.22,12,4.25-1.16,4-8.19,4.45-11.24,3.68-1.87-.47-2.67,2.42-.8,2.9,5.5,1.38,13.73-.53,15.39-6.84,2.05-7.79-11.09-7.11-15.36-7l1.5,1.5a28.67,28.67,0,0,0-1-10.22l-1.05,1.84a64.16,64.16,0,0,1,14.55-1.51,1.5,1.5,0,0,0,0-3Z"/></g><text class="cls-7" transform="translate(127.3 25.2)">frontIdx</text><text class="cls-7" transform="translate(544.3 19.2)">rearIdx</text><text class="cls-7" transform="translate(468.3 21.2)">right</text><polygon class="cls-8" points="52.74 270.08 42.26 256.79 40.88 268.71 52.74 270.08"/><line class="cls-9" x1="276.5" y1="138.85" x2="46.5" y2="263.85"/><line class="cls-9" x1="364" y1="138.35" x2="238" y2="263.35"/><polygon class="cls-8" points="247.41 265.98 233.53 255.42 235.62 267.9 247.41 265.98"/><line class="cls-9" x1="429" y1="137.35" x2="303" y2="262.35"/><polygon class="cls-8" points="312.41 264.98 298.53 254.42 300.62 266.9 312.41 264.98"/><line class="cls-9" x1="496" y1="136.35" x2="370" y2="261.35"/><polygon class="cls-8" points="379.41 263.98 365.53 253.42 367.62 265.9 379.41 263.98"/><line class="cls-9" x1="33" y1="138.35" x2="106.53" y2="267.35"/><polygon class="cls-8" points="97.12 269.98 111 259.42 108.91 271.9 97.12 269.98"/><line class="cls-9" x1="95" y1="140.35" x2="168.53" y2="269.35"/><polygon class="cls-8" points="159.12 271.98 173 261.42 170.91 273.9 159.12 271.98"/></g></g></svg>