<svg xmlns="http://www.w3.org/2000/svg" viewBox="0 0 652 555.01"><defs><style>.cls-1{opacity:0.5;}.cls-2{fill:#666;}.cls-3{fill:#ccc;}.cls-3,.cls-4,.cls-5,.cls-7{opacity:0.8;}.cls-4{fill:#00a99d;}.cls-5{fill:#b4fff9;}.cls-6{fill:none;stroke:#000;stroke-miterlimit:10;stroke-width:3px;}.cls-8{font-size:24px;font-family:NanumGothic, Nanum Gothic;}</style></defs><title>자산 5</title><g id="레이어_2" data-name="레이어 2"><g id="레이어_1-2" data-name="레이어 1"><g class="cls-1"><path class="cls-2" d="M584.92,536.89a1.19,1.19,0,0,1,2.38,0,1.19,1.19,0,0,1-2.38,0Zm.31,3.22H587v10.2h-1.73Z"/><path class="cls-2" d="M590.41,540.11h1.42l.15,1.47H592a4.85,4.85,0,0,1,3.42-1.72c2.15,0,3.12,1.38,3.12,4v6.46h-1.73v-6.24c0-1.9-.58-2.72-1.93-2.72-1,0-1.76.54-2.79,1.57v7.39h-1.72Z"/><path class="cls-2" d="M601.11,552.27a2.86,2.86,0,0,1,1.5-2.3v-.09a1.88,1.88,0,0,1-.91-1.67,2.46,2.46,0,0,1,1.12-1.9v-.08a3.53,3.53,0,0,1-1.32-2.74,3.62,3.62,0,0,1,3.83-3.63,4.18,4.18,0,0,1,1.44.25h3.56v1.33h-2.1a3,3,0,0,1,.83,2.1,3.49,3.49,0,0,1-3.73,3.54,3.75,3.75,0,0,1-1.53-.35,1.52,1.52,0,0,0-.65,1.21c0,.64.42,1.1,1.79,1.1h2c2.37,0,3.56.75,3.56,2.44,0,1.9-2,3.53-5.15,3.53C602.84,555,601.11,554,601.11,552.27Zm7.69-.53c0-.94-.71-1.27-2-1.27H605a5.83,5.83,0,0,1-1.33-.15,2.13,2.13,0,0,0-1,1.71c0,1.1,1.1,1.79,3,1.79S608.8,552.8,608.8,551.74Zm-1.31-8.25a2.17,2.17,0,1,0-4.33,0,2.18,2.18,0,1,0,4.33,0Z"/><path class="cls-2" d="M611.7,552.27a2.86,2.86,0,0,1,1.5-2.3v-.09a1.88,1.88,0,0,1-.91-1.67,2.46,2.46,0,0,1,1.12-1.9v-.08a3.53,3.53,0,0,1-1.32-2.74,3.62,3.62,0,0,1,3.83-3.63,4.18,4.18,0,0,1,1.44.25h3.56v1.33h-2.1a3,3,0,0,1,.83,2.1,3.49,3.49,0,0,1-3.73,3.54,3.75,3.75,0,0,1-1.53-.35,1.52,1.52,0,0,0-.65,1.21c0,.64.42,1.1,1.79,1.1h2c2.37,0,3.56.75,3.56,2.44,0,1.9-2,3.53-5.16,3.53C613.42,555,611.7,554,611.7,552.27Zm7.69-.53c0-.94-.71-1.27-2-1.27h-1.76a5.83,5.83,0,0,1-1.33-.15,2.13,2.13,0,0,0-1,1.71c0,1.1,1.1,1.79,3,1.79S619.39,552.8,619.39,551.74Zm-1.31-8.25a2.17,2.17,0,1,0-4.33,0,2.18,2.18,0,1,0,4.33,0Z"/><path class="cls-2" d="M622.71,549.26a1.25,1.25,0,1,1,1.25,1.3A1.26,1.26,0,0,1,622.71,549.26Z"/><path class="cls-2" d="M628,536.89a1.2,1.2,0,0,1,2.39,0,1.2,1.2,0,0,1-2.39,0Zm.32,3.22H630v10.2H628.3Z"/><path class="cls-2" d="M632.71,545.22c0-3.4,2.23-5.36,4.73-5.36s4.73,2,4.73,5.36-2.23,5.34-4.73,5.34S632.71,548.6,632.71,545.22Zm7.68,0c0-2.33-1.19-3.93-2.95-3.93s-2.94,1.6-2.94,3.93,1.19,3.91,2.94,3.91S640.39,547.56,640.39,545.22Z"/></g><rect class="cls-3" x="285" y="-285" width="82" height="652" rx="15.14" ry="15.14" transform="translate(285 367) rotate(-90)"/><rect class="cls-4" x="65" y="11" width="52" height="60" rx="9.65" ry="9.65" transform="translate(50 132) rotate(-90)"/><polygon points="490.07 128.31 507 127.9 498.7 136.57 490.07 128.31"/><rect class="cls-4" x="199" y="11" width="52" height="60" rx="9.65" ry="9.65" transform="translate(184 266) rotate(-90)"/><rect class="cls-4" x="132" y="11" width="52" height="60" rx="9.65" ry="9.65" transform="translate(117 199) rotate(-90)"/><rect class="cls-4" x="265" y="11" width="52" height="60" rx="9.65" ry="9.65" transform="translate(250 332) rotate(-90)"/><rect class="cls-5" x="332" y="11" width="52" height="60" rx="9.65" ry="9.65" transform="translate(317 399) rotate(-90)"/><rect class="cls-5" x="466" y="11" width="52" height="60" rx="9.65" ry="9.65" transform="translate(451 533) rotate(-90)"/><rect class="cls-5" x="399" y="11" width="52" height="60" rx="9.65" ry="9.65" transform="translate(384 466) rotate(-90)"/><rect class="cls-5" x="532" y="11" width="52" height="60" rx="9.65" ry="9.65" transform="translate(517 599) rotate(-90)"/><rect class="cls-3" x="285" y="150" width="82" height="652" rx="15.14" ry="15.14" transform="translate(-150 802) rotate(-90)"/><rect class="cls-5" x="65" y="446" width="52" height="60" rx="9.65" ry="9.65" transform="translate(-385 567) rotate(-90)"/><rect class="cls-4" x="199" y="446" width="52" height="60" rx="9.65" ry="9.65" transform="translate(-251 701) rotate(-90)"/><rect class="cls-4" x="132" y="446" width="52" height="60" rx="9.65" ry="9.65" transform="translate(-318 634) rotate(-90)"/><rect class="cls-5" x="265" y="446" width="52" height="60" rx="9.65" ry="9.65" transform="translate(-185 767) rotate(-90)"/><rect class="cls-5" x="332" y="446" width="52" height="60" rx="9.65" ry="9.65" transform="translate(-118 834) rotate(-90)"/><rect class="cls-4" x="466" y="446" width="52" height="60" rx="9.65" ry="9.65" transform="translate(16 968) rotate(-90)"/><rect class="cls-5" x="399" y="446" width="52" height="60" rx="9.65" ry="9.65" transform="translate(-51 901) rotate(-90)"/><rect class="cls-4" x="532" y="446" width="52" height="60" rx="9.65" ry="9.65" transform="translate(82 1034) rotate(-90)"/><rect class="cls-3" x="285" y="-140" width="82" height="652" rx="15.14" ry="15.14" transform="translate(140 512) rotate(-90)"/><rect class="cls-4" x="25" y="156" width="52" height="60" rx="9.65" ry="9.65" transform="translate(-135 237) rotate(-90)"/><rect class="cls-4" x="159" y="156" width="52" height="60" rx="9.65" ry="9.65" transform="translate(-1 371) rotate(-90)"/><rect class="cls-4" x="92" y="156" width="52" height="60" rx="9.65" ry="9.65" transform="translate(-68 304) rotate(-90)"/><rect class="cls-4" x="225" y="156" width="52" height="60" rx="9.65" ry="9.65" transform="translate(65 437) rotate(-90)"/><rect class="cls-5" x="374" y="156" width="52" height="60" rx="9.65" ry="9.65" transform="translate(214 586) rotate(-90)"/><rect class="cls-5" x="508" y="156" width="52" height="60" rx="9.65" ry="9.65" transform="translate(348 720) rotate(-90)"/><rect class="cls-5" x="441" y="156" width="52" height="60" rx="9.65" ry="9.65" transform="translate(281 653) rotate(-90)"/><rect class="cls-5" x="574" y="156" width="52" height="60" rx="9.65" ry="9.65" transform="translate(414 786) rotate(-90)"/><rect class="cls-3" x="285" y="5" width="82" height="652" rx="15.14" ry="15.14" transform="translate(-5 657) rotate(-90)"/><rect class="cls-4" x="25" y="301" width="52" height="60" rx="9.65" ry="9.65" transform="translate(-280 382) rotate(-90)"/><rect class="cls-4" x="159" y="301" width="52" height="60" rx="9.65" ry="9.65" transform="translate(-146 516) rotate(-90)"/><rect class="cls-4" x="92" y="301" width="52" height="60" rx="9.65" ry="9.65" transform="translate(-213 449) rotate(-90)"/><rect class="cls-4" x="225" y="301" width="52" height="60" rx="9.65" ry="9.65" transform="translate(-80 582) rotate(-90)"/><rect class="cls-5" x="374" y="301" width="52" height="60" rx="9.65" ry="9.65" transform="translate(69 731) rotate(-90)"/><rect class="cls-5" x="508" y="301" width="52" height="60" rx="9.65" ry="9.65" transform="translate(203 865) rotate(-90)"/><rect class="cls-5" x="441" y="301" width="52" height="60" rx="9.65" ry="9.65" transform="translate(136 798) rotate(-90)"/><rect class="cls-5" x="574" y="301" width="52" height="60" rx="9.65" ry="9.65" transform="translate(269 931) rotate(-90)"/><path class="cls-6" d="M466,90c16.92-1,31.75,17.17,33.17,40.67"/><polygon points="211.93 128.31 195 127.9 203.3 136.57 211.93 128.31"/><path class="cls-6" d="M236,90c-16.92-1-31.75,17.17-33.17,40.67"/><polygon points="159.93 269.81 143 269.4 151.3 278.07 159.93 269.81"/><line class="cls-6" x1="151.5" y1="244" x2="151.5" y2="270"/><polygon points="507.93 269.81 491 269.4 499.3 278.07 507.93 269.81"/><line class="cls-6" x1="499.5" y1="244" x2="499.5" y2="270"/><polygon points="188.45 408.32 172.44 413.82 183.23 419.06 188.45 408.32"/><line class="cls-6" x1="171.58" y1="387.05" x2="180.61" y2="411.43"/><polygon points="474.58 408.32 490.59 413.82 479.79 419.06 474.58 408.32"/><line class="cls-6" x1="491.45" y1="387.05" x2="482.41" y2="411.43"/><g class="cls-7"><path d="M357.36,34.68a30.66,30.66,0,0,1,4.52-6.62l-2.5-1.46c-2.69,9.35-3.18,19.15-4.24,28.8-.2,1.92,2.8,1.9,3,0,1-9.37,1.52-18.92,4.13-28a1.51,1.51,0,0,0-2.51-1.46,33,33,0,0,0-5,7.23c-.89,1.71,1.7,3.23,2.59,1.51Z"/></g><g class="cls-7"><path d="M399.36,181.68a30.66,30.66,0,0,1,4.52-6.62l-2.5-1.46c-2.69,9.35-3.18,19.15-4.24,28.8-.2,1.92,2.8,1.9,3,0,1-9.37,1.52-18.92,4.13-28a1.51,1.51,0,0,0-2.51-1.46,33,33,0,0,0-5,7.23c-.89,1.71,1.7,3.23,2.59,1.51Z"/></g><g class="cls-7"><path d="M399.36,326.68a30.66,30.66,0,0,1,4.52-6.62l-2.5-1.46c-2.69,9.35-3.18,19.15-4.24,28.8-.2,1.92,2.8,1.9,3,0,1-9.37,1.52-18.92,4.13-28a1.51,1.51,0,0,0-2.51-1.46,33,33,0,0,0-5,7.23c-.89,1.71,1.7,3.23,2.59,1.51Z"/></g><g class="cls-7"><path d="M90.36,471.68a30.66,30.66,0,0,1,4.52-6.62l-2.5-1.46c-2.69,9.35-3.18,19.15-4.24,28.8-.2,1.92,2.8,1.9,3,0,1-9.37,1.52-18.92,4.13-28a1.51,1.51,0,0,0-2.51-1.46,33,33,0,0,0-5,7.23c-.89,1.71,1.7,3.23,2.59,1.51Z"/></g><g class="cls-7"><path d="M221.23,35.26c1-5.19,10.65-5.37,9.84.33-.44,3.13-3.85,3.17-6.37,3.59-1.62.27-1.21,2.42,0,2.89,3.21,1.26,6.08,3.83,4.67,7.79-1,2.83-8.55,4.28-9.59.3a1.5,1.5,0,0,0-2.89.79c1.38,5.32,10.81,6.3,14.14,2.28,4.7-5.67-.14-11.95-5.53-14v2.89c2.87-.47,7.13-1.15,8.3-4.18.93-2.42.35-6.51-1.44-8.46-4.18-4.58-13-.44-14,5-.36,1.89,2.54,2.7,2.89.8Z"/></g><g class="cls-7"><path d="M181.23,180.26c1-5.19,10.65-5.37,9.84.33-.44,3.13-3.85,3.17-6.37,3.59-1.62.27-1.21,2.42,0,2.89,3.21,1.26,6.08,3.83,4.67,7.79-1,2.83-8.55,4.28-9.59.3a1.5,1.5,0,0,0-2.89.79c1.38,5.32,10.81,6.3,14.14,2.28,4.7-5.67-.14-11.95-5.53-14v2.89c2.87-.47,7.13-1.15,8.3-4.18.93-2.42.35-6.51-1.44-8.46-4.18-4.58-13-.44-14,5-.36,1.89,2.54,2.7,2.89.8Z"/></g><g class="cls-7"><path d="M114.23,325.26c1-5.19,10.65-5.37,9.84.33-.44,3.13-3.85,3.17-6.37,3.59-1.62.27-1.21,2.42,0,2.89,3.21,1.26,6.08,3.83,4.67,7.79-1,2.83-8.55,4.28-9.59.3a1.5,1.5,0,0,0-2.89.79c1.38,5.32,10.81,6.3,14.14,2.28,4.7-5.67-.14-12-5.53-14.05v2.89c2.87-.47,7.13-1.15,8.3-4.18.93-2.42.35-6.51-1.44-8.46-4.18-4.58-13-.44-14,5-.36,1.89,2.54,2.7,2.89.8Z"/></g><g class="cls-7"><path d="M221.23,470.26c1-5.19,10.65-5.37,9.84.33-.44,3.13-3.85,3.17-6.37,3.59-1.62.27-1.21,2.42,0,2.89,3.21,1.26,6.08,3.83,4.67,7.79-1,2.83-8.55,4.28-9.59.3a1.5,1.5,0,0,0-2.89.79c1.38,5.32,10.81,6.3,14.14,2.28,4.7-5.67-.14-12-5.53-14.05v2.89c2.87-.47,7.13-1.15,8.3-4.18.93-2.42.35-6.51-1.44-8.46-4.18-4.58-13-.44-14,5-.36,1.89,2.54,2.7,2.89.8Z"/></g><g class="cls-7"><path d="M494.1,26.9a234.52,234.52,0,0,1-15.44,20.21,1.51,1.51,0,0,0,1.82,2.35,109.9,109.9,0,0,1,28.92-8.32c1.9-.28,1.09-3.17-.8-2.89A112.67,112.67,0,0,0,479,46.87l1.82,2.36a241.1,241.1,0,0,0,15.91-20.82c1.09-1.6-1.51-3.1-2.59-1.51Z"/></g><g class="cls-7"><path d="M493.5,30.43V55a1.5,1.5,0,0,0,3,0V30.43a1.5,1.5,0,0,0-3,0Z"/></g><g class="cls-7"><path d="M536.1,171.9a234.52,234.52,0,0,1-15.44,20.21,1.51,1.51,0,0,0,1.82,2.35,109.9,109.9,0,0,1,28.92-8.32c1.9-.28,1.09-3.17-.8-2.89A112.67,112.67,0,0,0,521,191.87l1.82,2.36a241.1,241.1,0,0,0,15.91-20.82c1.09-1.6-1.51-3.1-2.59-1.51Z"/></g><g class="cls-7"><path d="M535.5,175.43V200a1.5,1.5,0,0,0,3,0V175.43a1.5,1.5,0,0,0-3,0Z"/></g><g class="cls-7"><path d="M469.1,316.9a234.52,234.52,0,0,1-15.44,20.21,1.51,1.51,0,0,0,1.82,2.35,109.9,109.9,0,0,1,28.92-8.32c1.9-.28,1.09-3.17-.8-2.89A112.67,112.67,0,0,0,454,336.87l1.82,2.36a241.1,241.1,0,0,0,15.91-20.82c1.09-1.6-1.51-3.1-2.59-1.51Z"/></g><g class="cls-7"><path d="M468.5,320.43V345a1.5,1.5,0,0,0,3,0V320.43a1.5,1.5,0,0,0-3,0Z"/></g><g class="cls-7"><path d="M293.1,461.9a234.52,234.52,0,0,1-15.44,20.21,1.51,1.51,0,0,0,1.82,2.35,109.9,109.9,0,0,1,28.92-8.32c1.9-.28,1.09-3.17-.8-2.89A112.67,112.67,0,0,0,278,481.87l1.82,2.36a241.1,241.1,0,0,0,15.91-20.82c1.09-1.6-1.51-3.1-2.59-1.51Z"/></g><g class="cls-7"><path d="M292.5,465.43V490a1.5,1.5,0,0,0,3,0V465.43a1.5,1.5,0,0,0-3,0Z"/></g><g class="cls-7"><path d="M92.6,41.63c3.73-2.21,8.88-8.28,4.53-12.47C93.8,26,85.46,27.37,82.92,31c-3.7,5.32,3.59,9.06,7.61,10.41,3,1,4.67,1,6.59,3.72,2.14,3.05,2.27,2.78-.56,5.36-2.23,2-2,2-4.42,2.11a10.39,10.39,0,0,1-3,.09c-1.47-.47-3.1-4.48-2.41-5.9,1-2,4.22-3.93,5.9-5.11s.07-3.71-1.51-2.59C87.42,41.71,79.2,47.44,82.07,53c2.29,4.4,12.46,3.42,16.14,1.8,4.28-1.9,4.57-8.42,2.12-11.95-2-2.9-5.91-3.19-9-4.27-2.84-1-3.08-.79-3.86-4.07-.83-3.49-.37-3.27,2.73-3.77,2.57-.42,2.32-.49,3.59,2.31,1.49,3.3.43,4.18-2.69,6a1.5,1.5,0,0,0,1.51,2.59Z"/></g><g class="cls-7"><path d="M51.6,187.63c3.73-2.21,8.88-8.28,4.53-12.47C52.8,172,44.46,173.37,41.92,177c-3.7,5.32,3.59,9.06,7.61,10.41,3,1,4.67,1,6.59,3.72,2.14,3,2.27,2.78-.56,5.36-2.23,2-2,2-4.42,2.11a10.39,10.39,0,0,1-3,.09c-1.47-.47-3.1-4.48-2.41-5.9,1-2,4.22-3.93,5.9-5.11s.07-3.71-1.51-2.59c-3.71,2.6-11.93,8.33-9.06,13.85,2.29,4.4,12.46,3.42,16.14,1.8,4.28-1.9,4.57-8.42,2.12-11.95-2-2.9-5.91-3.19-9-4.27-2.84-1-3.08-.79-3.86-4.07-.83-3.49-.37-3.27,2.73-3.77,2.57-.42,2.32-.49,3.59,2.31,1.49,3.3.43,4.18-2.69,6a1.5,1.5,0,0,0,1.51,2.59Z"/></g><g class="cls-7"><path d="M251.6,332.63c3.73-2.21,8.88-8.28,4.53-12.47-3.33-3.21-11.67-1.79-14.21,1.86-3.7,5.32,3.59,9.06,7.61,10.41,3,1,4.67,1,6.59,3.72,2.14,3.05,2.27,2.78-.56,5.36-2.23,2-2,2-4.42,2.11a10.39,10.39,0,0,1-3,.09c-1.47-.47-3.1-4.48-2.41-5.9,1-2,4.22-3.93,5.9-5.11s.07-3.71-1.51-2.59c-3.71,2.6-11.93,8.33-9.06,13.85,2.29,4.4,12.46,3.42,16.14,1.8,4.28-1.9,4.57-8.42,2.12-11.95-2-2.9-5.91-3.19-9-4.27-2.84-1-3.08-.79-3.86-4.07-.83-3.49-.37-3.27,2.73-3.77,2.57-.42,2.32-.49,3.59,2.31,1.49,3.3.43,4.18-2.69,6a1.5,1.5,0,0,0,1.51,2.59Z"/></g><g class="cls-7"><path d="M558.6,477.63c3.73-2.21,8.88-8.28,4.53-12.47-3.33-3.21-11.67-1.79-14.21,1.86-3.7,5.32,3.59,9.06,7.61,10.41,3,1,4.67,1,6.59,3.72,2.14,3.05,2.27,2.78-.56,5.36-2.23,2-2,2-4.42,2.11a10.39,10.39,0,0,1-3,.09c-1.47-.47-3.1-4.48-2.41-5.9,1-2,4.22-3.93,5.9-5.11s.07-3.71-1.51-2.59c-3.71,2.6-11.93,8.33-9.06,13.85,2.29,4.4,12.46,3.42,16.14,1.8,4.28-1.9,4.57-8.42,2.12-11.95-2-2.9-5.91-3.19-9-4.27-2.84-1-3.08-.79-3.86-4.07-.83-3.49-.37-3.27,2.73-3.77,2.57-.42,2.32-.49,3.59,2.31,1.49,3.3.43,4.18-2.69,6a1.5,1.5,0,0,0,1.51,2.59Z"/></g><g class="cls-7"><path d="M281.39,39.51l15.37-7.21-2.21-1.7a78.52,78.52,0,0,0-2.64,26.6c.14,1.91,3.14,1.93,3,0a75.88,75.88,0,0,1,2.54-25.8,1.52,1.52,0,0,0-2.21-1.69l-15.36,7.21c-1.75.82-.23,3.4,1.51,2.59Z"/></g><g class="cls-7"><path d="M242.39,182.51l16.37-7.21-2.21-1.7a73.79,73.79,0,0,0-2.8,26.6c.14,1.91,3.15,1.93,3,0a71.2,71.2,0,0,1,2.7-25.8,1.52,1.52,0,0,0-2.21-1.69l-16.36,7.21c-1.77.77-.24,3.36,1.51,2.59Z"/></g><g class="cls-7"><path d="M177.39,328.51l16.37-7.21-2.21-1.7a73.79,73.79,0,0,0-2.8,26.6c.14,1.91,3.15,1.93,3,0a71.2,71.2,0,0,1,2.7-25.8,1.52,1.52,0,0,0-2.21-1.69l-16.36,7.21c-1.77.77-.24,3.36,1.51,2.59Z"/></g><g class="cls-7"><path d="M484.39,473.51l16.37-7.21-2.21-1.7a73.79,73.79,0,0,0-2.8,26.6c.14,1.91,3.15,1.93,3,0a71.2,71.2,0,0,1,2.7-25.8,1.52,1.52,0,0,0-2.21-1.69l-16.36,7.21c-1.77.77-.24,3.36,1.51,2.59Z"/></g><g class="cls-7"><path d="M149.3,36.65c.68-1.6,3.76-6.71,6.2-5.87s.61,7.52.38,8.95c-.79,4.88-1.54,10.31-4.58,14.34-1,1.3.85,2.66,2,2l16.47-8.34c1.72-.87.2-3.46-1.52-2.59l-16.47,8.34,2.06,2c2.87-3.8,3.71-8.57,4.55-13.18q.72-3.94,1.13-7.94c.15-1.48.84-4.23-.07-5.63-3.36-5.2-11.45,3.18-12.8,6.31-.75,1.75,1.83,3.28,2.6,1.51Z"/></g><g class="cls-7"><path d="M109.3,183.65c.68-1.6,3.76-6.71,6.2-5.87s.61,7.52.38,8.95c-.79,4.88-1.54,10.31-4.58,14.34-1,1.3.85,2.66,2,2.05l16.47-8.34c1.72-.87.2-3.46-1.52-2.59l-16.47,8.34,2.06,2.05c2.87-3.8,3.71-8.57,4.55-13.18q.72-3.94,1.13-7.94c.15-1.48.84-4.23-.07-5.63-3.36-5.2-11.45,3.18-12.8,6.31-.75,1.75,1.83,3.28,2.6,1.51Z"/></g><g class="cls-7"><path d="M42.3,328.65c.68-1.6,3.76-6.71,6.2-5.87s.61,7.52.38,9c-.79,4.88-1.54,10.31-4.58,14.34-1,1.3.85,2.66,2.05,2.05l16.47-8.34c1.72-.87.2-3.46-1.52-2.59l-16.47,8.34,2.06,2.05c2.87-3.8,3.71-8.57,4.55-13.18q.72-3.94,1.13-7.94c.15-1.48.84-4.23-.07-5.63-3.36-5.2-11.45,3.18-12.8,6.31-.75,1.75,1.83,3.28,2.6,1.51Z"/></g><g class="cls-7"><path d="M149.3,473.65c.68-1.6,3.76-6.71,6.2-5.87s.61,7.52.38,9c-.79,4.88-1.54,10.31-4.58,14.34-1,1.3.85,2.66,2,2.05l16.47-8.34c1.72-.87.2-3.46-1.52-2.59l-16.47,8.34,2.06,2.05c2.87-3.8,3.71-8.57,4.55-13.18q.72-3.94,1.13-7.94c.15-1.48.84-4.23-.07-5.63-3.36-5.2-11.45,3.18-12.8,6.31-.75,1.75,1.83,3.28,2.6,1.51Z"/></g><g class="cls-7"><path d="M601.88,168c-5.22,3.69-10.25,9.81-9.89,16.58.28,5.22,2.61,12.19,8.46,13.15,2.67.44,5.34.42,6.7-2.09,1.28-2.36,1.91-6.22,1-8.83C606,180.93,597.57,183,593.3,185c-1.75.8-.23,3.39,1.51,2.59a13.65,13.65,0,0,1,5.85-1.51c2.83.12,6,4.4,4.25,7-3.58,5.43-8.32-1.49-9.28-5.24-1.79-7,2.14-13.17,7.76-17.15,1.56-1.11.07-3.71-1.51-2.59Z"/></g><g class="cls-7"><path d="M601.88,316c-5.22,3.69-10.25,9.81-9.89,16.58.28,5.22,2.61,12.19,8.46,13.15,2.67.44,5.34.42,6.7-2.09s1.91-6.22,1-8.83C606,328.93,597.57,331,593.3,333c-1.75.8-.23,3.39,1.51,2.59a13.65,13.65,0,0,1,5.85-1.51c2.83.12,6,4.4,4.25,7-3.58,5.43-8.32-1.49-9.28-5.24-1.79-7,2.14-13.17,7.76-17.15,1.56-1.11.07-3.71-1.51-2.59Z"/></g><g class="cls-7"><path d="M426.88,460c-5.22,3.69-10.25,9.81-9.89,16.58.28,5.22,2.61,12.19,8.46,13.15,2.67.44,5.34.42,6.7-2.09s1.91-6.22,1-8.83C431,472.93,422.57,475,418.3,477c-1.75.8-.23,3.39,1.51,2.59a13.65,13.65,0,0,1,5.85-1.51c2.83.12,5.95,4.4,4.25,7-3.58,5.43-8.32-1.49-9.28-5.24-1.79-7,2.14-13.17,7.76-17.15,1.56-1.11.07-3.71-1.51-2.59Z"/></g><g class="cls-7"><path d="M559.88,26c-5.22,3.69-10.25,9.81-9.89,16.58.28,5.22,2.61,12.19,8.46,13.15,2.67.44,5.34.42,6.7-2.09s1.91-6.22,1-8.83C564,38.93,555.57,41,551.3,43c-1.75.8-.23,3.39,1.51,2.59A13.65,13.65,0,0,1,558.66,44c2.83.12,6,4.4,4.25,7-3.58,5.43-8.32-1.49-9.28-5.24-1.79-7,2.14-13.17,7.76-17.15,1.56-1.11.07-3.71-1.51-2.59Z"/></g><g class="cls-7"><path d="M432.85,27.52a67.18,67.18,0,0,0-15.35,1.62,1.5,1.5,0,0,0-1,1.84,26.77,26.77,0,0,1,.92,9.42,1.5,1.5,0,0,0,1.5,1.5c3-.08,13.6-1.21,12,4.25-1.16,4-8.19,4.46-11.24,3.69-1.87-.48-2.67,2.42-.8,2.89,5.5,1.39,13.73-.53,15.39-6.84,2.05-7.79-11.09-7.1-15.36-7l1.5,1.5a28.71,28.71,0,0,0-1-10.22L418.3,32a63.59,63.59,0,0,1,14.55-1.51,1.5,1.5,0,0,0,0-3Z"/></g><g class="cls-7"><path d="M474.85,174.52a67.18,67.18,0,0,0-15.35,1.62,1.5,1.5,0,0,0-1,1.84,26.77,26.77,0,0,1,.92,9.42,1.5,1.5,0,0,0,1.5,1.5c3-.08,13.6-1.21,12,4.25-1.16,4-8.19,4.46-11.24,3.69-1.87-.48-2.67,2.42-.8,2.89,5.5,1.39,13.73-.53,15.39-6.84,2.05-7.79-11.09-7.1-15.36-7l1.5,1.5a28.71,28.71,0,0,0-1-10.22L460.3,179a63.59,63.59,0,0,1,14.55-1.51,1.5,1.5,0,0,0,0-3Z"/></g><g class="cls-7"><path d="M539.85,317.52a67.18,67.18,0,0,0-15.35,1.62,1.5,1.5,0,0,0-1,1.84,26.77,26.77,0,0,1,.92,9.42,1.5,1.5,0,0,0,1.5,1.5c3-.08,13.6-1.21,12,4.25-1.16,4-8.19,4.46-11.24,3.69-1.87-.48-2.67,2.42-.8,2.89,5.5,1.39,13.73-.53,15.39-6.84,2-7.79-11.09-7.1-15.36-7l1.5,1.5a28.71,28.71,0,0,0-1-10.22L525.3,322a63.59,63.59,0,0,1,14.55-1.51,1.5,1.5,0,0,0,0-3Z"/></g><g class="cls-7"><path d="M363.85,462.52a67.18,67.18,0,0,0-15.35,1.62,1.5,1.5,0,0,0-1,1.84,26.77,26.77,0,0,1,.92,9.42,1.5,1.5,0,0,0,1.5,1.5c3-.08,13.6-1.21,12,4.25-1.16,4-8.19,4.46-11.24,3.69-1.87-.48-2.67,2.42-.8,2.89,5.5,1.39,13.73-.53,15.39-6.84,2.05-7.79-11.09-7.1-15.36-7l1.5,1.5a28.71,28.71,0,0,0-1-10.22L349.3,467a63.59,63.59,0,0,1,14.55-1.51,1.5,1.5,0,0,0,0-3Z"/></g><text class="cls-8" transform="translate(583.3 118.85)">분할</text><text class="cls-8" transform="translate(583.3 265.85)">정렬</text><text class="cls-8" transform="translate(583.3 408.85)">결합</text></g></g></svg>