<svg xmlns="http://www.w3.org/2000/svg" viewBox="0 0 594 204.51"><defs><style>.cls-1{fill:#fff;}.cls-1,.cls-8{stroke:#000;stroke-miterlimit:10;}.cls-2{opacity:0.5;}.cls-3{fill:#666;}.cls-4{fill:#1c6f9d;}.cls-4,.cls-5,.cls-6,.cls-7{opacity:0.8;}.cls-5{fill:#00a99d;}.cls-6{fill:#0091bf;}.cls-8{fill:none;stroke-width:3px;}.cls-9{font-size:24px;font-family:NanumGothic, Nanum Gothic;}</style></defs><title>자산 11</title><g id="레이어_2" data-name="레이어 2"><g id="레이어_1-2" data-name="레이어 1"><path class="cls-1" d="M301.5,41c4.86-23.06,16-38.78,28.58-40.37C343.36-1,356,13.27,362,36.84"/><g class="cls-2"><path class="cls-3" d="M531.92,186.4a1.19,1.19,0,1,1,1.19,1.11A1.11,1.11,0,0,1,531.92,186.4Zm.31,3.21H534v10.21h-1.73Z"/><path class="cls-3" d="M537.41,189.61h1.42l.15,1.47H539a4.85,4.85,0,0,1,3.42-1.72c2.15,0,3.12,1.39,3.12,4v6.47h-1.73v-6.25c0-1.9-.58-2.71-1.93-2.71-1,0-1.76.53-2.79,1.56v7.4h-1.72Z"/><path class="cls-3" d="M548.11,201.78a2.86,2.86,0,0,1,1.5-2.31v-.09a1.88,1.88,0,0,1-.91-1.67,2.44,2.44,0,0,1,1.12-1.89v-.09A3.53,3.53,0,0,1,548.5,193a3.62,3.62,0,0,1,3.83-3.63,4.18,4.18,0,0,1,1.44.25h3.56v1.33h-2.1a3,3,0,0,1,.83,2.1,3.49,3.49,0,0,1-3.73,3.54,3.6,3.6,0,0,1-1.53-.35,1.52,1.52,0,0,0-.65,1.21c0,.65.42,1.11,1.79,1.11h2c2.37,0,3.56.74,3.56,2.43,0,1.9-2,3.53-5.15,3.53C549.84,204.51,548.11,203.53,548.11,201.78Zm7.69-.54c0-.94-.71-1.27-2-1.27H552a5.83,5.83,0,0,1-1.33-.15,2.13,2.13,0,0,0-1,1.71c0,1.1,1.1,1.79,3,1.79S555.8,202.31,555.8,201.24ZM554.49,193a2.17,2.17,0,1,0-4.33,0,2.18,2.18,0,1,0,4.33,0Z"/><path class="cls-3" d="M558.7,201.78a2.86,2.86,0,0,1,1.5-2.31v-.09a1.88,1.88,0,0,1-.91-1.67,2.44,2.44,0,0,1,1.12-1.89v-.09a3.53,3.53,0,0,1-1.32-2.74,3.62,3.62,0,0,1,3.83-3.63,4.18,4.18,0,0,1,1.44.25h3.56v1.33h-2.1a3,3,0,0,1,.83,2.1,3.49,3.49,0,0,1-3.73,3.54,3.6,3.6,0,0,1-1.53-.35,1.52,1.52,0,0,0-.65,1.21c0,.65.42,1.11,1.79,1.11h2c2.37,0,3.56.74,3.56,2.43,0,1.9-2,3.53-5.16,3.53C560.42,204.51,558.7,203.53,558.7,201.78Zm7.69-.54c0-.94-.71-1.27-2-1.27h-1.76a5.83,5.83,0,0,1-1.33-.15,2.13,2.13,0,0,0-1,1.71c0,1.1,1.1,1.79,3,1.79S566.39,202.31,566.39,201.24ZM565.08,193a2.17,2.17,0,1,0-4.33,0,2.18,2.18,0,1,0,4.33,0Z"/><path class="cls-3" d="M569.71,198.76a1.25,1.25,0,1,1,1.25,1.31A1.26,1.26,0,0,1,569.71,198.76Z"/><path class="cls-3" d="M575,186.4a1.2,1.2,0,0,1,2.39,0,1.2,1.2,0,0,1-2.39,0Zm.32,3.21H577v10.21H575.3Z"/><path class="cls-3" d="M579.71,194.73c0-3.41,2.23-5.37,4.73-5.37s4.73,2,4.73,5.37-2.23,5.34-4.73,5.34S579.71,198.11,579.71,194.73Zm7.68,0c0-2.34-1.19-3.93-2.95-3.93s-2.94,1.59-2.94,3.93,1.19,3.9,2.94,3.9S587.39,197.06,587.39,194.73Z"/></g><rect class="cls-4" x="4" y="45.5" width="52" height="60" rx="9.65" ry="9.65" transform="translate(-45.5 105.5) rotate(-90)"/><rect class="cls-5" x="138" y="45.5" width="52" height="60" rx="9.65" ry="9.65" transform="translate(88.5 239.5) rotate(-90)"/><rect class="cls-5" x="71" y="45.5" width="52" height="60" rx="9.65" ry="9.65" transform="translate(21.5 172.5) rotate(-90)"/><rect class="cls-5" x="204" y="45.5" width="52" height="60" rx="9.65" ry="9.65" transform="translate(154.5 305.5) rotate(-90)"/><rect class="cls-6" x="338" y="45.5" width="52" height="60" rx="9.65" ry="9.65" transform="translate(288.5 439.5) rotate(-90)"/><rect class="cls-5" x="472" y="45.5" width="52" height="60" rx="9.65" ry="9.65" transform="translate(422.5 573.5) rotate(-90)"/><rect class="cls-5" x="405" y="45.5" width="52" height="60" rx="9.65" ry="9.65" transform="translate(355.5 506.5) rotate(-90)"/><rect class="cls-5" x="538" y="45.5" width="52" height="60" rx="9.65" ry="9.65" transform="translate(488.5 639.5) rotate(-90)"/><polygon points="307 38.5 295.87 38.03 301.43 43.82 307 38.5"/><g class="cls-7"><path d="M96.36,71.18a30.66,30.66,0,0,1,4.52-6.62l-2.5-1.46c-2.69,9.35-3.18,19.15-4.24,28.8-.2,1.92,2.8,1.9,3,0,1-9.37,1.52-18.92,4.13-28a1.51,1.51,0,0,0-2.51-1.46,33,33,0,0,0-5,7.23c-.89,1.71,1.7,3.23,2.59,1.51Z"/></g><g class="cls-7"><path d="M159.23,69.76c1-5.19,10.65-5.37,9.84.33-.44,3.13-3.84,3.17-6.37,3.59-1.62.27-1.21,2.42,0,2.89,3.21,1.26,6.08,3.83,4.67,7.79-1,2.83-8.55,4.28-9.59.3a1.5,1.5,0,0,0-2.89.79c1.38,5.32,10.81,6.3,14.14,2.28,4.7-5.67-.14-12-5.53-14v2.89c2.87-.47,7.13-1.15,8.3-4.18.93-2.42.35-6.51-1.44-8.46-4.18-4.58-13-.44-14,5-.36,1.89,2.54,2.7,2.89.8Z"/></g><g class="cls-7"><path d="M232.1,62.4a234.52,234.52,0,0,1-15.44,20.21A1.51,1.51,0,0,0,218.48,85a109.9,109.9,0,0,1,28.92-8.32c1.9-.28,1.09-3.17-.8-2.89A112.67,112.67,0,0,0,217,82.37l1.82,2.36a241.1,241.1,0,0,0,15.91-20.82c1.09-1.6-1.51-3.1-2.59-1.51Z"/></g><g class="cls-7"><path d="M231.5,65.93V90.5a1.5,1.5,0,0,0,3,0V65.93a1.5,1.5,0,0,0-3,0Z"/></g><g class="cls-7"><path d="M564.6,74.13c3.73-2.21,8.88-8.28,4.53-12.47-3.33-3.21-11.67-1.79-14.21,1.86-3.7,5.32,3.59,9.06,7.61,10.41,3,1,4.67,1,6.59,3.72,2.14,3,2.27,2.78-.56,5.36-2.23,2-2,2-4.42,2.11a10.39,10.39,0,0,1-3,.09c-1.47-.47-3.1-4.48-2.41-5.9,1-2,4.22-3.93,5.9-5.11s.07-3.71-1.51-2.59c-3.71,2.6-11.93,8.33-9.06,13.85,2.29,4.4,12.46,3.42,16.14,1.8,4.28-1.9,4.57-8.42,2.12-12-2-2.9-5.91-3.19-9-4.27-2.84-1-3.08-.79-3.86-4.07-.83-3.49-.37-3.27,2.73-3.77,2.57-.42,2.32-.49,3.59,2.31,1.49,3.3.43,4.18-2.69,6a1.5,1.5,0,0,0,1.51,2.59Z"/></g><g class="cls-7"><path d="M422.39,73l16.37-7.21-2.21-1.7a73.79,73.79,0,0,0-2.8,26.6c.14,1.91,3.15,1.93,3,0a71.2,71.2,0,0,1,2.7-25.8,1.53,1.53,0,0,0-2.21-1.7l-16.36,7.22c-1.77.77-.24,3.36,1.51,2.59Z"/></g><g class="cls-7"><path d="M500.88,59.53c-5.22,3.69-10.25,9.81-9.89,16.58.28,5.22,2.61,12.19,8.46,13.15,2.67.44,5.34.42,6.7-2.09,1.28-2.36,1.91-6.22,1-8.83-2.14-5.91-10.55-3.86-14.82-1.89-1.75.8-.23,3.39,1.51,2.59a13.65,13.65,0,0,1,5.85-1.51c2.83.12,5.95,4.4,4.25,7-3.58,5.43-8.32-1.49-9.28-5.24-1.79-7,2.14-13.17,7.76-17.15,1.56-1.11.07-3.71-1.51-2.59Z"/></g><g class="cls-7"><path d="M37.85,63A67.18,67.18,0,0,0,22.5,64.64a1.5,1.5,0,0,0-1,1.84,26.77,26.77,0,0,1,.92,9.42,1.5,1.5,0,0,0,1.5,1.5c3-.08,13.6-1.21,12,4.25-1.16,4-8.19,4.46-11.24,3.69-1.87-.48-2.67,2.42-.8,2.89,5.5,1.39,13.73-.53,15.39-6.84,2-7.79-11.09-7.1-15.36-7l1.5,1.5a28.71,28.71,0,0,0-1-10.22L23.3,67.53A63.59,63.59,0,0,1,37.85,66a1.5,1.5,0,0,0,0-3Z"/></g><rect class="cls-6" x="271" y="45.5" width="52" height="60" rx="9.65" ry="9.65" transform="translate(221.5 372.5) rotate(-90)"/><polygon points="305.93 117.69 289 118.1 297.3 109.43 305.93 117.69"/><line class="cls-8" x1="297.5" y1="143.5" x2="297.5" y2="117.5"/><text class="cls-9" transform="translate(278.3 168.35)">low</text><polygon points="371.93 117.69 355 118.1 363.3 109.43 371.93 117.69"/><line class="cls-8" x1="363.5" y1="143.5" x2="363.5" y2="117.5"/><text class="cls-9" transform="translate(340 168.35)">high</text><g class="cls-7"><path d="M365.42,62.59c-5.19.19-11.27.7-14.4,5.51-2.7,4.16-1,8.83,2.51,11.87,3,2.58,7.94,4.6,11.47,1.93,4.58-3.47,4.83-12.65,5-17.79a1.5,1.5,0,0,0-2.94-.4c-2.05,9.2,1.94,19,4.17,27.84.47,1.88,3.36,1.08,2.89-.79C372.09,82.59,368.09,73,370,64.51l-3-.4a45.2,45.2,0,0,1-1.31,9.68c-.68,2.61-.71,2.62-3.32,4.45s-3.2,2-5.83.3c-4.08-2.67-5.08-8.32-.6-11.08,2.78-1.72,6.31-1.76,9.46-1.87,1.93-.07,1.94-3.08,0-3Z"/></g><polygon points="368 36.5 356.87 36.03 362.43 41.82 368 36.5"/><g class="cls-7"><path d="M288.3,71.15c.68-1.6,3.76-6.71,6.2-5.87s.61,7.52.38,9c-.79,4.88-1.54,10.31-4.58,14.34-1,1.3.85,2.66,2.05,2.05l16.47-8.34c1.72-.87.2-3.46-1.52-2.59L290.83,88l2.06,2c2.87-3.8,3.71-8.57,4.55-13.18q.72-3.95,1.13-7.94c.15-1.48.84-4.23-.07-5.63-3.36-5.2-11.45,3.18-12.8,6.31-.75,1.75,1.83,3.28,2.6,1.51Z"/></g></g></g></svg>