<svg xmlns="http://www.w3.org/2000/svg" viewBox="0 0 594 251.36"><defs><style>.cls-1{opacity:0.5;}.cls-2{fill:#666;}.cls-3{fill:#1c6f9d;}.cls-3,.cls-4,.cls-6{opacity:0.8;}.cls-4{fill:#00a99d;}.cls-5{fill:none;stroke:#000;stroke-miterlimit:10;stroke-width:3px;}.cls-7{font-size:24px;font-family:NanumGothic, Nanum Gothic;}</style></defs><title>자산 9</title><g id="레이어_2" data-name="레이어 2"><g id="레이어_1-2" data-name="레이어 1"><g class="cls-1"><path class="cls-2" d="M535.92,233.24a1.19,1.19,0,1,1,1.19,1.11A1.11,1.11,0,0,1,535.92,233.24Zm.31,3.21H538v10.21h-1.73Z"/><path class="cls-2" d="M541.41,236.45h1.42l.15,1.48H543a4.86,4.86,0,0,1,3.42-1.73c2.15,0,3.12,1.39,3.12,4v6.47h-1.73v-6.24c0-1.91-.58-2.72-1.93-2.72-1,0-1.76.53-2.79,1.57v7.39h-1.72Z"/><path class="cls-2" d="M552.11,248.62a2.88,2.88,0,0,1,1.5-2.31v-.08a1.89,1.89,0,0,1-.91-1.67,2.44,2.44,0,0,1,1.12-1.9v-.08a3.55,3.55,0,0,1-1.32-2.74,3.62,3.62,0,0,1,3.83-3.64,4.18,4.18,0,0,1,1.44.25h3.56v1.33h-2.1a3,3,0,0,1,.83,2.1,3.48,3.48,0,0,1-3.73,3.54,3.6,3.6,0,0,1-1.53-.35,1.52,1.52,0,0,0-.65,1.21c0,.65.42,1.11,1.79,1.11h2c2.37,0,3.56.74,3.56,2.44,0,1.89-2,3.53-5.15,3.53C553.84,251.36,552.11,250.38,552.11,248.62Zm7.69-.54c0-.94-.71-1.26-2-1.26H556a5.83,5.83,0,0,1-1.33-.15,2.11,2.11,0,0,0-1,1.71c0,1.09,1.1,1.79,3,1.79S559.8,249.15,559.8,248.08Zm-1.31-8.24a2.18,2.18,0,1,0-4.33,0,2.18,2.18,0,1,0,4.33,0Z"/><path class="cls-2" d="M562.7,248.62a2.88,2.88,0,0,1,1.5-2.31v-.08a1.89,1.89,0,0,1-.91-1.67,2.44,2.44,0,0,1,1.12-1.9v-.08a3.55,3.55,0,0,1-1.32-2.74,3.62,3.62,0,0,1,3.83-3.64,4.18,4.18,0,0,1,1.44.25h3.56v1.33h-2.1a3,3,0,0,1,.83,2.1,3.48,3.48,0,0,1-3.73,3.54,3.6,3.6,0,0,1-1.53-.35,1.52,1.52,0,0,0-.65,1.21c0,.65.42,1.11,1.79,1.11h2c2.37,0,3.56.74,3.56,2.44,0,1.89-2,3.53-5.16,3.53C564.42,251.36,562.7,250.38,562.7,248.62Zm7.69-.54c0-.94-.71-1.26-2-1.26h-1.76a5.83,5.83,0,0,1-1.33-.15,2.11,2.11,0,0,0-1,1.71c0,1.09,1.1,1.79,3,1.79S570.39,249.15,570.39,248.08Zm-1.31-8.24a2.18,2.18,0,1,0-4.33,0,2.18,2.18,0,1,0,4.33,0Z"/><path class="cls-2" d="M573.71,245.6a1.25,1.25,0,1,1,1.25,1.31A1.26,1.26,0,0,1,573.71,245.6Z"/><path class="cls-2" d="M579,233.24a1.2,1.2,0,0,1,2.39,0,1.2,1.2,0,0,1-2.39,0Zm.32,3.21H581v10.21H579.3Z"/><path class="cls-2" d="M583.71,241.57c0-3.41,2.23-5.37,4.73-5.37s4.73,2,4.73,5.37-2.23,5.34-4.73,5.34S583.71,245,583.71,241.57Zm7.68,0c0-2.34-1.19-3.93-2.95-3.93s-2.94,1.59-2.94,3.93,1.19,3.9,2.94,3.9S591.39,243.91,591.39,241.57Z"/></g><rect class="cls-3" x="4" y="78.35" width="52" height="60" rx="9.65" ry="9.65" transform="translate(-78.35 138.35) rotate(-90)"/><rect class="cls-4" x="138" y="78.35" width="52" height="60" rx="9.65" ry="9.65" transform="translate(55.65 272.35) rotate(-90)"/><rect class="cls-4" x="71" y="78.35" width="52" height="60" rx="9.65" ry="9.65" transform="translate(-11.35 205.35) rotate(-90)"/><rect class="cls-4" x="204" y="78.35" width="52" height="60" rx="9.65" ry="9.65" transform="translate(121.65 338.35) rotate(-90)"/><rect class="cls-4" x="338" y="78.35" width="52" height="60" rx="9.65" ry="9.65" transform="translate(255.65 472.35) rotate(-90)"/><rect class="cls-4" x="472" y="78.35" width="52" height="60" rx="9.65" ry="9.65" transform="translate(389.65 606.35) rotate(-90)"/><rect class="cls-4" x="405" y="78.35" width="52" height="60" rx="9.65" ry="9.65" transform="translate(322.65 539.35) rotate(-90)"/><rect class="cls-4" x="538" y="78.35" width="52" height="60" rx="9.65" ry="9.65" transform="translate(455.65 672.35) rotate(-90)"/><polygon points="571.93 64.15 555 63.75 563.3 72.42 571.93 64.15"/><line class="cls-5" x1="563.5" y1="38.35" x2="563.5" y2="64.35"/><g class="cls-6"><path d="M96.36,104a30.18,30.18,0,0,1,4.52-6.62L98.38,96c-2.69,9.35-3.18,19.15-4.24,28.8-.2,1.91,2.8,1.9,3,0,1-9.37,1.52-18.93,4.13-28a1.51,1.51,0,0,0-2.51-1.45,33,33,0,0,0-5,7.22c-.89,1.72,1.7,3.24,2.59,1.52Z"/></g><g class="cls-6"><path d="M159.23,102.61c1-5.19,10.65-5.37,9.84.33-.44,3.13-3.84,3.17-6.37,3.59-1.62.26-1.21,2.42,0,2.89,3.21,1.25,6.08,3.83,4.67,7.79-1,2.82-8.55,4.28-9.59.29-.48-1.87-3.38-1.07-2.89.8,1.38,5.31,10.81,6.29,14.14,2.28,4.7-5.68-.14-12-5.53-14v2.89c2.87-.48,7.13-1.15,8.3-4.18.93-2.42.35-6.51-1.44-8.46-4.18-4.58-13-.44-14,5-.36,1.89,2.54,2.7,2.89.8Z"/></g><g class="cls-6"><path d="M433.1,94.24a234.52,234.52,0,0,1-15.44,20.21,1.51,1.51,0,0,0,1.82,2.36,109.53,109.53,0,0,1,28.92-8.32c1.9-.28,1.09-3.17-.8-2.9A112.31,112.31,0,0,0,418,114.22l1.82,2.36a241.1,241.1,0,0,0,15.91-20.82c1.09-1.6-1.51-3.11-2.59-1.52Z"/></g><g class="cls-6"><path d="M432.5,97.77v24.58a1.5,1.5,0,0,0,3,0V97.77a1.5,1.5,0,0,0-3,0Z"/></g><g class="cls-6"><path d="M564.6,107c3.73-2.22,8.88-8.29,4.53-12.48-3.33-3.2-11.67-1.78-14.21,1.86-3.7,5.32,3.59,9.07,7.61,10.42,3,1,4.67,1,6.59,3.72,2.14,3,2.27,2.78-.56,5.35-2.23,2-2,2-4.42,2.12a10,10,0,0,1-3,.08c-1.47-.46-3.1-4.48-2.41-5.9,1-2,4.22-3.92,5.9-5.11s.07-3.7-1.51-2.59c-3.71,2.61-11.93,8.33-9.06,13.85,2.29,4.4,12.46,3.43,16.14,1.8,4.28-1.89,4.57-8.42,2.12-11.95-2-2.9-5.91-3.19-9-4.26-2.84-1-3.08-.79-3.86-4.08-.83-3.48-.37-3.27,2.73-3.77,2.57-.41,2.32-.48,3.59,2.32,1.49,3.3.43,4.17-2.69,6A1.5,1.5,0,0,0,564.6,107Z"/></g><g class="cls-6"><path d="M220.39,103.85l16.37-7.21L234.55,95a73.76,73.76,0,0,0-2.8,26.59c.14,1.92,3.15,1.93,3,0a71.24,71.24,0,0,1,2.7-25.8,1.52,1.52,0,0,0-2.21-1.69l-16.36,7.21c-1.77.78-.24,3.36,1.51,2.59Z"/></g><g class="cls-6"><path d="M356.3,105c.68-1.61,3.76-6.71,6.2-5.88s.61,7.53.38,8.95c-.79,4.88-1.54,10.31-4.58,14.34-1,1.3.85,2.66,2.05,2.06l16.47-8.34c1.72-.87.2-3.46-1.52-2.59l-16.47,8.34,2.06,2.05c2.87-3.81,3.71-8.58,4.55-13.18.48-2.63.86-5.29,1.13-8,.15-1.47.84-4.22-.07-5.63-3.36-5.19-11.45,3.19-12.8,6.31-.75,1.76,1.83,3.29,2.6,1.52Z"/></g><g class="cls-6"><path d="M500.88,92.37c-5.22,3.69-10.25,9.81-9.89,16.58.28,5.23,2.61,12.19,8.46,13.16,2.67.44,5.34.41,6.7-2.09s1.91-6.23,1-8.84c-2.14-5.9-10.55-3.85-14.82-1.89-1.75.81-.23,3.39,1.51,2.59a13.8,13.8,0,0,1,5.85-1.51c2.83.13,5.95,4.41,4.25,7-3.58,5.43-8.32-1.48-9.28-5.23-1.79-7,2.14-13.18,7.76-17.16,1.56-1.1.07-3.71-1.51-2.59Z"/></g><g class="cls-6"><path d="M37.85,95.86A68.32,68.32,0,0,0,22.5,97.48a1.52,1.52,0,0,0-1,1.85,26.74,26.74,0,0,1,.92,9.42,1.51,1.51,0,0,0,1.5,1.5c3-.08,13.6-1.22,12,4.25-1.16,4-8.19,4.45-11.24,3.68-1.87-.47-2.67,2.42-.8,2.9,5.5,1.38,13.73-.53,15.39-6.84,2-7.79-11.09-7.11-15.36-7l1.5,1.5a28.67,28.67,0,0,0-1-10.22l-1.05,1.84a64.16,64.16,0,0,1,14.55-1.51,1.5,1.5,0,0,0,0-3Z"/></g><rect class="cls-4" x="271" y="78.35" width="52" height="60" rx="9.65" ry="9.65" transform="translate(188.65 405.35) rotate(-90)"/><polygon points="38.93 68.15 22 67.75 30.3 76.42 38.93 68.15"/><line class="cls-5" x1="30.5" y1="42.35" x2="30.5" y2="68.35"/><text class="cls-7" transform="translate(11.3 27.2)">left</text><text class="cls-7" transform="translate(534.3 19.2)">right</text><polygon points="38.93 150.54 22 150.94 30.3 142.28 38.93 150.54"/><line class="cls-5" x1="30.5" y1="176.35" x2="30.5" y2="150.35"/><text class="cls-7" transform="translate(1.3 201.2)">pivot</text><polygon points="104.93 150.54 88 150.94 96.3 142.28 104.93 150.54"/><line class="cls-5" x1="96.5" y1="176.35" x2="96.5" y2="150.35"/><text class="cls-7" transform="translate(77.3 201.2)">low</text><polygon points="573.93 150.54 557 150.94 565.3 142.28 573.93 150.54"/><line class="cls-5" x1="565.5" y1="176.35" x2="565.5" y2="150.35"/><text class="cls-7" transform="translate(542 201.2)">high</text><g class="cls-6"><path d="M299.42,92.43c-5.19.2-11.27.71-14.4,5.52-2.7,4.16-1,8.82,2.51,11.87,3,2.57,7.94,4.6,11.47,1.93,4.58-3.48,4.83-12.65,5-17.79a1.5,1.5,0,0,0-2.94-.4c-2.05,9.19,1.94,19,4.17,27.84.47,1.87,3.36,1.08,2.89-.8-2.05-8.17-6.05-17.81-4.17-26.25L301,94a45.11,45.11,0,0,1-1.31,9.67c-.68,2.62-.71,2.63-3.32,4.45s-3.2,2-5.83.3c-4.08-2.66-5.08-8.31-.6-11.08,2.78-1.71,6.31-1.75,9.46-1.87,1.93-.07,1.94-3.07,0-3Z"/></g></g></g></svg>