<svg xmlns="http://www.w3.org/2000/svg" viewBox="0 0 593 229.36"><defs><style>.cls-1{opacity:0.5;}.cls-2{fill:#666;}.cls-3{fill:#1c6f9d;}.cls-3,.cls-4,.cls-6{opacity:0.8;}.cls-4{fill:#00a99d;}.cls-5{fill:none;stroke:#000;stroke-miterlimit:10;stroke-width:3px;}.cls-7{font-size:24px;font-family:NanumGothic, Nanum Gothic;}</style></defs><title>자산 13</title><g id="레이어_2" data-name="레이어 2"><g id="레이어_1-2" data-name="레이어 1"><g class="cls-1"><path class="cls-2" d="M530.92,211.24a1.19,1.19,0,0,1,2.38,0,1.19,1.19,0,0,1-2.38,0Zm.31,3.22H533v10.2h-1.73Z"/><path class="cls-2" d="M536.41,214.46h1.42l.15,1.47H538a4.86,4.86,0,0,1,3.42-1.73c2.15,0,3.12,1.39,3.12,4v6.46h-1.73v-6.24c0-1.9-.58-2.72-1.93-2.72-1,0-1.76.54-2.79,1.57v7.39h-1.72Z"/><path class="cls-2" d="M547.11,226.62a2.89,2.89,0,0,1,1.5-2.31v-.08a1.88,1.88,0,0,1-.91-1.67,2.46,2.46,0,0,1,1.12-1.9v-.08a3.53,3.53,0,0,1-1.32-2.74,3.62,3.62,0,0,1,3.83-3.64,3.94,3.94,0,0,1,1.44.26h3.56v1.33h-2.1a2.93,2.93,0,0,1,.83,2.1,3.48,3.48,0,0,1-3.73,3.53,3.74,3.74,0,0,1-1.53-.34,1.52,1.52,0,0,0-.65,1.2c0,.65.42,1.11,1.79,1.11h2c2.37,0,3.56.75,3.56,2.44,0,1.9-2,3.53-5.15,3.53C548.84,229.36,547.11,228.38,547.11,226.62Zm7.69-.53c0-1-.71-1.27-2-1.27H551a5.83,5.83,0,0,1-1.33-.15,2.12,2.12,0,0,0-1,1.71c0,1.1,1.1,1.79,3,1.79S554.8,227.15,554.8,226.09Zm-1.31-8.25a2.17,2.17,0,1,0-4.33,0,2.18,2.18,0,1,0,4.33,0Z"/><path class="cls-2" d="M557.7,226.62a2.89,2.89,0,0,1,1.5-2.31v-.08a1.88,1.88,0,0,1-.91-1.67,2.46,2.46,0,0,1,1.12-1.9v-.08a3.53,3.53,0,0,1-1.32-2.74,3.62,3.62,0,0,1,3.83-3.64,3.94,3.94,0,0,1,1.44.26h3.56v1.33h-2.1a2.93,2.93,0,0,1,.83,2.1,3.48,3.48,0,0,1-3.73,3.53,3.74,3.74,0,0,1-1.53-.34,1.52,1.52,0,0,0-.65,1.2c0,.65.42,1.11,1.79,1.11h2c2.37,0,3.56.75,3.56,2.44,0,1.9-2,3.53-5.16,3.53C559.42,229.36,557.7,228.38,557.7,226.62Zm7.69-.53c0-1-.71-1.27-2-1.27h-1.76a5.83,5.83,0,0,1-1.33-.15,2.12,2.12,0,0,0-1,1.71c0,1.1,1.1,1.79,3,1.79S565.39,227.15,565.39,226.09Zm-1.31-8.25a2.17,2.17,0,1,0-4.33,0,2.18,2.18,0,1,0,4.33,0Z"/><path class="cls-2" d="M568.71,223.61a1.25,1.25,0,1,1,1.25,1.3A1.26,1.26,0,0,1,568.71,223.61Z"/><path class="cls-2" d="M574,211.24a1.2,1.2,0,0,1,2.39,0,1.2,1.2,0,0,1-2.39,0Zm.32,3.22H576v10.2H574.3Z"/><path class="cls-2" d="M578.71,219.57c0-3.4,2.23-5.37,4.73-5.37s4.73,2,4.73,5.37-2.23,5.34-4.73,5.34S578.71,223,578.71,219.57Zm7.68,0c0-2.34-1.19-3.93-2.95-3.93s-2.94,1.59-2.94,3.93,1.19,3.91,2.94,3.91S586.39,221.91,586.39,219.57Z"/></g><rect class="cls-3" x="270" y="70.35" width="52" height="60" rx="9.65" ry="9.65" transform="translate(195.65 396.35) rotate(-90)"/><rect class="cls-4" x="137" y="70.35" width="52" height="60" rx="9.65" ry="9.65" transform="translate(62.65 263.35) rotate(-90)"/><rect class="cls-4" x="70" y="70.35" width="52" height="60" rx="9.65" ry="9.65" transform="translate(-4.35 196.35) rotate(-90)"/><rect class="cls-4" x="203" y="70.35" width="52" height="60" rx="9.65" ry="9.65" transform="translate(128.65 329.35) rotate(-90)"/><rect class="cls-4" x="337" y="70.35" width="52" height="60" rx="9.65" ry="9.65" transform="translate(262.65 463.35) rotate(-90)"/><rect class="cls-4" x="471" y="70.35" width="52" height="60" rx="9.65" ry="9.65" transform="translate(396.65 597.35) rotate(-90)"/><rect class="cls-4" x="404" y="70.35" width="52" height="60" rx="9.65" ry="9.65" transform="translate(329.65 530.35) rotate(-90)"/><rect class="cls-4" x="537" y="70.35" width="52" height="60" rx="9.65" ry="9.65" transform="translate(462.65 663.35) rotate(-90)"/><line class="cls-5" x1="563.5" y1="35.85" x2="563.5" y2="64.35"/><g class="cls-6"><path d="M95.36,96a30.18,30.18,0,0,1,4.52-6.62L97.38,88c-2.69,9.35-3.18,19.15-4.24,28.8-.2,1.91,2.8,1.9,3,0,1-9.37,1.52-18.93,4.13-28a1.51,1.51,0,0,0-2.51-1.45,33,33,0,0,0-5,7.22c-.89,1.72,1.7,3.24,2.59,1.52Z"/></g><g class="cls-6"><path d="M158.23,94.61c1-5.19,10.65-5.37,9.84.33-.44,3.13-3.84,3.17-6.37,3.59-1.62.26-1.21,2.42,0,2.89,3.21,1.25,6.08,3.83,4.67,7.79-1,2.82-8.55,4.28-9.59.29-.48-1.87-3.38-1.07-2.89.8,1.38,5.31,10.81,6.29,14.14,2.28,4.7-5.68-.14-12-5.53-14v2.89c2.87-.48,7.13-1.15,8.3-4.18.93-2.42.35-6.51-1.44-8.46-4.18-4.58-13-.44-14,5-.36,1.89,2.54,2.7,2.89.8Z"/></g><g class="cls-6"><path d="M231.1,87.24a234.52,234.52,0,0,1-15.44,20.21,1.51,1.51,0,0,0,1.82,2.36,109.53,109.53,0,0,1,28.92-8.32c1.9-.28,1.09-3.17-.8-2.9A112.31,112.31,0,0,0,216,107.22l1.82,2.36a241.1,241.1,0,0,0,15.91-20.82c1.09-1.6-1.51-3.11-2.59-1.52Z"/></g><g class="cls-6"><path d="M230.5,90.77v24.58a1.5,1.5,0,0,0,3,0V90.77a1.5,1.5,0,0,0-3,0Z"/></g><g class="cls-6"><path d="M563.6,99c3.73-2.22,8.88-8.29,4.53-12.48-3.33-3.2-11.67-1.78-14.21,1.86-3.7,5.32,3.59,9.07,7.61,10.42,3,1,4.67,1,6.59,3.72,2.14,3,2.27,2.78-.56,5.35-2.23,2-2,2-4.42,2.12a10,10,0,0,1-3,.08c-1.47-.46-3.1-4.48-2.41-5.9,1-2,4.22-3.92,5.9-5.11s.07-3.7-1.51-2.59c-3.71,2.61-11.93,8.33-9.06,13.85,2.29,4.4,12.46,3.43,16.14,1.8,4.28-1.89,4.57-8.42,2.12-11.95-2-2.9-5.91-3.19-9-4.26-2.84-1-3.08-.79-3.86-4.08-.83-3.48-.37-3.27,2.73-3.77,2.57-.41,2.32-.48,3.59,2.32,1.49,3.3.43,4.17-2.69,6A1.5,1.5,0,0,0,563.6,99Z"/></g><g class="cls-6"><path d="M421.39,97.85l16.37-7.21L435.55,89a73.76,73.76,0,0,0-2.8,26.59c.14,1.92,3.15,1.93,3,0a71.24,71.24,0,0,1,2.7-25.8,1.52,1.52,0,0,0-2.21-1.69l-16.36,7.21c-1.77.78-.24,3.36,1.51,2.59Z"/></g><g class="cls-6"><path d="M499.88,84.37c-5.22,3.69-10.25,9.81-9.89,16.58.28,5.23,2.61,12.19,8.46,13.16,2.67.44,5.34.41,6.7-2.09s1.91-6.23,1-8.84c-2.14-5.9-10.55-3.85-14.82-1.89-1.75.81-.23,3.39,1.51,2.59a13.8,13.8,0,0,1,5.85-1.51c2.83.13,5.95,4.41,4.25,7-3.58,5.43-8.32-1.48-9.28-5.23-1.79-7,2.14-13.18,7.76-17.16,1.56-1.1.07-3.71-1.51-2.59Z"/></g><g class="cls-6"><path d="M303.85,86.86a68.32,68.32,0,0,0-15.35,1.62,1.52,1.52,0,0,0-1,1.85,26.74,26.74,0,0,1,.92,9.42,1.51,1.51,0,0,0,1.5,1.5c3-.08,13.6-1.22,12,4.25-1.16,4-8.19,4.45-11.24,3.68-1.87-.47-2.67,2.42-.8,2.9,5.5,1.38,13.73-.53,15.39-6.84,2.05-7.79-11.09-7.11-15.36-7l1.5,1.5a28.67,28.67,0,0,0-1-10.22l-1.05,1.84a64.16,64.16,0,0,1,14.55-1.51,1.5,1.5,0,0,0,0-3Z"/></g><rect class="cls-4" x="4" y="70.35" width="52" height="60" rx="9.65" ry="9.65" transform="translate(-70.35 130.35) rotate(-90)"/><polygon points="38.93 60.15 22 59.75 30.3 68.42 38.93 60.15"/><line class="cls-5" x1="30.5" y1="34.35" x2="30.5" y2="60.35"/><text class="cls-7" transform="translate(11.3 19.2)">left</text><polygon points="371.93 60.15 355 59.75 363.3 68.42 371.93 60.15"/><line class="cls-5" x1="363.5" y1="34.35" x2="363.5" y2="60.35"/><text class="cls-7" transform="translate(344.3 19.2)">left</text><text class="cls-7" transform="translate(534.3 19.2)">right</text><polygon points="37.93 144.54 21 144.94 29.3 136.28 37.93 144.54"/><line class="cls-5" x1="29.5" y1="170.35" x2="29.5" y2="144.35"/><text class="cls-7" transform="translate(0.3 195.2)">pivot</text><polygon points="370.93 144.54 354 144.94 362.3 136.28 370.93 144.54"/><line class="cls-5" x1="362.5" y1="170.35" x2="362.5" y2="144.35"/><text class="cls-7" transform="translate(333.3 195.2)">pivot</text><polygon points="571.93 60.68 555 60.28 563.3 68.94 571.93 60.68"/><line class="cls-5" x1="231.5" y1="35.85" x2="231.5" y2="64.35"/><text class="cls-7" transform="translate(202.3 19.2)">right</text><polygon points="239.93 60.68 223 60.28 231.3 68.94 239.93 60.68"/><g class="cls-6"><path d="M364.42,87.43c-5.19.2-11.27.71-14.4,5.52-2.7,4.16-1,8.82,2.51,11.87,3,2.57,7.94,4.6,11.47,1.93,4.58-3.48,4.83-12.65,5-17.79a1.5,1.5,0,0,0-2.94-.4c-2.05,9.19,1.94,19,4.17,27.84.47,1.87,3.36,1.08,2.89-.8-2.05-8.17-6.05-17.81-4.17-26.25L366,89a45.11,45.11,0,0,1-1.31,9.67c-.68,2.62-.71,2.63-3.32,4.45s-3.2,2-5.83.3c-4.08-2.66-5.08-8.31-.6-11.08,2.78-1.71,6.31-1.75,9.46-1.87,1.93-.07,1.94-3.07,0-3Z"/></g><g class="cls-6"><path d="M21.3,98c.68-1.61,3.76-6.71,6.2-5.88s.61,7.53.38,8.95c-.79,4.88-1.54,10.31-4.58,14.34-1,1.3.85,2.66,2.05,2.06l16.47-8.34c1.72-.87.2-3.46-1.52-2.59l-16.47,8.34,2.06,2.05c2.87-3.81,3.71-8.58,4.55-13.18.48-2.63.86-5.29,1.13-8,.15-1.47.84-4.22-.07-5.63C28.14,85,20.05,93.36,18.7,96.48,18,98.24,20.53,99.77,21.3,98Z"/></g></g></g></svg>