<svg xmlns="http://www.w3.org/2000/svg" viewBox="0 0 670.21 207.79"><defs><style>.cls-1{opacity:0.5;}.cls-2{fill:#666;}.cls-3{fill:#00aa94;}.cls-4{fill:#fff;}.cls-5{fill:#ccc;}.cls-6{fill:none;stroke:#000;stroke-miterlimit:10;}.cls-7{font-size:14px;font-family:NanumGothic, Nanum Gothic;}</style></defs><title>자산 27</title><g id="레이어_2" data-name="레이어 2"><g id="레이어_1-2" data-name="레이어 1"><g class="cls-1"><path class="cls-2" d="M618.72,191.49a1.07,1.07,0,1,1,1.07,1A1,1,0,0,1,618.72,191.49Zm.28,2.89h1.56v9.18H619Z"/><path class="cls-2" d="M623.65,194.38h1.29l.13,1.32h0a4.4,4.4,0,0,1,3.08-1.55c1.93,0,2.8,1.25,2.8,3.59v5.82h-1.55v-5.62c0-1.71-.52-2.44-1.73-2.44a3.48,3.48,0,0,0-2.51,1.41v6.65h-1.56Z"/><path class="cls-2" d="M633.28,205.32a2.57,2.57,0,0,1,1.35-2.07v-.08a1.68,1.68,0,0,1-.82-1.5,2.21,2.21,0,0,1,1-1.71v-.07a3.2,3.2,0,0,1-1.19-2.47,3.26,3.26,0,0,1,3.44-3.27,3.65,3.65,0,0,1,1.3.23h3.2v1.19h-1.88a2.67,2.67,0,0,1,.74,1.89,3.14,3.14,0,0,1-3.36,3.19,3.33,3.33,0,0,1-1.37-.31,1.33,1.33,0,0,0-.58,1.08c0,.58.38,1,1.61,1h1.79c2.13,0,3.2.67,3.2,2.19,0,1.71-1.8,3.18-4.64,3.18C634.83,207.79,633.28,206.9,633.28,205.32Zm6.92-.48c0-.85-.64-1.14-1.85-1.14h-1.58a5.23,5.23,0,0,1-1.2-.13,1.91,1.91,0,0,0-.93,1.53c0,1,1,1.61,2.66,1.61S640.2,205.8,640.2,204.84ZM639,197.42a2,2,0,1,0-3.9,0,2,2,0,1,0,3.9,0Z"/><path class="cls-2" d="M642.8,205.32a2.6,2.6,0,0,1,1.35-2.07v-.08a1.68,1.68,0,0,1-.82-1.5,2.21,2.21,0,0,1,1-1.71v-.07a3.2,3.2,0,0,1-1.19-2.47,3.26,3.26,0,0,1,3.45-3.27,3.63,3.63,0,0,1,1.29.23h3.21v1.19h-1.89a2.68,2.68,0,0,1,.75,1.89,3.14,3.14,0,0,1-3.36,3.19,3.26,3.26,0,0,1-1.37-.31,1.34,1.34,0,0,0-.59,1.08c0,.58.38,1,1.61,1H648c2.13,0,3.21.67,3.21,2.19,0,1.71-1.81,3.18-4.65,3.18C644.36,207.79,642.8,206.9,642.8,205.32Zm6.92-.48c0-.85-.64-1.14-1.85-1.14h-1.58a5.09,5.09,0,0,1-1.19-.13,1.9,1.9,0,0,0-.94,1.53c0,1,1,1.61,2.66,1.61S649.72,205.8,649.72,204.84Zm-1.17-7.42a2,2,0,1,0-3.91,0,2,2,0,1,0,3.91,0Z"/><path class="cls-2" d="M652.7,202.61a1.13,1.13,0,1,1,2.25,0,1.13,1.13,0,1,1-2.25,0Z"/><path class="cls-2" d="M657.45,191.49a1.07,1.07,0,1,1,1.07,1A1,1,0,0,1,657.45,191.49Zm.28,2.89h1.56v9.18h-1.56Z"/><path class="cls-2" d="M661.7,199c0-3.06,2-4.83,4.26-4.83s4.25,1.77,4.25,4.83-2,4.81-4.25,4.81S661.7,202,661.7,199Zm6.9,0c0-2.1-1.07-3.54-2.64-3.54s-2.65,1.44-2.65,3.54,1.07,3.51,2.65,3.51S668.6,201.09,668.6,199Z"/></g><rect class="cls-3" x="12.58" y="27.5" width="77" height="77" rx="2.16" ry="2.16" transform="translate(-14.92 117.08) rotate(-90)"/><path class="cls-4" d="M81,39.79V92.21c0,2.1-1.1,3.79-2.46,3.79H23.46C22.1,96,21,94.31,21,92.21V39.79C21,37.7,22.1,36,23.46,36H78.54C79.9,36,81,37.7,81,39.79Z"/><path class="cls-5" d="M425,27.82V136.18a7.85,7.85,0,0,1-7.89,7.82H240.89a7.85,7.85,0,0,1-7.89-7.82V27.82A7.85,7.85,0,0,1,240.89,20H417.11A7.85,7.85,0,0,1,425,27.82Z"/><rect class="cls-3" x="41" y="73" width="20" height="102" rx="1.27" ry="1.27" transform="translate(-73 175) rotate(-90)"/><rect class="cls-3" x="38.5" y="90.5" width="25" height="44" rx="0.93" ry="0.93" transform="translate(-61.5 163.5) rotate(-90)"/><rect class="cls-3" x="591.5" y="81.5" width="20" height="129" rx="1.42" ry="1.42" transform="translate(455.5 747.5) rotate(-90)"/><rect class="cls-3" x="529" y="29" width="144" height="86" rx="3.12" ry="3.12" transform="translate(529 673) rotate(-90)"/><line class="cls-6" x1="572" y1="102.5" x2="630" y2="102.5"/><line class="cls-6" x1="572" y1="88.5" x2="630" y2="88.5"/><line class="cls-6" x1="572" y1="74.5" x2="630" y2="74.5"/><line class="cls-6" x1="572" y1="61.5" x2="630" y2="61.5"/><line class="cls-6" x1="572" y1="47.5" x2="630" y2="47.5"/><line class="cls-6" x1="572" y1="33.5" x2="630" y2="33.5"/><line class="cls-6" x1="245" y1="56.5" x2="408.5" y2="56.5"/><line class="cls-6" x1="245" y1="113.5" x2="408.5" y2="113.5"/><text class="cls-7" transform="translate(185.9 45.55)">시작줄</text><text class="cls-7" transform="translate(185.9 81.55)">헤더</text><text class="cls-7" transform="translate(185.9 130.55)">본문</text><text class="cls-7" transform="translate(17.9 155.55)">클라이언트</text><text class="cls-7" transform="translate(247.9 42.55)"><tspan xml:space="preserve">HTTP/1.0  200  OK</tspan></text><text class="cls-7" transform="translate(247.9 133.55)">I’m a message</text><text class="cls-7" transform="translate(585.9 174.55)">서버</text><polygon points="462.88 90.25 462.47 74.02 452.9 82.82 462.88 90.25"/><line class="cls-6" x1="516" y1="82.5" x2="458" y2="82.5"/><polygon points="112.88 90.25 112.47 74.02 102.9 82.82 112.88 90.25"/><line class="cls-6" x1="166" y1="82.5" x2="108" y2="82.5"/><text class="cls-7" transform="translate(244.9 79.35)">Content-type: text/plain<tspan x="0" y="16.8">Content-length: 19</tspan></text></g></g></svg>