<svg xmlns="http://www.w3.org/2000/svg" viewBox="0 0 640 279.99"><defs><style>.cls-1{opacity:0.5;}.cls-2{fill:#666;}.cls-3{fill:#00aa94;}.cls-4{fill:#fff;}.cls-5{fill:#ccc;}.cls-6{fill:none;stroke:#000;stroke-miterlimit:10;}.cls-7{font-size:14px;font-family:NanumGothic, Nanum Gothic;}</style></defs><title>자산 26</title><g id="레이어_2" data-name="레이어 2"><g id="레이어_1-2" data-name="레이어 1"><g class="cls-1"><path class="cls-2" d="M571.92,261.88a1.19,1.19,0,1,1,1.19,1.11A1.11,1.11,0,0,1,571.92,261.88Zm.31,3.21H574V275.3h-1.73Z"/><path class="cls-2" d="M577.41,265.09h1.42l.15,1.47H579a4.88,4.88,0,0,1,3.42-1.72c2.15,0,3.12,1.39,3.12,4v6.47h-1.73v-6.25c0-1.9-.58-2.71-1.93-2.71-1,0-1.76.53-2.79,1.57v7.39h-1.72Z"/><path class="cls-2" d="M588.11,277.26a2.86,2.86,0,0,1,1.5-2.31v-.08a1.9,1.9,0,0,1-.91-1.68,2.44,2.44,0,0,1,1.12-1.89v-.09a3.53,3.53,0,0,1-1.32-2.74,3.62,3.62,0,0,1,3.83-3.63,4.18,4.18,0,0,1,1.44.25h3.56v1.33h-2.1a3,3,0,0,1,.83,2.1,3.48,3.48,0,0,1-3.73,3.54,3.6,3.6,0,0,1-1.53-.35,1.52,1.52,0,0,0-.65,1.21c0,.65.42,1.11,1.79,1.11h2c2.37,0,3.56.74,3.56,2.43,0,1.9-2,3.53-5.15,3.53C589.84,280,588.11,279,588.11,277.26Zm7.69-.54c0-.94-.71-1.26-2-1.26H592a5.87,5.87,0,0,1-1.33-.16,2.13,2.13,0,0,0-1,1.71c0,1.1,1.1,1.79,3,1.79S595.8,277.79,595.8,276.72Zm-1.31-8.25a2.17,2.17,0,1,0-4.33,0,2.18,2.18,0,1,0,4.33,0Z"/><path class="cls-2" d="M598.7,277.26a2.86,2.86,0,0,1,1.5-2.31v-.08a1.9,1.9,0,0,1-.91-1.68,2.44,2.44,0,0,1,1.12-1.89v-.09a3.53,3.53,0,0,1-1.32-2.74,3.62,3.62,0,0,1,3.83-3.63,4.18,4.18,0,0,1,1.44.25h3.56v1.33h-2.1a3,3,0,0,1,.83,2.1,3.48,3.48,0,0,1-3.73,3.54,3.6,3.6,0,0,1-1.53-.35,1.52,1.52,0,0,0-.65,1.21c0,.65.42,1.11,1.79,1.11h2c2.37,0,3.56.74,3.56,2.43,0,1.9-2,3.53-5.16,3.53C600.42,280,598.7,279,598.7,277.26Zm7.69-.54c0-.94-.71-1.26-2-1.26h-1.76a5.87,5.87,0,0,1-1.33-.16,2.13,2.13,0,0,0-1,1.71c0,1.1,1.1,1.79,3,1.79S606.39,277.79,606.39,276.72Zm-1.31-8.25a2.17,2.17,0,1,0-4.33,0,2.18,2.18,0,1,0,4.33,0Z"/><path class="cls-2" d="M609.71,274.24a1.25,1.25,0,1,1,1.25,1.31A1.26,1.26,0,0,1,609.71,274.24Z"/><path class="cls-2" d="M615,261.88a1.2,1.2,0,0,1,2.39,0,1.2,1.2,0,0,1-2.39,0Zm.32,3.21H617V275.3H615.3Z"/><path class="cls-2" d="M619.71,270.21c0-3.41,2.23-5.37,4.73-5.37s4.73,2,4.73,5.37-2.23,5.34-4.73,5.34S619.71,273.59,619.71,270.21Zm7.68,0c0-2.34-1.19-3.93-2.95-3.93s-2.94,1.59-2.94,3.93,1.19,3.9,2.94,3.9S627.39,272.55,627.39,270.21Z"/></g><rect class="cls-3" x="12.58" y="54.48" width="77" height="77" rx="2.16" ry="2.16" transform="translate(-41.9 144.07) rotate(-90)"/><polygon points="132.12 16.23 132.53 0 142.1 8.8 132.12 16.23"/><path class="cls-4" d="M81,66.77V119.2c0,2.09-1.1,3.78-2.46,3.78H23.46C22.1,123,21,121.29,21,119.2V66.77C21,64.68,22.1,63,23.46,63H78.54C79.9,63,81,64.68,81,66.77Z"/><path class="cls-5" d="M243,65.52v48.93c0,2-1.1,3.53-2.46,3.53H185.46c-1.36,0-2.46-1.58-2.46-3.53V65.52c0-1.95,1.1-3.54,2.46-3.54h55.08C241.9,62,243,63.57,243,65.52Z"/><rect class="cls-3" x="41" y="99.98" width="20" height="102" rx="1.27" ry="1.27" transform="translate(-99.98 201.98) rotate(-90)"/><rect class="cls-3" x="38.5" y="117.48" width="25" height="44" rx="0.93" ry="0.93" transform="translate(-88.48 190.48) rotate(-90)"/><rect class="cls-3" x="565.5" y="108.48" width="20" height="129" rx="1.42" ry="1.42" transform="translate(402.52 748.48) rotate(-90)"/><rect class="cls-3" x="503" y="55.98" width="144" height="86" rx="3.12" ry="3.12" transform="translate(476.02 673.98) rotate(-90)"/><line class="cls-6" x1="546" y1="129.48" x2="604" y2="129.48"/><line class="cls-6" x1="546" y1="115.48" x2="604" y2="115.48"/><line class="cls-6" x1="546" y1="101.48" x2="604" y2="101.48"/><line class="cls-6" x1="546" y1="88.48" x2="604" y2="88.48"/><line class="cls-6" x1="546" y1="74.48" x2="604" y2="74.48"/><line class="cls-6" x1="546" y1="60.48" x2="604" y2="60.48"/><line class="cls-6" x1="79" y1="8.48" x2="137" y2="8.48"/><polygon points="438.12 16.23 438.53 0 448.1 8.8 438.12 16.23"/><line class="cls-6" x1="385" y1="8.48" x2="443" y2="8.48"/><text class="cls-7" transform="translate(189.9 138.54)">프락시1</text><text class="cls-7" transform="translate(17.9 182.54)">클라이언트</text><text class="cls-7" transform="translate(490.9 240.54)">아웃바운드</text><text class="cls-7" transform="translate(17.9 12.54)">인바운드</text><text class="cls-7" transform="translate(171.9 12.54)"><tspan xml:space="preserve">GET   /index.html   HTTP/1.0</tspan></text><text class="cls-7" transform="translate(171.9 240.54)"><tspan xml:space="preserve">HTTP/1.0  200  OK</tspan><tspan x="0" y="16.8">Content-type: text/html</tspan><tspan x="0" y="33.6">...</tspan></text><text class="cls-7" transform="translate(559.9 201.54)">서버</text><path class="cls-5" d="M341,65.52v48.93c0,2-1.1,3.53-2.46,3.53H283.46c-1.36,0-2.46-1.58-2.46-3.53V65.52c0-1.95,1.1-3.54,2.46-3.54h55.08C339.9,62,341,63.57,341,65.52Z"/><text class="cls-7" transform="translate(287.9 138.54)">프락시2</text><path class="cls-5" d="M439,65.52v48.93c0,2-1.1,3.53-2.46,3.53H381.46c-1.36,0-2.46-1.58-2.46-3.53V65.52c0-1.95,1.1-3.54,2.46-3.54h55.08C437.9,62,439,63.57,439,65.52Z"/><text class="cls-7" transform="translate(385.9 138.54)">프락시3</text><polygon points="430.88 244.23 430.47 228 420.9 236.8 430.88 244.23"/><line class="cls-6" x1="484" y1="236.48" x2="426" y2="236.48"/><polygon points="60.88 244.23 60.47 228 50.9 236.8 60.88 244.23"/><line class="cls-6" x1="114" y1="236.48" x2="56" y2="236.48"/></g></g></svg>