<svg xmlns="http://www.w3.org/2000/svg" viewBox="0 0 326.79 159.7"><defs><style>.cls-1{opacity:0.5;}.cls-2{fill:#666;}.cls-3{fill:#ccc;}.cls-3,.cls-5{stroke:#000;stroke-miterlimit:10;}.cls-4{fill:#00aa94;}.cls-5{fill:none;}.cls-6{isolation:isolate;font-size:10.78px;font-family:NanumGothic, Nanum Gothic;}</style></defs><g id="레이어_2" data-name="레이어 2"><g id="레이어_1-2" data-name="레이어 1"><g class="cls-1"><path class="cls-2" d="M310.2,149.94a.45.45,0,0,1,.39-.5.44.44,0,0,1,.45.43.46.46,0,0,1-.39.5h0a.4.4,0,0,1-.42-.4Zm.11,1.25h.62v4h-.61Z"/><path class="cls-2" d="M312.14,151.19h.5l.05.58h0a1.69,1.69,0,0,1,1.21-.68c.76,0,1.1.55,1.1,1.57v2.53h-.61v-2.45c0-.74-.21-1.06-.68-1.06s-.63.21-1,.62v2.89h-.61Z"/><path class="cls-2" d="M315.92,156a1.1,1.1,0,0,1,.53-.9v0a.78.78,0,0,1-.33-.66,1,1,0,0,1,.4-.74v0a1.44,1.44,0,0,1-.47-1.07,1.36,1.36,0,0,1,1.28-1.42h.08a1.44,1.44,0,0,1,.5.1h1.26v.52h-.74a1.21,1.21,0,0,1,.29.82,1.3,1.3,0,0,1-1.2,1.39h-.11a1.11,1.11,0,0,1-.54-.14.6.6,0,0,0-.23.47c0,.26.14.44.63.44h.7c.84,0,1.26.29,1.26.95s-.71,1.38-1.82,1.38C316.53,157,315.92,156.63,315.92,156Zm2.71-.21c0-.37-.25-.49-.71-.49h-.63a1.84,1.84,0,0,1-.47-.07.86.86,0,0,0-.35.67c0,.43.38.7,1.06.7S318.63,156.16,318.63,155.74Zm-.46-3.23a.82.82,0,0,0-.71-.9.8.8,0,0,0-.82.79v.11a.84.84,0,0,0,.67,1,.8.8,0,0,0,.86-.75A.67.67,0,0,0,318.17,152.51Z"/><path class="cls-2" d="M319.65,156a1.15,1.15,0,0,1,.53-.9v0a.8.8,0,0,1-.32-.66,1,1,0,0,1,.4-.74v0a1.44,1.44,0,0,1-.47-1.07,1.36,1.36,0,0,1,1.28-1.42h.07a1.45,1.45,0,0,1,.51.1h1.26v.52h-.74a1.26,1.26,0,0,1,.29.82,1.3,1.3,0,0,1-1.2,1.39h-.12a1.17,1.17,0,0,1-.54-.14.59.59,0,0,0-.22.47c0,.26.14.44.63.44h.7c.84,0,1.26.29,1.26.95s-.71,1.38-1.82,1.38C320.26,157,319.65,156.63,319.65,156Zm2.72-.21c0-.37-.25-.49-.71-.49H321a1.91,1.91,0,0,1-.47-.07.86.86,0,0,0-.35.67c0,.43.39.7,1.06.7S322.37,156.16,322.37,155.74Zm-.46-3.23a.82.82,0,0,0-.71-.9.8.8,0,0,0-.82.79v.11a.84.84,0,0,0,.67,1,.8.8,0,0,0,.86-.75Z"/></g><ellipse class="cls-3" cx="290.48" cy="78.3" rx="35.81" ry="13.86"/><ellipse class="cls-3" cx="290.48" cy="64.78" rx="35.81" ry="13.86"/><ellipse class="cls-3" cx="290.48" cy="50.93" rx="35.81" ry="13.86"/><path class="cls-4" d="M40.73,158.94v-9.26a.72.72,0,0,1,.66-.77H100.8a.73.73,0,0,1,.67.77v9.26a.72.72,0,0,1-.67.76H41.39A.71.71,0,0,1,40.73,158.94Z"/><path class="cls-4" d="M50.61,152V97.49a1.37,1.37,0,0,1,1.47-1.24H89.64a1.37,1.37,0,0,1,1.47,1.24V152a1.37,1.37,0,0,1-1.47,1.24H52.08A1.37,1.37,0,0,1,50.61,152Z"/><line class="cls-5" x1="57.21" y1="130.84" x2="84.52" y2="130.84"/><line class="cls-5" x1="57.21" y1="123.29" x2="84.52" y2="123.29"/><line class="cls-5" x1="57.21" y1="115.74" x2="84.52" y2="115.74"/><path class="cls-4" d="M40.73,62.68V53.43a.71.71,0,0,1,.66-.77H100.8a.72.72,0,0,1,.67.77v9.25a.72.72,0,0,1-.67.77H41.39A.71.71,0,0,1,40.73,62.68Z"/><path class="cls-4" d="M50.61,55.74V1.23A1.37,1.37,0,0,1,52.08,0H89.64a1.37,1.37,0,0,1,1.47,1.23V55.74A1.37,1.37,0,0,1,89.64,57H52.08A1.37,1.37,0,0,1,50.61,55.74Z"/><line class="cls-5" x1="57.21" y1="34.59" x2="84.52" y2="34.59"/><line class="cls-5" x1="57.21" y1="27.04" x2="84.52" y2="27.04"/><line class="cls-5" x1="57.21" y1="19.49" x2="84.52" y2="19.49"/><line class="cls-5" x1="233.49" y1="70.8" x2="113.5" y2="40.05"/><line class="cls-5" x1="113.5" y1="101.55" x2="233.49" y2="70.8"/><text class="cls-6" transform="translate(277.15 30.17) scale(0.94 1)">저장소</text><text class="cls-6" transform="translate(0 31.72) scale(0.94 1)">DB 서버1</text><text class="cls-6" transform="translate(0 127.45) scale(0.94 1)">DB 서버2</text></g></g></svg>