<svg xmlns="http://www.w3.org/2000/svg" viewBox="0 0 344.38 236.98"><defs><style>.cls-1{opacity:0.5;}.cls-2{fill:#666;}.cls-3{fill:#ccc;}.cls-3,.cls-5{stroke:#000;stroke-miterlimit:10;}.cls-4{fill:#00aa94;}.cls-5{fill:none;}.cls-6,.cls-7{isolation:isolate;font-family:NanumGothic, Nanum Gothic;}.cls-6{font-size:9.34px;}.cls-7{font-size:8.63px;}</style></defs><g id="레이어_2" data-name="레이어 2"><g id="레이어_1-2" data-name="레이어 1"><g class="cls-1"><path class="cls-2" d="M320.79,210.57a.45.45,0,0,1,.39-.49.44.44,0,0,1,.45.43.46.46,0,0,1-.39.5h0a.41.41,0,0,1-.42-.4Zm.11,1.26h.62v4h-.61Z"/><path class="cls-2" d="M322.73,211.83h.5l0,.57h0a1.68,1.68,0,0,1,1.21-.67c.76,0,1.1.54,1.1,1.57v2.52H325v-2.44c0-.74-.21-1.06-.68-1.06s-.63.21-1,.62v2.88h-.61Z"/><path class="cls-2" d="M326.51,216.59a1.13,1.13,0,0,1,.53-.91v0a.78.78,0,0,1-.33-.65,1,1,0,0,1,.4-.74v0a1.44,1.44,0,0,1-.47-1.07,1.36,1.36,0,0,1,1.28-1.42H328a1.24,1.24,0,0,1,.5.1h1.26v.52H329a1.19,1.19,0,0,1,.29.82,1.3,1.3,0,0,1-1.2,1.39H328a1.11,1.11,0,0,1-.54-.13.6.6,0,0,0-.23.47c0,.25.14.43.63.43h.7c.84,0,1.26.29,1.26,1s-.7,1.38-1.82,1.38C327.12,217.66,326.51,217.27,326.51,216.59Zm2.71-.21c0-.37-.25-.5-.7-.5h-.64a1.84,1.84,0,0,1-.47-.06.86.86,0,0,0-.35.67c0,.43.39.7,1.06.7S329.22,216.79,329.22,216.38Zm-.46-3.23a.82.82,0,0,0-.71-.9.79.79,0,0,0-.82.79v.11a.84.84,0,0,0,.67.95.8.8,0,0,0,.86-.75A.67.67,0,0,0,328.76,213.15Z"/><path class="cls-2" d="M330.25,216.59a1.15,1.15,0,0,1,.52-.91v0a.8.8,0,0,1-.32-.65,1,1,0,0,1,.4-.74v0a1.44,1.44,0,0,1-.47-1.07,1.36,1.36,0,0,1,1.28-1.42h.08a1.24,1.24,0,0,1,.5.1h1.26v.52h-.74a1.19,1.19,0,0,1,.29.82,1.3,1.3,0,0,1-1.2,1.39h-.11a1.11,1.11,0,0,1-.54-.13.6.6,0,0,0-.23.47c0,.25.14.43.63.43h.7c.84,0,1.26.29,1.26,1s-.71,1.38-1.82,1.38C330.85,217.66,330.25,217.27,330.25,216.59Zm2.71-.21c0-.37-.25-.5-.71-.5h-.62a1.89,1.89,0,0,1-.47-.06.86.86,0,0,0-.35.67c0,.43.39.7,1.06.7S333,216.79,333,216.38Zm-.46-3.23a.82.82,0,0,0-.71-.9.79.79,0,0,0-.82.79v.11a.84.84,0,0,0,.67.95.8.8,0,0,0,.86-.75A.67.67,0,0,0,332.5,213.15Z"/></g><ellipse class="cls-3" cx="311.6" cy="141.07" rx="32.28" ry="12.01"/><ellipse class="cls-3" cx="311.6" cy="129.35" rx="32.28" ry="12.01"/><ellipse class="cls-3" cx="311.6" cy="117.34" rx="32.28" ry="12.01"/><path class="cls-4" d="M33.88,115.49v-7.41a.58.58,0,0,1,.56-.61H83.86a.58.58,0,0,1,.56.61v7.41a.59.59,0,0,1-.56.62H34.44A.59.59,0,0,1,33.88,115.49Z"/><path class="cls-4" d="M42.11,109.93V66.28a1.12,1.12,0,0,1,1.22-1H74.58a1.12,1.12,0,0,1,1.22,1v43.65a1.12,1.12,0,0,1-1.22,1H43.33A1.12,1.12,0,0,1,42.11,109.93Z"/><line class="cls-5" x1="47.59" y1="92.99" x2="70.31" y2="92.99"/><line class="cls-5" x1="47.59" y1="86.95" x2="70.31" y2="86.95"/><line class="cls-5" x1="47.59" y1="80.9" x2="70.31" y2="80.9"/><path class="cls-4" d="M34,50.2V42.79a.58.58,0,0,1,.56-.61H84a.58.58,0,0,1,.55.61V50.2a.59.59,0,0,1-.55.62H34.54A.59.59,0,0,1,34,50.2Z"/><path class="cls-4" d="M42.21,44.64V1a1.12,1.12,0,0,1,1.22-1H74.67A1.13,1.13,0,0,1,75.9,1V44.64a1.13,1.13,0,0,1-1.23,1H43.43A1.12,1.12,0,0,1,42.21,44.64Z"/><line class="cls-5" x1="47.69" y1="27.7" x2="70.41" y2="27.7"/><line class="cls-5" x1="47.69" y1="21.65" x2="70.41" y2="21.65"/><line class="cls-5" x1="47.69" y1="15.61" x2="70.41" y2="15.61"/><line class="cls-5" x1="235.33" y1="128.29" x2="109.28" y2="98.7"/><line class="cls-5" x1="235.43" y1="127.96" x2="127.12" y2="57.01"/><line class="cls-5" x1="125.51" y1="186.16" x2="235.04" y2="128.31"/><text class="cls-6" transform="translate(299.58 99.36) scale(0.97 1)">저장소</text><text class="cls-7" transform="translate(0.1 25.41) scale(0.97 1)">DB 서버1</text><text class="cls-7" transform="translate(0 90.28) scale(0.97 1)">DB 서버2</text><path class="cls-4" d="M33.88,236.37V229a.58.58,0,0,1,.56-.61H83.86a.58.58,0,0,1,.56.61v7.42a.58.58,0,0,1-.56.61H34.44A.58.58,0,0,1,33.88,236.37Z"/><path class="cls-4" d="M42.11,230.81V187.15a1.13,1.13,0,0,1,1.22-1H74.58a1.13,1.13,0,0,1,1.22,1v43.66a1.13,1.13,0,0,1-1.22,1H43.33A1.13,1.13,0,0,1,42.11,230.81Z"/><line class="cls-5" x1="47.59" y1="213.87" x2="70.31" y2="213.87"/><line class="cls-5" x1="47.59" y1="207.82" x2="70.31" y2="207.82"/><line class="cls-5" x1="47.59" y1="201.77" x2="70.31" y2="201.77"/><text class="cls-7" transform="translate(0 211.15) scale(0.97 1)">DB 서버n</text><path d="M59.25,138.38c3.86,0,3.87-6,0-6s-3.87,6,0,6Z"/><path d="M59.25,153.76c3.86,0,3.87-6,0-6s-3.87,6,0,6Z"/><path d="M59.25,169.13c3.86,0,3.87-6,0-6s-3.87,6,0,6Z"/></g></g></svg>