<svg xmlns="http://www.w3.org/2000/svg" viewBox="0 0 253.81 159.7"><defs><style>.cls-1{opacity:0.5;}.cls-2{fill:#666;}.cls-3{fill:#ccc;}.cls-3,.cls-5{stroke:#000;stroke-miterlimit:10;}.cls-4{fill:#00aa94;}.cls-5{fill:none;}.cls-6,.cls-8,.cls-9{isolation:isolate;font-family:NanumGothic, Nanum Gothic;}.cls-6{font-size:7.57px;}.cls-7{fill:#b10038;}.cls-8{font-size:4.84px;fill:#c10000;}.cls-9{font-size:5.29px;}.cls-10{fill:#e60000;}</style></defs><g id="레이어_2" data-name="레이어 2"><g id="레이어_1-2" data-name="레이어 1"><g id="레이어_1-2-2" data-name="레이어 1-2"><g class="cls-1"><path class="cls-2" d="M230.48,152.85a.3.3,0,0,1,.28-.35.31.31,0,0,1,.33.3h0a.32.32,0,0,1-.28.35h0a.29.29,0,0,1-.31-.27h0Zm.08.87H231v2.81h-.45Z"/><path class="cls-2" d="M231.9,153.72h.37l0,.41h0a1.26,1.26,0,0,1,.89-.48c.56,0,.81.39.81,1.11v1.77h-.45v-1.72c0-.52-.16-.74-.5-.74s-.47.15-.74.43v2h-.45Z"/><path class="cls-2" d="M234.68,157.1a.76.76,0,0,1,.39-.63h0a.57.57,0,0,1-.24-.46.66.66,0,0,1,.3-.52h0a1,1,0,0,1-.35-.75,1,1,0,0,1,.94-1h.06a.94.94,0,0,1,.37.07h.93v.36h-.55a.83.83,0,0,1,.21.58.93.93,0,0,1-.88,1h-.08a1,1,0,0,1-.4-.1.43.43,0,0,0-.17.33c0,.18.11.31.47.31h.51c.62,0,.93.2.93.66s-.52,1-1.34,1C235.13,157.8,234.68,157.54,234.68,157.1Zm2-.15c0-.26-.19-.34-.52-.34h-.47a1.33,1.33,0,0,1-.34-.05.59.59,0,0,0-.26.47c0,.3.28.49.78.49s.81-.31.81-.6Zm-.34-2.26a.6.6,0,0,0-.52-.64.59.59,0,0,0-.61.55h0v.08a.6.6,0,0,0,.48.7h0a.59.59,0,0,0,.63-.52h0a.37.37,0,0,0,0-.21Z"/><path class="cls-2" d="M237.43,157.1a.8.8,0,0,1,.39-.63h0a.57.57,0,0,1-.24-.46.69.69,0,0,1,.3-.52h0a1,1,0,0,1-.35-.75,1,1,0,0,1,.94-1h.06a1,1,0,0,1,.37.07h.93v.36h-.55a.91.91,0,0,1,.22.58.94.94,0,0,1-.89,1h-.08a1.07,1.07,0,0,1-.4-.1.37.37,0,0,0-.16.33c0,.18.1.31.46.31h.51c.62,0,.93.2.93.66s-.52,1-1.34,1C237.88,157.8,237.43,157.54,237.43,157.1Zm2-.15c0-.26-.18-.34-.52-.34h-.49a1.33,1.33,0,0,1-.34-.05.59.59,0,0,0-.26.47c0,.3.29.49.78.49s.83-.31.83-.6Zm-.34-2.26a.59.59,0,0,0-.52-.64.57.57,0,0,0-.6.55h0v.08a.59.59,0,0,0,.47.7h0a.58.58,0,0,0,.63-.52h0Z"/></g><ellipse class="cls-3" cx="226.96" cy="95.34" rx="26.35" ry="9.73"/><ellipse class="cls-3" cx="226.96" cy="85.85" rx="26.35" ry="9.73"/><ellipse class="cls-3" cx="226.96" cy="76.12" rx="26.35" ry="9.73"/><path class="cls-4" d="M32.2,159.17v-6.51a.53.53,0,0,1,.49-.54H76.4a.53.53,0,0,1,.49.54v6.51a.51.51,0,0,1-.49.53H32.69a.51.51,0,0,1-.49-.53Z"/><path class="cls-4" d="M39.47,154.29V116a1,1,0,0,1,1.08-.87H68.19a1,1,0,0,1,1.08.87v38.28a1,1,0,0,1-1.08.87H40.55A1,1,0,0,1,39.47,154.29Z"/><line class="cls-5" x1="44.33" y1="139.43" x2="64.42" y2="139.43"/><line class="cls-5" x1="44.33" y1="134.13" x2="64.42" y2="134.13"/><line class="cls-5" x1="44.33" y1="128.83" x2="64.42" y2="128.83"/><path class="cls-4" d="M32.2,54.59v-6.5a.52.52,0,0,1,.48-.54H76.4a.51.51,0,0,1,.49.54h0v6.5a.51.51,0,0,1-.49.54H32.69a.51.51,0,0,1-.49-.53Z"/><path class="cls-4" d="M39.47,49.72V11.44a1,1,0,0,1,1.08-.87H68.19a1,1,0,0,1,1.08.87V49.72a1,1,0,0,1-1.08.88H40.55A1,1,0,0,1,39.47,49.72Z"/><line class="cls-5" x1="44.33" y1="34.86" x2="64.42" y2="34.86"/><line class="cls-5" x1="44.33" y1="29.56" x2="64.42" y2="29.56"/><line class="cls-5" x1="44.33" y1="24.26" x2="64.42" y2="24.26"/><line class="cls-5" x1="184.53" y1="86.48" x2="96.24" y2="64.88"/><line class="cls-5" x1="96.24" y1="108.07" x2="184.53" y2="86.48"/><text class="cls-6" transform="translate(217.15 61.55) scale(0.98 1)">저장소</text><text class="cls-6" transform="translate(1.35 26.95) scale(0.98 1)">DB 서버<tspan x="0" y="9.08">(Active)</tspan></text><text class="cls-6" transform="translate(0 136.04) scale(0.98 1)">DB 서버<tspan x="0" y="9.08">(Standby)</tspan></text><polygon points="62.04 77.65 50.1 77.36 56.58 70.64 62.04 77.65"/><line class="cls-5" x1="56.34" y1="114.95" x2="56.34" y2="74.22"/><polygon class="cls-7" points="75.35 17.71 70.33 15.4 65.62 18.25 66.22 12.74 62.04 9.09 67.44 7.99 69.57 2.89 72.31 7.72 77.8 8.22 74.09 12.31 75.35 17.71"/><text class="cls-8" transform="translate(77.8 3.88) scale(1.09 1)">장애발생</text><text class="cls-9" transform="translate(25.04 85.99) scale(1.01 1)">장애를 검사</text><text class="cls-9" transform="translate(25.38 110.4) scale(1.01 1)">작동</text><path class="cls-10" d="M26.71,103.49,22.46,109l-2-3.71C22.6,106.27,26.71,103.49,26.71,103.49Z"/></g></g></g></svg>