<svg xmlns="http://www.w3.org/2000/svg" viewBox="0 0 303.34 217.89"><defs><style>.cls-1{fill:#9dcced;}.cls-2{opacity:0.5;}.cls-3{fill:#666;}.cls-4{fill:none;}.cls-4,.cls-5{stroke:#000;stroke-miterlimit:10;}.cls-5{fill:#ccc;}.cls-6,.cls-8{isolation:isolate;font-family:NanumGothic, Nanum Gothic;}.cls-6{font-size:8.68px;}.cls-7{fill:#00aa94;}.cls-8{font-size:8.63px;}</style></defs><g id="레이어_2" data-name="레이어 2"><g id="레이어_1-2" data-name="레이어 1"><rect class="cls-1" y="11.59" width="303.34" height="77.75"/><rect class="cls-1" y="114.66" width="303.34" height="91.63"/><g class="cls-2"><path class="cls-3" d="M289.66,210.81a.45.45,0,0,1,.39-.5.44.44,0,0,1,.45.43.46.46,0,0,1-.39.5h0a.4.4,0,0,1-.42-.4Zm.11,1.25h.62v4h-.61Z"/><path class="cls-3" d="M291.6,212.06h.5l0,.58h0a1.69,1.69,0,0,1,1.21-.68c.76,0,1.1.55,1.1,1.57v2.53h-.61v-2.45c0-.74-.21-1.06-.68-1.06s-.63.21-1,.62v2.89h-.61Z"/><path class="cls-3" d="M295.38,216.82a1.12,1.12,0,0,1,.52-.9v0a.8.8,0,0,1-.32-.66,1,1,0,0,1,.4-.74v0a1.44,1.44,0,0,1-.47-1.07,1.36,1.36,0,0,1,1.28-1.42h.08a1.44,1.44,0,0,1,.5.1h1.26v.52h-.74a1.26,1.26,0,0,1,.29.82,1.3,1.3,0,0,1-1.2,1.39h-.11a1.18,1.18,0,0,1-.55-.14.59.59,0,0,0-.22.47c0,.26.14.44.63.44h.7c.84,0,1.26.29,1.26.95s-.71,1.38-1.82,1.38C296,217.89,295.38,217.5,295.38,216.82Zm2.71-.21c0-.37-.25-.49-.71-.49h-.63a2.42,2.42,0,0,1-.47-.07.86.86,0,0,0-.35.67c0,.43.38.7,1.06.7S298.09,217,298.09,216.61Zm-.46-3.23a.82.82,0,0,0-.71-.9.8.8,0,0,0-.82.79v.11a.84.84,0,0,0,.67,1,.8.8,0,0,0,.86-.75Z"/><path class="cls-3" d="M299.11,216.82a1.15,1.15,0,0,1,.53-.9v0a.8.8,0,0,1-.32-.66,1,1,0,0,1,.4-.74v0a1.41,1.41,0,0,1-.47-1.07,1.35,1.35,0,0,1,1.27-1.42h.08a1.45,1.45,0,0,1,.51.1h1.26v.52h-.74a1.26,1.26,0,0,1,.29.82,1.3,1.3,0,0,1-1.2,1.39h-.12a1.17,1.17,0,0,1-.54-.14.63.63,0,0,0-.23.47c0,.26.15.44.64.44h.7c.84,0,1.26.29,1.26.95s-.71,1.38-1.82,1.38C299.72,217.89,299.11,217.5,299.11,216.82Zm2.72-.21c0-.37-.25-.49-.71-.49h-.62a2.54,2.54,0,0,1-.47-.07.86.86,0,0,0-.35.67c0,.43.39.7,1.06.7S301.83,217,301.83,216.61Zm-.46-3.23a.82.82,0,0,0-.72-.9.79.79,0,0,0-.81.79v.11a.84.84,0,0,0,.67,1,.8.8,0,0,0,.86-.75Z"/></g><line class="cls-4" x1="209.69" y1="54.67" x2="80.22" y2="54.67"/><line class="cls-4" x1="209.69" y1="171.7" x2="80.22" y2="171.71"/><ellipse class="cls-5" cx="258.74" cy="70.76" rx="27.26" ry="11.15"/><ellipse class="cls-5" cx="258.74" cy="59.88" rx="27.26" ry="11.15"/><ellipse class="cls-5" cx="258.74" cy="48.72" rx="27.26" ry="11.15"/><text class="cls-6" transform="translate(248.59 32.01) scale(0.88 1)">저장소</text><ellipse class="cls-5" cx="258.74" cy="179.46" rx="27.26" ry="11.15"/><ellipse class="cls-5" cx="258.74" cy="168.58" rx="27.26" ry="11.15"/><ellipse class="cls-5" cx="258.74" cy="157.43" rx="27.26" ry="11.15"/><text class="cls-6" transform="translate(248.59 140.72) scale(0.88 1)">저장소</text><path class="cls-7" d="M15,199.09v-7.41a.59.59,0,0,1,.55-.62H65a.59.59,0,0,1,.56.62v7.41a.59.59,0,0,1-.56.62H15.56A.59.59,0,0,1,15,199.09Z"/><path class="cls-7" d="M23.23,193.53V149.88a1.12,1.12,0,0,1,1.22-1H55.7a1.12,1.12,0,0,1,1.22,1v43.65a1.12,1.12,0,0,1-1.22,1H24.45A1.12,1.12,0,0,1,23.23,193.53Z"/><line class="cls-4" x1="28.72" y1="176.59" x2="51.44" y2="176.59"/><line class="cls-4" x1="28.72" y1="170.54" x2="51.44" y2="170.54"/><line class="cls-4" x1="28.72" y1="164.49" x2="51.44" y2="164.49"/><path class="cls-7" d="M15.11,82.06V74.65a.59.59,0,0,1,.55-.62H65.08a.59.59,0,0,1,.56.62v7.41a.58.58,0,0,1-.56.61H15.66A.58.58,0,0,1,15.11,82.06Z"/><path class="cls-7" d="M23.33,76.5V32.85a1.12,1.12,0,0,1,1.22-1H55.8a1.12,1.12,0,0,1,1.22,1V76.5a1.12,1.12,0,0,1-1.22,1H24.55A1.12,1.12,0,0,1,23.33,76.5Z"/><line class="cls-4" x1="28.82" y1="59.56" x2="51.54" y2="59.56"/><line class="cls-4" x1="28.82" y1="53.51" x2="51.54" y2="53.51"/><line class="cls-4" x1="28.82" y1="47.46" x2="51.54" y2="47.46"/><text class="cls-8" transform="translate(8.94 25.23) scale(0.97 1)">DB 서버 (Active)</text><text class="cls-8" transform="translate(8.94 141.97) scale(0.97 1)">DB 서버 (Standby)</text><text class="cls-8" transform="translate(0.74 6.91) scale(0.97 1)">세트1</text><text class="cls-8" transform="translate(0 110.37) scale(0.97 1)">세트2</text></g></g></svg>