<svg xmlns="http://www.w3.org/2000/svg" viewBox="0 0 474.72 221.45"><defs><style>.cls-1{fill:#9dcced;}.cls-2{opacity:0.5;}.cls-3{fill:#666;}.cls-4{fill:#ccc;}.cls-4,.cls-6{stroke:#000;stroke-miterlimit:10;}.cls-5{fill:#00aa94;}.cls-6{fill:none;}.cls-7,.cls-8,.cls-9{isolation:isolate;font-family:NanumGothic, Nanum Gothic;}.cls-7{font-size:6.94px;}.cls-8{font-size:8.68px;}.cls-9{font-size:8.63px;}</style></defs><g id="레이어_2" data-name="레이어 2"><g id="레이어_1-2" data-name="레이어 1"><rect class="cls-1" y="10" width="224.99" height="211.44" rx="3.85"/><rect class="cls-1" x="249.73" y="10" width="224.99" height="211.44" rx="3.85"/><g class="cls-2"><path class="cls-3" d="M455.9,208.38a.46.46,0,0,1,.39-.5.45.45,0,0,1,.45.44.46.46,0,0,1-.39.49h0a.41.41,0,0,1-.42-.4Zm.11,1.25h.63v4H456Z"/><path class="cls-3" d="M457.84,209.63h.5l.05.58h0a1.65,1.65,0,0,1,1.21-.67c.76,0,1.1.54,1.1,1.56v2.53h-.61v-2.44c0-.75-.21-1.06-.68-1.06s-.62.2-1,.61v2.89h-.6Z"/><path class="cls-3" d="M461.62,214.39a1.1,1.1,0,0,1,.53-.9v0a.75.75,0,0,1-.32-.66,1,1,0,0,1,.39-.74v0a1.46,1.46,0,0,1-.46-1.08,1.35,1.35,0,0,1,1.27-1.42h.08a1.31,1.31,0,0,1,.51.09h1.25v.52h-.74a1.21,1.21,0,0,1,.29.82,1.29,1.29,0,0,1-1.2,1.39h-.11a1.14,1.14,0,0,1-.54-.14.61.61,0,0,0-.23.47c0,.26.15.44.63.44h.71c.83,0,1.25.29,1.25,1s-.7,1.38-1.82,1.38C462.23,215.46,461.62,215.07,461.62,214.39Zm2.71-.21c0-.37-.25-.49-.7-.49H463a1.89,1.89,0,0,1-.47-.06.83.83,0,0,0-.35.66c0,.43.39.7,1.06.7S464.33,214.6,464.33,214.18Zm-.46-3.23a.82.82,0,0,0-.71-.9.8.8,0,0,0-.82.79V211a.83.83,0,0,0,.68,1,.79.79,0,0,0,.85-.75A.67.67,0,0,0,463.87,211Z"/><path class="cls-3" d="M465.36,214.39a1.1,1.1,0,0,1,.53-.9v0a.75.75,0,0,1-.32-.66,1,1,0,0,1,.39-.74v0a1.5,1.5,0,0,1-.47-1.08,1.36,1.36,0,0,1,1.28-1.42h.08a1.31,1.31,0,0,1,.51.09h1.25v.52h-.74a1.21,1.21,0,0,1,.29.82,1.29,1.29,0,0,1-1.2,1.39h-.11a1.14,1.14,0,0,1-.54-.14.61.61,0,0,0-.23.47c0,.26.15.44.63.44h.71c.83,0,1.25.29,1.25,1s-.7,1.38-1.82,1.38C466,215.46,465.36,215.07,465.36,214.39Zm2.71-.21c0-.37-.25-.49-.7-.49h-.63a1.82,1.82,0,0,1-.46-.06.84.84,0,0,0-.36.66c0,.43.39.7,1.06.7S468.07,214.6,468.07,214.18Zm-.46-3.23a.82.82,0,0,0-.71-.9.8.8,0,0,0-.82.79V211a.83.83,0,0,0,.68,1,.79.79,0,0,0,.85-.75A.67.67,0,0,0,467.61,211Z"/></g><ellipse class="cls-4" cx="438.45" cy="119.14" rx="23.84" ry="8.92"/><ellipse class="cls-4" cx="438.45" cy="110.44" rx="23.84" ry="8.92"/><ellipse class="cls-4" cx="438.45" cy="101.51" rx="23.84" ry="8.92"/><path class="cls-5" d="M265.33,103.35V97.84a.44.44,0,0,1,.41-.46h36.49a.44.44,0,0,1,.41.46v5.51a.43.43,0,0,1-.41.45H265.74A.43.43,0,0,1,265.33,103.35Z"/><path class="cls-5" d="M271.4,99.22V66.78a.84.84,0,0,1,.9-.74h23.08a.84.84,0,0,1,.9.74V99.22a.84.84,0,0,1-.9.73H272.3A.84.84,0,0,1,271.4,99.22Z"/><line class="cls-6" x1="275.45" y1="86.63" x2="292.23" y2="86.63"/><line class="cls-6" x1="275.45" y1="82.13" x2="292.23" y2="82.13"/><line class="cls-6" x1="275.45" y1="77.64" x2="292.23" y2="77.64"/><path class="cls-5" d="M265.4,54.83V49.32a.43.43,0,0,1,.41-.45h36.5a.43.43,0,0,1,.41.45v5.51a.44.44,0,0,1-.41.46h-36.5A.44.44,0,0,1,265.4,54.83Z"/><path class="cls-5" d="M271.47,50.7V18.26a.84.84,0,0,1,.91-.73h23.07a.83.83,0,0,1,.9.73V50.7a.83.83,0,0,1-.9.74H272.38A.84.84,0,0,1,271.47,50.7Z"/><line class="cls-6" x1="275.52" y1="38.11" x2="292.3" y2="38.11"/><line class="cls-6" x1="275.52" y1="33.62" x2="292.3" y2="33.62"/><line class="cls-6" x1="275.52" y1="29.12" x2="292.3" y2="29.12"/><line class="cls-6" x1="151.84" y1="41.99" x2="60.91" y2="41.99"/><line class="cls-6" x1="402.02" y1="108.22" x2="308.86" y2="86.55"/><line class="cls-6" x1="402.95" y1="108.54" x2="322.97" y2="55.82"/><line class="cls-6" x1="321.78" y1="151.79" x2="402.66" y2="108.8"/><text class="cls-7" transform="translate(429.87 89.02) scale(0.97 1)">A B C</text><ellipse class="cls-4" cx="186.28" cy="54.59" rx="19.14" ry="8.74"/><ellipse class="cls-4" cx="186.28" cy="46.07" rx="19.14" ry="8.74"/><ellipse class="cls-4" cx="186.28" cy="37.33" rx="19.14" ry="8.74"/><text class="cls-8" transform="translate(185.38 23.75) scale(0.88 1)">A</text><text class="cls-9" transform="translate(0 6.91) scale(0.97 1)">Shared Nothing</text><text class="cls-9" transform="translate(249.73 6.91) scale(0.97 1)">Shared Disk</text><path class="cls-5" d="M15.19,63.44V57.63a.44.44,0,0,1,.39-.48h34.7a.45.45,0,0,1,.4.48v5.81a.45.45,0,0,1-.4.48H15.58A.44.44,0,0,1,15.19,63.44Z"/><path class="cls-5" d="M21,59.08V24.9a.83.83,0,0,1,.86-.78H43.76a.82.82,0,0,1,.86.78V59.08a.82.82,0,0,1-.86.78H21.82A.83.83,0,0,1,21,59.08Z"/><line class="cls-6" x1="24.82" y1="45.82" x2="40.77" y2="45.82"/><line class="cls-6" x1="24.82" y1="41.08" x2="40.77" y2="41.08"/><line class="cls-6" x1="24.82" y1="36.35" x2="40.77" y2="36.35"/><line class="cls-6" x1="151.84" y1="101.57" x2="60.91" y2="101.57"/><ellipse class="cls-4" cx="186.28" cy="114.17" rx="19.14" ry="8.74"/><ellipse class="cls-4" cx="186.28" cy="105.65" rx="19.14" ry="8.74"/><ellipse class="cls-4" cx="186.28" cy="96.91" rx="19.14" ry="8.74"/><text class="cls-8" transform="translate(185.38 83.33) scale(0.88 1)">B</text><path class="cls-5" d="M15.19,123v-5.81a.44.44,0,0,1,.39-.48h34.7a.45.45,0,0,1,.4.48V123a.44.44,0,0,1-.4.48H15.58A.44.44,0,0,1,15.19,123Z"/><path class="cls-5" d="M21,118.67V84.48a.82.82,0,0,1,.86-.77H43.76a.81.81,0,0,1,.86.77v34.19a.82.82,0,0,1-.86.77H21.82A.83.83,0,0,1,21,118.67Z"/><line class="cls-6" x1="24.82" y1="105.4" x2="40.77" y2="105.4"/><line class="cls-6" x1="24.82" y1="100.66" x2="40.77" y2="100.66"/><line class="cls-6" x1="24.82" y1="95.93" x2="40.77" y2="95.93"/><line class="cls-6" x1="151.84" y1="185.95" x2="60.91" y2="185.95"/><ellipse class="cls-4" cx="186.28" cy="198.55" rx="19.14" ry="8.74"/><ellipse class="cls-4" cx="186.28" cy="190.03" rx="19.14" ry="8.74"/><ellipse class="cls-4" cx="186.28" cy="181.29" rx="19.14" ry="8.74"/><text class="cls-8" transform="translate(185.38 167.71) scale(0.88 1)">C</text><path class="cls-5" d="M15.19,207.4v-5.8a.45.45,0,0,1,.39-.49h34.7a.45.45,0,0,1,.4.49v5.8a.44.44,0,0,1-.4.48H15.58A.44.44,0,0,1,15.19,207.4Z"/><path class="cls-5" d="M21,203.05V168.86a.82.82,0,0,1,.86-.77H43.76a.81.81,0,0,1,.86.77v34.19a.82.82,0,0,1-.86.77H21.82A.83.83,0,0,1,21,203.05Z"/><line class="cls-6" x1="24.82" y1="189.78" x2="40.77" y2="189.78"/><line class="cls-6" x1="24.82" y1="185.04" x2="40.77" y2="185.04"/><line class="cls-6" x1="24.82" y1="180.31" x2="40.77" y2="180.31"/><path class="cls-5" d="M265.33,193.17v-5.51a.44.44,0,0,1,.41-.46h36.49a.44.44,0,0,1,.41.46v5.51a.43.43,0,0,1-.41.45H265.74A.43.43,0,0,1,265.33,193.17Z"/><path class="cls-5" d="M271.4,189V156.6a.84.84,0,0,1,.9-.74h23.08a.84.84,0,0,1,.9.74V189a.84.84,0,0,1-.9.73H272.3A.84.84,0,0,1,271.4,189Z"/><line class="cls-6" x1="275.45" y1="176.45" x2="292.23" y2="176.45"/><line class="cls-6" x1="275.45" y1="171.95" x2="292.23" y2="171.95"/><line class="cls-6" x1="275.45" y1="167.46" x2="292.23" y2="167.46"/><path d="M284.06,121.13c3.86,0,3.87-6,0-6s-3.87,6,0,6Z"/><path d="M284.06,132.55c3.86,0,3.87-6,0-6s-3.87,6,0,6Z"/><path d="M284.06,144c3.86,0,3.87-6,0-6s-3.87,6,0,6Z"/><path d="M110.31,127.12c3.86,0,3.86-6,0-6s-3.87,6,0,6Z"/><path d="M110.31,138.55c3.86,0,3.86-6,0-6s-3.87,6,0,6Z"/><path d="M110.31,150c3.86,0,3.86-6,0-6s-3.87,6,0,6Z"/></g></g></svg>