<svg xmlns="http://www.w3.org/2000/svg" viewBox="0 0 418 313.13"><defs><style>.cls-1{opacity:0.5;}.cls-2{fill:#666;}.cls-3{fill:#00aa94;}.cls-3,.cls-5,.cls-6{stroke:#000;stroke-miterlimit:10;}.cls-3,.cls-6,.cls-7{opacity:0.8;}.cls-4{fill:#ccc;}.cls-5{fill:none;}.cls-6{fill:#00767f;}</style></defs><title>자산 6</title><g id="레이어_2" data-name="레이어 2"><g id="레이어_1-2" data-name="레이어 1"><g class="cls-1"><path class="cls-2" d="M358.92,261.89a1.19,1.19,0,0,1,2.38,0,1.19,1.19,0,0,1-2.38,0Zm.31,3.22H361v10.2h-1.73Z"/><path class="cls-2" d="M364.41,265.11h1.42l.15,1.47H366a4.85,4.85,0,0,1,3.42-1.72c2.15,0,3.12,1.38,3.12,4v6.46h-1.73v-6.24c0-1.9-.58-2.72-1.93-2.72-1,0-1.76.54-2.79,1.57v7.39h-1.72Z"/><path class="cls-2" d="M375.11,277.27a2.86,2.86,0,0,1,1.5-2.3v-.09a1.88,1.88,0,0,1-.91-1.67,2.46,2.46,0,0,1,1.12-1.9v-.08a3.53,3.53,0,0,1-1.32-2.74,3.62,3.62,0,0,1,3.83-3.63,4.18,4.18,0,0,1,1.44.25h3.56v1.33h-2.1a3,3,0,0,1,.83,2.1,3.49,3.49,0,0,1-3.73,3.54,3.75,3.75,0,0,1-1.53-.35,1.52,1.52,0,0,0-.65,1.21c0,.64.42,1.1,1.79,1.1h2c2.37,0,3.56.75,3.56,2.44,0,1.9-2,3.53-5.16,3.53C376.83,280,375.11,279,375.11,277.27Zm7.69-.53c0-.95-.71-1.27-2.05-1.27H379a5.83,5.83,0,0,1-1.33-.15,2.12,2.12,0,0,0-1,1.71c0,1.1,1.1,1.79,3,1.79S382.8,277.8,382.8,276.74Zm-1.31-8.25a2.17,2.17,0,1,0-4.33,0,2.18,2.18,0,1,0,4.33,0Z"/><path class="cls-2" d="M385.7,277.27a2.86,2.86,0,0,1,1.5-2.3v-.09a1.88,1.88,0,0,1-.91-1.67,2.46,2.46,0,0,1,1.12-1.9v-.08a3.53,3.53,0,0,1-1.32-2.74,3.62,3.62,0,0,1,3.83-3.63,4.18,4.18,0,0,1,1.44.25h3.56v1.33h-2.1a3,3,0,0,1,.83,2.1,3.49,3.49,0,0,1-3.73,3.54,3.75,3.75,0,0,1-1.53-.35,1.52,1.52,0,0,0-.65,1.21c0,.64.42,1.1,1.79,1.1h2c2.37,0,3.56.75,3.56,2.44,0,1.9-2,3.53-5.16,3.53C387.42,280,385.7,279,385.7,277.27Zm7.69-.53c0-.95-.71-1.27-2.05-1.27h-1.76a5.83,5.83,0,0,1-1.33-.15,2.12,2.12,0,0,0-1,1.71c0,1.1,1.1,1.79,3,1.79S393.39,277.8,393.39,276.74Zm-1.31-8.25a2.17,2.17,0,1,0-4.33,0,2.18,2.18,0,1,0,4.33,0Z"/><path class="cls-2" d="M396.71,274.26a1.25,1.25,0,1,1,1.25,1.3A1.26,1.26,0,0,1,396.71,274.26Z"/><path class="cls-2" d="M402,261.89a1.2,1.2,0,0,1,2.39,0,1.2,1.2,0,0,1-2.39,0Zm.32,3.22H404v10.2H402.3Z"/><path class="cls-2" d="M406.71,270.22c0-3.4,2.23-5.36,4.73-5.36s4.73,2,4.73,5.36-2.23,5.34-4.73,5.34S406.71,273.6,406.71,270.22Zm7.68,0c0-2.34-1.19-3.93-2.95-3.93s-2.94,1.59-2.94,3.93,1.19,3.91,2.94,3.91S414.39,272.56,414.39,270.22Z"/></g><rect class="cls-3" x="208.5" y="0.5" width="52" height="52" rx="26" ry="26" transform="translate(208 261) rotate(-90)"/><path class="cls-4" d="M42.15,193.29l79.1,106.81c11.58,15.64,35.64,17.45,53.74,4l5.24-3.88c18.1-13.4,23.38-36.95,11.8-52.59l-79.1-106.81c-11.58-15.64-35.64-17.45-53.74-4.05L54,140.7C35.85,154.11,30.57,177.65,42.15,193.29Z"/><rect class="cls-3" x="120.5" y="75.5" width="52" height="52" rx="26" ry="26" transform="translate(45 248) rotate(-90)"/><rect class="cls-3" x="309.5" y="68.5" width="52" height="52" rx="26" ry="26" transform="translate(241 430) rotate(-90)"/><rect class="cls-3" x="60.5" y="151.5" width="52" height="52" rx="26" ry="26" transform="translate(-91 264) rotate(-90)"/><rect class="cls-3" x="178.5" y="148.5" width="52" height="52" rx="26" ry="26" transform="translate(30 379) rotate(-90)"/><line class="cls-5" x1="214.5" y1="43.5" x2="163.5" y2="82.5"/><line class="cls-5" x1="256.47" y1="42.29" x2="317.5" y2="75.5"/><line class="cls-5" x1="126.7" y1="119.3" x2="93.5" y2="152.5"/><line class="cls-5" x1="166.88" y1="116.95" x2="201.32" y2="148.85"/><rect class="cls-3" x="0.5" y="245.5" width="52" height="52" rx="26" ry="26" transform="translate(-245 298) rotate(-90)"/><rect class="cls-6" x="120.5" y="240.5" width="52" height="52" rx="26" ry="26" transform="translate(-120 413) rotate(-90)"/><line class="cls-5" x1="71.5" y1="198.5" x2="33.5" y2="246.5"/><line class="cls-5" x1="103.5" y1="196.5" x2="136.5" y2="242.5"/><rect class="cls-3" x="258.5" y="149.5" width="52" height="52" rx="26" ry="26" transform="translate(109 460) rotate(-90)"/><rect class="cls-3" x="365.5" y="148.5" width="52" height="52" rx="26" ry="26" transform="translate(217 566) rotate(-90)"/><line class="cls-5" x1="319.5" y1="115.5" x2="291.5" y2="150.5"/><line class="cls-5" x1="351.5" y1="115.5" x2="379.5" y2="151.5"/><g class="cls-7"><path d="M232.36,19.32a25.23,25.23,0,0,1,4.52-5.45l-2.5-1.46c-2.67,7.7-3.18,15.94-4.24,24-.25,1.91,2.76,1.89,3,0,1-7.8,1.55-15.73,4.13-23.2.51-1.49-1.48-2.41-2.51-1.45a28.18,28.18,0,0,0-5,6.05c-1,1.65,1.57,3.16,2.59,1.52Z"/></g><g class="cls-7"><path d="M144.77,89.9a203.67,203.67,0,0,1-12.11,17.48,1.51,1.51,0,0,0,1.82,2.35,80.81,80.81,0,0,1,22.69-7.19c1.9-.31,1.1-3.2-.79-2.89A83.54,83.54,0,0,0,133,107.14l1.82,2.36a208.52,208.52,0,0,0,12.58-18.09c1-1.65-1.58-3.16-2.59-1.51Z"/></g><g class="cls-7"><path d="M144.25,93.06v21.3a1.5,1.5,0,0,0,3,0V93.06a1.5,1.5,0,0,0-3,0Z"/></g><g class="cls-7"><path d="M328.39,91.1l12.48-6.61-2.21-1.7a80.86,80.86,0,0,0-2.15,24.41c.12,1.92,3.12,1.93,3,0a77.87,77.87,0,0,1,2.05-23.61,1.52,1.52,0,0,0-2.21-1.69l-12.47,6.6c-1.71.91-.2,3.5,1.51,2.6Z"/></g><g class="cls-7"><path d="M276.32,166.79,274,189.73c-.19,1.92,2.82,1.91,3,0l2.28-22.94c.19-1.92-2.81-1.9-3,0Z"/></g><g class="cls-7"><path d="M288.24,167.37a166.56,166.56,0,0,1-1.4,21.29c-.24,1.91,2.76,1.89,3,0a166.56,166.56,0,0,0,1.4-21.29,1.5,1.5,0,0,0-3,0Z"/></g><g class="cls-7"><path d="M381.94,163.84v18.34a1.5,1.5,0,0,0,3,0V163.84a1.5,1.5,0,0,0-3,0Z"/></g><g class="cls-7"><path d="M394.36,166.45c.8-2.52,2.64-2.17,3.49-.26,1.14,2.54-.62,3.95-3.18,4.16v3c2.13-.19,5,2.34,4.12,4.74s-4.72.51-5.49-.79a1.5,1.5,0,0,0-2.59,1.51c1.81,3.09,9.1,5.53,10.8,1.07s-2.12-9.95-6.84-9.53c-1.9.17-1.93,3.15,0,3,2.51-.2,5.36-.67,6.49-3.25.77-1.76.09-5.15-.83-6.73-2.28-3.93-7.81-1-8.86,2.29-.58,1.84,2.31,2.63,2.89.79Z"/></g><g class="cls-7"><path d="M86.52,179.1c3.2-2.21,6.86-7.29,3.8-11.11-2.55-3.18-8.88-2-11.26.84-3.36,4,.7,8,4.33,9.58,1.27.56,2.91.79,4,1.5,5.13,3.22,3.83,7.68-1.25,8.71-3.78.78-6.27-2.34-3.58-5.59a30,30,0,0,1,4.25-4.11c1.49-1.23-.64-3.34-2.12-2.12-3,2.5-9.29,7.82-6.75,12.53,2,3.71,9.58,3,12.68,1.58,4-1.77,4-8.52,1.54-11.57-1.37-1.7-3.52-2.11-5.46-2.82a19.63,19.63,0,0,1-3.68-1.58q-3.48-4.73.63-5.45,3.45-1.45,4.45,3.11A7.1,7.1,0,0,1,85,176.51c-1.58,1.09-.08,3.69,1.51,2.59Z"/></g><g class="cls-7"><path d="M209,165.3c-3.9-.27-8.42-.21-10.94,3.31-2,2.78-2.76,7.31,0,9.82s7.46,2.31,10.28-.05c3.11-2.6,3.5-6.86,3.11-10.63-.2-1.89-3.14-1.95-3,0q.69,9.76,1.86,19.47c.23,1.9,3.23,1.92,3,0q-1.17-9.71-1.86-19.47h-3a14,14,0,0,1-.17,5.2c-.81,2.94-4.61,6-7.69,3.63-3.3-2.59,0-7.2,2.6-8a15.45,15.45,0,0,1,5.83-.25c1.93.13,1.92-2.87,0-3Z"/></g><g class="cls-7"><path d="M17.1,259.71q-.51,10.94-1.3,21.84c-.14,1.93,2.86,1.92,3,0q.79-10.91,1.3-21.84c.09-1.93-2.91-1.93-3,0Z"/></g><g class="cls-7"><path d="M26.83,261.11a54.76,54.76,0,0,1-.7,8.09,1.52,1.52,0,0,0,2.2,1.7c3.56-1.8,6.07,3.89,5.41,6.29-.52,1.85-6.13,4.46-7.2,1.18-.6-1.83-3.5-1.05-2.89.8,1.69,5.16,11.59,4.73,12.94-.57,1.45-5.69-3.59-13.42-9.77-10.29L29,270a58.76,58.76,0,0,0,.81-8.89c0-1.93-3-1.93-3,0Z"/></g><g class="cls-7"><path d="M29,263.1l6.58-.54c1.91-.15,1.92-3.16,0-3L29,260.1c-1.91.15-1.93,3.15,0,3Z"/></g><g class="cls-7"><path d="M142.23,262.26c1-5.19,10.65-5.37,9.84.33-.44,3.13-3.85,3.17-6.37,3.59-1.62.27-1.21,2.42,0,2.89,3.21,1.26,6.08,3.83,4.67,7.79-1,2.83-8.55,4.28-9.59.3a1.5,1.5,0,0,0-2.89.79c1.38,5.32,10.81,6.3,14.14,2.28,4.7-5.67-.14-12-5.53-14.05v2.89c2.87-.47,7.13-1.15,8.3-4.18.93-2.42.35-6.51-1.44-8.46-4.18-4.58-13-.44-14,5-.36,1.89,2.53,2.7,2.89.8Z"/></g></g></g></svg>