<svg xmlns="http://www.w3.org/2000/svg" viewBox="0 0 418 311.38"><defs><style>.cls-1{fill:#ccc;}.cls-2{opacity:0.5;}.cls-3{fill:#666;}.cls-4{fill:#00aa94;}.cls-4,.cls-5,.cls-7{stroke:#000;stroke-miterlimit:10;}.cls-4,.cls-6,.cls-7{opacity:0.8;}.cls-5{fill:none;}.cls-7{fill:#00767f;}</style></defs><title>자산 8</title><g id="레이어_2" data-name="레이어 2"><g id="레이어_1-2" data-name="레이어 1"><path class="cls-1" d="M208.64,7.28,117.44,87.4C104.09,99.13,104,120.89,117.3,136l3.84,4.37c13.28,15.11,34.86,17.85,48.22,6.12l91.2-80.12c13.35-11.73,13.41-33.49.14-48.6l-3.84-4.37C243.58-1.71,222-4.45,208.64,7.28Z"/><g class="cls-2"><path class="cls-3" d="M358.92,275.28a1.19,1.19,0,1,1,1.19,1.11A1.11,1.11,0,0,1,358.92,275.28Zm.31,3.21H361V288.7h-1.73Z"/><path class="cls-3" d="M364.41,278.49h1.42L366,280H366a4.88,4.88,0,0,1,3.42-1.72c2.15,0,3.12,1.39,3.12,4v6.47h-1.73v-6.25c0-1.9-.58-2.71-1.93-2.71-1,0-1.76.53-2.79,1.57v7.39h-1.72Z"/><path class="cls-3" d="M375.11,290.66a2.86,2.86,0,0,1,1.5-2.31v-.08a1.91,1.91,0,0,1-.91-1.68,2.44,2.44,0,0,1,1.12-1.89v-.09a3.53,3.53,0,0,1-1.32-2.74,3.62,3.62,0,0,1,3.83-3.63,4.18,4.18,0,0,1,1.44.25h3.56v1.33h-2.1a3,3,0,0,1,.83,2.1,3.48,3.48,0,0,1-3.73,3.54,3.6,3.6,0,0,1-1.53-.35,1.52,1.52,0,0,0-.65,1.21c0,.65.42,1.11,1.79,1.11h2c2.37,0,3.56.74,3.56,2.43,0,1.9-2,3.53-5.16,3.53C376.83,293.39,375.11,292.41,375.11,290.66Zm7.69-.54c0-.94-.71-1.26-2.05-1.26H379a5.87,5.87,0,0,1-1.33-.16,2.13,2.13,0,0,0-1,1.71c0,1.1,1.1,1.79,3,1.79S382.8,291.19,382.8,290.12Zm-1.31-8.25a2.17,2.17,0,1,0-4.33,0,2.18,2.18,0,1,0,4.33,0Z"/><path class="cls-3" d="M385.7,290.66a2.86,2.86,0,0,1,1.5-2.31v-.08a1.91,1.91,0,0,1-.91-1.68,2.44,2.44,0,0,1,1.12-1.89v-.09a3.53,3.53,0,0,1-1.32-2.74,3.62,3.62,0,0,1,3.83-3.63,4.18,4.18,0,0,1,1.44.25h3.56v1.33h-2.1a3,3,0,0,1,.83,2.1,3.48,3.48,0,0,1-3.73,3.54,3.6,3.6,0,0,1-1.53-.35,1.52,1.52,0,0,0-.65,1.21c0,.65.42,1.11,1.79,1.11h2c2.37,0,3.56.74,3.56,2.43,0,1.9-2,3.53-5.16,3.53C387.42,293.39,385.7,292.41,385.7,290.66Zm7.69-.54c0-.94-.71-1.26-2.05-1.26h-1.76a5.87,5.87,0,0,1-1.33-.16,2.13,2.13,0,0,0-1,1.71c0,1.1,1.1,1.79,3,1.79S393.39,291.19,393.39,290.12Zm-1.31-8.25a2.17,2.17,0,1,0-4.33,0,2.18,2.18,0,1,0,4.33,0Z"/><path class="cls-3" d="M396.71,287.64A1.25,1.25,0,1,1,398,289,1.26,1.26,0,0,1,396.71,287.64Z"/><path class="cls-3" d="M402,275.28a1.2,1.2,0,0,1,2.39,0,1.2,1.2,0,0,1-2.39,0Zm.32,3.21H404V288.7H402.3Z"/><path class="cls-3" d="M406.71,283.61c0-3.41,2.23-5.37,4.73-5.37s4.73,2,4.73,5.37-2.23,5.34-4.73,5.34S406.71,287,406.71,283.61Zm7.68,0c0-2.34-1.19-3.93-2.95-3.93s-2.94,1.59-2.94,3.93,1.19,3.9,2.94,3.9S414.39,286,414.39,283.61Z"/></g><rect class="cls-4" x="208.5" y="13.88" width="52" height="52" rx="26" ry="26" transform="translate(194.62 274.38) rotate(-90)"/><rect class="cls-4" x="309.5" y="81.88" width="52" height="52" rx="26" ry="26" transform="translate(227.62 443.38) rotate(-90)"/><rect class="cls-4" x="178.5" y="161.88" width="52" height="52" rx="26" ry="26" transform="translate(16.62 392.38) rotate(-90)"/><line class="cls-5" x1="214.5" y1="56.88" x2="163.5" y2="95.88"/><line class="cls-5" x1="256.47" y1="55.68" x2="317.5" y2="88.88"/><line class="cls-5" x1="126.7" y1="132.68" x2="93.5" y2="165.88"/><line class="cls-5" x1="166.88" y1="130.33" x2="201.32" y2="162.24"/><rect class="cls-4" x="0.5" y="258.88" width="52" height="52" rx="26" ry="26" transform="translate(-258.38 311.38) rotate(-90)"/><line class="cls-5" x1="70.5" y1="211.88" x2="33.5" y2="259.88"/><line class="cls-5" x1="103.5" y1="209.88" x2="136.5" y2="255.88"/><rect class="cls-4" x="258.5" y="162.88" width="52" height="52" rx="26" ry="26" transform="translate(95.62 473.38) rotate(-90)"/><rect class="cls-4" x="365.5" y="161.88" width="52" height="52" rx="26" ry="26" transform="translate(203.62 579.38) rotate(-90)"/><line class="cls-5" x1="319.5" y1="128.88" x2="291.5" y2="163.88"/><line class="cls-5" x1="351.5" y1="128.88" x2="379.5" y2="164.88"/><g class="cls-6"><path d="M232.36,32.7a25.71,25.71,0,0,1,4.52-5.45l-2.5-1.46c-2.67,7.71-3.18,15.94-4.24,24-.25,1.91,2.76,1.89,3,0,1-7.8,1.55-15.73,4.13-23.19.51-1.5-1.48-2.41-2.51-1.46a28.23,28.23,0,0,0-5,6.06c-1,1.64,1.57,3.15,2.59,1.51Z"/></g><rect class="cls-4" x="60.5" y="164.88" width="52" height="52" rx="26" ry="26" transform="translate(-104.38 277.38) rotate(-90)"/><g class="cls-6"><path d="M84.77,179.28a202.12,202.12,0,0,1-12.11,17.48,1.51,1.51,0,0,0,1.82,2.36,80.5,80.5,0,0,1,22.69-7.2c1.9-.31,1.1-3.2-.79-2.89A83.24,83.24,0,0,0,73,196.53l1.82,2.35a207,207,0,0,0,12.58-18.09c1-1.64-1.58-3.15-2.59-1.51Z"/></g><g class="cls-6"><path d="M84.25,182.44v21.31a1.5,1.5,0,0,0,3,0V182.44a1.5,1.5,0,0,0-3,0Z"/></g><g class="cls-6"><path d="M328.39,104.48l12.48-6.61-2.21-1.69a80.79,80.79,0,0,0-2.15,24.4c.12,1.92,3.12,1.93,3,0A77.87,77.87,0,0,1,341.56,97a1.52,1.52,0,0,0-2.21-1.69l-12.47,6.61c-1.71.9-.2,3.49,1.51,2.59Z"/></g><g class="cls-6"><path d="M276.32,180.18,274,203.12c-.19,1.92,2.82,1.9,3,0l2.28-22.94c.19-1.92-2.81-1.91-3,0Z"/></g><g class="cls-6"><path d="M288.24,180.75a166.83,166.83,0,0,1-1.4,21.3c-.24,1.9,2.76,1.89,3,0a166.83,166.83,0,0,0,1.4-21.3,1.5,1.5,0,0,0-3,0Z"/></g><g class="cls-6"><path d="M381.94,177.23v18.33a1.5,1.5,0,0,0,3,0V177.23a1.5,1.5,0,0,0-3,0Z"/></g><g class="cls-6"><path d="M394.36,179.84c.8-2.52,2.64-2.18,3.49-.27,1.14,2.55-.62,4-3.18,4.16v3c2.13-.19,5,2.34,4.12,4.74s-4.72.52-5.49-.79a1.5,1.5,0,0,0-2.59,1.52c1.81,3.08,9.1,5.53,10.8,1.06s-2.12-9.95-6.84-9.53c-1.9.17-1.93,3.15,0,3,2.51-.2,5.36-.66,6.49-3.24.77-1.76.09-5.16-.83-6.74-2.28-3.93-7.81-1-8.86,2.29-.58,1.85,2.31,2.64,2.89.8Z"/></g><rect class="cls-4" x="119.5" y="253.88" width="52" height="52" rx="26" ry="26" transform="translate(-134.38 425.38) rotate(-90)"/><g class="cls-6"><path d="M145.52,281.48c3.2-2.2,6.86-7.29,3.8-11.1-2.55-3.18-8.88-2-11.26.83-3.36,4,.7,8,4.33,9.58,1.27.56,2.91.79,4.05,1.5,5.13,3.22,3.83,7.68-1.25,8.72-3.78.77-6.27-2.34-3.58-5.6a30,30,0,0,1,4.25-4.1c1.49-1.23-.64-3.34-2.12-2.13-3,2.5-9.29,7.82-6.75,12.53,2,3.72,9.58,3,12.68,1.59,4-1.78,4-8.53,1.54-11.58-1.37-1.7-3.52-2.11-5.46-2.82a19.63,19.63,0,0,1-3.68-1.58q-3.48-4.72.63-5.45c2.3-1,3.78.07,4.45,3.11a7,7,0,0,1-3.14,3.91c-1.58,1.09-.08,3.69,1.51,2.59Z"/></g><g class="cls-6"><path d="M209,178.68c-3.9-.27-8.42-.21-10.94,3.31-2,2.78-2.76,7.32,0,9.82s7.46,2.32,10.28,0c3.11-2.61,3.5-6.87,3.11-10.64-.2-1.88-3.14-1.95-3,0q.69,9.76,1.86,19.48c.23,1.89,3.23,1.91,3,0q-1.17-9.72-1.86-19.48h-3a14,14,0,0,1-.17,5.21c-.81,2.93-4.61,6-7.69,3.63-3.3-2.59,0-7.21,2.6-8a15.45,15.45,0,0,1,5.83-.25c1.93.13,1.92-2.87,0-3Z"/></g><g class="cls-6"><path d="M17.1,273.09q-.51,10.94-1.3,21.85c-.14,1.92,2.86,1.91,3,0q.79-10.92,1.3-21.85c.09-1.93-2.91-1.92-3,0Z"/></g><g class="cls-6"><path d="M26.83,274.5a54.87,54.87,0,0,1-.7,8.09,1.52,1.52,0,0,0,2.2,1.69c3.56-1.8,6.07,3.89,5.41,6.29-.52,1.85-6.13,4.46-7.2,1.18-.6-1.82-3.5-1-2.89.8,1.69,5.16,11.59,4.73,12.94-.57,1.45-5.69-3.59-13.42-9.77-10.29l2.2,1.69a58.75,58.75,0,0,0,.81-8.88c0-1.93-3-1.93-3,0Z"/></g><g class="cls-6"><path d="M29,276.48l6.58-.54c1.91-.15,1.92-3.15,0-3l-6.58.54c-1.91.16-1.93,3.16,0,3Z"/></g><rect class="cls-7" x="119.5" y="88.88" width="52" height="52" rx="26" ry="26" transform="translate(30.62 260.38) rotate(-90)"/><g class="cls-6"><path d="M141.23,110.64c1-5.18,10.65-5.36,9.84.34-.44,3.12-3.85,3.17-6.37,3.58-1.62.27-1.21,2.42,0,2.9,3.21,1.25,6.08,3.82,4.67,7.78-1,2.83-8.55,4.29-9.59.3a1.5,1.5,0,0,0-2.89.8c1.38,5.31,10.81,6.29,14.14,2.27,4.7-5.67-.14-11.94-5.53-14.05v2.9c2.87-.48,7.13-1.15,8.3-4.18.93-2.43.35-6.51-1.44-8.46-4.18-4.58-13-.44-14,5-.36,1.88,2.53,2.69,2.89.79Z"/></g></g></g></svg>