<svg xmlns="http://www.w3.org/2000/svg" viewBox="0 0 386.55 297"><defs><style>.cls-1{fill:#c1272d;}.cls-11,.cls-2,.cls-5{fill:none;}.cls-11,.cls-2{stroke:#c1272d;}.cls-11,.cls-2,.cls-5,.cls-6,.cls-7,.cls-9{stroke-miterlimit:10;}.cls-2{stroke-width:3px;}.cls-3{opacity:0.5;}.cls-4{fill:#666;}.cls-5,.cls-6,.cls-7,.cls-9{stroke:#000;}.cls-6{fill:#d1ffff;}.cls-11,.cls-6,.cls-7,.cls-8{opacity:0.8;}.cls-7{fill:#00aa94;}.cls-9{fill:#007994;}.cls-10{font-size:12px;font-family:NanumGothic, Nanum Gothic;}.cls-11{stroke-width:2px;}</style></defs><title>자산 12</title><g id="레이어_2" data-name="레이어 2"><g id="레이어_1-2" data-name="레이어 1"><polygon class="cls-1" points="213.42 35.39 212.83 18.47 221.59 26.68 213.42 35.39"/><path class="cls-2" d="M215.86,26.78c-25.59-3.51-45.39,16.6-44.27,45"/><g class="cls-3"><path class="cls-4" d="M325.47,250.89a1.19,1.19,0,0,1,2.38,0,1.19,1.19,0,0,1-2.38,0Zm.31,3.22h1.73v10.2h-1.73Z"/><path class="cls-4" d="M331,254.11h1.43l.15,1.47h.05a4.89,4.89,0,0,1,3.43-1.72c2.15,0,3.11,1.38,3.11,4v6.46H337.4v-6.24c0-1.9-.58-2.72-1.93-2.72-1,0-1.77.54-2.79,1.57v7.39H331Z"/><path class="cls-4" d="M341.66,266.27a2.87,2.87,0,0,1,1.49-2.3v-.09a1.9,1.9,0,0,1-.91-1.67,2.47,2.47,0,0,1,1.13-1.9v-.08a3.54,3.54,0,0,1-1.33-2.74,3.62,3.62,0,0,1,3.83-3.63,4.18,4.18,0,0,1,1.44.25h3.56v1.33h-2.09a3,3,0,0,1,.83,2.1,3.49,3.49,0,0,1-3.74,3.54,3.71,3.71,0,0,1-1.52-.35,1.5,1.5,0,0,0-.65,1.21c0,.64.42,1.1,1.79,1.1h2c2.37,0,3.56.75,3.56,2.44,0,1.9-2,3.53-5.16,3.53C343.38,269,341.66,268,341.66,266.27Zm7.69-.53c0-.95-.72-1.27-2.06-1.27h-1.76a5.75,5.75,0,0,1-1.32-.15,2.13,2.13,0,0,0-1,1.71c0,1.1,1.11,1.79,3,1.79S349.35,266.8,349.35,265.74ZM348,257.49a2.18,2.18,0,1,0-4.34,0,2.18,2.18,0,1,0,4.34,0Z"/><path class="cls-4" d="M352.25,266.27a2.87,2.87,0,0,1,1.49-2.3v-.09a1.9,1.9,0,0,1-.91-1.67,2.47,2.47,0,0,1,1.13-1.9v-.08a3.54,3.54,0,0,1-1.33-2.74,3.62,3.62,0,0,1,3.83-3.63,4.18,4.18,0,0,1,1.44.25h3.56v1.33h-2.09a3,3,0,0,1,.83,2.1,3.49,3.49,0,0,1-3.74,3.54,3.71,3.71,0,0,1-1.52-.35,1.5,1.5,0,0,0-.65,1.21c0,.64.42,1.1,1.79,1.1h2c2.37,0,3.56.75,3.56,2.44,0,1.9-2,3.53-5.16,3.53C354,269,352.25,268,352.25,266.27Zm7.69-.53c0-.95-.72-1.27-2.06-1.27h-1.76a5.75,5.75,0,0,1-1.32-.15,2.13,2.13,0,0,0-1.05,1.71c0,1.1,1.11,1.79,3,1.79S359.94,266.8,359.94,265.74Zm-1.31-8.25a2.18,2.18,0,1,0-4.34,0,2.18,2.18,0,1,0,4.34,0Z"/><path class="cls-4" d="M363.26,263.26a1.25,1.25,0,1,1,1.25,1.3A1.26,1.26,0,0,1,363.26,263.26Z"/><path class="cls-4" d="M368.53,250.89a1.19,1.19,0,0,1,2.38,0,1.19,1.19,0,0,1-2.38,0Zm.32,3.22h1.72v10.2h-1.72Z"/><path class="cls-4" d="M373.26,259.22c0-3.4,2.23-5.36,4.73-5.36s4.73,2,4.73,5.36-2.23,5.34-4.73,5.34S373.26,262.6,373.26,259.22Zm7.67,0c0-2.34-1.19-3.93-2.94-3.93s-2.95,1.59-2.95,3.93,1.19,3.91,2.95,3.91S380.93,261.56,380.93,259.22Z"/></g><line class="cls-5" x1="122.05" y1="198.5" x2="155.05" y2="244.5"/><rect class="cls-6" x="136.05" y="244.5" width="52" height="52" rx="26" ry="26" transform="translate(-108.45 432.55) rotate(-90)"/><rect class="cls-7" x="334.05" y="67.5" width="52" height="52" rx="26" ry="26" transform="translate(266.55 453.55) rotate(-90)"/><rect class="cls-7" x="203.05" y="147.5" width="52" height="52" rx="26" ry="26" transform="translate(55.55 402.55) rotate(-90)"/><line class="cls-5" x1="239.05" y1="42.5" x2="188.05" y2="81.5"/><line class="cls-5" x1="281.02" y1="41.29" x2="342.05" y2="74.5"/><line class="cls-5" x1="151.25" y1="118.3" x2="118.05" y2="151.5"/><line class="cls-5" x1="191.43" y1="115.95" x2="225.87" y2="147.85"/><rect class="cls-7" x="25.05" y="244.5" width="52" height="52" rx="26" ry="26" transform="translate(-219.45 321.55) rotate(-90)"/><line class="cls-5" x1="95.05" y1="197.5" x2="58.05" y2="245.5"/><rect class="cls-7" x="83.05" y="149.5" width="52" height="52" rx="26" ry="26" transform="translate(-66.45 284.55) rotate(-90)"/><g class="cls-8"><path d="M107.32,163.9a203.67,203.67,0,0,1-12.11,17.48A1.5,1.5,0,0,0,97,183.73a81,81,0,0,1,22.7-7.19c1.9-.31,1.1-3.2-.8-2.89a83.47,83.47,0,0,0-23.41,7.49l1.82,2.36a210.75,210.75,0,0,0,12.58-18.09c1-1.65-1.58-3.16-2.59-1.51Z"/></g><g class="cls-8"><path d="M106.8,167.06v21.3a1.5,1.5,0,0,0,3,0v-21.3a1.5,1.5,0,0,0-3,0Z"/></g><g class="cls-8"><path d="M352.94,90.1l12.47-6.61-2.2-1.7a80.54,80.54,0,0,0-2.15,24.41c.12,1.92,3.12,1.93,3,0a78.18,78.18,0,0,1,2-23.61,1.51,1.51,0,0,0-2.2-1.69l-12.48,6.6c-1.7.91-.19,3.5,1.52,2.6Z"/></g><rect class="cls-9" x="234.05" y="0.5" width="52" height="52" rx="26" ry="26" transform="translate(233.55 286.55) rotate(-90)"/><g class="cls-8"><path d="M261.07,28.1c3.2-2.21,6.85-7.29,3.8-11.11-2.55-3.18-8.88-2-11.27.84-3.36,4,.71,8,4.34,9.58,1.26.56,2.91.79,4.05,1.5,5.13,3.22,3.83,7.68-1.25,8.71-3.79.78-6.27-2.34-3.59-5.59a31.14,31.14,0,0,1,4.25-4.11c1.5-1.23-.64-3.34-2.12-2.12-3,2.5-9.28,7.82-6.74,12.53,2,3.71,9.58,3,12.68,1.58,3.95-1.77,4-8.52,1.54-11.57-1.38-1.7-3.52-2.11-5.47-2.82a19.54,19.54,0,0,1-3.67-1.58q-3.48-4.73.63-5.45Q261.7,17,262.7,21.6a7.1,7.1,0,0,1-3.14,3.91c-1.58,1.09-.09,3.69,1.51,2.59Z"/></g><g class="cls-8"><path d="M233.59,164.3c-3.9-.27-8.42-.21-10.94,3.31-2,2.78-2.77,7.31,0,9.82s7.46,2.31,10.28-.05c3.11-2.6,3.5-6.86,3.1-10.63-.2-1.89-3.14-1.95-3,0q.7,9.76,1.87,19.47c.23,1.9,3.23,1.92,3,0q-1.17-9.71-1.87-19.47h-3a13.79,13.79,0,0,1-.16,5.2c-.81,2.94-4.62,6-7.69,3.63-3.3-2.59,0-7.2,2.6-8a15.45,15.45,0,0,1,5.83-.25c1.93.13,1.92-2.87,0-3Z"/></g><g class="cls-8"><path d="M51.38,260.11a53.45,53.45,0,0,1-.71,8.09,1.53,1.53,0,0,0,2.21,1.7c3.56-1.8,6.07,3.89,5.4,6.29-.51,1.85-6.12,4.46-7.19,1.18-.6-1.83-3.5-1.05-2.9.8,1.69,5.16,11.6,4.73,13-.57,1.45-5.69-3.59-13.42-9.78-10.29L53.57,269a58.76,58.76,0,0,0,.81-8.89,1.5,1.5,0,0,0-3,0Z"/></g><g class="cls-8"><path d="M53.57,262.1l6.57-.54c1.91-.15,1.93-3.16,0-3l-6.57.54c-1.91.15-1.93,3.15,0,3Z"/></g><rect class="cls-7" x="144.05" y="74.5" width="52" height="52" rx="26" ry="26" transform="translate(69.55 270.55) rotate(-90)"/><g class="cls-8"><path d="M164.78,95.26c1-5.19,10.64-5.37,9.84.33-.45,3.13-3.85,3.17-6.37,3.59-1.62.27-1.21,2.42,0,2.89,3.21,1.26,6.07,3.83,4.67,7.79-1,2.83-8.56,4.28-9.59.3a1.5,1.5,0,0,0-2.89.79c1.37,5.32,10.81,6.3,14.14,2.28,4.7-5.67-.14-12-5.53-14v2.89c2.87-.47,7.13-1.15,8.29-4.18.94-2.42.35-6.51-1.43-8.46-4.19-4.58-13-.44-14,5-.36,1.89,2.53,2.7,2.89.8Z"/></g><g class="cls-8"><path d="M42.48,260.84v18.34a1.5,1.5,0,0,0,3,0V260.84a1.5,1.5,0,0,0-3,0Z"/></g><text class="cls-10" transform="translate(0 24.57)">마지막노드 우선순위가 높으면 탈출, <tspan x="0" y="14.4">그렇지 않은 경우 얘를 올려야함</tspan></text><path class="cls-11" d="M188.49,273.93C254,291.72,288.67,212.39,266,96.56"/><polygon class="cls-1" points="274.45 100.34 260.13 102.01 266.55 94 274.45 100.34"/></g></g></svg>