<svg xmlns="http://www.w3.org/2000/svg" viewBox="0 0 906.17 319.91"><defs><style>.cls-1{fill:#ccc;}.cls-2{opacity:0.5;}.cls-3{fill:#666;}.cls-4{fill:#007994;}.cls-4,.cls-5,.cls-6{stroke:#000;stroke-miterlimit:10;}.cls-5{fill:#00aa94;}.cls-5,.cls-7{opacity:0.8;}.cls-6{fill:none;}</style></defs><title>자산 11</title><g id="레이어_2" data-name="레이어 2"><g id="레이어_1-2" data-name="레이어 1"><path class="cls-1" d="M213.74,8.26,111.13,96.73c-15,13-15.93,36.54-2,52.67l4,4.67c13.91,16.13,37.36,18.7,52.39,5.75l102.6-88.48c15-13,15.93-36.54,2-52.67l-4-4.67C252.22-2.13,228.76-4.7,213.74,8.26Z"/><g class="cls-2"><path class="cls-3" d="M848.92,279.8a1.19,1.19,0,0,1,2.38,0,1.19,1.19,0,0,1-2.38,0Zm.31,3.22H851v10.2h-1.73Z"/><path class="cls-3" d="M854.41,283h1.42l.15,1.47H856a4.86,4.86,0,0,1,3.42-1.73c2.15,0,3.12,1.39,3.12,4v6.47h-1.73V287c0-1.9-.58-2.72-1.93-2.72-1,0-1.76.54-2.79,1.57v7.39h-1.72Z"/><path class="cls-3" d="M865.11,295.18a2.88,2.88,0,0,1,1.5-2.31v-.08a1.88,1.88,0,0,1-.91-1.67,2.44,2.44,0,0,1,1.12-1.9v-.08a3.53,3.53,0,0,1-1.32-2.74,3.62,3.62,0,0,1,3.83-3.64,3.94,3.94,0,0,1,1.44.26h3.56v1.32h-2.1a3,3,0,0,1,.83,2.1,3.48,3.48,0,0,1-3.73,3.54,3.74,3.74,0,0,1-1.53-.34,1.51,1.51,0,0,0-.65,1.2c0,.65.42,1.11,1.79,1.11h2c2.37,0,3.56.75,3.56,2.44,0,1.89-2,3.53-5.16,3.53C866.83,297.92,865.11,296.94,865.11,295.18Zm7.69-.53c0-.95-.71-1.27-2-1.27H869a5.83,5.83,0,0,1-1.33-.15,2.12,2.12,0,0,0-1,1.71c0,1.1,1.1,1.79,3,1.79S872.8,295.71,872.8,294.65Zm-1.31-8.25a2.17,2.17,0,1,0-4.33,0,2.18,2.18,0,1,0,4.33,0Z"/><path class="cls-3" d="M875.7,295.18a2.88,2.88,0,0,1,1.5-2.31v-.08a1.88,1.88,0,0,1-.91-1.67,2.44,2.44,0,0,1,1.12-1.9v-.08a3.53,3.53,0,0,1-1.32-2.74,3.62,3.62,0,0,1,3.83-3.64,3.94,3.94,0,0,1,1.44.26h3.56v1.32h-2.1a3,3,0,0,1,.83,2.1,3.48,3.48,0,0,1-3.73,3.54,3.74,3.74,0,0,1-1.53-.34,1.51,1.51,0,0,0-.65,1.2c0,.65.42,1.11,1.79,1.11h2c2.37,0,3.56.75,3.56,2.44,0,1.89-2,3.53-5.16,3.53C877.42,297.92,875.7,296.94,875.7,295.18Zm7.69-.53c0-.95-.71-1.27-2-1.27h-1.76a5.83,5.83,0,0,1-1.33-.15,2.12,2.12,0,0,0-1,1.71c0,1.1,1.1,1.79,3,1.79S883.39,295.71,883.39,294.65Zm-1.31-8.25a2.17,2.17,0,1,0-4.33,0,2.18,2.18,0,1,0,4.33,0Z"/><path class="cls-3" d="M886.71,292.17a1.25,1.25,0,1,1,1.25,1.3A1.26,1.26,0,0,1,886.71,292.17Z"/><path class="cls-3" d="M892,279.8a1.2,1.2,0,0,1,2.39,0,1.2,1.2,0,0,1-2.39,0Zm.32,3.22H894v10.2H892.3Z"/><path class="cls-3" d="M896.71,288.13c0-3.4,2.23-5.37,4.73-5.37s4.73,2,4.73,5.37-2.23,5.34-4.73,5.34S896.71,291.51,896.71,288.13Zm7.68,0c0-2.34-1.19-3.93-2.95-3.93s-2.94,1.59-2.94,3.93,1.19,3.91,2.94,3.91S904.39,290.47,904.39,288.13Z"/></g><rect class="cls-4" x="119.5" y="96.41" width="52" height="52" rx="26" ry="26" transform="translate(23.09 267.91) rotate(-90)"/><rect class="cls-5" x="309.5" y="90.41" width="52" height="52" rx="26" ry="26" transform="translate(219.09 451.91) rotate(-90)"/><rect class="cls-5" x="178.5" y="170.41" width="52" height="52" rx="26" ry="26" transform="translate(8.09 400.91) rotate(-90)"/><line class="cls-6" x1="214.5" y1="65.41" x2="163.5" y2="104.41"/><line class="cls-6" x1="256.47" y1="64.2" x2="317.5" y2="97.41"/><line class="cls-6" x1="126.7" y1="141.21" x2="93.5" y2="174.41"/><line class="cls-6" x1="166.88" y1="138.86" x2="201.32" y2="170.76"/><rect class="cls-5" x="0.5" y="267.41" width="52" height="52" rx="26" ry="26" transform="translate(-266.91 319.91) rotate(-90)"/><line class="cls-6" x1="70.5" y1="220.41" x2="33.5" y2="268.41"/><rect class="cls-5" x="258.5" y="171.41" width="52" height="52" rx="26" ry="26" transform="translate(87.09 481.91) rotate(-90)"/><rect class="cls-5" x="365.5" y="170.41" width="52" height="52" rx="26" ry="26" transform="translate(195.09 587.91) rotate(-90)"/><line class="cls-6" x1="319.5" y1="137.41" x2="291.5" y2="172.41"/><line class="cls-6" x1="351.5" y1="137.41" x2="379.5" y2="173.41"/><rect class="cls-5" x="60.5" y="173.41" width="52" height="52" rx="26" ry="26" transform="translate(-112.91 285.91) rotate(-90)"/><g class="cls-7"><path d="M84.77,187.8a203.82,203.82,0,0,1-12.11,17.49,1.51,1.51,0,0,0,1.82,2.35,80.48,80.48,0,0,1,22.69-7.19c1.9-.31,1.1-3.2-.79-2.9A83.56,83.56,0,0,0,73,205.05l1.82,2.36a208.52,208.52,0,0,0,12.58-18.09c1-1.65-1.58-3.16-2.59-1.52Z"/></g><g class="cls-7"><path d="M84.25,191v21.31a1.5,1.5,0,0,0,3,0V191a1.5,1.5,0,0,0-3,0Z"/></g><g class="cls-7"><path d="M328.39,113l12.48-6.6-2.21-1.7a80.83,80.83,0,0,0-2.15,24.41c.12,1.91,3.12,1.93,3,0a77.84,77.84,0,0,1,2.05-23.61,1.52,1.52,0,0,0-2.21-1.69l-12.47,6.6c-1.71.91-.2,3.5,1.51,2.59Z"/></g><g class="cls-7"><path d="M276.32,188.7,274,211.64c-.19,1.92,2.82,1.91,3,0l2.28-22.94c.19-1.92-2.81-1.91-3,0Z"/></g><g class="cls-7"><path d="M288.24,189.28a166.56,166.56,0,0,1-1.4,21.29c-.24,1.91,2.76,1.89,3,0a166.56,166.56,0,0,0,1.4-21.29,1.5,1.5,0,0,0-3,0Z"/></g><g class="cls-7"><path d="M381.94,185.75v18.33a1.5,1.5,0,0,0,3,0V185.75a1.5,1.5,0,0,0-3,0Z"/></g><g class="cls-7"><path d="M394.36,189.36c.8-2.52,2.64-2.17,3.49-.26,1.14,2.54-.62,4-3.18,4.15v3c2.13-.18,5,2.35,4.12,4.74s-4.72.52-5.49-.78a1.5,1.5,0,0,0-2.59,1.51c1.81,3.09,9.1,5.53,10.8,1.07s-2.12-10-6.84-9.54c-1.9.17-1.93,3.16,0,3,2.51-.19,5.36-.66,6.49-3.24.77-1.76.09-5.15-.83-6.74-2.28-3.92-7.81-1-8.86,2.3-.58,1.84,2.31,2.63,2.89.79Z"/></g><g class="cls-7"><path d="M146.52,124c3.2-2.21,6.86-7.29,3.8-11.11-2.55-3.18-8.88-2-11.26.84-3.36,4,.7,8,4.33,9.58,1.27.56,2.91.78,4.05,1.5,5.13,3.22,3.83,7.68-1.25,8.71-3.78.77-6.27-2.34-3.58-5.6a30.52,30.52,0,0,1,4.25-4.1c1.49-1.23-.64-3.34-2.12-2.12-3,2.5-9.29,7.81-6.75,12.53,2,3.71,9.58,3,12.68,1.58,4-1.78,4-8.53,1.54-11.58-1.37-1.69-3.52-2.1-5.46-2.81a20.31,20.31,0,0,1-3.68-1.58q-3.48-4.72.63-5.46,3.45-1.44,4.45,3.12a7.1,7.1,0,0,1-3.14,3.91c-1.58,1.09-.08,3.69,1.51,2.59Z"/></g><g class="cls-7"><path d="M209,187.2c-3.9-.26-8.42-.2-10.94,3.32-2,2.78-2.76,7.31,0,9.82s7.46,2.31,10.28-.05c3.11-2.6,3.5-6.86,3.11-10.63-.2-1.89-3.14-1.95-3,0q.69,9.75,1.86,19.47c.23,1.89,3.23,1.92,3,0q-1.17-9.72-1.86-19.47h-3a14,14,0,0,1-.17,5.2c-.81,2.94-4.61,6-7.69,3.63-3.3-2.59,0-7.2,2.6-8a15.45,15.45,0,0,1,5.83-.25c1.93.14,1.92-2.87,0-3Z"/></g><g class="cls-7"><path d="M26.83,283a54.76,54.76,0,0,1-.7,8.09,1.52,1.52,0,0,0,2.2,1.7c3.56-1.8,6.07,3.89,5.41,6.29-.52,1.85-6.13,4.46-7.2,1.18-.6-1.83-3.5-1-2.89.8,1.69,5.16,11.59,4.73,12.94-.57,1.45-5.69-3.59-13.42-9.77-10.29l2.2,1.69a58.76,58.76,0,0,0,.81-8.89c0-1.93-3-1.93-3,0Z"/></g><g class="cls-7"><path d="M29,285l6.58-.54c1.91-.16,1.92-3.16,0-3L29,282c-1.91.15-1.93,3.15,0,3Z"/></g><rect class="cls-5" x="209.5" y="23.41" width="52" height="52" rx="26" ry="26" transform="translate(186.09 284.91) rotate(-90)"/><g class="cls-7"><path d="M231.23,43.17c1-5.19,10.65-5.37,9.84.33-.44,3.13-3.85,3.17-6.37,3.59-1.62.27-1.21,2.42,0,2.89,3.21,1.25,6.08,3.83,4.67,7.79-1,2.83-8.55,4.28-9.59.29-.48-1.86-3.38-1.07-2.89.8,1.38,5.32,10.81,6.3,14.14,2.28,4.7-5.68-.14-12-5.53-14V50c2.87-.47,7.13-1.15,8.3-4.18.93-2.42.35-6.51-1.44-8.46-4.18-4.58-13-.44-14,5-.36,1.89,2.53,2.7,2.89.8Z"/></g><path class="cls-1" d="M607.3,86.48l-85.44,94.45c-12.52,13.82-9.86,36.62,5.94,50.91l4.57,4.13c15.8,14.29,38.74,14.67,51.25.84l85.45-94.45c12.51-13.82,9.85-36.62-5.94-50.91l-4.58-4.14C642.76,73,619.81,72.65,607.3,86.48Z"/><rect class="cls-5" x="790.5" y="90.41" width="52" height="52" rx="26" ry="26" transform="translate(700.09 932.91) rotate(-90)"/><rect class="cls-5" x="659.5" y="170.41" width="52" height="52" rx="26" ry="26" transform="translate(489.09 881.91) rotate(-90)"/><line class="cls-6" x1="695.5" y1="65.41" x2="644.5" y2="104.41"/><line class="cls-6" x1="737.47" y1="64.2" x2="798.5" y2="97.41"/><line class="cls-6" x1="607.7" y1="141.21" x2="574.5" y2="174.41"/><line class="cls-6" x1="647.88" y1="138.86" x2="682.32" y2="170.76"/><rect class="cls-5" x="481.5" y="267.41" width="52" height="52" rx="26" ry="26" transform="translate(214.09 800.91) rotate(-90)"/><line class="cls-6" x1="551.5" y1="220.41" x2="514.5" y2="268.41"/><rect class="cls-5" x="739.5" y="171.41" width="52" height="52" rx="26" ry="26" transform="translate(568.09 962.91) rotate(-90)"/><rect class="cls-5" x="846.5" y="170.41" width="52" height="52" rx="26" ry="26" transform="translate(676.09 1068.91) rotate(-90)"/><line class="cls-6" x1="800.5" y1="137.41" x2="772.5" y2="172.41"/><line class="cls-6" x1="832.5" y1="137.41" x2="860.5" y2="173.41"/><rect class="cls-5" x="600.5" y="97.41" width="52" height="52" rx="26" ry="26" transform="translate(503.09 749.91) rotate(-90)"/><g class="cls-7"><path d="M624.77,111.8a203.82,203.82,0,0,1-12.11,17.49,1.51,1.51,0,0,0,1.82,2.35,80.48,80.48,0,0,1,22.69-7.19c1.9-.31,1.1-3.2-.79-2.9a83.56,83.56,0,0,0-23.42,7.5l1.82,2.36a208.52,208.52,0,0,0,12.58-18.09c1-1.65-1.58-3.16-2.59-1.52Z"/></g><g class="cls-7"><path d="M624.25,115v21.31a1.5,1.5,0,0,0,3,0V115a1.5,1.5,0,0,0-3,0Z"/></g><g class="cls-7"><path d="M809.39,113l12.48-6.6-2.21-1.7a80.83,80.83,0,0,0-2.15,24.41c.12,1.91,3.12,1.93,3,0a77.84,77.84,0,0,1,2-23.61,1.52,1.52,0,0,0-2.21-1.69l-12.47,6.6c-1.71.91-.2,3.5,1.51,2.59Z"/></g><g class="cls-7"><path d="M757.32,188.7,755,211.64c-.19,1.92,2.82,1.91,3,0l2.28-22.94c.19-1.92-2.81-1.91-3,0Z"/></g><g class="cls-7"><path d="M769.24,189.28a166.56,166.56,0,0,1-1.4,21.29c-.24,1.91,2.76,1.89,3,0a166.56,166.56,0,0,0,1.4-21.29,1.5,1.5,0,0,0-3,0Z"/></g><g class="cls-7"><path d="M862.94,185.75v18.33a1.5,1.5,0,0,0,3,0V185.75a1.5,1.5,0,0,0-3,0Z"/></g><g class="cls-7"><path d="M875.36,189.36c.8-2.52,2.64-2.17,3.49-.26,1.14,2.54-.62,4-3.18,4.15v3c2.13-.18,5,2.35,4.12,4.74s-4.72.52-5.49-.78a1.5,1.5,0,0,0-2.59,1.51c1.81,3.09,9.1,5.53,10.8,1.07s-2.12-10-6.84-9.54c-1.9.17-1.93,3.16,0,3,2.51-.19,5.36-.66,6.49-3.24.77-1.76.09-5.15-.83-6.74-2.28-3.92-7.81-1-8.86,2.3-.58,1.84,2.31,2.63,2.89.79Z"/></g><rect class="cls-4" x="537.5" y="172.41" width="52" height="52" rx="26" ry="26" transform="translate(365.09 761.91) rotate(-90)"/><g class="cls-7"><path d="M564.52,200c3.2-2.21,6.86-7.29,3.8-11.11-2.55-3.18-8.88-2-11.26.84-3.36,4,.7,8,4.33,9.58,1.27.56,2.91.78,4.05,1.5,5.13,3.22,3.83,7.68-1.25,8.71-3.78.77-6.27-2.34-3.58-5.6a30.52,30.52,0,0,1,4.25-4.1c1.49-1.23-.64-3.34-2.12-2.12-3,2.5-9.29,7.81-6.75,12.53,2,3.71,9.58,3,12.68,1.58,4-1.78,4-8.53,1.54-11.58-1.37-1.69-3.52-2.1-5.46-2.81a20.31,20.31,0,0,1-3.68-1.58q-3.48-4.72.63-5.46,3.45-1.44,4.45,3.12a7.1,7.1,0,0,1-3.14,3.91c-1.58,1.09-.08,3.69,1.51,2.59Z"/></g><g class="cls-7"><path d="M690,187.2c-3.9-.26-8.42-.2-10.94,3.32-2,2.78-2.76,7.31,0,9.82s7.46,2.31,10.28-.05c3.11-2.6,3.5-6.86,3.11-10.63-.2-1.89-3.14-1.95-3,0q.69,9.75,1.86,19.47c.23,1.89,3.23,1.92,3,0q-1.17-9.72-1.86-19.47h-3a14,14,0,0,1-.17,5.2c-.81,2.94-4.61,6-7.69,3.63-3.3-2.59,0-7.2,2.6-8a15.45,15.45,0,0,1,5.83-.25c1.93.14,1.92-2.87,0-3Z"/></g><g class="cls-7"><path d="M507.83,283a54.76,54.76,0,0,1-.7,8.09,1.52,1.52,0,0,0,2.2,1.7c3.56-1.8,6.07,3.89,5.41,6.29-.52,1.85-6.13,4.46-7.2,1.18-.6-1.83-3.5-1-2.89.8,1.69,5.16,11.59,4.73,12.94-.57,1.45-5.69-3.59-13.42-9.77-10.29l2.2,1.69a58.76,58.76,0,0,0,.81-8.89c0-1.93-3-1.93-3,0Z"/></g><g class="cls-7"><path d="M510,285l6.58-.54c1.91-.16,1.92-3.16,0-3L510,282c-1.91.15-1.93,3.15,0,3Z"/></g><rect class="cls-5" x="690.5" y="23.41" width="52" height="52" rx="26" ry="26" transform="translate(667.09 765.91) rotate(-90)"/><g class="cls-7"><path d="M712.23,43.17c1-5.19,10.65-5.37,9.84.33-.44,3.13-3.85,3.17-6.37,3.59-1.62.27-1.21,2.42,0,2.89,3.21,1.25,6.08,3.83,4.67,7.79-1,2.83-8.55,4.28-9.59.29-.48-1.86-3.38-1.07-2.89.8,1.38,5.32,10.81,6.3,14.14,2.28,4.7-5.68-.14-12-5.53-14V50c2.87-.47,7.13-1.15,8.3-4.18.93-2.42.35-6.51-1.44-8.46-4.18-4.58-13-.44-14,5-.36,1.89,2.53,2.7,2.89.8Z"/></g><g class="cls-7"><path d="M16.94,283.75v18.33a1.5,1.5,0,0,0,3,0V283.75a1.5,1.5,0,0,0-3,0Z"/></g><g class="cls-7"><path d="M498.94,283.75v18.33a1.5,1.5,0,0,0,3,0V283.75a1.5,1.5,0,0,0-3,0Z"/></g></g></g></svg>