<svg xmlns="http://www.w3.org/2000/svg" viewBox="0 0 899 337.52"><defs><style>.cls-1,.cls-5{fill:none;}.cls-1{stroke:#c1272d;stroke-width:3px;}.cls-1,.cls-10,.cls-2,.cls-4,.cls-5,.cls-9{stroke-miterlimit:10;}.cls-10,.cls-2{fill:#d1ffff;}.cls-2{stroke:#999;}.cls-3{fill:#c1272d;}.cls-4{fill:#00aa94;}.cls-10,.cls-4,.cls-5,.cls-9{stroke:#000;}.cls-10,.cls-4,.cls-6{opacity:0.8;}.cls-7{opacity:0.5;}.cls-8{fill:#666;}.cls-9{fill:#007994;}</style></defs><title>자산 10</title><g id="레이어_2" data-name="레이어 2"><g id="레이어_1-2" data-name="레이어 1"><path class="cls-1" d="M233.26,42.79C248,16.11,272.55,1.47,288.05,10.06"/><rect class="cls-2" x="208.5" y="40.02" width="52" height="52" rx="26" ry="26" transform="translate(168.48 300.52) rotate(-90)"/><polygon class="cls-3" points="282.1 16.9 283.06 0 291.03 8.97 282.1 16.9"/><polygon class="cls-3" points="728.01 103.74 711.14 105.17 718.91 96.01 728.01 103.74"/><path class="cls-1" d="M651.72,301.09C709,334,739.54,244.29,720,100.52"/><rect class="cls-4" x="309.5" y="108.02" width="52" height="52" rx="26" ry="26" transform="translate(201.48 469.52) rotate(-90)"/><rect class="cls-4" x="178.5" y="188.02" width="52" height="52" rx="26" ry="26" transform="translate(-9.52 418.52) rotate(-90)"/><line class="cls-5" x1="214.5" y1="83.02" x2="163.5" y2="122.02"/><line class="cls-5" x1="256.47" y1="81.82" x2="317.5" y2="115.02"/><line class="cls-5" x1="126.7" y1="158.82" x2="93.5" y2="192.02"/><line class="cls-5" x1="166.88" y1="156.47" x2="201.32" y2="188.38"/><rect class="cls-4" x="0.5" y="285.02" width="52" height="52" rx="26" ry="26" transform="translate(-284.52 337.52) rotate(-90)"/><line class="cls-5" x1="70.5" y1="238.02" x2="33.5" y2="286.02"/><line class="cls-5" x1="103.5" y1="236.02" x2="136.5" y2="282.02"/><rect class="cls-4" x="258.5" y="189.02" width="52" height="52" rx="26" ry="26" transform="translate(69.48 499.52) rotate(-90)"/><rect class="cls-4" x="365.5" y="188.02" width="52" height="52" rx="26" ry="26" transform="translate(177.48 605.52) rotate(-90)"/><line class="cls-5" x1="319.5" y1="155.02" x2="291.5" y2="190.02"/><line class="cls-5" x1="351.5" y1="155.02" x2="379.5" y2="191.02"/><rect class="cls-4" x="60.5" y="191.02" width="52" height="52" rx="26" ry="26" transform="translate(-130.52 303.52) rotate(-90)"/><g class="cls-6"><path d="M84.77,205.42A202.12,202.12,0,0,1,72.66,222.9a1.51,1.51,0,0,0,1.82,2.36,80.5,80.5,0,0,1,22.69-7.2c1.9-.31,1.1-3.2-.79-2.89A83.24,83.24,0,0,0,73,222.67L74.78,225a207,207,0,0,0,12.58-18.09c1-1.64-1.58-3.15-2.59-1.51Z"/></g><g class="cls-6"><path d="M84.25,208.58v21.3a1.5,1.5,0,0,0,3,0v-21.3a1.5,1.5,0,0,0-3,0Z"/></g><g class="cls-6"><path d="M328.39,130.62,340.87,124l-2.21-1.69a80.79,80.79,0,0,0-2.15,24.4c.12,1.92,3.12,1.93,3,0a77.87,77.87,0,0,1,2.05-23.61,1.52,1.52,0,0,0-2.21-1.69L326.88,128c-1.71.9-.2,3.49,1.51,2.59Z"/></g><g class="cls-6"><path d="M276.32,206.32,274,229.26c-.19,1.92,2.82,1.9,3,0l2.28-22.94c.19-1.92-2.81-1.91-3,0Z"/></g><g class="cls-6"><path d="M288.24,206.89a166.56,166.56,0,0,1-1.4,21.29c-.24,1.91,2.76,1.9,3,0a166.56,166.56,0,0,0,1.4-21.29,1.5,1.5,0,0,0-3,0Z"/></g><g class="cls-6"><path d="M381.94,203.37V221.7a1.5,1.5,0,0,0,3,0V203.37a1.5,1.5,0,0,0-3,0Z"/></g><g class="cls-6"><path d="M394.36,206c.8-2.52,2.64-2.18,3.49-.27,1.14,2.54-.62,4-3.18,4.16v3c2.13-.19,5,2.34,4.12,4.74s-4.72.52-5.49-.79a1.5,1.5,0,0,0-2.59,1.52c1.81,3.08,9.1,5.53,10.8,1.06s-2.12-10-6.84-9.53c-1.9.17-1.93,3.15,0,3,2.51-.2,5.36-.66,6.49-3.24.77-1.76.09-5.16-.83-6.74-2.28-3.93-7.81-1-8.86,2.29-.58,1.85,2.31,2.63,2.89.8Z"/></g><rect class="cls-4" x="119.5" y="280.02" width="52" height="52" rx="26" ry="26" transform="translate(-160.52 451.52) rotate(-90)"/><g class="cls-6"><path d="M145.52,307.62c3.2-2.2,6.86-7.29,3.8-11.1-2.55-3.18-8.88-2-11.26.83-3.36,4,.7,8,4.33,9.58,1.27.56,2.91.79,4.05,1.5,5.13,3.22,3.83,7.68-1.25,8.72-3.78.77-6.27-2.34-3.58-5.6a30,30,0,0,1,4.25-4.1c1.49-1.23-.64-3.34-2.12-2.13-3,2.5-9.29,7.82-6.75,12.53,2,3.72,9.58,3,12.68,1.59,4-1.78,4-8.53,1.54-11.58-1.37-1.7-3.52-2.11-5.46-2.82a19.63,19.63,0,0,1-3.68-1.58q-3.48-4.72.63-5.45c2.3-1,3.78.07,4.45,3.11A7.07,7.07,0,0,1,144,305c-1.58,1.09-.08,3.69,1.51,2.59Z"/></g><g class="cls-6"><path d="M209,204.82c-3.9-.27-8.42-.21-10.94,3.31-2,2.78-2.76,7.32,0,9.82s7.46,2.32,10.28,0c3.11-2.61,3.5-6.87,3.11-10.64-.2-1.88-3.14-2-3,0q.69,9.76,1.86,19.48c.23,1.89,3.23,1.91,3,0q-1.17-9.72-1.86-19.48h-3a14.05,14.05,0,0,1-.17,5.21c-.81,2.93-4.61,6-7.69,3.62-3.3-2.58,0-7.2,2.6-8a15.45,15.45,0,0,1,5.83-.25c1.93.13,1.92-2.87,0-3Z"/></g><g class="cls-6"><path d="M26.83,300.64a55,55,0,0,1-.7,8.09,1.52,1.52,0,0,0,2.2,1.69c3.56-1.8,6.07,3.89,5.41,6.29-.52,1.85-6.13,4.46-7.2,1.18-.6-1.82-3.5-1-2.89.8,1.69,5.16,11.59,4.73,12.94-.57C38,312.43,33,304.7,26.82,307.83l2.2,1.69a58.75,58.75,0,0,0,.81-8.88,1.5,1.5,0,0,0-3,0Z"/></g><g class="cls-6"><path d="M29,302.62l6.58-.54c1.91-.15,1.92-3.15,0-3l-6.58.54c-1.91.16-1.93,3.16,0,3Z"/></g><rect class="cls-4" x="119.5" y="115.02" width="52" height="52" rx="26" ry="26" transform="translate(4.48 286.52) rotate(-90)"/><g class="cls-6"><path d="M141.23,136.78c1-5.18,10.65-5.37,9.84.34-.44,3.12-3.85,3.17-6.37,3.58-1.62.27-1.21,2.42,0,2.9,3.21,1.25,6.08,3.82,4.67,7.78-1,2.83-8.55,4.29-9.59.3a1.5,1.5,0,0,0-2.89.8c1.38,5.31,10.81,6.29,14.14,2.27,4.7-5.67-.14-11.94-5.53-14.05v2.9c2.87-.48,7.13-1.15,8.3-4.19.93-2.42.35-6.51-1.44-8.46-4.18-4.57-13-.43-14,5-.36,1.88,2.53,2.69,2.89.79Z"/></g><g class="cls-7"><path class="cls-8" d="M839.92,293.42a1.19,1.19,0,1,1,1.19,1.11A1.11,1.11,0,0,1,839.92,293.42Zm.31,3.21H842v10.21h-1.73Z"/><path class="cls-8" d="M845.41,296.63h1.42l.15,1.47H847a4.85,4.85,0,0,1,3.42-1.72c2.15,0,3.12,1.39,3.12,4v6.47h-1.73v-6.25c0-1.9-.58-2.71-1.93-2.71-1,0-1.76.53-2.79,1.56v7.4h-1.72Z"/><path class="cls-8" d="M856.11,308.8a2.86,2.86,0,0,1,1.5-2.31v-.09a1.88,1.88,0,0,1-.91-1.67,2.44,2.44,0,0,1,1.12-1.89v-.09A3.53,3.53,0,0,1,856.5,300a3.62,3.62,0,0,1,3.83-3.63,4.18,4.18,0,0,1,1.44.25h3.56V298h-2.1a3,3,0,0,1,.83,2.1,3.49,3.49,0,0,1-3.73,3.54,3.6,3.6,0,0,1-1.53-.35,1.52,1.52,0,0,0-.65,1.21c0,.65.42,1.11,1.79,1.11h2c2.37,0,3.56.74,3.56,2.43,0,1.9-2,3.53-5.16,3.53C857.83,311.53,856.11,310.55,856.11,308.8Zm7.69-.54c0-.94-.71-1.27-2-1.27H860a5.83,5.83,0,0,1-1.33-.15,2.13,2.13,0,0,0-1,1.71c0,1.1,1.1,1.79,3,1.79S863.8,309.33,863.8,308.26ZM862.49,300a2.17,2.17,0,1,0-4.33,0,2.18,2.18,0,1,0,4.33,0Z"/><path class="cls-8" d="M866.7,308.8a2.86,2.86,0,0,1,1.5-2.31v-.09a1.88,1.88,0,0,1-.91-1.67,2.44,2.44,0,0,1,1.12-1.89v-.09a3.53,3.53,0,0,1-1.32-2.74,3.62,3.62,0,0,1,3.83-3.63,4.18,4.18,0,0,1,1.44.25h3.56V298h-2.1a3,3,0,0,1,.83,2.1,3.49,3.49,0,0,1-3.73,3.54,3.6,3.6,0,0,1-1.53-.35,1.52,1.52,0,0,0-.65,1.21c0,.65.42,1.11,1.79,1.11h2c2.37,0,3.56.74,3.56,2.43,0,1.9-2,3.53-5.16,3.53C868.42,311.53,866.7,310.55,866.7,308.8Zm7.69-.54c0-.94-.71-1.27-2-1.27h-1.76a5.83,5.83,0,0,1-1.33-.15,2.13,2.13,0,0,0-1,1.71c0,1.1,1.1,1.79,3,1.79S874.39,309.33,874.39,308.26ZM873.08,300a2.17,2.17,0,1,0-4.33,0,2.18,2.18,0,1,0,4.33,0Z"/><path class="cls-8" d="M877.71,305.78a1.25,1.25,0,1,1,1.25,1.31A1.26,1.26,0,0,1,877.71,305.78Z"/><path class="cls-8" d="M883,293.42a1.2,1.2,0,0,1,2.39,0,1.2,1.2,0,0,1-2.39,0Zm.32,3.21H885v10.21H883.3Z"/><path class="cls-8" d="M887.71,301.75c0-3.41,2.23-5.37,4.73-5.37s4.73,2,4.73,5.37-2.23,5.34-4.73,5.34S887.71,305.13,887.71,301.75Zm7.68,0c0-2.34-1.19-3.93-2.95-3.93s-2.94,1.59-2.94,3.93,1.19,3.9,2.94,3.9S895.39,304.08,895.39,301.75Z"/></g><rect class="cls-9" x="689.5" y="32.02" width="52" height="52" rx="26" ry="26" transform="translate(657.48 773.52) rotate(-90)"/><rect class="cls-4" x="790.5" y="100.02" width="52" height="52" rx="26" ry="26" transform="translate(690.48 942.52) rotate(-90)"/><rect class="cls-4" x="659.5" y="180.02" width="52" height="52" rx="26" ry="26" transform="translate(479.48 891.52) rotate(-90)"/><line class="cls-5" x1="695.5" y1="75.02" x2="644.5" y2="114.02"/><line class="cls-5" x1="737.47" y1="73.82" x2="798.5" y2="107.02"/><line class="cls-5" x1="607.7" y1="150.82" x2="574.5" y2="184.02"/><line class="cls-5" x1="647.88" y1="148.47" x2="682.32" y2="180.38"/><rect class="cls-4" x="481.5" y="277.02" width="52" height="52" rx="26" ry="26" transform="translate(204.48 810.52) rotate(-90)"/><line class="cls-5" x1="551.5" y1="230.02" x2="514.5" y2="278.02"/><line class="cls-5" x1="584.5" y1="228.02" x2="617.5" y2="274.02"/><rect class="cls-4" x="739.5" y="181.02" width="52" height="52" rx="26" ry="26" transform="translate(558.48 972.52) rotate(-90)"/><rect class="cls-4" x="846.5" y="180.02" width="52" height="52" rx="26" ry="26" transform="translate(666.48 1078.52) rotate(-90)"/><line class="cls-5" x1="800.5" y1="147.02" x2="772.5" y2="182.02"/><line class="cls-5" x1="832.5" y1="147.02" x2="860.5" y2="183.02"/><rect class="cls-4" x="541.5" y="183.02" width="52" height="52" rx="26" ry="26" transform="translate(358.48 776.52) rotate(-90)"/><g class="cls-6"><path d="M565.77,197.42a202.12,202.12,0,0,1-12.11,17.48,1.51,1.51,0,0,0,1.82,2.36,80.5,80.5,0,0,1,22.69-7.2c1.9-.31,1.1-3.2-.79-2.89a83.24,83.24,0,0,0-23.42,7.5l1.82,2.35a207,207,0,0,0,12.58-18.09c1-1.64-1.58-3.15-2.59-1.51Z"/></g><g class="cls-6"><path d="M565.25,200.58v21.3a1.5,1.5,0,0,0,3,0v-21.3a1.5,1.5,0,0,0-3,0Z"/></g><g class="cls-6"><path d="M809.39,122.62,821.87,116l-2.21-1.69a80.79,80.79,0,0,0-2.15,24.4c.12,1.92,3.12,1.93,3,0a77.87,77.87,0,0,1,2-23.61,1.52,1.52,0,0,0-2.21-1.69L807.88,120c-1.71.9-.2,3.49,1.51,2.59Z"/></g><g class="cls-6"><path d="M757.32,198.32,755,221.26c-.19,1.92,2.82,1.9,3,0l2.28-22.94c.19-1.92-2.81-1.91-3,0Z"/></g><g class="cls-6"><path d="M769.24,198.89a166.56,166.56,0,0,1-1.4,21.29c-.24,1.91,2.76,1.9,3,0a166.56,166.56,0,0,0,1.4-21.29,1.5,1.5,0,0,0-3,0Z"/></g><g class="cls-6"><path d="M862.94,195.37V213.7a1.5,1.5,0,0,0,3,0V195.37a1.5,1.5,0,0,0-3,0Z"/></g><g class="cls-6"><path d="M875.36,198c.8-2.52,2.64-2.18,3.49-.27,1.14,2.54-.62,4-3.18,4.16v3c2.13-.19,5,2.34,4.12,4.74s-4.72.52-5.49-.79a1.5,1.5,0,0,0-2.59,1.52c1.81,3.08,9.1,5.53,10.8,1.06s-2.12-10-6.84-9.53c-1.9.17-1.93,3.15,0,3,2.51-.2,5.36-.66,6.49-3.24.77-1.76.09-5.16-.83-6.74-2.28-3.93-7.81-1-8.86,2.29-.58,1.85,2.31,2.63,2.89.8Z"/></g><rect class="cls-10" x="600.5" y="272.02" width="52" height="52" rx="26" ry="26" transform="translate(328.48 924.52) rotate(-90)"/><g class="cls-6"><path d="M716.52,59.62c3.2-2.2,6.86-7.29,3.8-11.1-2.55-3.18-8.88-2-11.26.83-3.36,4,.7,8,4.33,9.58,1.27.56,2.91.79,4.05,1.5,5.13,3.22,3.83,7.68-1.25,8.72-3.78.77-6.27-2.34-3.58-5.6a30,30,0,0,1,4.25-4.1c1.49-1.23-.64-3.34-2.12-2.13-3,2.5-9.29,7.82-6.75,12.53,2,3.72,9.58,3,12.68,1.59,4-1.78,4-8.53,1.54-11.58-1.37-1.7-3.52-2.11-5.46-2.82a19.63,19.63,0,0,1-3.68-1.58q-3.48-4.73.63-5.45c2.3-1,3.78.07,4.45,3.11A7.07,7.07,0,0,1,715,57c-1.58,1.09-.08,3.69,1.51,2.59Z"/></g><g class="cls-6"><path d="M690,196.82c-3.9-.27-8.42-.21-10.94,3.31-2,2.78-2.76,7.32,0,9.82s7.46,2.32,10.28,0c3.11-2.61,3.5-6.87,3.11-10.64-.2-1.88-3.14-2-3,0q.69,9.76,1.86,19.48c.23,1.89,3.23,1.91,3,0q-1.17-9.72-1.86-19.48h-3a14.05,14.05,0,0,1-.17,5.21c-.81,2.93-4.61,6-7.69,3.62-3.3-2.58,0-7.2,2.6-8a15.45,15.45,0,0,1,5.83-.25c1.93.13,1.92-2.87,0-3Z"/></g><g class="cls-6"><path d="M507.83,292.64a55,55,0,0,1-.7,8.09,1.52,1.52,0,0,0,2.2,1.69c3.56-1.8,6.07,3.89,5.41,6.29-.52,1.85-6.13,4.46-7.2,1.18-.6-1.82-3.5-1-2.89.8,1.69,5.16,11.59,4.73,12.94-.57,1.45-5.69-3.59-13.42-9.77-10.29l2.2,1.69a58.75,58.75,0,0,0,.81-8.88,1.5,1.5,0,0,0-3,0Z"/></g><g class="cls-6"><path d="M510,294.62l6.58-.54c1.91-.15,1.92-3.15,0-3l-6.58.54c-1.91.16-1.93,3.16,0,3Z"/></g><rect class="cls-4" x="600.5" y="107.02" width="52" height="52" rx="26" ry="26" transform="translate(493.48 759.52) rotate(-90)"/><g class="cls-6"><path d="M622.23,128.78c1-5.18,10.65-5.37,9.84.34-.44,3.12-3.85,3.17-6.37,3.58-1.62.27-1.21,2.42,0,2.9,3.21,1.25,6.08,3.82,4.67,7.78-1,2.83-8.55,4.29-9.59.3a1.5,1.5,0,0,0-2.89.8c1.38,5.31,10.81,6.29,14.14,2.27,4.7-5.67-.14-11.94-5.53-14.05v2.9c2.87-.48,7.13-1.15,8.3-4.19.93-2.42.35-6.51-1.44-8.46-4.18-4.57-13-.43-14,5-.36,1.88,2.53,2.69,2.89.79Z"/></g></g></g></svg>