<svg xmlns="http://www.w3.org/2000/svg" viewBox="0 0 318.17 254.9"><defs><style>.cls-1{opacity:0.5;}.cls-2{fill:#666;}.cls-3{fill:#c1272d;}.cls-4,.cls-6{fill:none;}.cls-4{stroke:#c1272d;stroke-width:3px;}.cls-4,.cls-5,.cls-6{stroke-miterlimit:10;}.cls-5{fill:#00aa94;}.cls-5,.cls-6{stroke:#000;}.cls-5,.cls-7{opacity:0.8;}.cls-8{font-size:12px;font-family:NanumGothic, Nanum Gothic;}</style></defs><title>자산 13</title><g id="레이어_2" data-name="레이어 2"><g id="레이어_1-2" data-name="레이어 1"><g class="cls-1"><path class="cls-2" d="M260.92,218.79a1.19,1.19,0,0,1,2.38,0,1.19,1.19,0,0,1-2.38,0Zm.31,3.21H263v10.21h-1.73Z"/><path class="cls-2" d="M266.41,222h1.42l.15,1.48H268a4.86,4.86,0,0,1,3.42-1.73c2.15,0,3.12,1.39,3.12,4v6.47h-1.73V226c0-1.9-.58-2.72-1.93-2.72-1,0-1.76.53-2.79,1.57v7.39h-1.72Z"/><path class="cls-2" d="M277.11,234.17a2.88,2.88,0,0,1,1.5-2.31v-.08a1.9,1.9,0,0,1-.92-1.67,2.45,2.45,0,0,1,1.13-1.9v-.08a3.53,3.53,0,0,1-1.32-2.74,3.62,3.62,0,0,1,3.83-3.64,4.18,4.18,0,0,1,1.44.25h3.56v1.33h-2.1a3,3,0,0,1,.83,2.1,3.48,3.48,0,0,1-3.73,3.54,3.66,3.66,0,0,1-1.52-.34,1.49,1.49,0,0,0-.66,1.2c0,.65.42,1.11,1.79,1.11h2c2.37,0,3.56.75,3.56,2.44,0,1.89-2,3.53-5.16,3.53C278.83,236.91,277.11,235.93,277.11,234.17Zm7.69-.53c0-.95-.71-1.27-2.05-1.27H281a5.83,5.83,0,0,1-1.33-.15,2.11,2.11,0,0,0-1,1.71c0,1.09,1.1,1.79,3,1.79S284.8,234.7,284.8,233.64Zm-1.31-8.25a2.17,2.17,0,1,0-4.33,0,2.18,2.18,0,1,0,4.33,0Z"/><path class="cls-2" d="M287.7,234.17a2.88,2.88,0,0,1,1.5-2.31v-.08a1.9,1.9,0,0,1-.92-1.67,2.45,2.45,0,0,1,1.13-1.9v-.08a3.53,3.53,0,0,1-1.32-2.74,3.62,3.62,0,0,1,3.83-3.64,4.18,4.18,0,0,1,1.44.25h3.56v1.33h-2.1a3,3,0,0,1,.83,2.1,3.48,3.48,0,0,1-3.73,3.54,3.66,3.66,0,0,1-1.52-.34,1.49,1.49,0,0,0-.66,1.2c0,.65.42,1.11,1.79,1.11h2c2.37,0,3.56.75,3.56,2.44,0,1.89-2,3.53-5.16,3.53C289.42,236.91,287.7,235.93,287.7,234.17Zm7.69-.53c0-.95-.71-1.27-2.05-1.27h-1.76a5.83,5.83,0,0,1-1.33-.15,2.11,2.11,0,0,0-1,1.71c0,1.09,1.1,1.79,3,1.79S295.39,234.7,295.39,233.64Zm-1.31-8.25a2.17,2.17,0,1,0-4.33,0,2.18,2.18,0,1,0,4.33,0Z"/><path class="cls-2" d="M298.71,231.15a1.25,1.25,0,1,1,1.25,1.31A1.26,1.26,0,0,1,298.71,231.15Z"/><path class="cls-2" d="M304,218.79a1.2,1.2,0,0,1,2.39,0,1.2,1.2,0,0,1-2.39,0Zm.32,3.21H306v10.21H304.3Z"/><path class="cls-2" d="M308.71,227.12c0-3.4,2.23-5.37,4.73-5.37s4.73,2,4.73,5.37-2.23,5.34-4.73,5.34S308.71,230.5,308.71,227.12Zm7.68,0c0-2.34-1.19-3.93-2.95-3.93s-2.94,1.59-2.94,3.93,1.19,3.9,2.94,3.9S316.39,229.46,316.39,227.12Z"/></g><polygon class="cls-3" points="90.33 181.72 73.42 180.84 82.36 172.83 90.33 181.72"/><path class="cls-4" d="M80.9,178.66C78.68,198.92,89,216.92,104,218.9"/><rect class="cls-5" x="52.5" y="105.4" width="52" height="52" rx="26" ry="26" transform="translate(-52.9 209.9) rotate(-90)"/><rect class="cls-5" x="107.5" y="199.4" width="52" height="52" rx="26" ry="26" transform="translate(-91.9 358.9) rotate(-90)"/><line class="cls-6" x1="214.5" y1="0.4" x2="163.5" y2="39.4"/><line class="cls-6" x1="126.7" y1="76.2" x2="93.5" y2="109.4"/><line class="cls-6" x1="89.88" y1="154.84" x2="126.5" y2="200.4"/><rect class="cls-5" x="0.5" y="202.4" width="52" height="52" rx="26" ry="26" transform="translate(-201.9 254.9) rotate(-90)"/><line class="cls-6" x1="70.5" y1="155.4" x2="33.5" y2="203.4"/><line class="cls-6" x1="167.5" y1="72.4" x2="195.5" y2="108.4"/><rect class="cls-5" x="118.5" y="32.4" width="52" height="52" rx="26" ry="26" transform="translate(86.1 202.9) rotate(-90)"/><g class="cls-7"><path d="M142.77,46.79a203.82,203.82,0,0,1-12.11,17.49,1.51,1.51,0,0,0,1.82,2.35,80.48,80.48,0,0,1,22.69-7.19c1.9-.31,1.1-3.2-.79-2.9A83.56,83.56,0,0,0,131,64l1.82,2.36a208.52,208.52,0,0,0,12.58-18.09c1-1.65-1.58-3.16-2.59-1.52Z"/></g><g class="cls-7"><path d="M142.25,50V71.26a1.5,1.5,0,0,0,3,0V50a1.5,1.5,0,0,0-3,0Z"/></g><g class="cls-7"><path d="M80.52,132c3.2-2.21,6.86-7.3,3.8-11.11-2.55-3.18-8.88-2-11.26.83-3.36,4,.7,8,4.33,9.59,1.27.56,2.91.78,4,1.5,5.13,3.21,3.83,7.67-1.25,8.71-3.78.77-6.27-2.34-3.58-5.6a30.52,30.52,0,0,1,4.25-4.1c1.49-1.23-.64-3.34-2.12-2.12-3,2.5-9.29,7.81-6.75,12.53,2,3.71,9.58,3,12.68,1.58,4-1.78,4-8.53,1.54-11.58-1.37-1.69-3.52-2.1-5.46-2.82a19.59,19.59,0,0,1-3.68-1.57c-2.32-3.16-2.11-5,.63-5.46q3.45-1.44,4.45,3.12A7.1,7.1,0,0,1,79,129.41c-1.58,1.08-.08,3.69,1.51,2.59Z"/></g><g class="cls-7"><path d="M26.83,218a54.76,54.76,0,0,1-.7,8.09,1.52,1.52,0,0,0,2.2,1.69c3.56-1.79,6.07,3.9,5.41,6.3-.52,1.85-6.13,4.45-7.2,1.18-.6-1.83-3.5-1.05-2.89.79,1.69,5.17,11.59,4.74,12.94-.56,1.45-5.69-3.59-13.42-9.77-10.3l2.2,1.7a58.76,58.76,0,0,0,.81-8.89c0-1.93-3-1.93-3,0Z"/></g><g class="cls-7"><path d="M29,220l6.58-.53c1.91-.16,1.92-3.16,0-3L29,217c-1.91.16-1.93,3.16,0,3Z"/></g><g class="cls-7"><path d="M129.23,220.16c1-5.19,10.65-5.37,9.84.33-.44,3.13-3.85,3.17-6.37,3.59-1.62.27-1.21,2.42,0,2.89,3.21,1.25,6.08,3.83,4.67,7.79-1,2.83-8.55,4.28-9.59.29-.48-1.86-3.38-1.07-2.89.8,1.38,5.31,10.81,6.3,14.14,2.28,4.7-5.68-.14-11.95-5.53-14V227c2.87-.48,7.13-1.15,8.3-4.18.93-2.42.35-6.51-1.44-8.46-4.18-4.58-13-.44-14,5-.36,1.89,2.53,2.7,2.89.8Z"/></g><g class="cls-7"><path d="M16.94,218.74v18.33a1.5,1.5,0,0,0,3,0V218.74a1.5,1.5,0,0,0-3,0Z"/></g><text class="cls-8" transform="translate(154.45 145.46)">만약 지금 이 위치라면<tspan x="0" y="14.4">부모를 아래로 내리고, </tspan><tspan x="0" y="28.8">3이 올라간 꼴이 되어야 함</tspan></text><polygon class="cls-3" points="135.41 177.97 147 176.6 141.69 185.08 135.41 177.97"/><path class="cls-4" d="M141.41,179.8c1.48-23.8-13-41.1-32.48-38.68"/></g></g></svg>