<svg xmlns="http://www.w3.org/2000/svg" viewBox="0 0 692.76 309.44"><defs><style>.cls-1{opacity:0.5;}.cls-2{fill:#666;}.cls-3{fill:#c1272d;}.cls-4,.cls-7{fill:none;}.cls-4{stroke:#c1272d;stroke-width:2px;}.cls-4,.cls-5,.cls-6,.cls-7{stroke-miterlimit:10;}.cls-5{fill:#007994;}.cls-5,.cls-6,.cls-7{stroke:#000;}.cls-6{fill:#00aa94;opacity:0.8;}.cls-8{font-size:12px;font-family:NanumGothic, Nanum Gothic;}</style></defs><title>자산 14</title><g id="레이어_2" data-name="레이어 2"><g id="레이어_1-2" data-name="레이어 1"><g class="cls-1"><path class="cls-2" d="M629.92,251.33a1.19,1.19,0,1,1,1.19,1.11A1.11,1.11,0,0,1,629.92,251.33Zm.31,3.21H632v10.21h-1.73Z"/><path class="cls-2" d="M635.41,254.54h1.42L637,256H637a4.88,4.88,0,0,1,3.42-1.72c2.15,0,3.12,1.39,3.12,4v6.47h-1.73V258.5c0-1.9-.58-2.71-1.93-2.71-1,0-1.76.53-2.79,1.57v7.39h-1.72Z"/><path class="cls-2" d="M646.11,266.71a2.86,2.86,0,0,1,1.5-2.31v-.08a1.9,1.9,0,0,1-.91-1.68,2.44,2.44,0,0,1,1.12-1.89v-.08a3.55,3.55,0,0,1-1.32-2.74,3.62,3.62,0,0,1,3.83-3.64,4.18,4.18,0,0,1,1.44.25h3.56v1.33h-2.1a3,3,0,0,1,.83,2.1,3.48,3.48,0,0,1-3.73,3.54,3.6,3.6,0,0,1-1.53-.35,1.52,1.52,0,0,0-.65,1.21c0,.65.42,1.11,1.79,1.11h2c2.37,0,3.56.74,3.56,2.44,0,1.89-2,3.53-5.16,3.53C647.83,269.45,646.11,268.47,646.11,266.71Zm7.69-.54c0-.94-.71-1.26-2-1.26H650a5.35,5.35,0,0,1-1.33-.16,2.14,2.14,0,0,0-1,1.72c0,1.09,1.1,1.78,3,1.78S653.8,267.24,653.8,266.17Zm-1.31-8.24a2.18,2.18,0,1,0-4.33,0,2.18,2.18,0,1,0,4.33,0Z"/><path class="cls-2" d="M656.7,266.71a2.86,2.86,0,0,1,1.5-2.31v-.08a1.9,1.9,0,0,1-.91-1.68,2.44,2.44,0,0,1,1.12-1.89v-.08a3.55,3.55,0,0,1-1.32-2.74,3.62,3.62,0,0,1,3.83-3.64,4.18,4.18,0,0,1,1.44.25h3.56v1.33h-2.1a3,3,0,0,1,.83,2.1,3.48,3.48,0,0,1-3.73,3.54,3.6,3.6,0,0,1-1.53-.35,1.52,1.52,0,0,0-.65,1.21c0,.65.42,1.11,1.79,1.11h2c2.37,0,3.56.74,3.56,2.44,0,1.89-2,3.53-5.16,3.53C658.42,269.45,656.7,268.47,656.7,266.71Zm7.69-.54c0-.94-.71-1.26-2-1.26h-1.76a5.35,5.35,0,0,1-1.33-.16,2.14,2.14,0,0,0-1,1.72c0,1.09,1.1,1.78,3,1.78S664.39,267.24,664.39,266.17Zm-1.31-8.24a2.18,2.18,0,1,0-4.33,0,2.18,2.18,0,1,0,4.33,0Z"/><path class="cls-2" d="M667.71,263.69A1.25,1.25,0,1,1,669,265,1.26,1.26,0,0,1,667.71,263.69Z"/><path class="cls-2" d="M673,251.33a1.2,1.2,0,0,1,2.39,0,1.2,1.2,0,0,1-2.39,0Zm.32,3.21H675v10.21H673.3Z"/><path class="cls-2" d="M677.71,259.66c0-3.41,2.23-5.37,4.73-5.37s4.73,2,4.73,5.37-2.23,5.34-4.73,5.34S677.71,263,677.71,259.66Zm7.68,0c0-2.34-1.19-3.93-2.95-3.93s-2.94,1.59-2.94,3.93,1.19,3.9,2.94,3.9S685.39,262,685.39,259.66Z"/></g><polygon class="cls-3" points="78.91 278.42 76.84 295.22 69.48 285.74 78.91 278.42"/><path class="cls-4" d="M71.44,286.38c13,3.92,26.2,1.93,29.56-4.45"/><rect class="cls-5" x="53.5" y="159.94" width="52" height="52" rx="26" ry="26" transform="translate(-106.44 265.43) rotate(-90)"/><rect class="cls-6" x="267.26" y="103.03" width="52" height="52" rx="26" ry="26" transform="translate(161.04 420.86) rotate(-89.38)"/><line class="cls-7" x1="214.5" y1="54.93" x2="163.5" y2="93.93"/><line class="cls-7" x1="126.7" y1="130.74" x2="93.5" y2="163.93"/><line class="cls-7" x1="250.41" y1="58.01" x2="286.53" y2="103.95"/><rect class="cls-6" x="0.5" y="256.94" width="52" height="52" rx="26" ry="26" transform="translate(-256.44 309.43) rotate(-90)"/><line class="cls-7" x1="70.5" y1="209.93" x2="33.5" y2="257.93"/><rect class="cls-6" x="208.5" y="11.94" width="52" height="52" rx="26" ry="26" transform="translate(196.56 272.43) rotate(-90)"/><rect class="cls-6" x="118.5" y="86.94" width="52" height="52" rx="26" ry="26" transform="translate(31.56 257.43) rotate(-90)"/><text class="cls-8" transform="translate(105.45 276)">인덱스값 얻어옴. 이게 <tspan x="0" y="14.4">마지막노드 인덱스 보다 큼</tspan></text><path d="M207.35,1.44a46.55,46.55,0,0,1-.56,13.12c-.35,1.89,2.54,2.7,2.9.8a49.61,49.61,0,0,0,.66-13.92c-.18-1.91-3.18-1.93-3,0Z"/><path d="M116.18,82.79l2.32-.69-1.1-1.44A10.91,10.91,0,0,1,112.78,91l1.52,2.59A42.86,42.86,0,0,1,132,85.9c1.89-.36,1.09-3.25-.8-2.89a45,45,0,0,0-18.46,8c-1.53,1.12-.08,3.71,1.52,2.59a13.85,13.85,0,0,0,6.1-12.94,1.54,1.54,0,0,0-1.1-1.45,5.31,5.31,0,0,0-4.63,1c-1.52,1.15,0,3.75,1.51,2.59Z"/><path d="M259.77,95.64a9.32,9.32,0,0,1,3.37,3.6,3.2,3.2,0,0,1,.46,2q-1.26,3.87-3.48,1.23l-.54,2.05c2.48-1.09,6.21,1.54,4.84,4.36a3.83,3.83,0,0,1-5.69,1c-1.45-1.28-3.58.84-2.12,2.12,3.5,3.09,10.13,1.72,11-3.33.93-5.3-5.12-8.73-9.56-6.76a1.54,1.54,0,0,0-.54,2.06c1.67,3.41,6.51,3.25,8.31,0,2.47-4.39-1.21-8.51-4.55-11-1.56-1.15-3.06,1.45-1.52,2.59Z"/><path d="M54.5,145,45.64,155.2a1.51,1.51,0,0,0,1.81,2.36c1.95-1.05,4.28-1,6.43-1.16l6.7-.55c1.91-.16,1.93-3.16,0-3-4.62.38-10.46-.14-14.64,2.12l1.82,2.35,8.86-10.19c1.26-1.45-.85-3.58-2.12-2.12Z"/><path d="M54.61,146.35l-.46,15.28c-.06,1.93,2.94,1.92,3,0l.46-15.28c0-1.93-3-1.93-3,0Z"/><path class="cls-2" d="M31.64,25.35l5.26-3a1.5,1.5,0,0,0-1.51-2.59l-5.27,3a1.5,1.5,0,0,0,1.52,2.59Z"/><path class="cls-2" d="M32.09,29.47v9.94a1.5,1.5,0,0,0,3,0V29.47a1.5,1.5,0,0,0-3,0Z"/><path class="cls-2" d="M51.48,12.92c-11-1.66-8.57,18.86-8.22,25,.11,1.92,3.11,1.93,3,0-.18-3.27-1.66-23,4.42-22.11,1.89.28,2.71-2.61.8-2.9Z"/><path class="cls-2" d="M39.68,27.21A63.24,63.24,0,0,0,51,26.6c1.91-.28,1.1-3.17-.79-2.9a58.16,58.16,0,0,1-10.55.51c-1.93-.07-1.93,2.93,0,3Z"/><rect class="cls-5" x="426.5" y="159.94" width="52" height="52" rx="26" ry="26" transform="translate(266.56 638.43) rotate(-90)"/><rect class="cls-6" x="640.26" y="103.03" width="52" height="52" rx="26" ry="26" transform="translate(529.97 793.84) rotate(-89.38)"/><line class="cls-7" x1="587.5" y1="54.93" x2="536.5" y2="93.93"/><line class="cls-7" x1="499.7" y1="130.74" x2="466.5" y2="163.93"/><line class="cls-7" x1="623.41" y1="58.01" x2="659.53" y2="103.95"/><rect class="cls-6" x="581.5" y="11.94" width="52" height="52" rx="26" ry="26" transform="translate(569.56 645.43) rotate(-90)"/><rect class="cls-6" x="491.5" y="86.94" width="52" height="52" rx="26" ry="26" transform="translate(404.56 630.43) rotate(-90)"/><path d="M580.35,1.44a46.55,46.55,0,0,1-.56,13.12c-.35,1.89,2.54,2.7,2.9.8a49.61,49.61,0,0,0,.66-13.92c-.18-1.91-3.18-1.93-3,0Z"/><path d="M489.18,82.79l2.32-.69-1.1-1.44A10.91,10.91,0,0,1,485.78,91l1.52,2.59A42.86,42.86,0,0,1,505,85.9c1.89-.36,1.09-3.25-.8-2.89a45,45,0,0,0-18.46,8c-1.53,1.12-.08,3.71,1.52,2.59a13.85,13.85,0,0,0,6.1-12.94,1.54,1.54,0,0,0-1.1-1.45,5.31,5.31,0,0,0-4.63,1c-1.52,1.15,0,3.75,1.51,2.59Z"/><path d="M632.77,95.64a9.32,9.32,0,0,1,3.37,3.6,3.2,3.2,0,0,1,.46,2q-1.26,3.87-3.48,1.23l-.54,2.05c2.48-1.09,6.21,1.54,4.84,4.36a3.83,3.83,0,0,1-5.69,1c-1.45-1.28-3.58.84-2.12,2.12,3.5,3.09,10.13,1.72,11-3.33.93-5.3-5.12-8.73-9.56-6.76a1.54,1.54,0,0,0-.54,2.06c1.67,3.41,6.51,3.25,8.31,0,2.47-4.39-1.21-8.51-4.55-11-1.56-1.15-3.06,1.45-1.52,2.59Z"/><path d="M427.5,145l-8.86,10.19a1.51,1.51,0,0,0,1.81,2.36c1.95-1.05,4.28-1,6.43-1.16l6.7-.55c1.91-.16,1.93-3.16,0-3-4.62.38-10.46-.14-14.64,2.12l1.82,2.35,8.86-10.19c1.26-1.45-.85-3.58-2.12-2.12Z"/><path d="M427.61,146.35l-.46,15.28c-.06,1.93,2.94,1.92,3,0l.46-15.28c.05-1.93-2.95-1.93-3,0Z"/><path class="cls-2" d="M385.2,37.68c2.07-.29,4.28-.78,5.57-2.59.86-1.22,1.47-3.43.18-4.59-2.61-2.32-7.41-.69-9.18,1.85a7.3,7.3,0,0,0,1.54,9.74c2.88,2.21,7.72,2.19,9.94-.93,1.12-1.58-1.48-3.08-2.59-1.52-.9,1.26-3.13,1.17-4.41.7a4.18,4.18,0,0,1-2.7-3.57A3.88,3.88,0,0,1,389.28,33l-.69-.9c.52,2.19-2.79,2.51-4.18,2.71-1.91.27-1.1,3.16.79,2.89Z"/><path class="cls-2" d="M395.5,22.16a58.7,58.7,0,0,0,1.11,17.64c.4,1.89,3.29,1.09,2.89-.79a56.42,56.42,0,0,1-1-16.85c.17-1.92-2.83-1.91-3,0Z"/><path class="cls-2" d="M410.61,28.3c-1.67.17-3.41-.35-4.83.84a2.89,2.89,0,0,0-.37,4c1,1.43,2.67,1.57,4,2.5.14.1,1,.72.8,1.06-.12.19-.92,0-1.13,0a7.14,7.14,0,0,1-3.22-1.09,1.5,1.5,0,0,0-1.51,2.59c2.31,1.39,8.65,3.11,8.84-1.35A4.35,4.35,0,0,0,411,33.05c-.8-.47-2-.66-2.7-1.3-.51-.49-.5-.42.25-.46s1.4.08,2.11,0c1.9-.21,1.92-3.21,0-3Z"/><path class="cls-2" d="M419.2,34.68c2.07-.29,4.28-.78,5.57-2.59.86-1.22,1.47-3.43.18-4.59-2.61-2.32-7.41-.69-9.18,1.85a7.3,7.3,0,0,0,1.54,9.74c2.88,2.21,7.72,2.19,9.94-.93,1.12-1.58-1.48-3.08-2.59-1.52-.9,1.26-3.13,1.17-4.41.7a4.18,4.18,0,0,1-2.7-3.57A3.88,3.88,0,0,1,423.28,30l-.69-.9c.52,2.19-2.79,2.51-4.18,2.71-1.91.27-1.1,3.16.79,2.89Z"/><path class="cls-2" d="M441.64,26.35l5.26-3a1.5,1.5,0,0,0-1.51-2.59l-5.27,3a1.5,1.5,0,0,0,1.52,2.59Z"/><path class="cls-2" d="M442.09,30.47v9.94a1.5,1.5,0,0,0,3,0V30.47a1.5,1.5,0,0,0-3,0Z"/><path class="cls-2" d="M461.48,13.92c-11-1.66-8.57,18.86-8.22,25,.11,1.92,3.11,1.93,3,0-.18-3.27-1.66-23,4.42-22.11,1.89.28,2.71-2.61.8-2.9Z"/><path class="cls-2" d="M449.68,28.21A63.24,63.24,0,0,0,461,27.6c1.91-.28,1.1-3.17-.79-2.9a58.16,58.16,0,0,1-10.55.51c-1.93-.07-1.93,2.93,0,3Z"/></g></g></svg>