<svg xmlns="http://www.w3.org/2000/svg" viewBox="0 0 705.17 223.01"><defs><style>.cls-1{opacity:0.5;}.cls-2{fill:#666;}.cls-3{fill:#00aa94;opacity:0.8;}.cls-3,.cls-4{stroke:#000;stroke-miterlimit:10;}.cls-4{fill:none;}</style></defs><title>자산 5</title><g id="레이어_2" data-name="레이어 2"><g id="레이어_1-2" data-name="레이어 1"><g class="cls-1"><path class="cls-2" d="M647.92,204.89a1.19,1.19,0,0,1,2.38,0,1.19,1.19,0,0,1-2.38,0Zm.31,3.22H650v10.2h-1.73Z"/><path class="cls-2" d="M653.41,208.11h1.42l.15,1.47H655a4.85,4.85,0,0,1,3.42-1.72c2.15,0,3.12,1.38,3.12,4v6.46h-1.73v-6.24c0-1.9-.58-2.72-1.93-2.72-1,0-1.76.54-2.79,1.57v7.39h-1.72Z"/><path class="cls-2" d="M664.11,220.27a2.86,2.86,0,0,1,1.5-2.3v-.09a1.88,1.88,0,0,1-.91-1.67,2.46,2.46,0,0,1,1.12-1.9v-.08a3.53,3.53,0,0,1-1.32-2.74,3.62,3.62,0,0,1,3.83-3.63,4.18,4.18,0,0,1,1.44.25h3.56v1.33h-2.1a3,3,0,0,1,.83,2.1,3.49,3.49,0,0,1-3.73,3.54,3.75,3.75,0,0,1-1.53-.35,1.52,1.52,0,0,0-.65,1.21c0,.64.42,1.1,1.79,1.1h2c2.37,0,3.56.75,3.56,2.44,0,1.9-2,3.53-5.16,3.53C665.83,223,664.11,222,664.11,220.27Zm7.69-.53c0-1-.71-1.27-2-1.27H668a5.83,5.83,0,0,1-1.33-.15,2.12,2.12,0,0,0-1,1.71c0,1.1,1.1,1.79,3,1.79S671.8,220.8,671.8,219.74Zm-1.31-8.25a2.17,2.17,0,1,0-4.33,0,2.18,2.18,0,1,0,4.33,0Z"/><path class="cls-2" d="M674.7,220.27a2.86,2.86,0,0,1,1.5-2.3v-.09a1.88,1.88,0,0,1-.91-1.67,2.46,2.46,0,0,1,1.12-1.9v-.08a3.53,3.53,0,0,1-1.32-2.74,3.62,3.62,0,0,1,3.83-3.63,4.18,4.18,0,0,1,1.44.25h3.56v1.33h-2.1a3,3,0,0,1,.83,2.1,3.49,3.49,0,0,1-3.73,3.54,3.75,3.75,0,0,1-1.53-.35,1.52,1.52,0,0,0-.65,1.21c0,.64.42,1.1,1.79,1.1h2c2.37,0,3.56.75,3.56,2.44,0,1.9-2,3.53-5.16,3.53C676.42,223,674.7,222,674.7,220.27Zm7.69-.53c0-1-.71-1.27-2-1.27h-1.76a5.83,5.83,0,0,1-1.33-.15,2.12,2.12,0,0,0-1,1.71c0,1.1,1.1,1.79,3,1.79S682.39,220.8,682.39,219.74Zm-1.31-8.25a2.17,2.17,0,1,0-4.33,0,2.18,2.18,0,1,0,4.33,0Z"/><path class="cls-2" d="M685.71,217.26a1.25,1.25,0,1,1,1.25,1.3A1.26,1.26,0,0,1,685.71,217.26Z"/><path class="cls-2" d="M691,204.89a1.2,1.2,0,0,1,2.39,0,1.2,1.2,0,0,1-2.39,0Zm.32,3.22H693v10.2H691.3Z"/><path class="cls-2" d="M695.71,213.22c0-3.4,2.23-5.36,4.73-5.36s4.73,2,4.73,5.36-2.23,5.34-4.73,5.34S695.71,216.6,695.71,213.22Zm7.68,0c0-2.34-1.19-3.93-2.95-3.93s-2.94,1.59-2.94,3.93,1.19,3.91,2.94,3.91S703.39,215.56,703.39,213.22Z"/></g><rect class="cls-3" x="148.5" y="0.5" width="52" height="52" rx="26" ry="26" transform="translate(148 201) rotate(-90)"/><path d="M173.85,12,163.7,34.89c-.58,1.31,1.36,2.46,1.94,1.14l10.15-22.9c.58-1.32-1.36-2.46-1.94-1.14Z"/><path d="M174.48,13.62l12.55,22A1.13,1.13,0,0,0,189,34.43L176.42,12.48a1.13,1.13,0,0,0-1.94,1.14Z"/><path d="M169,27.23,179.89,25c1.42-.3.82-2.46-.6-2.17l-10.86,2.24c-1.41.29-.81,2.46.6,2.17Z"/><rect class="cls-3" x="60.5" y="75.5" width="52" height="52" rx="26" ry="26" transform="translate(-15 188) rotate(-90)"/><rect class="cls-3" x="249.5" y="68.5" width="52" height="52" rx="26" ry="26" transform="translate(181 370) rotate(-90)"/><rect class="cls-3" x="0.5" y="151.5" width="52" height="52" rx="26" ry="26" transform="translate(-151 204) rotate(-90)"/><rect class="cls-3" x="118.5" y="148.5" width="52" height="52" rx="26" ry="26" transform="translate(-30 319) rotate(-90)"/><line class="cls-4" x1="154.5" y1="43.5" x2="103.5" y2="82.5"/><line class="cls-4" x1="196.47" y1="42.29" x2="257.5" y2="75.5"/><line class="cls-4" x1="66.7" y1="119.3" x2="33.5" y2="152.5"/><line class="cls-4" x1="106.88" y1="116.95" x2="141.32" y2="148.85"/><rect class="cls-3" x="518.5" y="1.5" width="52" height="52" rx="26" ry="26" transform="translate(517 572) rotate(-90)"/><path d="M543.85,13,533.7,35.89c-.58,1.31,1.36,2.46,1.94,1.14l10.15-22.9c.58-1.32-1.36-2.46-1.94-1.14Z"/><path d="M544.48,14.62l12.55,22A1.13,1.13,0,0,0,559,35.43L546.42,13.48a1.13,1.13,0,0,0-1.94,1.14Z"/><path d="M539,28.23,549.89,26c1.42-.3.82-2.46-.6-2.17l-10.86,2.24c-1.41.29-.81,2.46.6,2.17Z"/><rect class="cls-3" x="429.5" y="76.5" width="52" height="52" rx="26" ry="26" transform="translate(353 558) rotate(-90)"/><rect class="cls-3" x="618.5" y="68.5" width="52" height="52" rx="26" ry="26" transform="translate(550 739) rotate(-90)"/><rect class="cls-3" x="370.5" y="152.5" width="52" height="52" rx="26" ry="26" transform="translate(218 575) rotate(-90)"/><rect class="cls-3" x="488.5" y="149.5" width="52" height="52" rx="26" ry="26" transform="translate(339 690) rotate(-90)"/><line class="cls-4" x1="524.5" y1="44.5" x2="473.5" y2="83.5"/><line class="cls-4" x1="566.47" y1="43.29" x2="627.5" y2="74.5"/><line class="cls-4" x1="436.7" y1="120.3" x2="403.5" y2="153.5"/><line class="cls-4" x1="476.88" y1="117.95" x2="511.32" y2="149.85"/><rect class="cls-3" x="560.5" y="150.5" width="52" height="52" rx="26" ry="26" transform="translate(410 763) rotate(-90)"/><line class="cls-4" x1="592.5" y1="151.5" x2="628.7" y2="115.3"/><path d="M18.09,166.18,17.66,188c0,1.93,3,1.93,3,0l.43-21.78c0-1.93-3-1.93-3,0Z"/><path d="M19.15,167.43c4.85,1.66,11.51,3.32,12.87,9.08,2,8.31-6.89,10.47-13,10.77-1.92.09-1.93,3.09,0,3,7.27-.36,16-2.69,16.24-11.58S26.83,166.9,20,164.54c-1.83-.63-2.61,2.26-.8,2.89Z"/><path d="M281.37,84.91c-4.5-1.09-9.53-2.16-13.82.23s-5.38,7.24-5.16,11.77c.44,8.87,13.37,14.29,19.5,7.38,1.28-1.44-.83-3.57-2.12-2.12-2.6,2.93-6.7,2.62-10,.9-3.75-2-4.87-5.38-4.2-9.4,1.33-8.09,8.66-7.39,15-5.86,1.88.45,2.68-2.44.8-2.9Z"/><path d="M137.18,165.38q6.54-.19,13.06-1c1.89-.22,1.91-3.22,0-3q-6.53.77-13.06,1c-1.93.05-1.94,3.05,0,3Z"/><path d="M134.17,163.87c0,4.53.19,9.06.59,13.57.2,2.26-.21,6.68,1.37,8.55,1.29,1.53,4.39,1.48,6.22,1.58a25.71,25.71,0,0,0,10.3-1.68c1.8-.65,1-3.55-.8-2.89a24.58,24.58,0,0,1-7.33,1.58c-4,.2-6.08-.39-6.52-4.6-.55-5.36-.8-10.73-.83-16.11a1.5,1.5,0,0,0-3,0Z"/><path d="M137,176.77a70.92,70.92,0,0,0,13.65-1c1.9-.31,1.09-3.2-.8-2.89a67.39,67.39,0,0,1-12.85.84c-1.93-.06-1.93,2.94,0,3Z"/><path d="M80.49,89.5,79.2,113c-.1,1.93,2.9,1.92,3,0L83.49,89.5c.11-1.93-2.89-1.92-3,0Z"/><path d="M83,91.05c2.84-.42,10.35-.26,8.67,4.38-1.37,3.77-6.22,3.41-9.45,3.08-1.92-.19-1.9,2.81,0,3,5.09.52,12-.37,12.65-6.75.63-6.61-8-7.3-12.67-6.61-1.9.28-1.09,3.17.8,2.9Z"/><path d="M82.71,103c2.2-.32,4.64-.69,6.8.08,2,.71,4.17,2.93,2.82,5.19-2,3.32-8,3.22-11.28,2.82-1.92-.23-1.9,2.77,0,3,4.85.59,14.48-.35,14.71-7,.25-7.42-8.75-7.67-13.85-6.94-1.91.27-1.1,3.16.8,2.89Z"/><path d="M448.49,90.5,447.2,114c-.1,1.93,2.9,1.92,3,0l1.29-23.54c.11-1.93-2.89-1.92-3,0Z"/><path d="M451,92.05c2.84-.42,10.35-.26,8.67,4.38-1.37,3.77-6.22,3.41-9.45,3.08-1.92-.19-1.9,2.81,0,3,5.09.52,12-.37,12.65-6.75.63-6.61-8-7.3-12.67-6.61-1.9.28-1.09,3.17.8,2.9Z"/><path d="M450.71,104c2.2-.32,4.64-.69,6.8.08s4.17,2.93,2.82,5.19c-2,3.32-8,3.22-11.28,2.82-1.92-.23-1.9,2.77,0,3,4.85.59,14.48-.35,14.71-7,.25-7.42-8.75-7.67-13.85-6.94-1.91.27-1.1,3.16.8,2.89Z"/><path d="M653.37,83.91c-4.5-1.09-9.53-2.16-13.82.23s-5.38,7.24-5.16,11.77c.44,8.87,13.37,14.29,19.5,7.38,1.28-1.44-.83-3.57-2.12-2.12-2.6,2.93-6.7,2.62-10,.9-3.75-2-4.87-5.38-4.2-9.4,1.33-8.09,8.66-7.39,15-5.86,1.88.45,2.68-2.44.8-2.9Z"/><path d="M390.09,166.18,389.66,188c0,1.93,3,1.93,3,0l.43-21.78c0-1.93-3-1.93-3,0Z"/><path d="M391.15,167.43c4.85,1.66,11.51,3.32,12.87,9.08,2,8.31-6.89,10.47-13,10.77-1.92.09-1.93,3.09,0,3,7.27-.36,16-2.69,16.24-11.58s-8.41-11.8-15.29-14.16c-1.83-.63-2.61,2.26-.8,2.89Z"/><path d="M508.18,167.38q6.54-.19,13.06-1c1.89-.22,1.91-3.22,0-3q-6.53.77-13.06,1c-1.93.05-1.94,3.05,0,3Z"/><path d="M505.17,165.87c0,4.53.19,9.06.59,13.57.2,2.26-.21,6.68,1.37,8.55,1.29,1.53,4.39,1.48,6.22,1.58a25.71,25.71,0,0,0,10.3-1.68c1.8-.65,1-3.55-.8-2.89a24.58,24.58,0,0,1-7.33,1.58c-4,.2-6.08-.39-6.52-4.6-.55-5.36-.8-10.73-.83-16.11a1.5,1.5,0,0,0-3,0Z"/><path d="M508,178.77a70.92,70.92,0,0,0,13.65-1c1.9-.31,1.09-3.2-.8-2.89a67.39,67.39,0,0,1-12.85.84c-1.93-.06-1.93,2.94,0,3Z"/><path d="M579.33,165.6l-1,23.24c-.08,1.93,2.92,1.93,3,0l1-23.24c.07-1.93-2.93-1.93-3,0Z"/><path d="M581.58,167a43,43,0,0,0,11.82-.54c1.9-.34,1.1-3.23-.79-2.89a40.39,40.39,0,0,1-11,.43c-1.92-.18-1.91,2.82,0,3Z"/><path d="M582.83,175.35h10.5a1.5,1.5,0,0,0,0-3h-10.5a1.5,1.5,0,0,0,0,3Z"/></g></g></svg>