<svg xmlns="http://www.w3.org/2000/svg" viewBox="0 0 870.17 297.01"><defs><style>.cls-1,.cls-7{fill:none;}.cls-1,.cls-8{stroke:#c1272d;stroke-width:2px;}.cls-1,.cls-3,.cls-6,.cls-7,.cls-8{stroke-miterlimit:10;}.cls-2,.cls-8{fill:#c1272d;}.cls-3,.cls-6{fill:#00aa94;}.cls-3,.cls-6,.cls-7{stroke:#000;}.cls-3,.cls-4{opacity:0.5;}.cls-5{fill:#666;}.cls-7{stroke-width:3px;}.cls-9{font-size:17px;font-family:NanumGothic, Nanum Gothic;}</style></defs><title>자산 16</title><g id="레이어_2" data-name="레이어 2"><g id="레이어_1-2" data-name="레이어 1"><path class="cls-1" d="M209.31,194.47a54.52,54.52,0,0,1-40.37-3.41c-24.19-12.26-31.66-38.32-32.74-42.32"/><polygon class="cls-2" points="142.56 154.13 132.8 156.35 135.54 145.69 142.56 154.13"/><path class="cls-1" d="M220.31,183.47a54.52,54.52,0,0,1-40.37-3.41c-24.19-12.26-31.66-38.32-32.74-42.32"/><rect class="cls-3" x="270.5" y="83.5" width="44" height="50" rx="8.11" ry="8.11" transform="translate(184 401) rotate(-90)"/><rect class="cls-3" x="113.5" y="83.5" width="44" height="50" rx="8.11" ry="8.11" transform="translate(27 244) rotate(-90)"/><g class="cls-4"><path class="cls-5" d="M812.92,278.89a1.19,1.19,0,0,1,2.38,0,1.19,1.19,0,0,1-2.38,0Zm.31,3.22H815v10.2h-1.73Z"/><path class="cls-5" d="M818.41,282.11h1.42l.15,1.47H820a4.85,4.85,0,0,1,3.42-1.72c2.15,0,3.12,1.38,3.12,4v6.46h-1.73v-6.24c0-1.9-.58-2.72-1.93-2.72-1,0-1.76.54-2.79,1.57v7.39h-1.72Z"/><path class="cls-5" d="M829.11,294.27a2.86,2.86,0,0,1,1.5-2.3v-.09a1.88,1.88,0,0,1-.91-1.67,2.46,2.46,0,0,1,1.12-1.9v-.08a3.53,3.53,0,0,1-1.32-2.74,3.62,3.62,0,0,1,3.83-3.63,4.18,4.18,0,0,1,1.44.25h3.56v1.33h-2.1a3,3,0,0,1,.83,2.1,3.49,3.49,0,0,1-3.73,3.54,3.75,3.75,0,0,1-1.53-.35,1.52,1.52,0,0,0-.65,1.21c0,.64.42,1.1,1.79,1.1h2c2.37,0,3.56.75,3.56,2.44,0,1.9-2,3.53-5.16,3.53C830.83,297,829.11,296,829.11,294.27Zm7.69-.53c0-.95-.71-1.27-2-1.27H833a5.83,5.83,0,0,1-1.33-.15,2.12,2.12,0,0,0-1,1.71c0,1.1,1.1,1.79,3,1.79S836.8,294.8,836.8,293.74Zm-1.31-8.25a2.17,2.17,0,1,0-4.33,0,2.18,2.18,0,1,0,4.33,0Z"/><path class="cls-5" d="M839.7,294.27a2.86,2.86,0,0,1,1.5-2.3v-.09a1.88,1.88,0,0,1-.91-1.67,2.46,2.46,0,0,1,1.12-1.9v-.08a3.53,3.53,0,0,1-1.32-2.74,3.62,3.62,0,0,1,3.83-3.63,4.18,4.18,0,0,1,1.44.25h3.56v1.33h-2.1a3,3,0,0,1,.83,2.1,3.49,3.49,0,0,1-3.73,3.54,3.75,3.75,0,0,1-1.53-.35,1.52,1.52,0,0,0-.65,1.21c0,.64.42,1.1,1.79,1.1h2c2.37,0,3.56.75,3.56,2.44,0,1.9-2,3.53-5.16,3.53C841.42,297,839.7,296,839.7,294.27Zm7.69-.53c0-.95-.71-1.27-2-1.27h-1.76a5.83,5.83,0,0,1-1.33-.15,2.12,2.12,0,0,0-1,1.71c0,1.1,1.1,1.79,3,1.79S847.39,294.8,847.39,293.74Zm-1.31-8.25a2.17,2.17,0,1,0-4.33,0,2.18,2.18,0,1,0,4.33,0Z"/><path class="cls-5" d="M850.71,291.26a1.25,1.25,0,1,1,1.25,1.3A1.26,1.26,0,0,1,850.71,291.26Z"/><path class="cls-5" d="M856,278.89a1.2,1.2,0,0,1,2.39,0,1.2,1.2,0,0,1-2.39,0Zm.32,3.22H858v10.2H856.3Z"/><path class="cls-5" d="M860.71,287.22c0-3.4,2.23-5.36,4.73-5.36s4.73,2,4.73,5.36-2.23,5.34-4.73,5.34S860.71,290.6,860.71,287.22Zm7.68,0c0-2.34-1.19-3.93-2.95-3.93s-2.94,1.59-2.94,3.93,1.19,3.91,2.94,3.91S868.39,289.56,868.39,287.22Z"/></g><rect class="cls-6" x="188.5" y="162.5" width="52" height="52" rx="26" ry="26" transform="translate(26 403) rotate(-90)"/><polygon class="cls-2" points="283.15 73.91 293.17 73.9 288.14 83.69 283.15 73.91"/><polygon class="cls-2" points="249.67 177.89 251.45 187.74 240.93 184.53 249.67 177.89"/><path class="cls-1" d="M292.93,113a54.51,54.51,0,0,1-5.2,40.17C274.41,176.8,248.05,183.1,244,184"/><circle class="cls-7" cx="292" cy="109" r="3.5"/><circle class="cls-7" cx="128" cy="117" r="3.5"/><path class="cls-1" d="M181,29c-3.42.61-19.64,4-31.5,22.56-13.43,21-10.66,44.9-10.19,48.52"/><polygon class="cls-2" points="175.69 34.29 175.96 24.28 185.6 29.57 175.69 34.29"/><circle class="cls-7" cx="142" cy="102" r="3.5"/><path class="cls-1" d="M236.5,26.5c3.51.08,23.08.84,38,17a53.94,53.94,0,0,1,14,35"/><rect class="cls-6" x="188.5" y="0.5" width="52" height="52" rx="26" ry="26" transform="translate(188 241) rotate(-90)"/><rect class="cls-6" x="0.5" y="82.5" width="52" height="52" rx="26" ry="26" transform="translate(-82 135) rotate(-90)"/><polygon class="cls-2" points="153.56 143.13 143.8 145.35 146.54 134.69 153.56 143.13"/><path class="cls-1" d="M745.31,182.47a54.52,54.52,0,0,1-40.37-3.41c-24.19-12.26-31.66-38.32-32.74-42.32"/><polygon class="cls-2" points="678.56 142.13 668.8 144.35 671.54 133.69 678.56 142.13"/><line class="cls-8" x1="57.5" y1="108.5" x2="110.5" y2="109"/><polygon class="cls-2" points="64.35 103.8 64.61 113.81 54.7 109.03 64.35 103.8"/><path d="M204.16,16.94l1.33,22.57c.12,1.92,3.12,1.93,3,0l-1.33-22.57c-.11-1.92-3.11-1.94-3,0Z"/><path d="M205.94,18.13c3-.3,8-.74,8.63,3.36.59,3.81-4.57,5.67-7.52,6.29-1.89.39-1.09,3.28.8,2.89,4.58-1,10.56-4,9.72-9.58-.88-5.77-6.91-6.42-11.63-6-1.9.19-1.92,3.19,0,3Z"/><path d="M220.43,32.43a5.05,5.05,0,0,1,1.38-1.76L219.61,29a57.72,57.72,0,0,0-.75,8.19c0,1.93,3,1.93,3,0a52.28,52.28,0,0,1,.64-7.39c.18-1.11-1-2.59-2.2-1.7a8.37,8.37,0,0,0-2.46,2.83c-.89,1.71,1.69,3.23,2.59,1.52Z"/><path d="M126.43,76.43a5.05,5.05,0,0,1,1.38-1.76L125.61,73a57.72,57.72,0,0,0-.75,8.19c0,1.93,3,1.93,3,0a52.28,52.28,0,0,1,.64-7.39c.18-1.11-1-2.59-2.2-1.7a8.37,8.37,0,0,0-2.46,2.83c-.89,1.71,1.69,3.23,2.59,1.52Z"/><path d="M20.16,99.94l1.33,22.57c.12,1.92,3.12,1.93,3,0L23.16,99.94c-.11-1.92-3.11-1.94-3,0Z"/><path d="M21.94,101.13c3-.3,8-.74,8.63,3.36.59,3.81-4.57,5.67-7.52,6.29-1.89.39-1.09,3.28.8,2.89,4.58-1,10.56-4,9.72-9.58-.88-5.77-6.91-6.42-11.63-6-1.9.19-1.92,3.19,0,3Z"/><path d="M32.47,117a10.3,10.3,0,0,1,1.43-.55c.56-.14.74-.35.87.15.21.8-1,1.78-1.5,2.11l2.21,1.7c.43-1.22,1.8,0,1.54,1-.11.43-1.07,1.6-1.64,1.27l.69.89-.06-.31c-.4-1.88-3.29-1.08-2.89.8s2.79,1.84,4.24,1.13a4.6,4.6,0,0,0,2.71-4.61,3.85,3.85,0,0,0-7.49-.94,1.52,1.52,0,0,0,2.21,1.69c2.07-1.24,3.6-3.82,2.88-6.3-.91-3.1-4.73-1.48-6.71-.59-1.76.8-.23,3.38,1.51,2.59Z"/><path d="M305.16,59.94l1.33,22.57c.12,1.92,3.12,1.93,3,0l-1.33-22.57c-.11-1.92-3.11-1.94-3,0Z"/><path d="M306.94,61.13c3-.3,8-.74,8.63,3.36.59,3.81-4.57,5.67-7.52,6.29-1.89.39-1.09,3.28.8,2.89,4.58-1,10.56-4,9.72-9.58-.88-5.77-6.91-6.42-11.63-6-1.9.19-1.92,3.19,0,3Z"/><path d="M305.16,59.94l1.33,22.57c.12,1.92,3.12,1.93,3,0l-1.33-22.57c-.11-1.92-3.11-1.94-3,0Z"/><path d="M306.94,61.13c3-.3,8-.74,8.63,3.36.59,3.81-4.57,5.67-7.52,6.29-1.89.39-1.09,3.28.8,2.89,4.58-1,10.56-4,9.72-9.58-.88-5.77-6.91-6.42-11.63-6-1.9.19-1.92,3.19,0,3Z"/><path d="M305.16,59.94l1.33,22.57c.12,1.92,3.12,1.93,3,0l-1.33-22.57c-.11-1.92-3.11-1.94-3,0Z"/><path d="M306.94,61.13c3-.3,8-.74,8.63,3.36.59,3.81-4.57,5.67-7.52,6.29-1.89.39-1.09,3.28.8,2.89,4.58-1,10.56-4,9.72-9.58-.88-5.77-6.91-6.42-11.63-6-1.9.19-1.92,3.19,0,3Z"/><path d="M305.16,59.94l1.33,22.57c.12,1.92,3.12,1.93,3,0l-1.33-22.57c-.11-1.92-3.11-1.94-3,0Z"/><path d="M306.94,61.13c3-.3,8-.74,8.63,3.36.59,3.81-4.57,5.67-7.52,6.29-1.89.39-1.09,3.28.8,2.89,4.58-1,10.56-4,9.72-9.58-.88-5.77-6.91-6.42-11.63-6-1.9.19-1.92,3.19,0,3Z"/><path d="M307.41,74.42a41.06,41.06,0,0,1,13.34,8.08c1.43,1.29,3.56-.82,2.12-2.12a44.87,44.87,0,0,0-14.66-8.85c-1.81-.67-2.6,2.23-.8,2.89Z"/><path d="M104.16,59.94l1.33,22.57c.12,1.92,3.12,1.93,3,0l-1.33-22.57c-.11-1.92-3.11-1.94-3,0Z"/><path d="M105.94,61.13c3-.3,8-.74,8.63,3.36.59,3.81-4.57,5.67-7.52,6.29-1.89.39-1.09,3.28.8,2.89,4.58-1,10.56-4,9.72-9.58-.88-5.77-6.91-6.42-11.63-6-1.9.19-1.92,3.19,0,3Z"/><path d="M104.16,59.94l1.33,22.57c.12,1.92,3.12,1.93,3,0l-1.33-22.57c-.11-1.92-3.11-1.94-3,0Z"/><path d="M105.94,61.13c3-.3,8-.74,8.63,3.36.59,3.81-4.57,5.67-7.52,6.29-1.89.39-1.09,3.28.8,2.89,4.58-1,10.56-4,9.72-9.58-.88-5.77-6.91-6.42-11.63-6-1.9.19-1.92,3.19,0,3Z"/><path d="M104.16,59.94l1.33,22.57c.12,1.92,3.12,1.93,3,0l-1.33-22.57c-.11-1.92-3.11-1.94-3,0Z"/><path d="M105.94,61.13c3-.3,8-.74,8.63,3.36.59,3.81-4.57,5.67-7.52,6.29-1.89.39-1.09,3.28.8,2.89,4.58-1,10.56-4,9.72-9.58-.88-5.77-6.91-6.42-11.63-6-1.9.19-1.92,3.19,0,3Z"/><path d="M104.16,59.94l1.33,22.57c.12,1.92,3.12,1.93,3,0l-1.33-22.57c-.11-1.92-3.11-1.94-3,0Z"/><path d="M105.94,61.13c3-.3,8-.74,8.63,3.36.59,3.81-4.57,5.67-7.52,6.29-1.89.39-1.09,3.28.8,2.89,4.58-1,10.56-4,9.72-9.58-.88-5.77-6.91-6.42-11.63-6-1.9.19-1.92,3.19,0,3Z"/><path d="M106.41,74.42a41.06,41.06,0,0,1,13.34,8.08c1.43,1.29,3.56-.82,2.12-2.12a44.87,44.87,0,0,0-14.66-8.85c-1.81-.67-2.6,2.23-.8,2.89Z"/><path d="M326.87,74.56c-.24-1.1.71-.73,1.09-.22a3.42,3.42,0,0,1,.34,2.47,8.64,8.64,0,0,1-2,3.82,1.5,1.5,0,0,0,2.12,2.12,11.68,11.68,0,0,1,6.22-3c1.9-.31,1.1-3.2-.79-2.89a14.35,14.35,0,0,0-7.55,3.74l2.12,2.12c2.32-3,4.56-7.62,1.37-10.88-2.75-2.81-6.6-.05-5.85,3.49.41,1.89,3.3,1.09,2.9-.8Z"/><path d="M219.87,197.56c-.24-1.1.71-.73,1.09-.22a3.42,3.42,0,0,1,.34,2.47,8.64,8.64,0,0,1-2,3.82,1.5,1.5,0,0,0,2.12,2.12,11.68,11.68,0,0,1,6.22-3c1.9-.31,1.1-3.2-.79-2.89a14.35,14.35,0,0,0-7.55,3.74l2.12,2.12c2.32-2.95,4.56-7.62,1.37-10.88-2.75-2.81-6.6-.05-5.85,3.49.41,1.89,3.3,1.09,2.9-.8Z"/><path d="M207.16,181.94l1.33,22.57c.12,1.92,3.12,1.93,3,0l-1.33-22.57c-.11-1.92-3.11-1.94-3,0Z"/><path d="M208.94,183.13c3-.3,8-.74,8.63,3.36.59,3.81-4.57,5.67-7.52,6.29-1.89.39-1.09,3.28.8,2.89,4.58-1,10.56-4,9.72-9.58-.88-5.77-6.91-6.42-11.63-6-1.9.19-1.92,3.19,0,3Z"/><rect class="cls-3" x="793.5" y="83.5" width="44" height="50" rx="8.11" ry="8.11" transform="translate(707 924) rotate(-90)"/><rect class="cls-3" x="636.5" y="83.5" width="44" height="50" rx="8.11" ry="8.11" transform="translate(550 767) rotate(-90)"/><rect class="cls-6" x="711.5" y="162.5" width="52" height="52" rx="26" ry="26" transform="translate(549 926) rotate(-90)"/><polygon class="cls-2" points="806.15 73.91 816.16 73.9 811.14 83.69 806.15 73.91"/><polygon class="cls-2" points="772.67 177.89 774.45 187.74 763.93 184.53 772.67 177.89"/><path class="cls-1" d="M815.93,113a54.51,54.51,0,0,1-5.2,40.17C797.41,176.8,771.05,183.1,767,184"/><circle class="cls-7" cx="815" cy="109" r="3.5"/><path class="cls-1" d="M704,29c-3.42.61-19.64,4-31.5,22.56-13.43,21-10.66,44.9-10.19,48.52"/><polygon class="cls-2" points="698.69 34.29 698.96 24.28 708.6 29.57 698.69 34.29"/><circle class="cls-7" cx="665" cy="102" r="3.5"/><path class="cls-1" d="M759.5,26.5c3.51.08,23.08.84,38,17a53.94,53.94,0,0,1,14,35"/><rect class="cls-6" x="711.5" y="0.5" width="52" height="52" rx="26" ry="26" transform="translate(711 764) rotate(-90)"/><rect class="cls-6" x="523.5" y="82.5" width="52" height="52" rx="26" ry="26" transform="translate(441 658) rotate(-90)"/><path d="M727.16,16.94l1.33,22.57c.12,1.92,3.12,1.93,3,0l-1.33-22.57c-.11-1.92-3.11-1.94-3,0Z"/><path d="M728.94,18.13c3-.3,8-.74,8.63,3.36.59,3.81-4.57,5.67-7.52,6.29-1.89.39-1.09,3.28.8,2.89,4.58-1,10.56-4,9.72-9.58-.88-5.77-6.91-6.42-11.63-6-1.9.19-1.92,3.19,0,3Z"/><path d="M743.43,32.43a5.05,5.05,0,0,1,1.38-1.76L742.61,29a57.72,57.72,0,0,0-.75,8.19c0,1.93,3,1.93,3,0a52.28,52.28,0,0,1,.64-7.39c.18-1.11-1-2.59-2.2-1.7a8.37,8.37,0,0,0-2.46,2.83c-.89,1.71,1.69,3.23,2.59,1.52Z"/><path d="M649.43,76.43a5.05,5.05,0,0,1,1.38-1.76L648.61,73a57.72,57.72,0,0,0-.75,8.19c0,1.93,3,1.93,3,0a52.28,52.28,0,0,1,.64-7.39c.18-1.11-1-2.59-2.2-1.7a8.37,8.37,0,0,0-2.46,2.83c-.89,1.71,1.69,3.23,2.59,1.52Z"/><path d="M543.16,99.94l1.33,22.57c.12,1.92,3.12,1.93,3,0l-1.33-22.57c-.11-1.92-3.11-1.94-3,0Z"/><path d="M544.94,101.13c3-.3,8-.74,8.63,3.36.59,3.81-4.57,5.67-7.52,6.29-1.89.39-1.09,3.28.8,2.89,4.58-1,10.56-4,9.72-9.58-.88-5.77-6.91-6.42-11.63-6-1.9.19-1.92,3.19,0,3Z"/><path d="M555.47,117a10.3,10.3,0,0,1,1.43-.55c.56-.14.74-.35.87.15.21.8-.95,1.78-1.5,2.11l2.21,1.7c.43-1.22,1.8,0,1.54,1-.11.43-1.07,1.6-1.64,1.27l.69.89-.06-.31c-.4-1.88-3.29-1.08-2.89.8s2.79,1.84,4.24,1.13a4.6,4.6,0,0,0,2.71-4.61,3.85,3.85,0,0,0-7.49-.94,1.52,1.52,0,0,0,2.21,1.69c2.07-1.24,3.6-3.82,2.88-6.3-.91-3.1-4.73-1.48-6.71-.59-1.76.8-.23,3.38,1.51,2.59Z"/><path d="M828.16,59.94l1.33,22.57c.12,1.92,3.12,1.93,3,0l-1.33-22.57c-.11-1.92-3.11-1.94-3,0Z"/><path d="M829.94,61.13c3-.3,8-.74,8.63,3.36.59,3.81-4.57,5.67-7.52,6.29-1.89.39-1.09,3.28.8,2.89,4.58-1,10.56-4,9.72-9.58-.88-5.77-6.91-6.42-11.63-6-1.9.19-1.92,3.19,0,3Z"/><path d="M828.16,59.94l1.33,22.57c.12,1.92,3.12,1.93,3,0l-1.33-22.57c-.11-1.92-3.11-1.94-3,0Z"/><path d="M829.94,61.13c3-.3,8-.74,8.63,3.36.59,3.81-4.57,5.67-7.52,6.29-1.89.39-1.09,3.28.8,2.89,4.58-1,10.56-4,9.72-9.58-.88-5.77-6.91-6.42-11.63-6-1.9.19-1.92,3.19,0,3Z"/><path d="M828.16,59.94l1.33,22.57c.12,1.92,3.12,1.93,3,0l-1.33-22.57c-.11-1.92-3.11-1.94-3,0Z"/><path d="M829.94,61.13c3-.3,8-.74,8.63,3.36.59,3.81-4.57,5.67-7.52,6.29-1.89.39-1.09,3.28.8,2.89,4.58-1,10.56-4,9.72-9.58-.88-5.77-6.91-6.42-11.63-6-1.9.19-1.92,3.19,0,3Z"/><path d="M828.16,59.94l1.33,22.57c.12,1.92,3.12,1.93,3,0l-1.33-22.57c-.11-1.92-3.11-1.94-3,0Z"/><path d="M829.94,61.13c3-.3,8-.74,8.63,3.36.59,3.81-4.57,5.67-7.52,6.29-1.89.39-1.09,3.28.8,2.89,4.58-1,10.56-4,9.72-9.58-.88-5.77-6.91-6.42-11.63-6-1.9.19-1.92,3.19,0,3Z"/><path d="M830.41,74.42a41.06,41.06,0,0,1,13.34,8.08c1.43,1.29,3.56-.82,2.12-2.12a44.87,44.87,0,0,0-14.66-8.85c-1.81-.67-2.6,2.23-.8,2.89Z"/><path d="M627.16,59.94l1.33,22.57c.12,1.92,3.12,1.93,3,0l-1.33-22.57c-.11-1.92-3.11-1.94-3,0Z"/><path d="M628.94,61.13c3-.3,8-.74,8.63,3.36.59,3.81-4.57,5.67-7.52,6.29-1.89.39-1.09,3.28.8,2.89,4.58-1,10.56-4,9.72-9.58-.88-5.77-6.91-6.42-11.63-6-1.9.19-1.92,3.19,0,3Z"/><path d="M627.16,59.94l1.33,22.57c.12,1.92,3.12,1.93,3,0l-1.33-22.57c-.11-1.92-3.11-1.94-3,0Z"/><path d="M628.94,61.13c3-.3,8-.74,8.63,3.36.59,3.81-4.57,5.67-7.52,6.29-1.89.39-1.09,3.28.8,2.89,4.58-1,10.56-4,9.72-9.58-.88-5.77-6.91-6.42-11.63-6-1.9.19-1.92,3.19,0,3Z"/><path d="M627.16,59.94l1.33,22.57c.12,1.92,3.12,1.93,3,0l-1.33-22.57c-.11-1.92-3.11-1.94-3,0Z"/><path d="M628.94,61.13c3-.3,8-.74,8.63,3.36.59,3.81-4.57,5.67-7.52,6.29-1.89.39-1.09,3.28.8,2.89,4.58-1,10.56-4,9.72-9.58-.88-5.77-6.91-6.42-11.63-6-1.9.19-1.92,3.19,0,3Z"/><path d="M627.16,59.94l1.33,22.57c.12,1.92,3.12,1.93,3,0l-1.33-22.57c-.11-1.92-3.11-1.94-3,0Z"/><path d="M628.94,61.13c3-.3,8-.74,8.63,3.36.59,3.81-4.57,5.67-7.52,6.29-1.89.39-1.09,3.28.8,2.89,4.58-1,10.56-4,9.72-9.58-.88-5.77-6.91-6.42-11.63-6-1.9.19-1.92,3.19,0,3Z"/><path d="M629.41,74.42a41.06,41.06,0,0,1,13.34,8.08c1.43,1.29,3.56-.82,2.12-2.12a44.87,44.87,0,0,0-14.66-8.85c-1.81-.67-2.6,2.23-.8,2.89Z"/><path d="M849.87,74.56c-.24-1.1.71-.73,1.09-.22a3.42,3.42,0,0,1,.34,2.47,8.64,8.64,0,0,1-2,3.82,1.5,1.5,0,0,0,2.12,2.12,11.68,11.68,0,0,1,6.22-3c1.9-.31,1.1-3.2-.79-2.89a14.35,14.35,0,0,0-7.55,3.74l2.12,2.12c2.32-3,4.56-7.62,1.37-10.88-2.75-2.81-6.6-.05-5.85,3.49.41,1.89,3.3,1.09,2.9-.8Z"/><path d="M742.87,197.56c-.24-1.1.71-.73,1.09-.22a3.42,3.42,0,0,1,.34,2.47,8.64,8.64,0,0,1-2,3.82,1.5,1.5,0,0,0,2.12,2.12,11.68,11.68,0,0,1,6.22-3c1.9-.31,1.1-3.2-.79-2.89a14.35,14.35,0,0,0-7.55,3.74l2.12,2.12c2.32-2.95,4.56-7.62,1.37-10.88-2.75-2.81-6.6-.05-5.85,3.49.41,1.89,3.3,1.09,2.9-.8Z"/><path d="M730.16,181.94l1.33,22.57c.12,1.92,3.12,1.93,3,0l-1.33-22.57c-.11-1.92-3.11-1.94-3,0Z"/><path d="M731.94,183.13c3-.3,8-.74,8.63,3.36.59,3.81-4.57,5.67-7.52,6.29-1.89.39-1.09,3.28.8,2.89,4.58-1,10.56-4,9.72-9.58-.88-5.77-6.91-6.42-11.63-6-1.9.19-1.92,3.19,0,3Z"/><path class="cls-1" d="M651.46,121c-.66,5.77-2.23,25.5,9.39,44.44,15.21,24.78,40.81,28.36,44.73,28.83"/><polygon class="cls-2" points="699.55 188.16 698.96 199.46 708.54 194.46 699.55 188.16"/><circle class="cls-7" cx="651" cy="117" r="3.5"/><text class="cls-9" transform="translate(121 269.6) scale(0.98 1)">1) 그래프 제거 전의 RAG</text><text class="cls-9" transform="translate(659 269.6) scale(0.98 1)">2) P3으로 제거 후</text></g></g></svg>