<svg xmlns="http://www.w3.org/2000/svg" viewBox="0 0 498.35 676.01"><defs><style>.cls-1,.cls-4{fill:#00aa94;}.cls-1,.cls-2{opacity:0.5;}.cls-3{fill:#666;}.cls-5,.cls-6{fill:none;stroke:#000;stroke-miterlimit:10;}.cls-5{stroke-width:0.25px;}.cls-6,.cls-7{opacity:0.6;}.cls-8{font-size:19px;}.cls-8,.cls-9{font-family:NanumGothic, Nanum Gothic;}.cls-9{font-size:15.57px;}</style></defs><title>자산 25</title><g id="레이어_2" data-name="레이어 2"><g id="레이어_1-2" data-name="레이어 1"><polyline class="cls-1" points="238.16 16.69 77.81 92.68 270.69 112.63"/><polyline class="cls-1" points="422.14 265.31 77.81 189.31 492 169.36"/><g class="cls-2"><path class="cls-3" d="M434.92,657.89a1.19,1.19,0,0,1,2.38,0,1.19,1.19,0,0,1-2.38,0Zm.31,3.22H437v10.2h-1.73Z"/><path class="cls-3" d="M440.41,661.11h1.42l.15,1.47H442a4.85,4.85,0,0,1,3.42-1.72c2.15,0,3.12,1.38,3.12,4v6.46h-1.73v-6.24c0-1.9-.58-2.72-1.93-2.72-1,0-1.76.54-2.79,1.57v7.39h-1.72Z"/><path class="cls-3" d="M451.11,673.27a2.86,2.86,0,0,1,1.5-2.3v-.09a1.88,1.88,0,0,1-.91-1.67,2.46,2.46,0,0,1,1.12-1.9v-.08a3.53,3.53,0,0,1-1.32-2.74,3.62,3.62,0,0,1,3.83-3.63,4,4,0,0,1,1.44.25h3.56v1.33h-2.1a3,3,0,0,1,.83,2.1,3.49,3.49,0,0,1-3.73,3.54,3.75,3.75,0,0,1-1.53-.35,1.52,1.52,0,0,0-.65,1.21c0,.64.42,1.1,1.79,1.1h2c2.37,0,3.56.75,3.56,2.44,0,1.9-2,3.53-5.15,3.53C452.84,676,451.11,675,451.11,673.27Zm7.69-.53c0-1-.71-1.27-2.05-1.27H455a5.83,5.83,0,0,1-1.33-.15,2.13,2.13,0,0,0-1,1.71c0,1.1,1.1,1.79,3,1.79S458.8,673.8,458.8,672.74Zm-1.31-8.25a2.17,2.17,0,1,0-4.33,0,2.18,2.18,0,1,0,4.33,0Z"/><path class="cls-3" d="M461.7,673.27a2.86,2.86,0,0,1,1.5-2.3v-.09a1.88,1.88,0,0,1-.91-1.67,2.46,2.46,0,0,1,1.12-1.9v-.08a3.53,3.53,0,0,1-1.32-2.74,3.62,3.62,0,0,1,3.83-3.63,4,4,0,0,1,1.44.25h3.56v1.33h-2.1a3,3,0,0,1,.83,2.1,3.49,3.49,0,0,1-3.73,3.54,3.75,3.75,0,0,1-1.53-.35,1.52,1.52,0,0,0-.65,1.21c0,.64.42,1.1,1.79,1.1h2c2.37,0,3.56.75,3.56,2.44,0,1.9-2,3.53-5.16,3.53C463.42,676,461.7,675,461.7,673.27Zm7.69-.53c0-1-.71-1.27-2.05-1.27h-1.76a5.83,5.83,0,0,1-1.33-.15,2.13,2.13,0,0,0-1,1.71c0,1.1,1.1,1.79,3,1.79S469.39,673.8,469.39,672.74Zm-1.31-8.25a2.17,2.17,0,1,0-4.33,0,2.18,2.18,0,1,0,4.33,0Z"/><path class="cls-3" d="M472.71,670.26a1.25,1.25,0,1,1,1.25,1.3A1.26,1.26,0,0,1,472.71,670.26Z"/><path class="cls-3" d="M478,657.89a1.2,1.2,0,0,1,2.39,0,1.2,1.2,0,0,1-2.39,0Zm.32,3.22H480v10.2H478.3Z"/><path class="cls-3" d="M482.71,666.22c0-3.4,2.23-5.36,4.73-5.36s4.73,2,4.73,5.36-2.23,5.34-4.73,5.34S482.71,669.6,482.71,666.22Zm7.68,0c0-2.34-1.19-3.93-2.95-3.93s-2.94,1.59-2.94,3.93,1.19,3.91,2.94,3.91S490.39,668.56,490.39,666.22Z"/></g><rect class="cls-4" x="-79.52" y="79.52" width="265" height="105.96" rx="4.7" ry="4.7" transform="translate(-79.52 185.48) rotate(-90)"/><rect class="cls-4" x="214.37" y="24.09" width="113.46" height="78.64" rx="4.7" ry="4.7" transform="translate(207.7 334.51) rotate(-90)"/><rect class="cls-4" x="395.95" y="179.27" width="113.46" height="78.64" rx="4.7" ry="4.7" transform="translate(234.09 671.27) rotate(-90)"/><line class="cls-5" x1="39.62" y1="53.4" x2="67.05" y2="53.4"/><line class="cls-5" x1="39.62" y1="63.41" x2="67.05" y2="63.41"/><line class="cls-5" x1="39.62" y1="73.42" x2="67.05" y2="73.42"/><line class="cls-5" x1="39.62" y1="83.43" x2="67.05" y2="83.43"/><line class="cls-5" x1="39.62" y1="93.44" x2="67.05" y2="93.44"/><line class="cls-5" x1="39.62" y1="103.45" x2="67.05" y2="103.45"/><line class="cls-5" x1="39.62" y1="113.47" x2="67.05" y2="113.47"/><line class="cls-5" x1="39.62" y1="123.48" x2="67.05" y2="123.48"/><line class="cls-5" x1="39.62" y1="133.49" x2="67.05" y2="133.49"/><line class="cls-5" x1="39.62" y1="143.5" x2="67.05" y2="143.5"/><line class="cls-5" x1="39.62" y1="153.51" x2="67.05" y2="153.51"/><line class="cls-5" x1="39.62" y1="163.52" x2="67.05" y2="163.52"/><line class="cls-5" x1="39.62" y1="173.53" x2="67.05" y2="173.53"/><line class="cls-5" x1="39.62" y1="183.55" x2="67.05" y2="183.55"/><line class="cls-5" x1="39.62" y1="193.56" x2="67.05" y2="193.56"/><line class="cls-5" x1="39.62" y1="203.57" x2="67.05" y2="203.57"/><line class="cls-5" x1="39.62" y1="213.58" x2="67.05" y2="213.58"/><line class="cls-5" x1="39.62" y1="223.59" x2="67.05" y2="223.59"/><line class="cls-5" x1="39.62" y1="233.6" x2="67.05" y2="233.6"/><line class="cls-5" x1="39.62" y1="243.62" x2="67.05" y2="243.62"/><line class="cls-6" x1="85.39" y1="240.33" x2="85.5" y2="53.5"/><polygon class="cls-7" points="77.69 238.46 93.91 238.86 85.11 248.43 77.69 238.46"/><rect class="cls-4" x="-79.02" y="473.02" width="264" height="105.96" rx="4.7" ry="4.7" transform="translate(-473.02 578.98) rotate(-90)"/><rect class="cls-4" x="214.37" y="418.09" width="113.46" height="78.64" rx="4.7" ry="4.7" transform="translate(-186.3 728.51) rotate(-90)"/><rect class="cls-4" x="395.95" y="541.27" width="113.46" height="78.64" rx="4.7" ry="4.7" transform="translate(-127.91 1033.27) rotate(-90)"/><line class="cls-5" x1="39.62" y1="447.4" x2="67.05" y2="447.4"/><line class="cls-5" x1="39.62" y1="457.41" x2="67.05" y2="457.41"/><line class="cls-5" x1="39.62" y1="467.42" x2="67.05" y2="467.42"/><line class="cls-5" x1="39.62" y1="477.43" x2="67.05" y2="477.43"/><line class="cls-5" x1="39.62" y1="487.44" x2="67.05" y2="487.44"/><line class="cls-5" x1="39.62" y1="497.45" x2="67.05" y2="497.45"/><line class="cls-5" x1="39.62" y1="507.47" x2="67.05" y2="507.47"/><line class="cls-5" x1="39.62" y1="517.48" x2="67.05" y2="517.48"/><line class="cls-5" x1="39.62" y1="527.49" x2="67.05" y2="527.49"/><line class="cls-5" x1="39.62" y1="537.5" x2="67.05" y2="537.5"/><line class="cls-5" x1="39.62" y1="547.51" x2="67.05" y2="547.51"/><line class="cls-5" x1="39.62" y1="557.52" x2="67.05" y2="557.52"/><line class="cls-5" x1="39.62" y1="567.53" x2="67.05" y2="567.53"/><line class="cls-5" x1="39.62" y1="577.55" x2="67.05" y2="577.55"/><line class="cls-5" x1="39.62" y1="587.56" x2="67.05" y2="587.56"/><line class="cls-5" x1="39.62" y1="597.57" x2="67.05" y2="597.57"/><line class="cls-5" x1="39.62" y1="607.58" x2="67.05" y2="607.58"/><line class="cls-5" x1="39.62" y1="617.59" x2="67.05" y2="617.59"/><line class="cls-5" x1="39.62" y1="627.6" x2="67.05" y2="627.6"/><line class="cls-5" x1="39.62" y1="637.62" x2="67.05" y2="637.62"/><polyline class="cls-1" points="238.16 410.69 77.81 486.68 270.69 506.63"/><polyline class="cls-1" points="285 438 462 543.59 453 638"/><text class="cls-8" transform="translate(421.59 21.94)">인터럽트 <tspan x="0" y="22.8">순차처리</tspan></text><text class="cls-8" transform="translate(421.59 408.94)">인터럽트 <tspan x="0" y="22.8">중첩처리</tspan></text><text class="cls-9" transform="translate(243.59 424.2) scale(0.99 1)">인터럽트 <tspan x="0" y="18.69">핸들러 X</tspan></text><text class="cls-9" transform="translate(243.59 30.2) scale(0.99 1)">인터럽트 <tspan x="0" y="18.69">핸들러 X</tspan></text><text class="cls-9" transform="translate(424.59 188.2) scale(0.99 1)">인터럽트 <tspan x="0" y="18.69">핸들러 Y</tspan></text><text class="cls-9" transform="translate(424.59 547.2) scale(0.99 1)">인터럽트 <tspan x="0" y="18.69">핸들러 Y</tspan></text><text class="cls-9" transform="translate(6.59 26.2) scale(0.88 1)">사용자 프로그램</text><text class="cls-9" transform="translate(6.59 424.2) scale(0.88 1)">사용자 프로그램</text><line class="cls-6" x1="85.39" y1="637.33" x2="85.5" y2="450.5"/><polygon class="cls-7" points="77.69 635.46 93.91 635.86 85.11 645.43 77.69 635.46"/></g></g></svg>