<svg xmlns="http://www.w3.org/2000/svg" viewBox="0 0 515 369.1"><defs><style>.cls-1,.cls-6{fill:#b3b3b3;}.cls-1,.cls-2,.cls-5{opacity:0.5;}.cls-3{fill:#666;}.cls-4{fill:#29abe2;opacity:0.8;}.cls-5{fill:#00aa94;}.cls-7,.cls-9{font-size:19px;}.cls-7,.cls-8{font-family:NanumGothicExtraBold, Nanum Gothic;}.cls-7,.cls-8,.cls-9{font-weight:700;}.cls-8{font-size:39.04px;}.cls-9{font-family:NanumGothicBold, Nanum Gothic;}</style></defs><title>자산 26</title><g id="레이어_2" data-name="레이어 2"><g id="레이어_1-2" data-name="레이어 1"><rect class="cls-1" x="88.5" y="-84.41" width="338" height="515" rx="11.69" ry="11.69" transform="translate(84.41 430.59) rotate(-90)"/><g class="cls-2"><path class="cls-3" d="M438.92,351a1.19,1.19,0,0,1,2.38,0,1.19,1.19,0,0,1-2.38,0Zm.31,3.22H441v10.2h-1.73Z"/><path class="cls-3" d="M444.41,354.2h1.42l.15,1.47H446a4.85,4.85,0,0,1,3.42-1.72c2.15,0,3.12,1.38,3.12,4v6.46h-1.73v-6.24c0-1.9-.58-2.71-1.93-2.71-1,0-1.76.53-2.79,1.56v7.39h-1.72Z"/><path class="cls-3" d="M455.11,366.37a2.86,2.86,0,0,1,1.5-2.31V364a1.88,1.88,0,0,1-.91-1.67,2.42,2.42,0,0,1,1.12-1.89v-.09a3.53,3.53,0,0,1-1.32-2.74,3.62,3.62,0,0,1,3.83-3.63,4.18,4.18,0,0,1,1.44.25h3.56v1.33h-2.1a3,3,0,0,1,.83,2.1,3.49,3.49,0,0,1-3.73,3.54,3.75,3.75,0,0,1-1.53-.35,1.52,1.52,0,0,0-.65,1.21c0,.64.42,1.1,1.79,1.1h2c2.37,0,3.56.75,3.56,2.44,0,1.9-2,3.53-5.16,3.53C456.83,369.1,455.11,368.12,455.11,366.37Zm7.69-.54c0-.94-.71-1.27-2.05-1.27H459a5.83,5.83,0,0,1-1.33-.15,2.13,2.13,0,0,0-1,1.71c0,1.1,1.1,1.79,3,1.79S462.8,366.9,462.8,365.83Zm-1.31-8.25a2.17,2.17,0,1,0-4.33,0,2.18,2.18,0,1,0,4.33,0Z"/><path class="cls-3" d="M465.7,366.37a2.86,2.86,0,0,1,1.5-2.31V364a1.88,1.88,0,0,1-.91-1.67,2.42,2.42,0,0,1,1.12-1.89v-.09a3.53,3.53,0,0,1-1.32-2.74,3.62,3.62,0,0,1,3.83-3.63,4.18,4.18,0,0,1,1.44.25h3.56v1.33h-2.1a3,3,0,0,1,.83,2.1,3.49,3.49,0,0,1-3.73,3.54,3.75,3.75,0,0,1-1.53-.35,1.52,1.52,0,0,0-.65,1.21c0,.64.42,1.1,1.79,1.1h2c2.37,0,3.56.75,3.56,2.44,0,1.9-2,3.53-5.16,3.53C467.42,369.1,465.7,368.12,465.7,366.37Zm7.69-.54c0-.94-.71-1.27-2.05-1.27h-1.76a5.83,5.83,0,0,1-1.33-.15,2.13,2.13,0,0,0-1,1.71c0,1.1,1.1,1.79,3,1.79S473.39,366.9,473.39,365.83Zm-1.31-8.25a2.17,2.17,0,1,0-4.33,0,2.18,2.18,0,1,0,4.33,0Z"/><path class="cls-3" d="M476.71,363.35a1.25,1.25,0,1,1,2.5,0,1.25,1.25,0,1,1-2.5,0Z"/><path class="cls-3" d="M482,351a1.2,1.2,0,0,1,2.39,0,1.2,1.2,0,0,1-2.39,0Zm.32,3.22H484v10.2H482.3Z"/><path class="cls-3" d="M486.71,359.31c0-3.4,2.23-5.36,4.73-5.36s4.73,2,4.73,5.36-2.23,5.35-4.73,5.35S486.71,362.69,486.71,359.31Zm7.68,0c0-2.33-1.19-3.93-2.95-3.93s-2.94,1.6-2.94,3.93,1.19,3.91,2.94,3.91S494.39,361.65,494.39,359.31Z"/></g><path class="cls-4" d="M192.73-.52H324.45A8.52,8.52,0,0,1,333,8V491.7a0,0,0,0,1,0,0H184a0,0,0,0,1,0,0V8.24a8.76,8.76,0,0,1,8.76-8.76Z" transform="translate(12.88 504.06) rotate(-90)"/><rect class="cls-5" x="293.23" y="120.32" width="300.33" height="123.22" rx="4.7" ry="4.7" transform="translate(261.46 625.32) rotate(-90)"/><rect class="cls-5" x="120.23" y="120.32" width="300.33" height="123.22" rx="4.7" ry="4.7" transform="translate(88.46 452.32) rotate(-90)"/><rect class="cls-6" x="247.93" y="60.02" width="46" height="112.14" rx="2.01" ry="2.01" transform="translate(154.84 387.02) rotate(-90)"/><rect class="cls-6" x="419.93" y="60.02" width="46" height="112.14" rx="2.01" ry="2.01" transform="translate(326.84 559.02) rotate(-90)"/><rect class="cls-6" x="215.93" y="191.02" width="110" height="112.14" rx="3.11" ry="3.11" transform="translate(23.84 518.02) rotate(-90)"/><rect class="cls-6" x="387.93" y="191.02" width="110" height="112.14" rx="3.11" ry="3.11" transform="translate(195.84 690.02) rotate(-90)"/><text class="cls-7" transform="matrix(0.97, -0.25, 0.25, 0.97, 214.16, 56.59)">Thread X</text><text class="cls-8" transform="matrix(0.71, -0.18, 0.25, 0.97, 16.16, 54.33)">Process</text><text class="cls-7" transform="matrix(0.97, -0.25, 0.25, 0.97, 20.16, 191.59)">Memory</text><text class="cls-7" transform="matrix(0.97, -0.25, 0.25, 0.97, 389.16, 56.59)">Thread Y</text><text class="cls-9" transform="translate(237.59 123.03)">Register</text><text class="cls-9" transform="translate(411.59 123.03)">Register</text><text class="cls-9" transform="translate(248.59 253.03)">Stack</text><text class="cls-9" transform="translate(421.59 253.03)">Stack</text><rect class="cls-6" x="89.43" y="236.52" width="29" height="112.15" rx="1.6" ry="1.6" transform="translate(-188.66 396.52) rotate(-90)"/><rect class="cls-6" x="89.43" y="196.52" width="29" height="112.15" rx="1.6" ry="1.6" transform="translate(-148.66 356.52) rotate(-90)"/><rect class="cls-6" x="89.43" y="156.52" width="29" height="112.15" rx="1.6" ry="1.6" transform="translate(-108.66 316.52) rotate(-90)"/><text class="cls-9" transform="translate(80.59 219.03)">Code</text><text class="cls-9" transform="translate(80.59 259.03)">Data</text><text class="cls-9" transform="translate(80.59 298.03)">Heap</text></g></g></svg>