<svg xmlns="http://www.w3.org/2000/svg" viewBox="0 0 535.7 174.36"><defs><style>.cls-1{opacity:0.5;}.cls-2{fill:#666;}.cls-3{fill:#00a99d;}.cls-3,.cls-4,.cls-6{opacity:0.8;}.cls-4{fill:#b4fff9;}.cls-5{fill:none;stroke:#000;stroke-miterlimit:10;stroke-width:3px;}.cls-7{font-size:24px;font-family:NanumGothic, Nanum Gothic;}</style></defs><title>자산 6</title><g id="레이어_2" data-name="레이어 2"><g id="레이어_1-2" data-name="레이어 1"><g class="cls-1"><path class="cls-2" d="M473.62,156.24a1.2,1.2,0,0,1,2.39,0,1.2,1.2,0,0,1-2.39,0Zm.32,3.21h1.72v10.21h-1.72Z"/><path class="cls-2" d="M479.11,159.45h1.43l.14,1.48h.06a4.86,4.86,0,0,1,3.42-1.73c2.15,0,3.12,1.39,3.12,4v6.47h-1.73v-6.24c0-1.91-.57-2.72-1.92-2.72-1.05,0-1.77.53-2.79,1.57v7.39h-1.73Z"/><path class="cls-2" d="M489.81,171.62a2.88,2.88,0,0,1,1.5-2.31v-.08a1.89,1.89,0,0,1-.91-1.67,2.44,2.44,0,0,1,1.12-1.9v-.08a3.55,3.55,0,0,1-1.32-2.74A3.62,3.62,0,0,1,494,159.2a4.18,4.18,0,0,1,1.44.25H499v1.33h-2.1a3,3,0,0,1,.83,2.1,3.48,3.48,0,0,1-3.73,3.54,3.52,3.52,0,0,1-1.52-.35,1.5,1.5,0,0,0-.65,1.21c0,.65.42,1.11,1.79,1.11h2c2.37,0,3.57.74,3.57,2.44,0,1.89-2,3.53-5.16,3.53C491.54,174.36,489.81,173.38,489.81,171.62Zm7.69-.54c0-.94-.71-1.26-2.05-1.26h-1.76a5.83,5.83,0,0,1-1.33-.15,2.11,2.11,0,0,0-1,1.71c0,1.09,1.1,1.79,3,1.79S497.5,172.15,497.5,171.08Zm-1.3-8.24a2.18,2.18,0,1,0-4.34,0,2.18,2.18,0,1,0,4.34,0Z"/><path class="cls-2" d="M500.4,171.62a2.88,2.88,0,0,1,1.5-2.31v-.08a1.89,1.89,0,0,1-.91-1.67,2.44,2.44,0,0,1,1.12-1.9v-.08a3.55,3.55,0,0,1-1.32-2.74,3.62,3.62,0,0,1,3.83-3.64,4.18,4.18,0,0,1,1.44.25h3.56v1.33h-2.1a3,3,0,0,1,.83,2.1,3.48,3.48,0,0,1-3.73,3.54,3.52,3.52,0,0,1-1.52-.35,1.5,1.5,0,0,0-.65,1.21c0,.65.42,1.11,1.78,1.11h2c2.37,0,3.57.74,3.57,2.44,0,1.89-2,3.53-5.16,3.53C502.13,174.36,500.4,173.38,500.4,171.62Zm7.69-.54c0-.94-.71-1.26-2-1.26h-1.76a5.83,5.83,0,0,1-1.33-.15,2.11,2.11,0,0,0-1,1.71c0,1.09,1.1,1.79,3,1.79S508.09,172.15,508.09,171.08Zm-1.3-8.24a2.18,2.18,0,1,0-4.34,0,2.18,2.18,0,1,0,4.34,0Z"/><path class="cls-2" d="M511.41,168.6a1.25,1.25,0,1,1,1.25,1.31A1.26,1.26,0,0,1,511.41,168.6Z"/><path class="cls-2" d="M516.68,156.24a1.2,1.2,0,1,1,1.2,1.11A1.12,1.12,0,0,1,516.68,156.24Zm.32,3.21h1.73v10.21H517Z"/><path class="cls-2" d="M521.41,164.57c0-3.41,2.23-5.37,4.73-5.37s4.73,2,4.73,5.37-2.22,5.34-4.73,5.34S521.41,168,521.41,164.57Zm7.68,0c0-2.34-1.19-3.93-3-3.93s-2.94,1.59-2.94,3.93,1.19,3.9,2.94,3.9S529.09,166.91,529.09,164.57Z"/></g><rect class="cls-3" x="12.7" y="80.35" width="52" height="60" rx="9.65" ry="9.65" transform="translate(-71.64 149.05) rotate(-90)"/><rect class="cls-3" x="146.7" y="80.35" width="52" height="60" rx="9.65" ry="9.65" transform="translate(62.36 283.05) rotate(-90)"/><rect class="cls-3" x="79.7" y="80.35" width="52" height="60" rx="9.65" ry="9.65" transform="translate(-4.64 216.05) rotate(-90)"/><rect class="cls-3" x="212.7" y="80.35" width="52" height="60" rx="9.65" ry="9.65" transform="translate(128.36 349.05) rotate(-90)"/><rect class="cls-4" x="279.7" y="80.35" width="52" height="60" rx="9.65" ry="9.65" transform="translate(195.36 416.05) rotate(-90)"/><rect class="cls-4" x="413.7" y="80.35" width="52" height="60" rx="9.65" ry="9.65" transform="translate(329.36 550.05) rotate(-90)"/><rect class="cls-4" x="346.7" y="80.35" width="52" height="60" rx="9.65" ry="9.65" transform="translate(262.36 483.05) rotate(-90)"/><rect class="cls-4" x="479.7" y="80.35" width="52" height="60" rx="9.65" ry="9.65" transform="translate(395.36 616.05) rotate(-90)"/><polygon points="47.63 60.15 30.7 59.75 39 68.42 47.63 60.15"/><line class="cls-5" x1="39.2" y1="34.35" x2="39.2" y2="60.35"/><polygon points="247.63 64.15 230.7 63.75 239 72.42 247.63 64.15"/><line class="cls-5" x1="239.2" y1="38.35" x2="239.2" y2="64.35"/><polygon points="314.63 64.15 297.7 63.75 306 72.42 314.63 64.15"/><line class="cls-5" x1="306.2" y1="38.35" x2="306.2" y2="64.35"/><polygon points="514.63 64.15 497.7 63.75 506 72.42 514.63 64.15"/><line class="cls-5" x1="506.2" y1="38.35" x2="506.2" y2="64.35"/><g class="cls-6"><path d="M305.06,106a30.53,30.53,0,0,1,4.52-6.62L307.08,98c-2.69,9.35-3.18,19.15-4.23,28.8-.21,1.91,2.79,1.9,3,0,1-9.37,1.51-18.93,4.12-28a1.51,1.51,0,0,0-2.51-1.45,33,33,0,0,0-5,7.22c-.89,1.72,1.7,3.24,2.59,1.52Z"/></g><g class="cls-6"><path d="M101.93,104.61c1-5.19,10.65-5.37,9.84.33-.44,3.13-3.84,3.17-6.37,3.59-1.62.26-1.21,2.42,0,2.89,3.22,1.25,6.08,3.83,4.67,7.79-1,2.82-8.55,4.28-9.59.29-.48-1.87-3.38-1.07-2.89.8,1.38,5.31,10.82,6.29,14.14,2.28,4.7-5.68-.13-12-5.53-14v2.89c2.88-.48,7.13-1.15,8.3-4.18.93-2.42.35-6.51-1.43-8.46-4.19-4.58-13-.44-14,5-.35,1.89,2.54,2.7,2.89.8Z"/></g><g class="cls-6"><path d="M374.8,96.24a232.52,232.52,0,0,1-15.44,20.21,1.51,1.51,0,0,0,1.82,2.36,109.63,109.63,0,0,1,28.92-8.32c1.9-.28,1.09-3.17-.8-2.9a112.31,112.31,0,0,0-29.64,8.63l1.82,2.36a241.1,241.1,0,0,0,15.91-20.82c1.09-1.6-1.5-3.11-2.59-1.52Z"/></g><g class="cls-6"><path d="M374.21,99.77v24.58a1.5,1.5,0,0,0,3,0V99.77a1.5,1.5,0,0,0-3,0Z"/></g><g class="cls-6"><path d="M239.3,112c3.73-2.22,8.88-8.29,4.53-12.48-3.33-3.2-11.67-1.78-14.21,1.86-3.7,5.32,3.59,9.07,7.61,10.42,3,1,4.67,1,6.59,3.72,2.14,3,2.27,2.78-.56,5.35-2.22,2-2,2-4.42,2.12a10,10,0,0,1-3,.08c-1.47-.46-3.1-4.48-2.41-5.9,1-2,4.22-3.92,5.9-5.11s.07-3.7-1.51-2.59c-3.71,2.61-11.93,8.33-9.06,13.85,2.29,4.4,12.46,3.43,16.14,1.8,4.28-1.89,4.57-8.42,2.12-11.95-2-2.9-5.91-3.19-9-4.26-2.84-1-3.08-.79-3.86-4.08-.83-3.48-.37-3.27,2.73-3.77,2.57-.41,2.33-.48,3.59,2.32,1.5,3.3.43,4.17-2.69,6A1.5,1.5,0,0,0,239.3,112Z"/></g><g class="cls-6"><path d="M165.09,107.85l16.37-7.21L179.26,99a73.54,73.54,0,0,0-2.81,26.59c.15,1.92,3.15,1.93,3,0a71.46,71.46,0,0,1,2.7-25.8,1.52,1.52,0,0,0-2.21-1.69l-16.36,7.21c-1.76.78-.24,3.36,1.51,2.59Z"/></g><g class="cls-6"><path d="M30,108c.69-1.61,3.76-6.71,6.2-5.88s.61,7.53.38,8.95C35.79,116,35,121.38,32,125.41c-1,1.3.85,2.66,2,2.06l16.47-8.34c1.72-.87.21-3.46-1.51-2.59l-16.47,8.34,2.05,2.05c2.87-3.81,3.71-8.58,4.56-13.18.48-2.63.85-5.29,1.12-8,.15-1.47.84-4.22-.07-5.63-3.36-5.19-11.45,3.19-12.79,6.31-.76,1.76,1.83,3.29,2.59,1.52Z"/></g><g class="cls-6"><path d="M507.58,95.37c-5.22,3.69-10.25,9.81-9.89,16.58.28,5.23,2.61,12.19,8.46,13.16,2.67.44,5.34.41,6.7-2.09s1.91-6.23,1-8.84c-2.13-5.9-10.55-3.85-14.82-1.89-1.75.81-.23,3.39,1.51,2.59a13.8,13.8,0,0,1,5.85-1.51c2.83.13,6,4.41,4.26,7-3.58,5.43-8.33-1.48-9.29-5.23-1.79-7,2.14-13.18,7.76-17.16,1.57-1.1.07-3.71-1.51-2.59Z"/></g><g class="cls-6"><path d="M445.55,96.86a68.17,68.17,0,0,0-15.34,1.62,1.53,1.53,0,0,0-1,1.85,26.74,26.74,0,0,1,.92,9.42,1.52,1.52,0,0,0,1.5,1.5c3-.08,13.6-1.22,12,4.25-1.17,4-8.2,4.45-11.25,3.68-1.87-.47-2.67,2.42-.8,2.9,5.5,1.38,13.73-.53,15.39-6.84,2.06-7.79-11.09-7.11-15.36-7l1.5,1.5a28.67,28.67,0,0,0-1-10.22L431,101.37a64.16,64.16,0,0,1,14.55-1.51,1.5,1.5,0,0,0,0-3Z"/></g><text class="cls-7" transform="translate(0 19.2)">frontIdx</text><text class="cls-7" transform="translate(274 19.2)">rearIdx</text><text class="cls-7" transform="translate(216 19.2)">mid</text><text class="cls-7" transform="translate(477 19.2)">right</text></g></g></svg>