<svg xmlns="http://www.w3.org/2000/svg" viewBox="0 0 523 252"><defs><style>.cls-1{fill:#ccc;}.cls-2{fill:#150000;}.cls-3{fill:#00aa94;opacity:0.8;}.cls-4{font-size:23px;}.cls-4,.cls-8{fill:#fff;}.cls-4,.cls-6,.cls-8{font-family:NanumGothic, Nanum Gothic;}.cls-5{letter-spacing:-0.1em;}.cls-6,.cls-8{font-size:22px;}.cls-7{fill:#4d4d4d;}.cls-9{opacity:0.5;}.cls-10{fill:#e6e6e6;}</style></defs><title>자산 2</title><g id="레이어_2" data-name="레이어 2"><g id="레이어_1-2" data-name="레이어 1"><rect class="cls-1" width="523" height="252"/><rect class="cls-2" x="243" y="-1" width="65" height="229" rx="9.65" ry="9.65" transform="translate(389 -162) rotate(90)"/><rect class="cls-3" x="206.58" y="44.58" width="55.12" height="137.72" rx="9.65" ry="9.65" transform="translate(120.7 347.58) rotate(-90)"/><text class="cls-4" transform="translate(194.16 118.97)"><tspan class="cls-5">T</tspan><tspan x="10.33" y="0">uesday</tspan></text><rect class="cls-3" x="319.08" y="73.08" width="55.12" height="80.72" rx="9.65" ry="9.65" transform="translate(233.2 460.08) rotate(-90)"/><text></text><text class="cls-6" transform="translate(28.65 120.37)">head</text><polygon class="cls-7" points="89.67 115.18 89.93 113.5 143.88 113.34 143.62 115.03 89.67 115.18"/><polygon class="cls-7" points="140.35 118.3 141.51 110.76 152.37 114.32 140.35 118.3"/><text class="cls-6" transform="translate(205.65 68.37)">data</text><text class="cls-6" transform="translate(317.65 68.37)">next</text><text class="cls-8" transform="translate(317.56 121.4)">NULL</text><g class="cls-9"><path class="cls-10" d="M4.92,223.89a1.1,1.1,0,0,1,1.19-1.11,1.1,1.1,0,0,1,1.19,1.11A1.13,1.13,0,0,1,6.11,225,1.13,1.13,0,0,1,4.92,223.89Zm.31,3.22H7v10.2H5.23Z"/><path class="cls-10" d="M10.41,227.11h1.42l.15,1.47H12a4.86,4.86,0,0,1,3.42-1.73c2.15,0,3.12,1.39,3.12,4v6.46H16.85v-6.24c0-1.9-.58-2.72-1.93-2.72-1,0-1.76.54-2.79,1.57v7.39H10.41Z"/><path class="cls-10" d="M21.11,239.27a2.86,2.86,0,0,1,1.5-2.3v-.09a1.89,1.89,0,0,1-.92-1.67,2.47,2.47,0,0,1,1.13-1.9v-.08a3.53,3.53,0,0,1-1.32-2.74,3.62,3.62,0,0,1,3.83-3.64,4.16,4.16,0,0,1,1.44.26h3.56v1.33h-2.1a3,3,0,0,1,.83,2.1,3.49,3.49,0,0,1-3.73,3.54,3.67,3.67,0,0,1-1.52-.35,1.51,1.51,0,0,0-.66,1.21c0,.64.42,1.1,1.79,1.1h2c2.37,0,3.56.75,3.56,2.44,0,1.9-2,3.53-5.16,3.53C22.83,242,21.11,241,21.11,239.27Zm7.69-.53c0-1-.71-1.27-2.05-1.27H25a5.83,5.83,0,0,1-1.33-.15,2.12,2.12,0,0,0-1,1.71c0,1.1,1.1,1.79,3,1.79S28.8,239.8,28.8,238.74Zm-1.31-8.25a2.17,2.17,0,1,0-4.33,0,2.18,2.18,0,1,0,4.33,0Z"/><path class="cls-10" d="M31.7,239.27a2.86,2.86,0,0,1,1.5-2.3v-.09a1.89,1.89,0,0,1-.92-1.67,2.47,2.47,0,0,1,1.13-1.9v-.08a3.53,3.53,0,0,1-1.32-2.74,3.62,3.62,0,0,1,3.83-3.64,4.16,4.16,0,0,1,1.44.26h3.56v1.33h-2.1a3,3,0,0,1,.83,2.1,3.49,3.49,0,0,1-3.73,3.54,3.67,3.67,0,0,1-1.52-.35,1.51,1.51,0,0,0-.66,1.21c0,.64.42,1.1,1.79,1.1h2c2.37,0,3.56.75,3.56,2.44,0,1.9-2,3.53-5.16,3.53C33.42,242,31.7,241,31.7,239.27Zm7.69-.53c0-1-.71-1.27-2-1.27H35.58a5.83,5.83,0,0,1-1.33-.15,2.12,2.12,0,0,0-1,1.71c0,1.1,1.1,1.79,3,1.79S39.39,239.8,39.39,238.74Zm-1.31-8.25a2.17,2.17,0,1,0-4.33,0,2.18,2.18,0,1,0,4.33,0Z"/><path class="cls-10" d="M42.71,236.26a1.25,1.25,0,1,1,1.25,1.3A1.26,1.26,0,0,1,42.71,236.26Z"/><path class="cls-10" d="M48,223.89a1.2,1.2,0,0,1,2.39,0,1.2,1.2,0,0,1-2.39,0Zm.32,3.22H50v10.2H48.3Z"/><path class="cls-10" d="M52.71,232.22c0-3.4,2.23-5.37,4.73-5.37s4.73,2,4.73,5.37-2.23,5.34-4.73,5.34S52.71,235.6,52.71,232.22Zm7.68,0c0-2.34-1.19-3.93-3-3.93s-2.94,1.59-2.94,3.93,1.19,3.91,2.94,3.91S60.39,234.56,60.39,232.22Z"/></g></g></g></svg>