<svg xmlns="http://www.w3.org/2000/svg" viewBox="0 0 523 366"><defs><style>.cls-1{fill:#ccc;}.cls-2{fill:#150000;}.cls-3{fill:#00aa94;opacity:0.8;}.cls-4{font-size:23px;}.cls-4,.cls-9{fill:#fff;}.cls-4,.cls-5,.cls-9{font-family:NanumGothic, Nanum Gothic;}.cls-5,.cls-9{font-size:22px;}.cls-6{fill:#4d4d4d;}.cls-7{opacity:0.1;}.cls-8{letter-spacing:-0.1em;}.cls-10{fill:#f4001b;}.cls-11{opacity:0.5;}.cls-12{fill:#e6e6e6;}</style></defs><title>자산 2</title><g id="레이어_2" data-name="레이어 2"><g id="레이어_1-2" data-name="레이어 1"><rect class="cls-1" width="523" height="366"/><rect class="cls-2" x="270" y="-34" width="65" height="229" rx="9.65" ry="9.65" transform="translate(383 -222) rotate(90)"/><rect class="cls-3" x="233.58" y="11.58" width="55.12" height="137.72" rx="9.65" ry="9.65" transform="translate(180.7 341.58) rotate(-90)"/><text class="cls-4" transform="translate(221.16 85.97)">Monday</text><rect class="cls-3" x="346.08" y="40.08" width="55.12" height="80.72" rx="9.65" ry="9.65" transform="translate(293.2 454.08) rotate(-90)"/><text></text><text class="cls-5" transform="translate(55.65 194.37)">head</text><text class="cls-5" transform="translate(84.65 82.37)">q</text><polygon class="cls-6" points="116.67 82.18 116.93 80.5 170.88 80.34 170.62 82.03 116.67 82.18"/><polygon class="cls-6" points="167.35 85.3 168.51 77.76 179.37 81.32 167.35 85.3"/><g class="cls-7"><polygon class="cls-6" points="117.67 189.18 117.93 187.5 171.88 187.34 171.62 189.03 117.67 189.18"/><polygon class="cls-6" points="168.35 192.3 169.51 184.76 180.37 188.32 168.35 192.3"/></g><text class="cls-5" transform="translate(232.65 35.37)">data</text><text class="cls-5" transform="translate(344.65 35.37)">next</text><rect class="cls-2" x="270" y="75" width="65" height="229" rx="9.65" ry="9.65" transform="translate(492 -113) rotate(90)"/><rect class="cls-3" x="233.58" y="120.58" width="55.12" height="137.72" rx="9.65" ry="9.65" transform="translate(71.7 450.58) rotate(-90)"/><text class="cls-4" transform="translate(218 194.97)"><tspan class="cls-8">T</tspan><tspan x="10.33" y="0">uesday</tspan></text><rect class="cls-3" x="346.08" y="149.08" width="55.12" height="80.72" rx="9.65" ry="9.65" transform="translate(184.2 563.08) rotate(-90)"/><rect class="cls-2" x="270" y="183" width="65" height="229" rx="9.65" ry="9.65" transform="translate(600 -5) rotate(90)"/><rect class="cls-3" x="233.58" y="228.58" width="55.12" height="137.72" rx="9.65" ry="9.65" transform="translate(-36.3 558.58) rotate(-90)"/><text class="cls-4" transform="translate(212 302.97)">Thursday</text><rect class="cls-3" x="346.08" y="257.08" width="55.12" height="80.72" rx="9.65" ry="9.65" transform="translate(76.2 671.08) rotate(-90)"/><text class="cls-9" transform="translate(344.56 305.4)">NULL</text><polygon class="cls-10" points="363.5 217 364 218.08 313.98 257.66 313.49 256.57 363.5 217"/><polygon class="cls-10" points="315.09 252.44 317.31 257.29 305.67 263.35 315.09 252.44"/><polygon class="cls-10" points="345.5 109 346 110.08 295.98 149.66 295.49 148.57 345.5 109"/><polygon class="cls-10" points="297.09 144.44 299.31 149.29 287.67 155.35 297.09 144.44"/><polygon class="cls-10" points="118.24 186 117 184.62 188.41 113.98 189.65 115.36 118.24 186"/><polygon class="cls-10" points="188.39 121.66 182.84 115.48 200.59 103.48 188.39 121.66"/><g class="cls-11"><path class="cls-12" d="M6.92,339.89a1.1,1.1,0,0,1,1.19-1.11,1.1,1.1,0,0,1,1.19,1.11A1.13,1.13,0,0,1,8.11,341,1.13,1.13,0,0,1,6.92,339.89Zm.31,3.22H9v10.2H7.23Z"/><path class="cls-12" d="M12.41,343.11h1.42l.15,1.47H14a4.85,4.85,0,0,1,3.42-1.72c2.15,0,3.12,1.38,3.12,4v6.46H18.85v-6.24c0-1.9-.58-2.72-1.93-2.72-1,0-1.76.54-2.79,1.57v7.39H12.41Z"/><path class="cls-12" d="M23.11,355.27a2.86,2.86,0,0,1,1.5-2.3v-.09a1.88,1.88,0,0,1-.91-1.67,2.46,2.46,0,0,1,1.12-1.9v-.08a3.53,3.53,0,0,1-1.32-2.74,3.62,3.62,0,0,1,3.83-3.63,4,4,0,0,1,1.44.25h3.56v1.33h-2.1a3,3,0,0,1,.83,2.1,3.49,3.49,0,0,1-3.73,3.54,3.75,3.75,0,0,1-1.53-.35,1.52,1.52,0,0,0-.65,1.21c0,.64.42,1.1,1.79,1.1h2c2.37,0,3.56.75,3.56,2.44,0,1.9-2,3.53-5.16,3.53C24.83,358,23.11,357,23.11,355.27Zm7.69-.53c0-.95-.71-1.27-2.05-1.27H27a5.83,5.83,0,0,1-1.33-.15,2.13,2.13,0,0,0-1,1.71c0,1.1,1.1,1.79,3,1.79S30.8,355.8,30.8,354.74Zm-1.31-8.25a2.17,2.17,0,1,0-4.33,0,2.18,2.18,0,1,0,4.33,0Z"/><path class="cls-12" d="M33.7,355.27a2.86,2.86,0,0,1,1.5-2.3v-.09a1.88,1.88,0,0,1-.91-1.67,2.46,2.46,0,0,1,1.12-1.9v-.08a3.53,3.53,0,0,1-1.32-2.74,3.62,3.62,0,0,1,3.83-3.63,4,4,0,0,1,1.44.25h3.56v1.33h-2.1a3,3,0,0,1,.83,2.1,3.49,3.49,0,0,1-3.73,3.54,3.75,3.75,0,0,1-1.53-.35,1.52,1.52,0,0,0-.65,1.21c0,.64.42,1.1,1.79,1.1h2c2.37,0,3.56.75,3.56,2.44,0,1.9-2,3.53-5.16,3.53C35.42,358,33.7,357,33.7,355.27Zm7.69-.53c0-.95-.71-1.27-2-1.27H37.58a5.83,5.83,0,0,1-1.33-.15,2.13,2.13,0,0,0-1,1.71c0,1.1,1.1,1.79,3,1.79S41.39,355.8,41.39,354.74Zm-1.31-8.25a2.17,2.17,0,1,0-4.33,0,2.18,2.18,0,1,0,4.33,0Z"/><path class="cls-12" d="M44.71,352.26a1.25,1.25,0,1,1,1.25,1.3A1.26,1.26,0,0,1,44.71,352.26Z"/><path class="cls-12" d="M50,339.89a1.2,1.2,0,0,1,2.39,0,1.2,1.2,0,0,1-2.39,0Zm.32,3.22H52v10.2H50.3Z"/><path class="cls-12" d="M54.71,348.22c0-3.4,2.23-5.36,4.73-5.36s4.73,2,4.73,5.36-2.23,5.34-4.73,5.34S54.71,351.6,54.71,348.22Zm7.68,0c0-2.34-1.19-3.93-3-3.93s-2.94,1.59-2.94,3.93,1.19,3.91,2.94,3.91S62.39,350.56,62.39,348.22Z"/></g></g></g></svg>