<svg xmlns="http://www.w3.org/2000/svg" viewBox="0 0 548 366"><defs><style>.cls-1{fill:#ccc;}.cls-2{fill:#150000;}.cls-3{fill:#00aa94;opacity:0.8;}.cls-4{font-size:23px;}.cls-4,.cls-8{fill:#fff;}.cls-4,.cls-5,.cls-8{font-family:NanumGothic, Nanum Gothic;}.cls-5,.cls-8{font-size:22px;}.cls-6{fill:#4d4d4d;}.cls-7{letter-spacing:-0.1em;}.cls-9{fill:#f4001b;}.cls-10{opacity:0.5;}.cls-11{fill:#e6e6e6;}</style></defs><title>자산 1</title><g id="레이어_2" data-name="레이어 2"><g id="레이어_1-2" data-name="레이어 1"><rect class="cls-1" width="548" height="366"/><rect class="cls-2" x="274" y="-31" width="65" height="229" rx="9.65" ry="9.65" transform="translate(390 -223) rotate(90)"/><rect class="cls-3" x="237.58" y="14.58" width="55.12" height="137.72" rx="9.65" ry="9.65" transform="translate(181.7 348.58) rotate(-90)"/><text class="cls-4" transform="translate(225.16 88.97)">Monday</text><rect class="cls-3" x="350.08" y="43.08" width="55.12" height="80.72" rx="9.65" ry="9.65" transform="translate(294.2 461.08) rotate(-90)"/><text></text><text class="cls-5" transform="translate(59.65 197.37)">head</text><text class="cls-5" transform="translate(88.65 85.37)">q</text><polygon class="cls-6" points="120.67 85.18 120.93 83.5 174.88 83.34 174.62 85.03 120.67 85.18"/><polygon class="cls-6" points="171.35 88.3 172.51 80.76 183.37 84.32 171.35 88.3"/><polygon class="cls-6" points="120.67 193.18 120.93 191.5 174.88 191.34 174.62 193.03 120.67 193.18"/><polygon class="cls-6" points="171.35 196.3 172.51 188.76 183.37 192.32 171.35 196.3"/><text class="cls-5" transform="translate(236.65 38.37)">data</text><text class="cls-5" transform="translate(348.65 38.37)">next</text><rect class="cls-2" x="274" y="78" width="65" height="229" rx="9.65" ry="9.65" transform="translate(499 -114) rotate(90)"/><rect class="cls-3" x="237.58" y="123.58" width="55.12" height="137.72" rx="9.65" ry="9.65" transform="translate(72.7 457.58) rotate(-90)"/><text class="cls-4" transform="translate(225 200.97)"><tspan class="cls-7">T</tspan><tspan x="10.33" y="0">uesday</tspan></text><rect class="cls-3" x="350.08" y="152.08" width="55.12" height="80.72" rx="9.65" ry="9.65" transform="translate(185.2 570.08) rotate(-90)"/><rect class="cls-2" x="274" y="186" width="65" height="229" rx="9.65" ry="9.65" transform="translate(607 -6) rotate(90)"/><rect class="cls-3" x="237.58" y="231.58" width="55.12" height="137.72" rx="9.65" ry="9.65" transform="translate(-35.3 565.58) rotate(-90)"/><text class="cls-4" transform="translate(216 305.97)">Thursday</text><rect class="cls-3" x="350.08" y="260.08" width="55.12" height="80.72" rx="9.65" ry="9.65" transform="translate(77.2 678.08) rotate(-90)"/><text class="cls-8" transform="translate(348.56 308.4)">NULL</text><polygon class="cls-9" points="367.5 220 368 221.08 317.98 260.66 317.49 259.57 367.5 220"/><polygon class="cls-9" points="319.09 255.44 321.31 260.29 309.67 266.35 319.09 255.44"/><polygon class="cls-9" points="349.5 112 350 113.08 299.98 152.66 299.49 151.57 349.5 112"/><polygon class="cls-9" points="301.09 147.44 303.31 152.29 291.67 158.35 301.09 147.44"/><g class="cls-10"><path class="cls-11" d="M7.92,339.89a1.1,1.1,0,0,1,1.19-1.11,1.1,1.1,0,0,1,1.19,1.11A1.13,1.13,0,0,1,9.11,341,1.13,1.13,0,0,1,7.92,339.89Zm.31,3.22H10v10.2H8.23Z"/><path class="cls-11" d="M13.41,343.11h1.42l.15,1.47H15a4.85,4.85,0,0,1,3.42-1.72c2.15,0,3.12,1.38,3.12,4v6.46H19.85v-6.24c0-1.9-.58-2.72-1.93-2.72-1,0-1.76.54-2.79,1.57v7.39H13.41Z"/><path class="cls-11" d="M24.11,355.27a2.86,2.86,0,0,1,1.5-2.3v-.09a1.89,1.89,0,0,1-.92-1.67,2.47,2.47,0,0,1,1.13-1.9v-.08a3.53,3.53,0,0,1-1.32-2.74,3.62,3.62,0,0,1,3.83-3.63,4,4,0,0,1,1.44.25h3.56v1.33h-2.1a3,3,0,0,1,.83,2.1,3.49,3.49,0,0,1-3.73,3.54,3.67,3.67,0,0,1-1.52-.35,1.51,1.51,0,0,0-.66,1.21c0,.64.42,1.1,1.79,1.1h2c2.37,0,3.56.75,3.56,2.44,0,1.9-2,3.53-5.16,3.53C25.83,358,24.11,357,24.11,355.27Zm7.69-.53c0-.95-.71-1.27-2.05-1.27H28a5.83,5.83,0,0,1-1.33-.15,2.13,2.13,0,0,0-1,1.71c0,1.1,1.1,1.79,3,1.79S31.8,355.8,31.8,354.74Zm-1.31-8.25a2.17,2.17,0,1,0-4.33,0,2.18,2.18,0,1,0,4.33,0Z"/><path class="cls-11" d="M34.7,355.27a2.86,2.86,0,0,1,1.5-2.3v-.09a1.89,1.89,0,0,1-.92-1.67,2.47,2.47,0,0,1,1.13-1.9v-.08a3.53,3.53,0,0,1-1.32-2.74,3.62,3.62,0,0,1,3.83-3.63,4,4,0,0,1,1.44.25h3.56v1.33h-2.1a3,3,0,0,1,.83,2.1,3.49,3.49,0,0,1-3.73,3.54,3.67,3.67,0,0,1-1.52-.35,1.51,1.51,0,0,0-.66,1.21c0,.64.42,1.1,1.79,1.1h2c2.37,0,3.56.75,3.56,2.44,0,1.9-2,3.53-5.16,3.53C36.42,358,34.7,357,34.7,355.27Zm7.69-.53c0-.95-.71-1.27-2-1.27H38.58a5.83,5.83,0,0,1-1.33-.15,2.13,2.13,0,0,0-1,1.71c0,1.1,1.1,1.79,3,1.79S42.39,355.8,42.39,354.74Zm-1.31-8.25a2.17,2.17,0,1,0-4.33,0,2.18,2.18,0,1,0,4.33,0Z"/><path class="cls-11" d="M45.71,352.26a1.25,1.25,0,1,1,1.25,1.3A1.26,1.26,0,0,1,45.71,352.26Z"/><path class="cls-11" d="M51,339.89a1.2,1.2,0,0,1,2.39,0,1.2,1.2,0,0,1-2.39,0Zm.32,3.22H53v10.2H51.3Z"/><path class="cls-11" d="M55.71,348.22c0-3.4,2.23-5.36,4.73-5.36s4.73,2,4.73,5.36-2.23,5.34-4.73,5.34S55.71,351.6,55.71,348.22Zm7.68,0c0-2.34-1.19-3.93-3-3.93s-2.94,1.59-2.94,3.93,1.19,3.91,2.94,3.91S63.39,350.56,63.39,348.22Z"/></g></g></g></svg>