<svg xmlns="http://www.w3.org/2000/svg" viewBox="0 0 536 366"><defs><style>.cls-1{fill:#ccc;}.cls-2{fill:#150000;}.cls-3{fill:#00aa94;opacity:0.8;}.cls-4{font-size:23px;}.cls-4,.cls-8{fill:#fff;}.cls-4,.cls-5,.cls-8{font-family:NanumGothic, Nanum Gothic;}.cls-5,.cls-8{font-size:22px;}.cls-6{fill:#4d4d4d;}.cls-7{letter-spacing:-0.1em;}.cls-9{fill:#f4001b;}.cls-10{opacity:0.5;}.cls-11{fill:#e6e6e6;}</style></defs><title>자산 4</title><g id="레이어_2" data-name="레이어 2"><g id="레이어_1-2" data-name="레이어 1"><rect class="cls-1" width="536" height="366"/><rect class="cls-2" x="292" y="-28" width="65" height="229" rx="9.65" ry="9.65" transform="translate(411 -238) rotate(90)"/><rect class="cls-3" x="255.58" y="17.58" width="55.12" height="137.72" rx="9.65" ry="9.65" transform="translate(196.7 369.58) rotate(-90)"/><text class="cls-4" transform="translate(243.16 91.97)">Monday</text><rect class="cls-3" x="368.08" y="46.08" width="55.12" height="80.72" rx="9.65" ry="9.65" transform="translate(309.2 482.08) rotate(-90)"/><text></text><text class="cls-5" transform="translate(77.65 200.37)">head</text><text class="cls-5" transform="translate(106.65 88.37)">q</text><polygon class="cls-6" points="138.67 88.18 138.93 86.5 192.88 86.34 192.62 88.03 138.67 88.18"/><polygon class="cls-6" points="189.35 91.3 190.51 83.76 201.37 87.32 189.35 91.3"/><polygon class="cls-6" points="138.67 196.18 138.93 194.5 192.88 194.34 192.62 196.03 138.67 196.18"/><polygon class="cls-6" points="189.35 199.3 190.51 191.76 201.37 195.32 189.35 199.3"/><text class="cls-5" transform="translate(254.65 41.37)">data</text><text class="cls-5" transform="translate(366.65 41.37)">next</text><rect class="cls-2" x="292" y="81" width="65" height="229" rx="9.65" ry="9.65" transform="translate(520 -129) rotate(90)"/><rect class="cls-3" x="255.58" y="126.58" width="55.12" height="137.72" rx="9.65" ry="9.65" transform="translate(87.7 478.58) rotate(-90)"/><text class="cls-4" transform="translate(243 200.97)"><tspan class="cls-7">T</tspan><tspan x="10.33" y="0">uesday</tspan></text><rect class="cls-3" x="368.08" y="155.08" width="55.12" height="80.72" rx="9.65" ry="9.65" transform="translate(200.2 591.08) rotate(-90)"/><rect class="cls-2" x="292" y="189" width="65" height="229" rx="9.65" ry="9.65" transform="translate(628 -21) rotate(90)"/><rect class="cls-3" x="255.58" y="234.58" width="55.12" height="137.72" rx="9.65" ry="9.65" transform="translate(-20.3 586.58) rotate(-90)"/><text class="cls-4" transform="translate(234 308.97)">Thursday</text><rect class="cls-3" x="368.08" y="263.08" width="55.12" height="80.72" rx="9.65" ry="9.65" transform="translate(92.2 699.08) rotate(-90)"/><text class="cls-8" transform="translate(366.56 311.4)">NULL</text><polygon class="cls-9" points="385.5 223 386 224.08 335.98 263.66 335.49 262.57 385.5 223"/><polygon class="cls-9" points="337.09 258.44 339.31 263.29 327.67 269.35 337.09 258.44"/><g class="cls-10"><path class="cls-11" d="M11.92,334.89a1.1,1.1,0,0,1,1.19-1.11,1.1,1.1,0,0,1,1.19,1.11,1.19,1.19,0,0,1-2.38,0Zm.31,3.22H14v10.2H12.23Z"/><path class="cls-11" d="M17.41,338.11h1.42l.15,1.47H19a4.85,4.85,0,0,1,3.42-1.72c2.15,0,3.12,1.38,3.12,4v6.46H23.85v-6.24c0-1.9-.58-2.72-1.93-2.72-1,0-1.76.54-2.79,1.57v7.39H17.41Z"/><path class="cls-11" d="M28.11,350.27a2.86,2.86,0,0,1,1.5-2.3v-.09a1.89,1.89,0,0,1-.92-1.67,2.47,2.47,0,0,1,1.13-1.9v-.08a3.53,3.53,0,0,1-1.32-2.74,3.62,3.62,0,0,1,3.83-3.63,4,4,0,0,1,1.44.25h3.56v1.33h-2.1a3,3,0,0,1,.83,2.1,3.49,3.49,0,0,1-3.73,3.54,3.67,3.67,0,0,1-1.52-.35,1.51,1.51,0,0,0-.66,1.21c0,.64.42,1.1,1.79,1.1h2c2.37,0,3.56.75,3.56,2.44,0,1.9-2,3.53-5.16,3.53C29.83,353,28.11,352,28.11,350.27Zm7.69-.53c0-.95-.71-1.27-2-1.27H32a5.83,5.83,0,0,1-1.33-.15,2.13,2.13,0,0,0-1,1.71c0,1.1,1.1,1.79,3,1.79S35.8,350.8,35.8,349.74Zm-1.31-8.25a2.17,2.17,0,1,0-4.33,0,2.18,2.18,0,1,0,4.33,0Z"/><path class="cls-11" d="M38.7,350.27a2.86,2.86,0,0,1,1.5-2.3v-.09a1.89,1.89,0,0,1-.92-1.67,2.47,2.47,0,0,1,1.13-1.9v-.08a3.53,3.53,0,0,1-1.32-2.74,3.62,3.62,0,0,1,3.83-3.63,4,4,0,0,1,1.44.25h3.56v1.33h-2.1a3,3,0,0,1,.83,2.1,3.49,3.49,0,0,1-3.73,3.54,3.67,3.67,0,0,1-1.52-.35,1.51,1.51,0,0,0-.66,1.21c0,.64.42,1.1,1.79,1.1h2c2.37,0,3.56.75,3.56,2.44,0,1.9-2,3.53-5.16,3.53C40.42,353,38.7,352,38.7,350.27Zm7.69-.53c0-.95-.71-1.27-2-1.27H42.58a5.83,5.83,0,0,1-1.33-.15,2.13,2.13,0,0,0-1,1.71c0,1.1,1.1,1.79,3,1.79S46.39,350.8,46.39,349.74Zm-1.31-8.25a2.17,2.17,0,1,0-4.33,0,2.18,2.18,0,1,0,4.33,0Z"/><path class="cls-11" d="M49.71,347.26a1.25,1.25,0,1,1,1.25,1.3A1.26,1.26,0,0,1,49.71,347.26Z"/><path class="cls-11" d="M55,334.89a1.2,1.2,0,0,1,2.39,0,1.2,1.2,0,0,1-2.39,0Zm.32,3.22H57v10.2H55.3Z"/><path class="cls-11" d="M59.71,343.22c0-3.4,2.23-5.36,4.73-5.36s4.73,2,4.73,5.36-2.23,5.34-4.73,5.34S59.71,346.6,59.71,343.22Zm7.68,0c0-2.34-1.19-3.93-3-3.93s-2.94,1.59-2.94,3.93,1.19,3.91,2.94,3.91S67.39,345.56,67.39,343.22Z"/></g></g></g></svg>