<svg xmlns="http://www.w3.org/2000/svg" viewBox="0 0 480 182"><defs><style>.cls-1{fill:#ccc;}.cls-2{fill:#150000;}.cls-3{fill:#7500f4;opacity:0.8;}.cls-4{font-size:23px;}.cls-4,.cls-6{fill:#fff;}.cls-4,.cls-6,.cls-7{font-family:NanumGothic, Nanum Gothic;}.cls-5{letter-spacing:-0.1em;}.cls-6,.cls-7{font-size:22px;}.cls-8{fill:#4d4d4d;}.cls-9{opacity:0.5;}.cls-10{fill:#e6e6e6;}</style></defs><title>자산 1</title><g id="레이어_2" data-name="레이어 2"><g id="레이어_1-2" data-name="레이어 1"><rect class="cls-1" width="480" height="182"/><rect class="cls-2" x="257" y="-20" width="65" height="229" rx="9.65" ry="9.65" transform="translate(384 -195) rotate(90)"/><rect class="cls-3" x="220.58" y="25.58" width="55.12" height="137.72" rx="9.65" ry="9.65" transform="translate(153.7 342.58) rotate(-90)"/><text class="cls-4" transform="translate(208.16 99.97)"><tspan class="cls-5">T</tspan><tspan x="10.33" y="0">uesday</tspan></text><rect class="cls-3" x="333.08" y="54.08" width="55.12" height="80.72" rx="9.65" ry="9.65" transform="translate(266.2 455.08) rotate(-90)"/><text class="cls-6" transform="translate(331.56 102.4)">NULL</text><text class="cls-7" transform="translate(42.65 101.37)">head</text><polygon class="cls-8" points="103.67 96.18 103.93 94.5 157.88 94.34 157.62 96.03 103.67 96.18"/><polygon class="cls-8" points="154.35 99.3 155.51 91.76 166.37 95.32 154.35 99.3"/><text class="cls-7" transform="translate(219.65 49.37)">data</text><text class="cls-7" transform="translate(331.65 49.37)">next</text><g class="cls-9"><path class="cls-10" d="M9.92,152.89a1.1,1.1,0,0,1,1.19-1.11,1.1,1.1,0,0,1,1.19,1.11A1.13,1.13,0,0,1,11.11,154,1.13,1.13,0,0,1,9.92,152.89Zm.31,3.22H12v10.2H10.23Z"/><path class="cls-10" d="M15.41,156.11h1.42l.15,1.47H17a4.85,4.85,0,0,1,3.42-1.72c2.15,0,3.12,1.38,3.12,4v6.46H21.85v-6.24c0-1.9-.58-2.72-1.93-2.72-1,0-1.76.54-2.79,1.57v7.39H15.41Z"/><path class="cls-10" d="M26.11,168.27a2.86,2.86,0,0,1,1.5-2.3v-.09a1.89,1.89,0,0,1-.92-1.67,2.47,2.47,0,0,1,1.13-1.9v-.08a3.53,3.53,0,0,1-1.32-2.74,3.62,3.62,0,0,1,3.83-3.63,4,4,0,0,1,1.44.25h3.56v1.33h-2.1a3,3,0,0,1,.83,2.1,3.49,3.49,0,0,1-3.73,3.54,3.67,3.67,0,0,1-1.52-.35,1.51,1.51,0,0,0-.66,1.21c0,.64.42,1.1,1.79,1.1h2c2.37,0,3.56.75,3.56,2.44,0,1.9-2,3.53-5.16,3.53C27.83,171,26.11,170,26.11,168.27Zm7.69-.53c0-1-.71-1.27-2-1.27H30a5.83,5.83,0,0,1-1.33-.15,2.13,2.13,0,0,0-1,1.71c0,1.1,1.1,1.79,3,1.79S33.8,168.8,33.8,167.74Zm-1.31-8.25a2.17,2.17,0,1,0-4.33,0,2.18,2.18,0,1,0,4.33,0Z"/><path class="cls-10" d="M36.7,168.27a2.86,2.86,0,0,1,1.5-2.3v-.09a1.89,1.89,0,0,1-.92-1.67,2.47,2.47,0,0,1,1.13-1.9v-.08a3.53,3.53,0,0,1-1.32-2.74,3.62,3.62,0,0,1,3.83-3.63,4,4,0,0,1,1.44.25h3.56v1.33h-2.1a3,3,0,0,1,.83,2.1,3.49,3.49,0,0,1-3.73,3.54,3.67,3.67,0,0,1-1.52-.35,1.51,1.51,0,0,0-.66,1.21c0,.64.42,1.1,1.79,1.1h2c2.37,0,3.56.75,3.56,2.44,0,1.9-2,3.53-5.16,3.53C38.42,171,36.7,170,36.7,168.27Zm7.69-.53c0-1-.71-1.27-2-1.27H40.58a5.83,5.83,0,0,1-1.33-.15,2.13,2.13,0,0,0-1,1.71c0,1.1,1.1,1.79,3,1.79S44.39,168.8,44.39,167.74Zm-1.31-8.25a2.17,2.17,0,1,0-4.33,0,2.18,2.18,0,1,0,4.33,0Z"/><path class="cls-10" d="M47.71,165.26a1.25,1.25,0,1,1,1.25,1.3A1.26,1.26,0,0,1,47.71,165.26Z"/><path class="cls-10" d="M53,152.89a1.2,1.2,0,0,1,2.39,0,1.2,1.2,0,0,1-2.39,0Zm.32,3.22H55v10.2H53.3Z"/><path class="cls-10" d="M57.71,161.22c0-3.4,2.23-5.36,4.73-5.36s4.73,2,4.73,5.36-2.23,5.34-4.73,5.34S57.71,164.6,57.71,161.22Zm7.68,0c0-2.34-1.19-3.93-3-3.93s-2.94,1.59-2.94,3.93,1.19,3.91,2.94,3.91S65.39,163.56,65.39,161.22Z"/></g></g></g></svg>