<svg xmlns="http://www.w3.org/2000/svg" viewBox="0 0 523 252"><defs><style>.cls-1{fill:#ccc;}.cls-2{fill:#150000;}.cls-3{fill:#00aa94;opacity:0.8;}.cls-4{font-size:23px;}.cls-10,.cls-4{fill:#fff;}.cls-10,.cls-4,.cls-6{font-family:NanumGothic, Nanum Gothic;}.cls-5{letter-spacing:-0.1em;}.cls-10,.cls-6{font-size:22px;}.cls-7{fill:#4d4d4d;}.cls-8{opacity:0.5;}.cls-9{fill:#e6e6e6;}.cls-11{fill:#f4001b;}</style></defs><title>자산 3</title><g id="레이어_2" data-name="레이어 2"><g id="레이어_1-2" data-name="레이어 1"><rect class="cls-1" width="523" height="252"/><rect class="cls-2" x="291" y="-31" width="65" height="229" rx="9.65" ry="9.65" transform="translate(407 -240) rotate(90)"/><rect class="cls-3" x="254.58" y="14.58" width="55.12" height="137.72" rx="9.65" ry="9.65" transform="translate(198.7 365.58) rotate(-90)"/><text class="cls-4" transform="translate(242.16 88.97)"><tspan class="cls-5">T</tspan><tspan x="10.33" y="0">uesday</tspan></text><rect class="cls-3" x="367.08" y="43.08" width="55.12" height="80.72" rx="9.65" ry="9.65" transform="translate(311.2 478.08) rotate(-90)"/><text></text><text class="cls-6" transform="translate(76.65 90.37)">head</text><text class="cls-6" transform="translate(105.65 197.37)">q</text><polygon class="cls-7" points="137.67 85.18 137.93 83.5 191.88 83.34 191.62 85.03 137.67 85.18"/><polygon class="cls-7" points="188.35 88.3 189.51 80.76 200.37 84.32 188.35 88.3"/><polygon class="cls-7" points="137.67 193.18 137.93 191.5 191.88 191.34 191.62 193.03 137.67 193.18"/><polygon class="cls-7" points="188.35 196.3 189.51 188.76 200.37 192.32 188.35 196.3"/><text class="cls-6" transform="translate(253.65 38.37)">data</text><text class="cls-6" transform="translate(365.65 38.37)">next</text><g class="cls-8"><path class="cls-9" d="M6.92,224.89a1.1,1.1,0,0,1,1.19-1.11,1.1,1.1,0,0,1,1.19,1.11A1.13,1.13,0,0,1,8.11,226,1.13,1.13,0,0,1,6.92,224.89Zm.31,3.22H9v10.2H7.23Z"/><path class="cls-9" d="M12.41,228.11h1.42l.15,1.47H14a4.85,4.85,0,0,1,3.42-1.72c2.15,0,3.12,1.38,3.12,4v6.46H18.85v-6.24c0-1.9-.58-2.72-1.93-2.72-1,0-1.76.54-2.79,1.57v7.39H12.41Z"/><path class="cls-9" d="M23.11,240.27a2.86,2.86,0,0,1,1.5-2.3v-.09a1.89,1.89,0,0,1-.92-1.67,2.47,2.47,0,0,1,1.13-1.9v-.08a3.53,3.53,0,0,1-1.32-2.74,3.62,3.62,0,0,1,3.83-3.63,4,4,0,0,1,1.44.25h3.56v1.33h-2.1a3,3,0,0,1,.83,2.1,3.49,3.49,0,0,1-3.73,3.54,3.67,3.67,0,0,1-1.52-.35,1.51,1.51,0,0,0-.66,1.21c0,.64.42,1.1,1.79,1.1h2c2.37,0,3.56.75,3.56,2.44,0,1.9-2,3.53-5.16,3.53C24.83,243,23.11,242,23.11,240.27Zm7.69-.53c0-1-.71-1.27-2.05-1.27H27a5.83,5.83,0,0,1-1.33-.15,2.13,2.13,0,0,0-1,1.71c0,1.1,1.1,1.79,3,1.79S30.8,240.8,30.8,239.74Zm-1.31-8.25a2.17,2.17,0,1,0-4.33,0,2.18,2.18,0,1,0,4.33,0Z"/><path class="cls-9" d="M33.7,240.27a2.86,2.86,0,0,1,1.5-2.3v-.09a1.89,1.89,0,0,1-.92-1.67,2.47,2.47,0,0,1,1.13-1.9v-.08a3.53,3.53,0,0,1-1.32-2.74,3.62,3.62,0,0,1,3.83-3.63,4,4,0,0,1,1.44.25h3.56v1.33h-2.1a3,3,0,0,1,.83,2.1,3.49,3.49,0,0,1-3.73,3.54,3.67,3.67,0,0,1-1.52-.35,1.51,1.51,0,0,0-.66,1.21c0,.64.42,1.1,1.79,1.1h2c2.37,0,3.56.75,3.56,2.44,0,1.9-2,3.53-5.16,3.53C35.42,243,33.7,242,33.7,240.27Zm7.69-.53c0-1-.71-1.27-2-1.27H37.58a5.83,5.83,0,0,1-1.33-.15,2.13,2.13,0,0,0-1,1.71c0,1.1,1.1,1.79,3,1.79S41.39,240.8,41.39,239.74Zm-1.31-8.25a2.17,2.17,0,1,0-4.33,0,2.18,2.18,0,1,0,4.33,0Z"/><path class="cls-9" d="M44.71,237.26a1.25,1.25,0,1,1,1.25,1.3A1.26,1.26,0,0,1,44.71,237.26Z"/><path class="cls-9" d="M50,224.89a1.2,1.2,0,0,1,2.39,0,1.2,1.2,0,0,1-2.39,0Zm.32,3.22H52v10.2H50.3Z"/><path class="cls-9" d="M54.71,233.22c0-3.4,2.23-5.36,4.73-5.36s4.73,2,4.73,5.36-2.23,5.34-4.73,5.34S54.71,236.6,54.71,233.22Zm7.68,0c0-2.34-1.19-3.93-3-3.93s-2.94,1.59-2.94,3.93,1.19,3.91,2.94,3.91S62.39,235.56,62.39,233.22Z"/></g><rect class="cls-2" x="291" y="78" width="65" height="229" rx="9.65" ry="9.65" transform="translate(516 -131) rotate(90)"/><rect class="cls-3" x="254.58" y="123.58" width="55.12" height="137.72" rx="9.65" ry="9.65" transform="translate(89.7 474.58) rotate(-90)"/><text class="cls-4" transform="translate(233 197.97)">Thursday</text><rect class="cls-3" x="367.08" y="152.08" width="55.12" height="80.72" rx="9.65" ry="9.65" transform="translate(202.2 587.08) rotate(-90)"/><text class="cls-10" transform="translate(365.56 200.4)">NULL</text><polygon class="cls-11" points="384.5 112 385 113.08 334.98 152.66 334.49 151.57 384.5 112"/><polygon class="cls-11" points="336.09 147.44 338.31 152.29 326.67 158.35 336.09 147.44"/></g></g></svg>