<svg xmlns="http://www.w3.org/2000/svg" viewBox="0 0 561 355"><defs><style>.cls-1{fill:#ccc;}.cls-2{fill:#150000;}.cls-3{fill:#00aa94;opacity:0.8;}.cls-4{font-size:23px;}.cls-4,.cls-7{fill:#fff;}.cls-4,.cls-5,.cls-7{font-family:NanumGothic, Nanum Gothic;}.cls-5,.cls-7{font-size:22px;}.cls-6{letter-spacing:-0.1em;}.cls-8{fill:#f4001b;}.cls-9{opacity:0.5;}.cls-10{fill:#e6e6e6;}</style></defs><title>자산 1</title><g id="레이어_2" data-name="레이어 2"><g id="레이어_1-2" data-name="레이어 1"><rect class="cls-1" width="561" height="355"/><rect class="cls-2" x="257" y="-31" width="65" height="229" rx="9.65" ry="9.65" transform="translate(373 -206) rotate(90)"/><rect class="cls-3" x="220.58" y="14.58" width="55.12" height="137.72" rx="9.65" ry="9.65" transform="translate(164.7 331.58) rotate(-90)"/><text class="cls-4" transform="translate(208.16 88.97)">Monday</text><rect class="cls-3" x="333.08" y="43.08" width="55.12" height="80.72" rx="9.65" ry="9.65" transform="translate(277.2 444.08) rotate(-90)"/><text></text><text class="cls-5" transform="translate(42.65 90.37)">head</text><text class="cls-5" transform="translate(516.65 188.37)">p</text><polygon points="103.67 85.18 103.93 83.5 157.88 83.34 157.62 85.03 103.67 85.18"/><polygon points="154.35 88.3 155.51 80.76 166.37 84.32 154.35 88.3"/><text class="cls-5" transform="translate(219.65 38.37)">data</text><text class="cls-5" transform="translate(331.65 38.37)">next</text><rect class="cls-2" x="257" y="78" width="65" height="229" rx="9.65" ry="9.65" transform="translate(482 -97) rotate(90)"/><rect class="cls-3" x="220.58" y="123.58" width="55.12" height="137.72" rx="9.65" ry="9.65" transform="translate(55.7 440.58) rotate(-90)"/><text class="cls-4" transform="translate(199 197.97)"><tspan class="cls-6">T</tspan><tspan x="10.33" y="0">uesday</tspan></text><rect class="cls-3" x="333.08" y="152.08" width="55.12" height="80.72" rx="9.65" ry="9.65" transform="translate(168.2 553.08) rotate(-90)"/><rect class="cls-2" x="257" y="186" width="65" height="229" rx="9.65" ry="9.65" transform="translate(590 11) rotate(90)"/><rect class="cls-3" x="220.58" y="231.58" width="55.12" height="137.72" rx="9.65" ry="9.65" transform="translate(-52.3 548.58) rotate(-90)"/><text class="cls-4" transform="translate(199 305.97)">Thursday</text><rect class="cls-3" x="333.08" y="260.08" width="55.12" height="80.72" rx="9.65" ry="9.65" transform="translate(60.2 661.08) rotate(-90)"/><text class="cls-7" transform="translate(331.56 308.4)">NULL</text><polygon points="350.5 220 351 221.08 300.98 260.66 300.49 259.57 350.5 220"/><polygon points="302.09 255.44 304.31 260.29 292.67 266.35 302.09 255.44"/><polygon points="332.5 112 333 113.08 282.98 152.66 282.49 151.57 332.5 112"/><polygon points="284.09 147.44 286.31 152.29 274.67 158.35 284.09 147.44"/><polygon class="cls-8" points="509.1 203 510 204.75 419.1 268.78 418.2 267.03 509.1 203"/><polygon class="cls-8" points="421.12 260.35 425.15 268.2 404 278 421.12 260.35"/><polygon class="cls-8" points="506.35 160.38 504.94 161.76 416.98 93.74 418.39 92.37 506.35 160.38"/><polygon class="cls-8" points="425.64 93.19 419.32 99.35 403.73 82.02 425.64 93.19"/><polygon class="cls-8" points="506 187.25 505.82 188.26 418.05 189.62 418.23 188.6 506 187.25"/><polygon class="cls-8" points="423.08 186.57 422.28 191.1 404.1 189.23 423.08 186.57"/><g class="cls-9"><path class="cls-10" d="M5.92,326.89a1.1,1.1,0,0,1,1.19-1.11,1.1,1.1,0,0,1,1.19,1.11A1.13,1.13,0,0,1,7.11,328,1.13,1.13,0,0,1,5.92,326.89Zm.31,3.22H8v10.2H6.23Z"/><path class="cls-10" d="M11.41,330.11h1.42l.15,1.47H13a4.85,4.85,0,0,1,3.42-1.72c2.15,0,3.12,1.38,3.12,4v6.46H17.85v-6.24c0-1.9-.58-2.72-1.93-2.72-1,0-1.76.54-2.79,1.57v7.39H11.41Z"/><path class="cls-10" d="M22.11,342.27a2.86,2.86,0,0,1,1.5-2.3v-.09a1.89,1.89,0,0,1-.92-1.67,2.47,2.47,0,0,1,1.13-1.9v-.08a3.53,3.53,0,0,1-1.32-2.74,3.62,3.62,0,0,1,3.83-3.63,4,4,0,0,1,1.44.25h3.56v1.33h-2.1a3,3,0,0,1,.83,2.1,3.49,3.49,0,0,1-3.73,3.54,3.67,3.67,0,0,1-1.52-.35,1.51,1.51,0,0,0-.66,1.21c0,.64.42,1.1,1.79,1.1h2c2.37,0,3.56.75,3.56,2.44,0,1.9-2,3.53-5.16,3.53C23.83,345,22.11,344,22.11,342.27Zm7.69-.53c0-.95-.71-1.27-2.05-1.27H26a5.83,5.83,0,0,1-1.33-.15,2.13,2.13,0,0,0-1,1.71c0,1.1,1.1,1.79,3,1.79S29.8,342.8,29.8,341.74Zm-1.31-8.25a2.17,2.17,0,1,0-4.33,0,2.18,2.18,0,1,0,4.33,0Z"/><path class="cls-10" d="M32.7,342.27a2.86,2.86,0,0,1,1.5-2.3v-.09a1.89,1.89,0,0,1-.92-1.67,2.47,2.47,0,0,1,1.13-1.9v-.08a3.53,3.53,0,0,1-1.32-2.74,3.62,3.62,0,0,1,3.83-3.63,4,4,0,0,1,1.44.25h3.56v1.33h-2.1a3,3,0,0,1,.83,2.1,3.49,3.49,0,0,1-3.73,3.54,3.67,3.67,0,0,1-1.52-.35,1.51,1.51,0,0,0-.66,1.21c0,.64.42,1.1,1.79,1.1h2c2.37,0,3.56.75,3.56,2.44,0,1.9-2,3.53-5.16,3.53C34.42,345,32.7,344,32.7,342.27Zm7.69-.53c0-.95-.71-1.27-2-1.27H36.58a5.83,5.83,0,0,1-1.33-.15,2.13,2.13,0,0,0-1,1.71c0,1.1,1.1,1.79,3,1.79S40.39,342.8,40.39,341.74Zm-1.31-8.25a2.17,2.17,0,1,0-4.33,0,2.18,2.18,0,1,0,4.33,0Z"/><path class="cls-10" d="M43.71,339.26a1.25,1.25,0,1,1,1.25,1.3A1.26,1.26,0,0,1,43.71,339.26Z"/><path class="cls-10" d="M49,326.89a1.2,1.2,0,0,1,2.39,0,1.2,1.2,0,0,1-2.39,0Zm.32,3.22H51v10.2H49.3Z"/><path class="cls-10" d="M53.71,335.22c0-3.4,2.23-5.36,4.73-5.36s4.73,2,4.73,5.36-2.23,5.34-4.73,5.34S53.71,338.6,53.71,335.22Zm7.68,0c0-2.34-1.19-3.93-3-3.93s-2.94,1.59-2.94,3.93,1.19,3.91,2.94,3.91S61.39,337.56,61.39,335.22Z"/></g></g></g></svg>