<svg xmlns="http://www.w3.org/2000/svg" viewBox="0 0 717 264.01"><defs><style>.cls-1{opacity:0.5;}.cls-2{fill:#666;}.cls-3{fill:none;}.cls-3,.cls-4{stroke:#000;stroke-miterlimit:10;}.cls-4{fill:#00aa94;opacity:0.8;}.cls-5{font-size:12px;font-family:AdobeMyungjoStd-Medium-KSCpc-EUC-H, Adobe Myungjo Std;}.cls-6{font-size:14px;font-family:NanumGothic, Nanum Gothic;}</style></defs><title>자산 17</title><g id="레이어_2" data-name="레이어 2"><g id="레이어_1-2" data-name="레이어 1"><g class="cls-1"><path class="cls-2" d="M655.92,245.89a1.19,1.19,0,0,1,2.38,0,1.19,1.19,0,0,1-2.38,0Zm.31,3.22H658v10.2h-1.73Z"/><path class="cls-2" d="M661.41,249.11h1.42l.15,1.47H663a4.85,4.85,0,0,1,3.42-1.72c2.15,0,3.12,1.38,3.12,4v6.46h-1.73v-6.24c0-1.9-.58-2.72-1.93-2.72-1,0-1.76.54-2.79,1.57v7.39h-1.72Z"/><path class="cls-2" d="M672.11,261.27a2.86,2.86,0,0,1,1.5-2.3v-.09a1.88,1.88,0,0,1-.91-1.67,2.46,2.46,0,0,1,1.12-1.9v-.08a3.53,3.53,0,0,1-1.32-2.74,3.62,3.62,0,0,1,3.83-3.63,4,4,0,0,1,1.44.25h3.56v1.33h-2.1a3,3,0,0,1,.83,2.1,3.49,3.49,0,0,1-3.73,3.54,3.75,3.75,0,0,1-1.53-.35,1.52,1.52,0,0,0-.65,1.21c0,.64.42,1.1,1.79,1.1h2c2.37,0,3.56.75,3.56,2.44,0,1.9-2,3.53-5.16,3.53C673.83,264,672.11,263,672.11,261.27Zm7.69-.53c0-.95-.71-1.27-2-1.27H676a5.83,5.83,0,0,1-1.33-.15,2.13,2.13,0,0,0-1,1.71c0,1.1,1.1,1.79,3,1.79S679.8,261.8,679.8,260.74Zm-1.31-8.25a2.17,2.17,0,1,0-4.33,0,2.18,2.18,0,1,0,4.33,0Z"/><path class="cls-2" d="M682.7,261.27a2.86,2.86,0,0,1,1.5-2.3v-.09a1.88,1.88,0,0,1-.91-1.67,2.46,2.46,0,0,1,1.12-1.9v-.08a3.53,3.53,0,0,1-1.32-2.74,3.62,3.62,0,0,1,3.83-3.63,4,4,0,0,1,1.44.25h3.56v1.33h-2.1a3,3,0,0,1,.83,2.1,3.49,3.49,0,0,1-3.73,3.54,3.75,3.75,0,0,1-1.53-.35,1.52,1.52,0,0,0-.65,1.21c0,.64.42,1.1,1.79,1.1h2c2.37,0,3.56.75,3.56,2.44,0,1.9-2,3.53-5.16,3.53C684.42,264,682.7,263,682.7,261.27Zm7.69-.53c0-.95-.71-1.27-2-1.27h-1.76a5.83,5.83,0,0,1-1.33-.15,2.13,2.13,0,0,0-1,1.71c0,1.1,1.1,1.79,3,1.79S690.39,261.8,690.39,260.74Zm-1.31-8.25a2.17,2.17,0,1,0-4.33,0,2.18,2.18,0,1,0,4.33,0Z"/><path class="cls-2" d="M693.71,258.26a1.25,1.25,0,1,1,1.25,1.3A1.26,1.26,0,0,1,693.71,258.26Z"/><path class="cls-2" d="M699,245.89a1.2,1.2,0,0,1,2.39,0,1.2,1.2,0,0,1-2.39,0Zm.32,3.22H701v10.2H699.3Z"/><path class="cls-2" d="M703.71,254.22c0-3.4,2.23-5.36,4.73-5.36s4.73,2,4.73,5.36-2.23,5.34-4.73,5.34S703.71,257.6,703.71,254.22Zm7.68,0c0-2.34-1.19-3.93-2.95-3.93s-2.94,1.59-2.94,3.93,1.19,3.91,2.94,3.91S711.39,256.56,711.39,254.22Z"/></g><line class="cls-3" x1="258.5" y1="122.5" x2="52.5" y2="123.5"/><line class="cls-3" x1="132.5" y1="39.5" x2="46.5" y2="105.5"/><line class="cls-3" x1="46.5" y1="138.5" x2="132.5" y2="208.5"/><line class="cls-3" x1="264.5" y1="138.5" x2="178.5" y2="208.5"/><line class="cls-3" x1="178.5" y1="39.5" x2="264.5" y2="105.5"/><rect class="cls-4" x="129.5" y="0.5" width="52" height="52" rx="26" ry="26" transform="translate(128.49 181.91) rotate(-89.81)"/><path d="M154.89,12,144.67,34.86c-.59,1.31,1.35,2.46,1.94,1.13l10.23-22.86c.58-1.31-1.36-2.46-2-1.14Z"/><path d="M155.52,13.62l12.48,22a1.12,1.12,0,0,0,1.94-1.13l-12.47-22a1.13,1.13,0,0,0-1.95,1.14Z"/><path d="M150,27.21,160.9,25c1.41-.28.81-2.45-.6-2.17L149.43,25c-1.41.29-.81,2.46.6,2.17Z"/><rect class="cls-4" x="0.5" y="96.5" width="52" height="52" rx="26" ry="26" transform="translate(-96.09 148.6) rotate(-89.81)"/><path d="M19.53,110.48,18.17,134c-.12,1.93,2.88,1.92,3,0l1.36-23.54c.11-1.93-2.89-1.92-3,0Z"/><path d="M22.05,112c2.83-.41,10.36-.22,8.65,4.42-1.39,3.76-6.23,3.38-9.46,3-1.92-.2-1.91,2.8,0,3,5.1.54,12.1-.35,12.67-6.76.59-6.58-8-7.27-12.66-6.59-1.9.27-1.09,3.16.8,2.89Z"/><path d="M21.71,123.94a16.48,16.48,0,0,1,6.22-.09c2.1.53,4.51,2.53,3.57,4.94C30,132.6,23.2,132.42,20,132c-1.91-.24-1.9,2.77,0,3,4.94.6,14.85-.39,14.72-7.35-.14-7.17-8.75-7.34-13.82-6.63-1.91.26-1.1,3.15.8,2.89Z"/><rect class="cls-4" x="258.5" y="96.5" width="52" height="52" rx="26" ry="26" transform="translate(161.08 406.6) rotate(-89.81)"/><path d="M288.68,110.61a9.42,9.42,0,0,0-9.58,1.74c-3.58,3.24-3.64,9.4-3.24,13.83.84,9.4,10.39,13.6,16.76,5.82,1.22-1.48-.9-3.61-2.12-2.12-2.06,2.52-5.07,4.27-8.4,2.68s-3.39-6.65-3.3-9.55.08-6,2.12-8.08a6.26,6.26,0,0,1,7-1.43c1.82.66,2.6-2.24.8-2.89Z"/><rect class="cls-4" x="129.5" y="195.5" width="52" height="52" rx="26" ry="26" transform="translate(-66.5 376.28) rotate(-89.81)"/><path d="M149,212c4.84,1.68,11.5,3.36,12.84,9.12,1.92,8.3-6.95,10.45-13.07,10.72-1.92.09-1.93,3.09,0,3,7.28-.33,16-2.63,16.27-11.52s-8.37-11.83-15.24-14.21c-1.83-.64-2.62,2.26-.8,2.89Z"/><path d="M146.89,210.76l-.51,21.78c0,1.93,3,1.93,3,0l.51-21.78c0-1.93-3-1.93-3,0Z"/><line class="cls-3" x1="664.5" y1="122.5" x2="458.5" y2="123.5"/><line class="cls-3" x1="538.5" y1="39.5" x2="452.5" y2="105.5"/><line class="cls-3" x1="452.5" y1="138.5" x2="538.5" y2="208.5"/><rect class="cls-4" x="535.5" y="0.5" width="52" height="52" rx="26" ry="26" transform="translate(533.17 587.91) rotate(-89.81)"/><path d="M560.89,12,550.67,34.86c-.59,1.31,1.35,2.46,1.94,1.13l10.23-22.86c.58-1.31-1.36-2.46-2-1.14Z"/><path d="M561.52,13.62l12.48,22a1.12,1.12,0,0,0,1.94-1.13l-12.47-22a1.13,1.13,0,0,0-2,1.14Z"/><path d="M556,27.21,566.9,25c1.41-.28.81-2.45-.6-2.17L555.43,25c-1.41.29-.81,2.46.6,2.17Z"/><rect class="cls-4" x="406.5" y="96.5" width="52" height="52" rx="26" ry="26" transform="translate(308.59 554.6) rotate(-89.81)"/><path d="M425.53,110.48,424.17,134c-.12,1.93,2.88,1.92,3,0l1.36-23.54c.11-1.93-2.89-1.92-3,0Z"/><path d="M428.05,112c2.83-.41,10.36-.22,8.65,4.42-1.39,3.76-6.23,3.38-9.46,3-1.92-.2-1.91,2.8,0,3,5.1.54,12.1-.35,12.67-6.76.59-6.58-8-7.27-12.66-6.59-1.9.27-1.09,3.16.8,2.89Z"/><path d="M427.71,123.94a16.48,16.48,0,0,1,6.22-.09c2.1.53,4.51,2.53,3.57,4.94-1.5,3.81-8.3,3.63-11.49,3.24-1.91-.24-1.9,2.77,0,3,4.94.6,14.85-.39,14.72-7.35-.14-7.17-8.75-7.34-13.82-6.63-1.91.26-1.1,3.15.8,2.89Z"/><rect class="cls-4" x="664.5" y="96.5" width="52" height="52" rx="26" ry="26" transform="translate(565.76 812.6) rotate(-89.81)"/><path d="M694.68,110.61a9.42,9.42,0,0,0-9.58,1.74c-3.58,3.24-3.64,9.4-3.24,13.83.84,9.4,10.39,13.6,16.76,5.82,1.22-1.48-.9-3.61-2.12-2.12-2.06,2.52-5.07,4.27-8.4,2.68s-3.39-6.65-3.3-9.55.08-6,2.12-8.08a6.26,6.26,0,0,1,7-1.43c1.82.66,2.6-2.24.8-2.89Z"/><rect class="cls-4" x="535.5" y="195.5" width="52" height="52" rx="26" ry="26" transform="translate(338.18 782.28) rotate(-89.81)"/><path d="M555,212c4.84,1.68,11.5,3.36,12.84,9.12,1.92,8.3-6.95,10.45-13.07,10.72-1.92.09-1.93,3.09,0,3,7.28-.33,16-2.63,16.27-11.52s-8.37-11.83-15.24-14.21c-1.83-.64-2.62,2.26-.8,2.89Z"/><path d="M552.89,210.76l-.51,21.78c0,1.93,3,1.93,3,0l.51-21.78c0-1.93-3-1.93-3,0Z"/><text class="cls-5" transform="translate(69.29 60.45)"> <tspan class="cls-6" x="4" y="0">5</tspan></text><text class="cls-5" transform="translate(478.29 60.45)"> <tspan class="cls-6" x="4" y="0">5</tspan></text><text class="cls-5" transform="translate(232.29 73.45)"> <tspan class="cls-6" x="4" y="0">2</tspan></text><text class="cls-5" transform="translate(140.29 141.45)"> <tspan class="cls-6" x="4" y="0">9</tspan></text><text class="cls-5" transform="translate(567.29 141.45)"> <tspan class="cls-6" x="4" y="0">9</tspan></text><text class="cls-5" transform="translate(69.29 188.45)"> <tspan class="cls-6" x="4" y="0">5</tspan></text><text class="cls-5" transform="translate(468.29 188.45)"> <tspan class="cls-6" x="4" y="0">5</tspan></text><text class="cls-5" transform="translate(222.29 188.45)"> <tspan class="cls-6" x="4" y="0">3</tspan></text></g></g></svg>