<svg xmlns="http://www.w3.org/2000/svg" viewBox="0 0 712 284.08"><defs><style>.cls-1,.cls-4,.cls-5,.cls-8{fill:#00aa94;}.cls-1{opacity:0.2;}.cls-2,.cls-5{opacity:0.5;}.cls-3{fill:#666;}.cls-4,.cls-8{opacity:0.8;}.cls-6{font-size:25px;font-family:NanumGothic, Nanum Gothic;}.cls-7{fill:none;}.cls-7,.cls-8{stroke:#000;stroke-miterlimit:10;}</style></defs><title>자산 22</title><g id="레이어_2" data-name="레이어 2"><g id="레이어_1-2" data-name="레이어 1"><rect class="cls-1" x="482.5" y="19.57" width="214" height="245" rx="5.85" ry="5.85" transform="translate(447.43 731.57) rotate(-90)"/><g class="cls-2"><path class="cls-3" d="M651.92,266a1.19,1.19,0,0,1,2.38,0,1.19,1.19,0,0,1-2.38,0Zm.31,3.22H654v10.2h-1.73Z"/><path class="cls-3" d="M657.41,269.18h1.42l.15,1.47H659a4.86,4.86,0,0,1,3.42-1.73c2.15,0,3.12,1.39,3.12,4v6.47h-1.73v-6.24c0-1.9-.58-2.72-1.93-2.72-1,0-1.76.54-2.79,1.57v7.39h-1.72Z"/><path class="cls-3" d="M668.11,281.34a2.89,2.89,0,0,1,1.5-2.31V279a1.88,1.88,0,0,1-.91-1.67,2.44,2.44,0,0,1,1.12-1.9v-.08a3.53,3.53,0,0,1-1.32-2.74,3.62,3.62,0,0,1,3.83-3.64,3.94,3.94,0,0,1,1.44.26h3.56v1.33h-2.1a3,3,0,0,1,.83,2.1,3.48,3.48,0,0,1-3.73,3.53,3.74,3.74,0,0,1-1.53-.34,1.52,1.52,0,0,0-.65,1.2c0,.65.42,1.11,1.79,1.11h2c2.37,0,3.56.75,3.56,2.44,0,1.9-2,3.53-5.16,3.53C669.83,284.08,668.11,283.1,668.11,281.34Zm7.69-.53c0-.95-.71-1.27-2-1.27H672a5.83,5.83,0,0,1-1.33-.15,2.12,2.12,0,0,0-1,1.71c0,1.1,1.1,1.79,3,1.79S675.8,281.87,675.8,280.81Zm-1.31-8.25a2.17,2.17,0,1,0-4.33,0,2.18,2.18,0,1,0,4.33,0Z"/><path class="cls-3" d="M678.7,281.34a2.89,2.89,0,0,1,1.5-2.31V279a1.88,1.88,0,0,1-.91-1.67,2.44,2.44,0,0,1,1.12-1.9v-.08a3.53,3.53,0,0,1-1.32-2.74,3.62,3.62,0,0,1,3.83-3.64,3.94,3.94,0,0,1,1.44.26h3.56v1.33h-2.1a3,3,0,0,1,.83,2.1,3.48,3.48,0,0,1-3.73,3.53,3.74,3.74,0,0,1-1.53-.34,1.52,1.52,0,0,0-.65,1.2c0,.65.42,1.11,1.79,1.11h2c2.37,0,3.56.75,3.56,2.44,0,1.9-2,3.53-5.16,3.53C680.42,284.08,678.7,283.1,678.7,281.34Zm7.69-.53c0-.95-.71-1.27-2-1.27h-1.76a5.83,5.83,0,0,1-1.33-.15,2.12,2.12,0,0,0-1,1.71c0,1.1,1.1,1.79,3,1.79S686.39,281.87,686.39,280.81Zm-1.31-8.25a2.17,2.17,0,1,0-4.33,0,2.18,2.18,0,1,0,4.33,0Z"/><path class="cls-3" d="M689.71,278.33a1.25,1.25,0,1,1,1.25,1.3A1.26,1.26,0,0,1,689.71,278.33Z"/><path class="cls-3" d="M695,266a1.2,1.2,0,0,1,2.39,0,1.2,1.2,0,0,1-2.39,0Zm.32,3.22H697v10.2H695.3Z"/><path class="cls-3" d="M699.71,274.29c0-3.4,2.23-5.37,4.73-5.37s4.73,2,4.73,5.37-2.23,5.34-4.73,5.34S699.71,277.67,699.71,274.29Zm7.68,0c0-2.34-1.19-3.93-2.95-3.93s-2.94,1.59-2.94,3.93,1.19,3.91,2.94,3.91S707.39,276.63,707.39,274.29Z"/></g><rect class="cls-4" x="533" y="32.07" width="52" height="60" rx="4.7" ry="4.7" transform="translate(496.93 621.07) rotate(-90)"/><rect class="cls-4" x="594" y="32.07" width="52" height="60" rx="4.7" ry="4.7" transform="translate(557.93 682.07) rotate(-90)"/><rect class="cls-5" x="533" y="85.07" width="52" height="60" rx="4.7" ry="4.7" transform="translate(443.93 674.07) rotate(-90)"/><rect class="cls-4" x="594" y="85.07" width="52" height="60" rx="4.7" ry="4.7" transform="translate(504.93 735.07) rotate(-90)"/><rect class="cls-5" x="594" y="138.07" width="52" height="60" rx="4.7" ry="4.7" transform="translate(451.93 788.07) rotate(-90)"/><rect class="cls-4" x="655" y="138.07" width="52" height="60" rx="4.7" ry="4.7" transform="translate(512.93 849.07) rotate(-90)"/><rect class="cls-5" x="655" y="191.07" width="52" height="60" rx="4.7" ry="4.7" transform="translate(459.93 902.07) rotate(-90)"/><rect class="cls-4" x="472" y="191.07" width="52" height="60" rx="4.7" ry="4.7" transform="translate(276.93 719.07) rotate(-90)"/><path d="M495.89,1.06,485.67,23.93c-.59,1.31,1.35,2.45,1.94,1.13L497.84,2.2c.58-1.32-1.36-2.46-1.95-1.14Z"/><path d="M496.52,2.69l12.48,22a1.12,1.12,0,0,0,1.94-1.13l-12.47-22a1.13,1.13,0,0,0-2,1.14Z"/><path d="M491,16.28l10.87-2.21c1.41-.29.81-2.45-.6-2.17l-10.87,2.21c-1.41.29-.81,2.46.6,2.17Z"/><path d="M441.89,50.06,431.67,72.93c-.59,1.31,1.35,2.45,1.94,1.13L443.84,51.2c.58-1.32-1.36-2.46-1.95-1.14Z"/><path d="M442.52,51.69l12.48,22a1.12,1.12,0,0,0,1.94-1.13l-12.47-22a1.13,1.13,0,0,0-2,1.14Z"/><path d="M437,65.28l10.87-2.21c1.41-.29.81-2.45-.6-2.17l-10.87,2.21c-1.41.29-.81,2.46.6,2.17Z"/><path d="M555.53,1.55l-1.36,23.54c-.12,1.92,2.88,1.92,3,0l1.36-23.54c.11-1.93-2.89-1.92-3,0Z"/><path d="M558.05,3.1c2.83-.41,10.36-.22,8.65,4.42-1.39,3.76-6.23,3.38-9.46,3-1.92-.2-1.91,2.8,0,3,5.1.54,12.1-.35,12.67-6.76.59-6.58-8-7.27-12.66-6.59-1.9.27-1.09,3.16.8,2.89Z"/><path d="M557.71,15a16.48,16.48,0,0,1,6.22-.09c2.1.53,4.51,2.53,3.57,4.94-1.5,3.8-8.3,3.63-11.49,3.24-1.91-.24-1.9,2.77,0,3,4.94.6,14.85-.39,14.72-7.35-.14-7.17-8.75-7.34-13.82-6.63-1.91.26-1.1,3.15.8,2.89Z"/><path d="M435.53,103.55l-1.36,23.54c-.12,1.92,2.88,1.92,3,0l1.36-23.54c.11-1.93-2.89-1.92-3,0Z"/><path d="M438.05,105.1c2.83-.41,10.36-.22,8.65,4.42-1.39,3.76-6.23,3.38-9.46,3-1.92-.2-1.91,2.8,0,3,5.1.54,12.1-.35,12.67-6.76.59-6.58-8-7.27-12.66-6.59-1.9.27-1.09,3.16.8,2.89Z"/><path d="M437.71,117a16.48,16.48,0,0,1,6.22-.09c2.1.53,4.51,2.53,3.57,4.94-1.5,3.8-8.3,3.63-11.49,3.24-1.91-.24-1.9,2.77,0,3,4.94.6,14.85-.39,14.72-7.35-.14-7.17-8.75-7.34-13.82-6.63-1.91.26-1.1,3.15.8,2.89Z"/><path d="M628.68,2.68a9.42,9.42,0,0,0-9.58,1.74c-3.58,3.24-3.64,9.4-3.24,13.83.84,9.4,10.39,13.6,16.76,5.82,1.22-1.48-.9-3.62-2.12-2.12-2.06,2.52-5.07,4.27-8.4,2.68s-3.39-6.65-3.3-9.55.08-6,2.12-8.08a6.24,6.24,0,0,1,7-1.43c1.82.66,2.6-2.24.8-2.89Z"/><path d="M447.68,157.68a9.42,9.42,0,0,0-9.58,1.74c-3.58,3.24-3.64,9.4-3.24,13.83.84,9.4,10.39,13.6,16.76,5.82,1.22-1.48-.9-3.62-2.12-2.12-2.06,2.52-5.07,4.27-8.4,2.68s-3.39-6.65-3.3-9.55.08-6,2.12-8.08a6.24,6.24,0,0,1,7-1.43c1.82.66,2.6-2.24.8-2.89Z"/><path d="M437,208.08c4.84,1.68,11.5,3.36,12.84,9.12,1.92,8.3-7,10.45-13.07,10.72-1.92.09-1.93,3.09,0,3,7.28-.33,16-2.63,16.27-11.52s-8.37-11.83-15.24-14.22c-1.83-.63-2.62,2.27-.8,2.9Z"/><path d="M434.89,206.83l-.51,21.78c0,1.93,3,1.93,3,0l.51-21.78c0-1.93-3-1.93-3,0Z"/><path d="M678,5.08c4.84,1.68,11.5,3.36,12.84,9.12,1.92,8.3-6.95,10.45-13.07,10.72-1.92.09-1.93,3.09,0,3,7.28-.33,16-2.63,16.27-11.52S685.62,4.57,678.75,2.18c-1.83-.63-2.62,2.27-.8,2.9Z"/><path d="M675.89,3.83l-.51,21.78c0,1.93,3,1.93,3,0l.51-21.78c0-1.93-3-1.93-3,0Z"/><rect class="cls-5" x="472" y="32.07" width="52" height="60" rx="4.7" ry="4.7" transform="translate(435.93 560.07) rotate(-90)"/><text class="cls-6" transform="translate(491.13 69.98)">0</text><rect class="cls-5" x="655" y="32.07" width="52" height="60" rx="4.7" ry="4.7" transform="translate(618.93 743.07) rotate(-90)"/><text class="cls-6" transform="translate(674.13 69.98)">0</text><rect class="cls-5" x="655" y="85.07" width="52" height="60" rx="4.7" ry="4.7" transform="translate(565.93 796.07) rotate(-90)"/><text class="cls-6" transform="translate(674.13 122.98)">0</text><rect class="cls-5" x="472" y="85.07" width="52" height="60" rx="4.7" ry="4.7" transform="translate(382.93 613.07) rotate(-90)"/><text class="cls-6" transform="translate(491.13 122.98)">0</text><rect class="cls-5" x="472" y="138.07" width="52" height="60" rx="4.7" ry="4.7" transform="translate(329.93 666.07) rotate(-90)"/><text class="cls-6" transform="translate(491.13 175.98)">0</text><rect class="cls-5" x="533" y="138.07" width="52" height="60" rx="4.7" ry="4.7" transform="translate(390.93 727.07) rotate(-90)"/><text class="cls-6" transform="translate(552.13 175.98)">0</text><rect class="cls-5" x="533" y="191.07" width="52" height="60" rx="4.7" ry="4.7" transform="translate(337.93 780.07) rotate(-90)"/><text class="cls-6" transform="translate(552.13 228.98)">0</text><rect class="cls-5" x="594" y="191.07" width="52" height="60" rx="4.7" ry="4.7" transform="translate(398.93 841.07) rotate(-90)"/><text class="cls-6" transform="translate(613.13 228.98)">0</text><text class="cls-6" transform="translate(491.13 228.98)">1</text><text class="cls-6" transform="translate(612.13 121.98)">1</text><text class="cls-6" transform="translate(612.13 69.98)">1</text><text class="cls-6" transform="translate(551.13 69.98)">1</text><text class="cls-6" transform="translate(673.13 175.98)">1</text><text class="cls-6" transform="translate(551.13 122.98)">0</text><text class="cls-6" transform="translate(612.13 177.98)">0</text><text class="cls-6" transform="translate(673.13 228.98)">0</text><line class="cls-7" x1="237.5" y1="124.57" x2="52.5" y2="125.57"/><polygon points="235.62 129.32 236.03 119.32 245.6 124.74 235.62 129.32"/><line class="cls-7" x1="124.5" y1="47.57" x2="46.5" y2="107.57"/><line class="cls-7" x1="56.5" y1="148.57" x2="132.5" y2="210.57"/><rect class="cls-8" x="0.5" y="98.57" width="52" height="52" rx="26" ry="26" transform="translate(-98.15 150.66) rotate(-89.81)"/><path d="M25.89,110.06,15.67,132.93c-.59,1.31,1.35,2.45,1.94,1.13L27.84,111.2c.58-1.32-1.36-2.46-1.95-1.14Z"/><path d="M26.52,111.69l12.48,22a1.12,1.12,0,0,0,1.94-1.13l-12.47-22a1.13,1.13,0,0,0-1.95,1.14Z"/><path d="M21,125.28l10.87-2.21c1.41-.29.81-2.45-.6-2.17l-10.87,2.21c-1.41.29-.81,2.46.6,2.17Z"/><rect class="cls-8" x="129.5" y="2.57" width="52" height="52" rx="26" ry="26" transform="translate(126.43 183.98) rotate(-89.81)"/><path d="M148.53,16.55l-1.36,23.54c-.12,1.92,2.88,1.92,3,0l1.36-23.54c.11-1.93-2.89-1.92-3,0Z"/><path d="M151.05,18.1c2.83-.41,10.36-.22,8.65,4.42-1.39,3.76-6.23,3.38-9.46,3-1.92-.2-1.91,2.8,0,3,5.1.54,12.1-.35,12.67-6.76.59-6.58-8-7.27-12.66-6.59-1.9.27-1.09,3.16.8,2.89Z"/><path d="M150.71,30a16.48,16.48,0,0,1,6.22-.09c2.1.53,4.51,2.53,3.57,4.94-1.5,3.8-8.3,3.63-11.49,3.24-1.91-.24-1.9,2.77,0,3,4.94.6,14.85-.39,14.72-7.35-.14-7.17-8.75-7.34-13.82-6.63-1.91.26-1.1,3.15.8,2.89Z"/><rect class="cls-8" x="258.5" y="98.57" width="52" height="52" rx="26" ry="26" transform="translate(159.01 408.66) rotate(-89.81)"/><path d="M288.68,112.68a9.42,9.42,0,0,0-9.58,1.74c-3.58,3.24-3.64,9.4-3.24,13.83.84,9.4,10.39,13.6,16.76,5.82,1.22-1.48-.9-3.62-2.12-2.12-2.06,2.52-5.07,4.27-8.4,2.68s-3.39-6.65-3.3-9.55.08-6,2.12-8.08a6.24,6.24,0,0,1,7-1.43c1.82.66,2.6-2.24.8-2.89Z"/><rect class="cls-8" x="129.5" y="197.57" width="52" height="52" rx="26" ry="26" transform="translate(-68.57 378.34) rotate(-89.81)"/><path d="M149,214.08c4.84,1.68,11.5,3.36,12.84,9.12,1.92,8.3-6.95,10.45-13.07,10.72-1.92.09-1.93,3.09,0,3,7.28-.33,16-2.63,16.27-11.52s-8.37-11.83-15.24-14.22c-1.83-.63-2.62,2.27-.8,2.9Z"/><path d="M146.89,212.83l-.51,21.78c0,1.93,3,1.93,3,0l.51-21.78c0-1.93-3-1.93-3,0Z"/><polygon points="122.92 54.91 117.54 46.47 128.5 45.46 122.92 54.91"/><polygon points="63 146.46 57.48 154.81 52.09 145.22 63 146.46"/><line class="cls-7" x1="260.32" y1="97.98" x2="179.46" y2="41.89"/><line class="cls-7" x1="186.38" y1="199.43" x2="266.63" y2="143.03"/><polygon points="252.84 98.7 259.25 91.01 263.54 101.14 252.84 98.7"/><polygon points="186.11 192.6 192.66 200.17 181.97 202.76 186.11 192.6"/></g></g></svg>