<svg xmlns="http://www.w3.org/2000/svg" viewBox="0 0 714 254.01"><defs><style>.cls-1{opacity:0.5;}.cls-2{fill:#666;}.cls-3{fill:#00aa94;opacity:0.8;}.cls-3,.cls-4{stroke:#000;stroke-miterlimit:10;}.cls-4{fill:none;}</style></defs><title>자산 16</title><g id="레이어_2" data-name="레이어 2"><g id="레이어_1-2" data-name="레이어 1"><g class="cls-1"><path class="cls-2" d="M643.92,235.89a1.19,1.19,0,0,1,2.38,0,1.19,1.19,0,0,1-2.38,0Zm.31,3.22H646v10.2h-1.73Z"/><path class="cls-2" d="M649.41,239.11h1.42l.15,1.47H651a4.85,4.85,0,0,1,3.42-1.72c2.15,0,3.12,1.38,3.12,4v6.46h-1.73v-6.24c0-1.9-.58-2.72-1.93-2.72-1,0-1.76.54-2.79,1.57v7.39h-1.72Z"/><path class="cls-2" d="M660.11,251.27a2.86,2.86,0,0,1,1.5-2.3v-.09a1.88,1.88,0,0,1-.91-1.67,2.46,2.46,0,0,1,1.12-1.9v-.08a3.53,3.53,0,0,1-1.32-2.74,3.62,3.62,0,0,1,3.83-3.63,4,4,0,0,1,1.44.25h3.56v1.33h-2.1a3,3,0,0,1,.83,2.1,3.49,3.49,0,0,1-3.73,3.54,3.75,3.75,0,0,1-1.53-.35,1.52,1.52,0,0,0-.65,1.21c0,.64.42,1.1,1.79,1.1h2c2.37,0,3.56.75,3.56,2.44,0,1.9-2,3.53-5.16,3.53C661.83,254,660.11,253,660.11,251.27Zm7.69-.53c0-1-.71-1.27-2-1.27H664a5.83,5.83,0,0,1-1.33-.15,2.13,2.13,0,0,0-1,1.71c0,1.1,1.1,1.79,3,1.79S667.8,251.8,667.8,250.74Zm-1.31-8.25a2.17,2.17,0,1,0-4.33,0,2.18,2.18,0,1,0,4.33,0Z"/><path class="cls-2" d="M670.7,251.27a2.86,2.86,0,0,1,1.5-2.3v-.09a1.88,1.88,0,0,1-.91-1.67,2.46,2.46,0,0,1,1.12-1.9v-.08a3.53,3.53,0,0,1-1.32-2.74,3.62,3.62,0,0,1,3.83-3.63,4,4,0,0,1,1.44.25h3.56v1.33h-2.1a3,3,0,0,1,.83,2.1,3.49,3.49,0,0,1-3.73,3.54,3.75,3.75,0,0,1-1.53-.35,1.52,1.52,0,0,0-.65,1.21c0,.64.42,1.1,1.79,1.1h2c2.37,0,3.56.75,3.56,2.44,0,1.9-2,3.53-5.16,3.53C672.42,254,670.7,253,670.7,251.27Zm7.69-.53c0-1-.71-1.27-2-1.27h-1.76a5.83,5.83,0,0,1-1.33-.15,2.13,2.13,0,0,0-1,1.71c0,1.1,1.1,1.79,3,1.79S678.39,251.8,678.39,250.74Zm-1.31-8.25a2.17,2.17,0,1,0-4.33,0,2.18,2.18,0,1,0,4.33,0Z"/><path class="cls-2" d="M681.71,248.26a1.25,1.25,0,1,1,1.25,1.3A1.26,1.26,0,0,1,681.71,248.26Z"/><path class="cls-2" d="M687,235.89a1.2,1.2,0,0,1,2.39,0,1.2,1.2,0,0,1-2.39,0Zm.32,3.22H689v10.2H687.3Z"/><path class="cls-2" d="M691.71,244.22c0-3.4,2.23-5.36,4.73-5.36s4.73,2,4.73,5.36-2.23,5.34-4.73,5.34S691.71,247.6,691.71,244.22Zm7.68,0c0-2.34-1.19-3.93-2.95-3.93s-2.94,1.59-2.94,3.93,1.19,3.91,2.94,3.91S699.39,246.56,699.39,244.22Z"/></g><rect class="cls-3" x="0.5" y="95.5" width="52" height="52" rx="26" ry="26" transform="translate(-95 148) rotate(-90)"/><rect class="cls-3" x="258.5" y="95.5" width="52" height="52" rx="26" ry="26" transform="translate(163 406) rotate(-90)"/><line class="cls-4" x1="155.5" y1="52.73" x2="155.5" y2="193.5"/><rect class="cls-3" x="129.5" y="0.5" width="52" height="52" rx="26" ry="26" transform="translate(129 182) rotate(-90)"/><rect class="cls-3" x="129.5" y="193.5" width="52" height="52" rx="26" ry="26" transform="translate(-64 375) rotate(-90)"/><line class="cls-4" x1="258.5" y1="121.5" x2="53.12" y2="121.12"/><line class="cls-4" x1="132.5" y1="38.5" x2="46.5" y2="104.5"/><line class="cls-4" x1="46.5" y1="137.5" x2="132.5" y2="207.5"/><line class="cls-4" x1="264.5" y1="137.5" x2="178.5" y2="207.5"/><line class="cls-4" x1="178.5" y1="38.5" x2="264.5" y2="104.5"/><rect class="cls-3" x="403.5" y="95.5" width="52" height="52" rx="26" ry="26" transform="translate(308 551) rotate(-90)"/><rect class="cls-3" x="661.5" y="95.5" width="52" height="52" rx="26" ry="26" transform="translate(566 809) rotate(-90)"/><line class="cls-4" x1="552.5" y1="56.5" x2="552.5" y2="194.5"/><line class="cls-4" x1="560.5" y1="53" x2="560.5" y2="186.5"/><rect class="cls-3" x="532.5" y="0.5" width="52" height="52" rx="26" ry="26" transform="translate(532 585) rotate(-90)"/><rect class="cls-3" x="532.5" y="193.5" width="52" height="52" rx="26" ry="26" transform="translate(339 778) rotate(-90)"/><line class="cls-4" x1="651.5" y1="116.5" x2="455.12" y2="116.12"/><line class="cls-4" x1="661.5" y1="125.5" x2="465.12" y2="125.12"/><line class="cls-4" x1="533.5" y1="33.5" x2="451.5" y2="94.5"/><line class="cls-4" x1="532.5" y1="45.5" x2="450.5" y2="106.5"/><line class="cls-4" x1="447.5" y1="140.5" x2="527.5" y2="205.5"/><line class="cls-4" x1="458.5" y1="137.5" x2="538.5" y2="202.5"/><line class="cls-4" x1="662.5" y1="147.5" x2="583.5" y2="211.5"/><line class="cls-4" x1="664.5" y1="134.5" x2="585.5" y2="198.5"/><line class="cls-4" x1="589.5" y1="37.5" x2="673.5" y2="99.5"/><line class="cls-4" x1="578.5" y1="42.5" x2="661.5" y2="104.5"/><polygon points="453.63 85.93 460.3 93.4 449.65 96.16 453.63 85.93"/><polygon points="530.13 53.81 524.43 45.59 535.34 44.15 530.13 53.81"/><polygon points="467.56 138.64 460.18 145.4 457.28 134.79 467.56 138.64"/><polygon points="470.42 120.15 470.78 130.16 460.82 125.47 470.42 120.15"/><polygon points="518.93 205.12 526.09 198.12 529.32 208.64 518.93 205.12"/><polygon points="652.47 104.26 657.88 95.84 663.39 105.36 652.47 104.26"/><polygon points="647.42 121.14 648.24 111.16 657.58 116.99 647.42 121.14"/><polygon points="586.13 191.1 593.47 197.91 583.13 201.66 586.13 191.1"/><polygon points="555.14 180 565.15 179.93 560.19 189.75 555.14 180"/><polygon points="660.59 155.72 654.22 148 664.97 145.65 660.59 155.72"/></g></g></svg>