<svg xmlns="http://www.w3.org/2000/svg" viewBox="0 0 711.49 267.74"><defs><style>.cls-1{opacity:0.5;}.cls-2{fill:#666;}.cls-3{fill:none;}.cls-3,.cls-4{stroke:#000;stroke-miterlimit:10;}.cls-4{fill:#00aa94;opacity:0.8;}.cls-5{font-size:25px;}.cls-5,.cls-6{font-family:NanumGothic, Nanum Gothic;}.cls-6{font-size:20px;}</style></defs><title>자산 20</title><g id="레이어_2" data-name="레이어 2"><g id="레이어_1-2" data-name="레이어 1"><g class="cls-1"><path class="cls-2" d="M652.41,249.62a1.19,1.19,0,0,1,2.38,0,1.19,1.19,0,0,1-2.38,0Zm.31,3.22h1.73V263h-1.73Z"/><path class="cls-2" d="M657.89,252.84h1.43l.15,1.47h.06a4.85,4.85,0,0,1,3.42-1.72c2.15,0,3.11,1.38,3.11,4V263h-1.72V256.8c0-1.9-.58-2.71-1.93-2.71-1,0-1.76.53-2.79,1.56V263h-1.73Z"/><path class="cls-2" d="M668.6,265a2.86,2.86,0,0,1,1.5-2.3v-.09a1.89,1.89,0,0,1-.92-1.67,2.43,2.43,0,0,1,1.13-1.89V259a3.54,3.54,0,0,1-1.33-2.74,3.62,3.62,0,0,1,3.83-3.63,4.14,4.14,0,0,1,1.44.25h3.56v1.33h-2.09a3,3,0,0,1,.83,2.1,3.49,3.49,0,0,1-3.74,3.54,3.75,3.75,0,0,1-1.52-.35,1.5,1.5,0,0,0-.65,1.21c0,.64.42,1.1,1.79,1.1h2c2.37,0,3.56.75,3.56,2.44,0,1.9-2,3.53-5.16,3.53C670.32,267.74,668.6,266.76,668.6,265Zm7.69-.53c0-.94-.71-1.27-2.06-1.27h-1.76a5.75,5.75,0,0,1-1.32-.15,2.13,2.13,0,0,0-1,1.71c0,1.1,1.1,1.79,3,1.79S676.29,265.54,676.29,264.47ZM675,256.22a2.18,2.18,0,1,0-4.34,0,2.18,2.18,0,1,0,4.34,0Z"/><path class="cls-2" d="M679.19,265a2.86,2.86,0,0,1,1.5-2.3v-.09a1.89,1.89,0,0,1-.92-1.67,2.43,2.43,0,0,1,1.13-1.89V259a3.54,3.54,0,0,1-1.33-2.74,3.62,3.62,0,0,1,3.83-3.63,4.18,4.18,0,0,1,1.44.25h3.56v1.33h-2.09a3,3,0,0,1,.83,2.1,3.49,3.49,0,0,1-3.74,3.54,3.75,3.75,0,0,1-1.52-.35,1.5,1.5,0,0,0-.65,1.21c0,.64.42,1.1,1.79,1.1h2c2.37,0,3.56.75,3.56,2.44,0,1.9-2,3.53-5.16,3.53C680.91,267.74,679.19,266.76,679.19,265Zm7.69-.53c0-.94-.71-1.27-2.06-1.27h-1.76a5.75,5.75,0,0,1-1.32-.15,2.13,2.13,0,0,0-1,1.71c0,1.1,1.1,1.79,3,1.79S686.88,265.54,686.88,264.47Zm-1.31-8.25a2.18,2.18,0,1,0-4.34,0,2.18,2.18,0,1,0,4.34,0Z"/><path class="cls-2" d="M690.2,262a1.25,1.25,0,1,1,1.25,1.31A1.26,1.26,0,0,1,690.2,262Z"/><path class="cls-2" d="M695.47,249.62a1.2,1.2,0,0,1,2.39,0,1.2,1.2,0,0,1-2.39,0Zm.32,3.22h1.72V263h-1.72Z"/><path class="cls-2" d="M700.2,258c0-3.4,2.23-5.36,4.73-5.36s4.73,2,4.73,5.36-2.23,5.35-4.73,5.35S700.2,261.33,700.2,258Zm7.68,0c0-2.33-1.2-3.93-3-3.93S702,255.62,702,258s1.19,3.91,2.95,3.91S707.88,260.29,707.88,258Z"/></g><line class="cls-3" x1="240.99" y1="125.23" x2="55.99" y2="126.23"/><polygon points="239.11 129.98 239.51 119.98 249.09 125.41 239.11 129.98"/><line class="cls-3" x1="127.99" y1="48.23" x2="49.99" y2="108.23"/><line class="cls-3" x1="59.99" y1="149.23" x2="135.99" y2="211.23"/><rect class="cls-4" x="3.99" y="99.23" width="52" height="52" rx="26" ry="26" transform="translate(-95.34 154.81) rotate(-89.81)"/><path d="M29.38,110.72,19.16,133.59c-.59,1.31,1.35,2.46,1.94,1.14l10.22-22.87c.59-1.31-1.35-2.46-1.94-1.14Z"/><path d="M30,112.35l12.48,22a1.12,1.12,0,0,0,1.94-1.13L32,111.21A1.13,1.13,0,0,0,30,112.35Z"/><path d="M24.52,125.94l10.86-2.21c1.42-.28.82-2.45-.59-2.16l-10.87,2.2c-1.42.29-.82,2.46.6,2.17Z"/><rect class="cls-4" x="132.99" y="3.23" width="52" height="52" rx="26" ry="26" transform="translate(129.24 188.12) rotate(-89.81)"/><path d="M152,17.21l-1.37,23.54c-.11,1.93,2.89,1.92,3,0L155,17.21c.11-1.92-2.89-1.92-3,0Z"/><path d="M154.54,18.76c2.83-.41,10.36-.22,8.65,4.42-1.39,3.76-6.23,3.39-9.46,3.05-1.92-.21-1.91,2.79,0,3,5.09.53,12.1-.36,12.67-6.77.59-6.58-8-7.27-12.66-6.59-1.9.27-1.09,3.16.8,2.89Z"/><path d="M154.19,30.67a16.53,16.53,0,0,1,6.23-.09c2.1.53,4.51,2.53,3.56,4.94-1.49,3.81-8.29,3.63-11.48,3.24-1.91-.23-1.9,2.77,0,3,4.93.6,14.85-.39,14.72-7.35-.14-7.17-8.75-7.34-13.82-6.63-1.91.26-1.1,3.16.79,2.89Z"/><rect class="cls-4" x="261.99" y="99.23" width="52" height="52" rx="26" ry="26" transform="translate(161.82 412.81) rotate(-89.81)"/><path d="M292.17,113.34a9.41,9.41,0,0,0-9.58,1.74c-3.59,3.24-3.64,9.4-3.24,13.83.84,9.4,10.39,13.6,16.76,5.82,1.21-1.48-.9-3.61-2.12-2.12-2.06,2.52-5.08,4.27-8.4,2.69s-3.39-6.66-3.3-9.55.08-6,2.12-8.09a6.26,6.26,0,0,1,7-1.43c1.82.66,2.6-2.24.8-2.89Z"/><rect class="cls-4" x="132.99" y="198.23" width="52" height="52" rx="26" ry="26" transform="translate(-65.76 382.49) rotate(-89.81)"/><path d="M152.44,214.74c4.84,1.68,11.49,3.36,12.83,9.12,1.93,8.3-6.94,10.45-13.06,10.73-1.92.08-1.93,3.08,0,3,7.28-.34,16-2.63,16.27-11.53s-8.37-11.83-15.24-14.21c-1.83-.64-2.62,2.26-.8,2.89Z"/><path d="M150.38,213.49l-.51,21.78c0,1.93,3,1.93,3,0l.51-21.78c0-1.93-3-1.93-3,0Z"/><text class="cls-5" transform="translate(0 20)"><tspan xml:space="preserve"> G3</tspan></text><text class="cls-5" transform="translate(396 20)"><tspan xml:space="preserve"> G4</tspan></text><polygon points="126.41 55.58 121.03 47.13 131.98 46.12 126.41 55.58"/><polygon points="66.49 147.12 60.97 155.47 55.58 145.88 66.49 147.12"/><line class="cls-3" x1="637.99" y1="125.23" x2="452.99" y2="126.23"/><polygon points="636.11 129.98 636.51 119.98 646.09 125.41 636.11 129.98"/><line class="cls-3" x1="657.8" y1="99.64" x2="576.94" y2="43.55"/><line class="cls-3" x1="456.99" y1="149.23" x2="532.99" y2="211.23"/><rect class="cls-4" x="400.99" y="99.23" width="52" height="52" rx="26" ry="26" transform="translate(300.37 551.81) rotate(-89.81)"/><path d="M426.38,110.72l-10.22,22.87c-.59,1.31,1.35,2.46,1.94,1.14l10.22-22.87c.59-1.31-1.35-2.46-1.94-1.14Z"/><path d="M427,112.35l12.48,22a1.12,1.12,0,0,0,1.94-1.13l-12.48-22a1.13,1.13,0,0,0-1.94,1.14Z"/><path d="M421.52,125.94l10.86-2.21c1.42-.28.82-2.45-.59-2.16l-10.87,2.2c-1.42.29-.82,2.46.6,2.17Z"/><rect class="cls-4" x="529.99" y="3.23" width="52" height="52" rx="26" ry="26" transform="translate(524.95 585.12) rotate(-89.81)"/><path d="M549,17.21l-1.37,23.54c-.11,1.93,2.89,1.92,3,0L552,17.21c.11-1.92-2.89-1.92-3,0Z"/><path d="M551.54,18.76c2.83-.41,10.36-.22,8.65,4.42-1.39,3.76-6.23,3.39-9.46,3.05-1.92-.21-1.91,2.79,0,3,5.09.53,12.1-.36,12.67-6.77.59-6.58-8-7.27-12.66-6.59-1.9.27-1.09,3.16.8,2.89Z"/><path d="M551.19,30.67a16.53,16.53,0,0,1,6.23-.09c2.1.53,4.51,2.53,3.56,4.94-1.49,3.81-8.29,3.63-11.48,3.24-1.91-.23-1.9,2.77,0,3,4.93.6,14.85-.39,14.72-7.35-.14-7.17-8.75-7.34-13.82-6.63-1.91.26-1.1,3.16.79,2.89Z"/><rect class="cls-4" x="658.99" y="99.23" width="52" height="52" rx="26" ry="26" transform="translate(557.53 809.81) rotate(-89.81)"/><path d="M689.17,113.34a9.41,9.41,0,0,0-9.58,1.74c-3.59,3.24-3.64,9.4-3.24,13.83.84,9.4,10.39,13.6,16.76,5.82,1.21-1.48-.9-3.61-2.12-2.12-2.06,2.52-5.08,4.27-8.4,2.69s-3.39-6.66-3.3-9.55.08-6,2.12-8.09a6.26,6.26,0,0,1,7-1.43c1.82.66,2.6-2.24.8-2.89Z"/><rect class="cls-4" x="529.99" y="198.23" width="52" height="52" rx="26" ry="26" transform="translate(329.95 779.49) rotate(-89.81)"/><path d="M549.44,214.74c4.84,1.68,11.49,3.36,12.83,9.12,1.93,8.3-6.94,10.45-13.06,10.73-1.92.08-1.93,3.08,0,3,7.28-.34,16-2.63,16.27-11.53s-8.37-11.83-15.24-14.21c-1.83-.64-2.62,2.26-.8,2.89Z"/><path d="M547.38,213.49l-.51,21.78c0,1.93,3,1.93,3,0l.51-21.78c0-1.93-3-1.93-3,0Z"/><polygon points="650.33 100.36 656.73 92.67 661.03 102.8 650.33 100.36"/><polygon points="463.49 147.12 457.97 155.47 452.58 145.88 463.49 147.12"/><text class="cls-6" transform="translate(66 72)">5</text><text class="cls-6" transform="translate(77 199)">5</text><text class="cls-6" transform="translate(158 117)">9</text><text class="cls-6" transform="translate(546 117)">9</text><text class="cls-6" transform="translate(481 208)">5</text><text class="cls-6" transform="translate(617 61)">1</text></g></g></svg>