<svg xmlns="http://www.w3.org/2000/svg" viewBox="0 0 775 258.01"><defs><style>.cls-1{opacity:0.5;}.cls-2{fill:#666;}.cls-3{fill:none;}.cls-3,.cls-4{stroke:#000;stroke-miterlimit:10;}.cls-4{fill:#00aa94;opacity:0.8;}</style></defs><title>자산 15</title><g id="레이어_2" data-name="레이어 2"><g id="레이어_1-2" data-name="레이어 1"><g class="cls-1"><path class="cls-2" d="M715.92,239.89a1.19,1.19,0,0,1,2.38,0,1.19,1.19,0,0,1-2.38,0Zm.31,3.22H718v10.2h-1.73Z"/><path class="cls-2" d="M721.41,243.11h1.42l.15,1.47H723a4.85,4.85,0,0,1,3.42-1.72c2.15,0,3.12,1.38,3.12,4v6.46h-1.73v-6.24c0-1.9-.58-2.72-1.93-2.72-1,0-1.76.54-2.79,1.57v7.39h-1.72Z"/><path class="cls-2" d="M732.11,255.27a2.86,2.86,0,0,1,1.5-2.3v-.09a1.88,1.88,0,0,1-.91-1.67,2.46,2.46,0,0,1,1.12-1.9v-.08a3.53,3.53,0,0,1-1.32-2.74,3.62,3.62,0,0,1,3.83-3.63,4,4,0,0,1,1.44.25h3.56v1.33h-2.1a3,3,0,0,1,.83,2.1,3.49,3.49,0,0,1-3.73,3.54,3.75,3.75,0,0,1-1.53-.35,1.52,1.52,0,0,0-.65,1.21c0,.64.42,1.1,1.79,1.1h2c2.37,0,3.56.75,3.56,2.44,0,1.9-2,3.53-5.16,3.53C733.83,258,732.11,257,732.11,255.27Zm7.69-.53c0-1-.71-1.27-2-1.27H736a5.83,5.83,0,0,1-1.33-.15,2.13,2.13,0,0,0-1,1.71c0,1.1,1.1,1.79,3,1.79S739.8,255.8,739.8,254.74Zm-1.31-8.25a2.17,2.17,0,1,0-4.33,0,2.18,2.18,0,1,0,4.33,0Z"/><path class="cls-2" d="M742.7,255.27a2.86,2.86,0,0,1,1.5-2.3v-.09a1.88,1.88,0,0,1-.91-1.67,2.46,2.46,0,0,1,1.12-1.9v-.08a3.53,3.53,0,0,1-1.32-2.74,3.62,3.62,0,0,1,3.83-3.63,4,4,0,0,1,1.44.25h3.56v1.33h-2.1a3,3,0,0,1,.83,2.1,3.49,3.49,0,0,1-3.73,3.54,3.75,3.75,0,0,1-1.53-.35,1.52,1.52,0,0,0-.65,1.21c0,.64.42,1.1,1.79,1.1h2c2.37,0,3.56.75,3.56,2.44,0,1.9-2,3.53-5.16,3.53C744.42,258,742.7,257,742.7,255.27Zm7.69-.53c0-1-.71-1.27-2-1.27h-1.76a5.83,5.83,0,0,1-1.33-.15,2.13,2.13,0,0,0-1,1.71c0,1.1,1.1,1.79,3,1.79S750.39,255.8,750.39,254.74Zm-1.31-8.25a2.17,2.17,0,1,0-4.33,0,2.18,2.18,0,1,0,4.33,0Z"/><path class="cls-2" d="M753.71,252.26a1.25,1.25,0,1,1,1.25,1.3A1.26,1.26,0,0,1,753.71,252.26Z"/><path class="cls-2" d="M759,239.89a1.2,1.2,0,0,1,2.39,0,1.2,1.2,0,0,1-2.39,0Zm.32,3.22H761v10.2H759.3Z"/><path class="cls-2" d="M763.71,248.22c0-3.4,2.23-5.36,4.73-5.36s4.73,2,4.73,5.36-2.23,5.34-4.73,5.34S763.71,251.6,763.71,248.22Zm7.68,0c0-2.34-1.19-3.93-2.95-3.93s-2.94,1.59-2.94,3.93,1.19,3.91,2.94,3.91S771.39,250.56,771.39,248.22Z"/></g><line class="cls-3" x1="42.5" y1="141.5" x2="76.5" y2="177.5"/><line class="cls-3" x1="170.5" y1="147.5" x2="119.5" y2="186.5"/><line class="cls-3" x1="261.7" y1="63.3" x2="196.5" y2="102.5"/><line class="cls-3" x1="136.5" y1="46.5" x2="176.5" y2="100.5"/><rect class="cls-4" x="158.5" y="99.5" width="52" height="52" rx="26" ry="26" transform="translate(59 310) rotate(-90)"/><line class="cls-3" x1="98.5" y1="42.5" x2="39.5" y2="99.5"/><rect class="cls-4" x="0.5" y="95.5" width="52" height="52" rx="26" ry="26" transform="translate(-95 148) rotate(-90)"/><polygon points="531.62 56.35 523.87 50.01 533.96 45.62 531.62 56.35"/><rect class="cls-4" x="93.5" y="0.5" width="52" height="52" rx="26" ry="26" transform="translate(93 146) rotate(-90)"/><rect class="cls-4" x="69.5" y="169.5" width="52" height="52" rx="26" ry="26" transform="translate(-100 291) rotate(-90)"/><rect class="cls-4" x="261.5" y="32.5" width="52" height="52" rx="26" ry="26" transform="translate(229 346) rotate(-90)"/><line class="cls-3" x1="283.5" y1="170.5" x2="206.5" y2="138.5"/><line class="cls-3" x1="287.5" y1="84.5" x2="301.5" y2="147.5"/><rect class="cls-4" x="283.5" y="146.5" width="52" height="52" rx="26" ry="26" transform="translate(137 482) rotate(-90)"/><line class="cls-3" x1="487.5" y1="147.5" x2="515.5" y2="177.5"/><line class="cls-3" x1="609.5" y1="147.5" x2="565.5" y2="181.5"/><line class="cls-3" x1="700.7" y1="63.3" x2="643.5" y2="99.5"/><line class="cls-3" x1="575.5" y1="46.5" x2="611.5" y2="95.5"/><rect class="cls-4" x="597.5" y="99.5" width="52" height="52" rx="26" ry="26" transform="translate(498 749) rotate(-90)"/><line class="cls-3" x1="530.5" y1="49.5" x2="478.5" y2="99.5"/><rect class="cls-4" x="439.5" y="95.5" width="52" height="52" rx="26" ry="26" transform="translate(344 587) rotate(-90)"/><rect class="cls-4" x="532.5" y="0.5" width="52" height="52" rx="26" ry="26" transform="translate(532 585) rotate(-90)"/><rect class="cls-4" x="508.5" y="169.5" width="52" height="52" rx="26" ry="26" transform="translate(339 730) rotate(-90)"/><rect class="cls-4" x="700.5" y="32.5" width="52" height="52" rx="26" ry="26" transform="translate(668 785) rotate(-90)"/><line class="cls-3" x1="716.5" y1="167.5" x2="645.5" y2="138.5"/><line class="cls-3" x1="728.5" y1="92.5" x2="740.5" y2="147.5"/><rect class="cls-4" x="722.5" y="146.5" width="52" height="52" rx="26" ry="26" transform="translate(576 921) rotate(-90)"/><polygon points="493.48 146.41 486.4 153.48 483.05 143 493.48 146.41"/><polygon points="604.68 94.11 613.01 88.56 614.25 99.49 604.68 94.11"/><polygon points="565.78 174.89 572.24 182.54 561.51 185 565.78 174.89"/><polygon points="708.36 170.35 711.49 160.84 719.21 168.69 708.36 170.35"/><polygon points="645.71 92.91 652.26 100.47 641.57 103.07 645.71 92.91"/><polygon points="733.8 94.64 724.5 98.35 725.55 87.4 733.8 94.64"/></g></g></svg>