<svg xmlns="http://www.w3.org/2000/svg" viewBox="0 0 785 246"><defs><style>.cls-1,.cls-4,.cls-6{fill:#00aa94;}.cls-1,.cls-4{opacity:0.8;}.cls-2,.cls-6{opacity:0.5;}.cls-3{fill:#666;}.cls-4,.cls-5,.cls-8{stroke:#000;stroke-miterlimit:10;}.cls-5,.cls-8{fill:none;}.cls-7{fill:#b2ecff;}.cls-8{stroke-width:0.25px;}</style></defs><title>자산 23</title><g id="레이어_2" data-name="레이어 2"><g id="레이어_1-2" data-name="레이어 1"><path class="cls-1" d="M770.68,31.2V69.65c0,1.53-.78,2.77-1.74,2.77H730c-1,0-1.74-1.24-1.74-2.77V31.2c0-1.54.78-2.78,1.74-2.78h38.91C769.9,28.42,770.68,29.66,770.68,31.2Z"/><path class="cls-1" d="M558.68,31.2V69.65c0,1.53-.78,2.77-1.74,2.77H518c-1,0-1.74-1.24-1.74-2.77V31.2c0-1.54.78-2.78,1.74-2.78h38.91C557.9,28.42,558.68,29.66,558.68,31.2Z"/><g class="cls-2"><path class="cls-3" d="M712.92,222.89a1.19,1.19,0,0,1,2.38,0,1.19,1.19,0,0,1-2.38,0Zm.31,3.22H715v10.2h-1.73Z"/><path class="cls-3" d="M718.41,226.11h1.42l.15,1.47H720a4.85,4.85,0,0,1,3.42-1.72c2.15,0,3.12,1.38,3.12,4v6.46h-1.73v-6.24c0-1.9-.58-2.72-1.93-2.72-1,0-1.76.54-2.79,1.57v7.39h-1.72Z"/><path class="cls-3" d="M729.11,238.27a2.86,2.86,0,0,1,1.5-2.3v-.09a1.88,1.88,0,0,1-.91-1.67,2.46,2.46,0,0,1,1.12-1.9v-.08a3.53,3.53,0,0,1-1.32-2.74,3.62,3.62,0,0,1,3.83-3.63,4,4,0,0,1,1.44.25h3.56v1.33h-2.1a3,3,0,0,1,.83,2.1,3.49,3.49,0,0,1-3.73,3.54,3.75,3.75,0,0,1-1.53-.35,1.52,1.52,0,0,0-.65,1.21c0,.64.42,1.1,1.79,1.1h2c2.37,0,3.56.75,3.56,2.44,0,1.9-2,3.53-5.16,3.53C730.83,241,729.11,240,729.11,238.27Zm7.69-.53c0-1-.71-1.27-2-1.27H733a5.83,5.83,0,0,1-1.33-.15,2.13,2.13,0,0,0-1,1.71c0,1.1,1.1,1.79,3,1.79S736.8,238.8,736.8,237.74Zm-1.31-8.25a2.17,2.17,0,1,0-4.33,0,2.18,2.18,0,1,0,4.33,0Z"/><path class="cls-3" d="M739.7,238.27a2.86,2.86,0,0,1,1.5-2.3v-.09a1.88,1.88,0,0,1-.91-1.67,2.46,2.46,0,0,1,1.12-1.9v-.08a3.53,3.53,0,0,1-1.32-2.74,3.62,3.62,0,0,1,3.83-3.63,4,4,0,0,1,1.44.25h3.56v1.33h-2.1a3,3,0,0,1,.83,2.1,3.49,3.49,0,0,1-3.73,3.54,3.75,3.75,0,0,1-1.53-.35,1.52,1.52,0,0,0-.65,1.21c0,.64.42,1.1,1.79,1.1h2c2.37,0,3.56.75,3.56,2.44,0,1.9-2,3.53-5.16,3.53C741.42,241,739.7,240,739.7,238.27Zm7.69-.53c0-1-.71-1.27-2-1.27h-1.76a5.83,5.83,0,0,1-1.33-.15,2.13,2.13,0,0,0-1,1.71c0,1.1,1.1,1.79,3,1.79S747.39,238.8,747.39,237.74Zm-1.31-8.25a2.17,2.17,0,1,0-4.33,0,2.18,2.18,0,1,0,4.33,0Z"/><path class="cls-3" d="M750.71,235.26a1.25,1.25,0,1,1,1.25,1.3A1.26,1.26,0,0,1,750.71,235.26Z"/><path class="cls-3" d="M756,222.89a1.2,1.2,0,0,1,2.39,0,1.2,1.2,0,0,1-2.39,0Zm.32,3.22H758v10.2H756.3Z"/><path class="cls-3" d="M760.71,231.22c0-3.4,2.23-5.36,4.73-5.36s4.73,2,4.73,5.36-2.23,5.34-4.73,5.34S760.71,234.6,760.71,231.22Zm7.68,0c0-2.34-1.19-3.93-2.95-3.93s-2.94,1.59-2.94,3.93,1.19,3.91,2.94,3.91S768.39,233.56,768.39,231.22Z"/></g><rect class="cls-4" x="0.5" y="96.5" width="52" height="52" rx="26" ry="26" transform="translate(-96.09 148.6) rotate(-89.81)"/><path d="M25.89,108,15.67,130.86c-.59,1.31,1.35,2.46,1.94,1.13l10.23-22.86c.58-1.31-1.36-2.46-1.95-1.14Z"/><path d="M26.52,109.62l12.48,22a1.12,1.12,0,0,0,1.94-1.13l-12.47-22a1.13,1.13,0,0,0-1.95,1.14Z"/><path d="M21,123.21,31.9,121c1.41-.28.81-2.45-.6-2.17L20.43,121c-1.41.29-.81,2.46.6,2.17Z"/><rect class="cls-4" x="129.5" y="0.5" width="52" height="52" rx="26" ry="26" transform="translate(128.49 181.91) rotate(-89.81)"/><path d="M148.53,14.48,147.17,38c-.12,1.93,2.88,1.92,3,0l1.36-23.54c.11-1.93-2.89-1.92-3,0Z"/><path d="M151.05,16c2.83-.41,10.36-.22,8.65,4.42-1.39,3.76-6.23,3.38-9.46,3-1.92-.2-1.91,2.8,0,3,5.1.54,12.1-.35,12.67-6.76.59-6.58-8-7.27-12.66-6.59-1.9.27-1.09,3.16.8,2.89Z"/><path d="M150.71,27.94a16.48,16.48,0,0,1,6.22-.09c2.1.53,4.51,2.53,3.57,4.94C159,36.6,152.2,36.42,149,36c-1.91-.24-1.9,2.77,0,3,4.94.6,14.85-.39,14.72-7.35-.14-7.17-8.75-7.34-13.82-6.63-1.91.26-1.1,3.15.8,2.89Z"/><rect class="cls-4" x="258.5" y="95.5" width="52" height="52" rx="26" ry="26" transform="translate(162.08 405.6) rotate(-89.81)"/><path d="M288.68,109.61a9.42,9.42,0,0,0-9.58,1.74c-3.58,3.24-3.64,9.4-3.24,13.83.84,9.4,10.39,13.6,16.76,5.82,1.22-1.48-.9-3.61-2.12-2.12-2.06,2.52-5.07,4.27-8.4,2.68s-3.39-6.65-3.3-9.55.08-6,2.12-8.08a6.26,6.26,0,0,1,7-1.43c1.82.66,2.6-2.24.8-2.89Z"/><path d="M288.68,109.61a9.42,9.42,0,0,0-9.58,1.74c-3.58,3.24-3.64,9.4-3.24,13.83.84,9.4,10.39,13.6,16.76,5.82,1.22-1.48-.9-3.61-2.12-2.12-2.06,2.52-5.07,4.27-8.4,2.68s-3.39-6.65-3.3-9.55.08-6,2.12-8.08a6.26,6.26,0,0,1,7-1.43c1.82.66,2.6-2.24.8-2.89Z"/><rect class="cls-4" x="129.5" y="193.5" width="52" height="52" rx="26" ry="26" transform="translate(-64.5 374.29) rotate(-89.81)"/><path d="M149,210c4.84,1.68,11.5,3.36,12.84,9.12,1.92,8.3-6.95,10.45-13.07,10.72-1.92.09-1.93,3.09,0,3,7.28-.33,16-2.63,16.27-11.52s-8.37-11.83-15.24-14.21c-1.83-.64-2.62,2.26-.8,2.89Z"/><path d="M146.89,208.76l-.51,21.78c0,1.93,3,1.93,3,0l.51-21.78c0-1.93-3-1.93-3,0Z"/><line class="cls-5" x1="258.5" y1="122.5" x2="53.12" y2="122.12"/><line class="cls-5" x1="132.5" y1="39.5" x2="46.5" y2="105.5"/><line class="cls-5" x1="46.5" y1="138.5" x2="132.5" y2="208.5"/><rect class="cls-6" x="436.5" y="26.5" width="44" height="47" rx="4.7" ry="4.7" transform="translate(408.5 508.5) rotate(-90)"/><path d="M403.89,35,393.67,57.86c-.59,1.31,1.35,2.46,1.94,1.13l10.23-22.86c.58-1.31-1.36-2.46-1.95-1.14Z"/><path d="M404.52,36.62l12.48,22a1.12,1.12,0,0,0,1.94-1.13l-12.47-22a1.13,1.13,0,0,0-2,1.14Z"/><path d="M399,50.21,409.9,48c1.41-.28.81-2.45-.6-2.17L398.43,48c-1.41.29-.81,2.46.6,2.17Z"/><path d="M397.53,88.48,396.17,112c-.12,1.93,2.88,1.92,3,0l1.36-23.54c.11-1.93-2.89-1.92-3,0Z"/><path d="M400.05,90c2.83-.41,10.36-.22,8.65,4.42-1.39,3.76-6.23,3.38-9.46,3-1.92-.2-1.91,2.8,0,3,5.1.54,12.1-.35,12.67-6.76.59-6.58-8-7.27-12.66-6.59-1.9.27-1.09,3.16.8,2.89Z"/><path d="M399.71,101.94a16.48,16.48,0,0,1,6.22-.09c2.1.53,4.51,2.53,3.57,4.94-1.5,3.81-8.3,3.63-11.49,3.24-1.91-.24-1.9,2.77,0,3,4.94.6,14.85-.39,14.72-7.35-.14-7.17-8.75-7.34-13.82-6.63-1.91.26-1.1,3.15.8,2.89Z"/><path d="M409.68,142.61a9.42,9.42,0,0,0-9.58,1.74c-3.58,3.24-3.64,9.4-3.24,13.83.84,9.4,10.39,13.6,16.76,5.82,1.22-1.48-.9-3.61-2.12-2.12-2.06,2.52-5.07,4.27-8.4,2.68s-3.39-6.65-3.3-9.55.08-6,2.12-8.08a6.26,6.26,0,0,1,7-1.43c1.82.66,2.6-2.24.8-2.89Z"/><path d="M399,196c4.84,1.68,11.5,3.36,12.84,9.12,1.92,8.3-7,10.45-13.07,10.72-1.92.09-1.93,3.09,0,3,7.28-.33,16-2.63,16.27-11.52s-8.37-11.83-15.24-14.21c-1.83-.64-2.62,2.26-.8,2.89Z"/><path d="M396.89,194.76l-.51,21.78c0,1.93,3,1.93,3,0l.51-21.78c0-1.93-3-1.93-3,0Z"/><line class="cls-5" x1="503" y1="49.54" x2="458.5" y2="49.5"/><polygon points="501.12 57.24 501.53 41.02 511.1 49.82 501.12 57.24"/><path d="M527.53,38.27l-1.36,23.54c-.11,1.92,2.89,1.92,3,0l1.36-23.54c.11-1.93-2.89-1.92-3,0Z"/><path d="M530.05,39.82c2.83-.41,10.36-.22,8.65,4.42-1.39,3.76-6.23,3.38-9.46,3-1.92-.2-1.9,2.8,0,3,5.1.54,12.1-.35,12.68-6.77s-8-7.26-12.67-6.58c-1.9.27-1.09,3.16.8,2.89Z"/><path d="M529.71,51.73a16.48,16.48,0,0,1,6.22-.09c2.1.53,4.51,2.53,3.57,4.94-1.5,3.8-8.3,3.63-11.49,3.24-1.91-.24-1.89,2.77,0,3,4.94.6,14.85-.39,14.72-7.35-.14-7.17-8.75-7.34-13.82-6.63-1.9.26-1.09,3.15.8,2.89Z"/><path d="M740.89,40.76l-.51,21.78c0,1.93,3,1.93,3,0l.51-21.78c0-1.93-3-1.93-3,0Z"/><path d="M742,41c4.84,1.68,11.5,3.36,12.84,9.12,1.92,8.3-6.95,10.45-13.07,10.72-1.92.09-1.93,3.09,0,3,7.28-.33,16-2.63,16.27-11.52s-8.37-11.83-15.24-14.21c-1.83-.64-2.62,2.26-.8,2.89Z"/><path class="cls-7" d="M541.32,42.75h44a0,0,0,0,1,0,0V54.1a4,4,0,0,1-4,4H544.77a3.45,3.45,0,0,1-3.45-3.45V42.75A0,0,0,0,1,541.32,42.75Z" transform="translate(512.9 613.75) rotate(-90)"/><path class="cls-1" d="M665.68,31.2V69.65c0,1.53-.78,2.77-1.74,2.77H625c-1,0-1.74-1.24-1.74-2.77V31.2c0-1.54.78-2.78,1.74-2.78h38.91C664.9,28.42,665.68,29.66,665.68,31.2Z"/><path class="cls-7" d="M648.32,42.75h44a0,0,0,0,1,0,0V54.1a4,4,0,0,1-4,4H651.77a3.45,3.45,0,0,1-3.45-3.45V42.75A0,0,0,0,1,648.32,42.75Z" transform="translate(619.9 720.75) rotate(-90)"/><rect class="cls-6" x="436.5" y="79.5" width="44" height="47" rx="4.7" ry="4.7" transform="translate(355.5 561.5) rotate(-90)"/><rect class="cls-6" x="436.5" y="133.5" width="44" height="47" rx="4.7" ry="4.7" transform="translate(301.5 615.5) rotate(-90)"/><line class="cls-5" x1="503" y1="156.54" x2="458.5" y2="156.5"/><polygon points="501.12 164.25 501.53 148.02 511.1 156.82 501.12 164.25"/><path class="cls-1" d="M558.68,138.2v38.45c0,1.53-.78,2.77-1.74,2.77H518c-1,0-1.74-1.24-1.74-2.77V138.2c0-1.54.78-2.78,1.74-2.78h38.91C557.9,135.42,558.68,136.66,558.68,138.2Z"/><path class="cls-7" d="M541.32,149.75h44a0,0,0,0,1,0,0V161.1a4,4,0,0,1-4,4H544.77a3.45,3.45,0,0,1-3.45-3.45v-11.9A0,0,0,0,1,541.32,149.75Z" transform="translate(405.9 720.75) rotate(-90)"/><path d="M535.78,143.68l-10.22,25.91c-.54,1.35,1.64,1.93,2.17.6L538,144.28c.53-1.34-1.64-1.93-2.17-.6Z"/><path d="M536.52,145.11,549,170c.65,1.3,2.59.16,1.94-1.13L538.47,144c-.65-1.29-2.59-.15-2,1.14Z"/><path d="M531,160.44l10.87-2.5c1.41-.33.81-2.5-.6-2.17l-10.87,2.5c-1.41.32-.81,2.49.6,2.17Z"/><line class="cls-8" x1="556" y1="179" x2="570" y2="137"/><line class="cls-5" x1="503" y1="102.54" x2="458.5" y2="102.5"/><polygon points="501.12 110.25 501.53 94.02 511.1 102.82 501.12 110.25"/><path class="cls-1" d="M558.68,84.2v38.45c0,1.53-.78,2.77-1.74,2.77H518c-1,0-1.74-1.24-1.74-2.77V84.2c0-1.54.78-2.78,1.74-2.78h38.91C557.9,81.42,558.68,82.66,558.68,84.2Z"/><path class="cls-7" d="M541.32,95.75h44a0,0,0,0,1,0,0V107.1a4,4,0,0,1-4,4H544.77a3.45,3.45,0,0,1-3.45-3.45V95.75a0,0,0,0,1,0,0Z" transform="translate(459.9 666.75) rotate(-90)"/><path d="M535.78,89.68l-10.22,25.91c-.54,1.35,1.64,1.93,2.17.6L538,90.28c.53-1.34-1.64-1.93-2.17-.6Z"/><path d="M536.52,91.11,549,116c.65,1.3,2.59.16,1.94-1.13L538.47,90c-.65-1.29-2.59-.15-2,1.14Z"/><path d="M531,106.44l10.87-2.5c1.41-.33.81-2.5-.6-2.17l-10.87,2.5c-1.41.32-.81,2.49.6,2.17Z"/><line class="cls-8" x1="556" y1="125" x2="570" y2="83"/><path class="cls-7" d="M755.32,42.75h44a0,0,0,0,1,0,0V54.1a4,4,0,0,1-4,4H758.77a3.45,3.45,0,0,1-3.45-3.45V42.75a0,0,0,0,1,0,0Z" transform="translate(726.9 827.75) rotate(-90)"/><line class="cls-8" x1="770" y1="72" x2="784" y2="30"/><rect class="cls-6" x="436.5" y="186.5" width="44" height="47" rx="4.7" ry="4.7" transform="translate(248.5 668.5) rotate(-90)"/><line class="cls-5" x1="503" y1="209.54" x2="458.5" y2="209.5"/><polygon points="501.12 217.25 501.53 201.02 511.1 209.82 501.12 217.25"/><path class="cls-1" d="M558.68,191.2v38.45c0,1.53-.78,2.77-1.74,2.77H518c-1,0-1.74-1.24-1.74-2.77V191.2c0-1.54.78-2.78,1.74-2.78h38.91C557.9,188.42,558.68,189.66,558.68,191.2Z"/><path class="cls-7" d="M541.32,202.75h44a0,0,0,0,1,0,0V214.1a4,4,0,0,1-4,4H544.77a3.45,3.45,0,0,1-3.45-3.45v-11.9a0,0,0,0,1,0,0Z" transform="translate(352.9 773.75) rotate(-90)"/><path d="M535.78,196.68l-10.22,25.91c-.54,1.35,1.64,1.93,2.17.6L538,197.28c.53-1.34-1.64-1.93-2.17-.6Z"/><path d="M536.52,198.11,549,223c.65,1.3,2.59.16,1.94-1.13L538.47,197c-.65-1.29-2.59-.15-2,1.14Z"/><path d="M531,213.44l10.87-2.5c1.41-.33.81-2.5-.6-2.17l-10.87,2.5c-1.41.32-.81,2.49.6,2.17Z"/><line class="cls-8" x1="556" y1="232" x2="570" y2="190"/><line class="cls-5" x1="608" y1="49.54" x2="563.5" y2="49.5"/><polygon points="606.12 57.24 606.53 41.02 616.1 49.82 606.12 57.24"/><path d="M649.68,40.4a9.42,9.42,0,0,0-9.58,1.74c-3.58,3.24-3.64,9.4-3.24,13.83.84,9.4,10.39,13.59,16.76,5.82,1.22-1.48-.89-3.62-2.12-2.12-2.06,2.52-5.07,4.27-8.39,2.68s-3.4-6.65-3.3-9.55.08-6,2.11-8.08a6.25,6.25,0,0,1,7-1.43c1.82.66,2.61-2.24.8-2.89Z"/><line class="cls-5" x1="713" y1="49.54" x2="668.5" y2="49.5"/><polygon points="711.12 57.24 711.53 41.02 721.1 49.82 711.12 57.24"/></g></g></svg>