<svg xmlns="http://www.w3.org/2000/svg" viewBox="0 0 683 286.01"><defs><style>.cls-1,.cls-4,.cls-6,.cls-7{fill:#00aa94;}.cls-1{opacity:0.2;}.cls-2,.cls-6{opacity:0.5;}.cls-3{fill:#666;}.cls-4,.cls-5{stroke:#000;stroke-miterlimit:10;}.cls-4,.cls-7{opacity:0.8;}.cls-5{fill:none;}.cls-8{font-size:25px;font-family:NanumGothic, Nanum Gothic;}</style></defs><title>자산 21</title><g id="레이어_2" data-name="레이어 2"><g id="레이어_1-2" data-name="레이어 1"><rect class="cls-1" x="453.5" y="21.5" width="214" height="245" rx="5.85" ry="5.85" transform="translate(416.5 704.5) rotate(-90)"/><g class="cls-2"><path class="cls-3" d="M622.92,267.89a1.19,1.19,0,0,1,2.38,0,1.19,1.19,0,0,1-2.38,0Zm.31,3.22H625v10.2h-1.73Z"/><path class="cls-3" d="M628.41,271.11h1.42l.15,1.47H630a4.85,4.85,0,0,1,3.42-1.72c2.15,0,3.12,1.38,3.12,4v6.46h-1.73v-6.24c0-1.9-.58-2.72-1.93-2.72-1,0-1.76.54-2.79,1.57v7.39h-1.72Z"/><path class="cls-3" d="M639.11,283.27a2.86,2.86,0,0,1,1.5-2.3v-.09a1.88,1.88,0,0,1-.91-1.67,2.46,2.46,0,0,1,1.12-1.9v-.08a3.53,3.53,0,0,1-1.32-2.74,3.62,3.62,0,0,1,3.83-3.63,4,4,0,0,1,1.44.25h3.56v1.33h-2.1a3,3,0,0,1,.83,2.1,3.49,3.49,0,0,1-3.73,3.54,3.75,3.75,0,0,1-1.53-.35,1.52,1.52,0,0,0-.65,1.21c0,.64.42,1.1,1.79,1.1h2c2.37,0,3.56.75,3.56,2.44,0,1.9-2,3.53-5.16,3.53C640.83,286,639.11,285,639.11,283.27Zm7.69-.53c0-.95-.71-1.27-2-1.27H643a5.83,5.83,0,0,1-1.33-.15,2.13,2.13,0,0,0-1,1.71c0,1.1,1.1,1.79,3,1.79S646.8,283.8,646.8,282.74Zm-1.31-8.25a2.17,2.17,0,1,0-4.33,0,2.18,2.18,0,1,0,4.33,0Z"/><path class="cls-3" d="M649.7,283.27a2.86,2.86,0,0,1,1.5-2.3v-.09a1.88,1.88,0,0,1-.91-1.67,2.46,2.46,0,0,1,1.12-1.9v-.08a3.53,3.53,0,0,1-1.32-2.74,3.62,3.62,0,0,1,3.83-3.63,4,4,0,0,1,1.44.25h3.56v1.33h-2.1a3,3,0,0,1,.83,2.1,3.49,3.49,0,0,1-3.73,3.54,3.75,3.75,0,0,1-1.53-.35,1.52,1.52,0,0,0-.65,1.21c0,.64.42,1.1,1.79,1.1h2c2.37,0,3.56.75,3.56,2.44,0,1.9-2,3.53-5.16,3.53C651.42,286,649.7,285,649.7,283.27Zm7.69-.53c0-.95-.71-1.27-2-1.27h-1.76a5.83,5.83,0,0,1-1.33-.15,2.13,2.13,0,0,0-1,1.71c0,1.1,1.1,1.79,3,1.79S657.39,283.8,657.39,282.74Zm-1.31-8.25a2.17,2.17,0,1,0-4.33,0,2.18,2.18,0,1,0,4.33,0Z"/><path class="cls-3" d="M660.71,280.26a1.25,1.25,0,1,1,1.25,1.3A1.26,1.26,0,0,1,660.71,280.26Z"/><path class="cls-3" d="M666,267.89a1.2,1.2,0,0,1,2.39,0,1.2,1.2,0,0,1-2.39,0Zm.32,3.22H668v10.2H666.3Z"/><path class="cls-3" d="M670.71,276.22c0-3.4,2.23-5.36,4.73-5.36s4.73,2,4.73,5.36-2.23,5.34-4.73,5.34S670.71,279.6,670.71,276.22Zm7.68,0c0-2.34-1.19-3.93-2.95-3.93s-2.94,1.59-2.94,3.93,1.19,3.91,2.94,3.91S678.39,278.56,678.39,276.22Z"/></g><rect class="cls-4" x="0.5" y="96.5" width="52" height="52" rx="26" ry="26" transform="translate(-96.09 148.6) rotate(-89.81)"/><path d="M25.89,108,15.67,130.86c-.59,1.31,1.35,2.46,1.94,1.13l10.23-22.86c.58-1.31-1.36-2.46-1.95-1.14Z"/><path d="M26.52,109.62l12.48,22a1.12,1.12,0,0,0,1.94-1.13l-12.47-22a1.13,1.13,0,0,0-1.95,1.14Z"/><path d="M21,123.21,31.9,121c1.41-.28.81-2.45-.6-2.17L20.43,121c-1.41.29-.81,2.46.6,2.17Z"/><rect class="cls-4" x="129.5" y="0.5" width="52" height="52" rx="26" ry="26" transform="translate(128.49 181.91) rotate(-89.81)"/><path d="M148.53,14.48,147.17,38c-.12,1.93,2.88,1.92,3,0l1.36-23.54c.11-1.93-2.89-1.92-3,0Z"/><path d="M151.05,16c2.83-.41,10.36-.22,8.65,4.42-1.39,3.76-6.23,3.38-9.46,3-1.92-.2-1.91,2.8,0,3,5.1.54,12.1-.35,12.67-6.76.59-6.58-8-7.27-12.66-6.59-1.9.27-1.09,3.16.8,2.89Z"/><path d="M150.71,27.94a16.48,16.48,0,0,1,6.22-.09c2.1.53,4.51,2.53,3.57,4.94C159,36.6,152.2,36.42,149,36c-1.91-.24-1.9,2.77,0,3,4.94.6,14.85-.39,14.72-7.35-.14-7.17-8.75-7.34-13.82-6.63-1.91.26-1.1,3.15.8,2.89Z"/><rect class="cls-4" x="258.5" y="95.5" width="52" height="52" rx="26" ry="26" transform="translate(162.08 405.6) rotate(-89.81)"/><path d="M288.68,109.61a9.42,9.42,0,0,0-9.58,1.74c-3.58,3.24-3.64,9.4-3.24,13.83.84,9.4,10.39,13.6,16.76,5.82,1.22-1.48-.9-3.61-2.12-2.12-2.06,2.52-5.07,4.27-8.4,2.68s-3.39-6.65-3.3-9.55.08-6,2.12-8.08a6.26,6.26,0,0,1,7-1.43c1.82.66,2.6-2.24.8-2.89Z"/><path d="M288.68,109.61a9.42,9.42,0,0,0-9.58,1.74c-3.58,3.24-3.64,9.4-3.24,13.83.84,9.4,10.39,13.6,16.76,5.82,1.22-1.48-.9-3.61-2.12-2.12-2.06,2.52-5.07,4.27-8.4,2.68s-3.39-6.65-3.3-9.55.08-6,2.12-8.08a6.26,6.26,0,0,1,7-1.43c1.82.66,2.6-2.24.8-2.89Z"/><rect class="cls-4" x="129.5" y="193.5" width="52" height="52" rx="26" ry="26" transform="translate(-64.5 374.29) rotate(-89.81)"/><path d="M149,210c4.84,1.68,11.5,3.36,12.84,9.12,1.92,8.3-6.95,10.45-13.07,10.72-1.92.09-1.93,3.09,0,3,7.28-.33,16-2.63,16.27-11.52s-8.37-11.83-15.24-14.21c-1.83-.64-2.62,2.26-.8,2.89Z"/><path d="M146.89,208.76l-.51,21.78c0,1.93,3,1.93,3,0l.51-21.78c0-1.93-3-1.93-3,0Z"/><line class="cls-5" x1="258.5" y1="122.5" x2="53.12" y2="122.12"/><line class="cls-5" x1="132.5" y1="39.5" x2="46.5" y2="105.5"/><line class="cls-5" x1="46.5" y1="138.5" x2="132.5" y2="208.5"/><line class="cls-5" x1="264.5" y1="138.5" x2="178.5" y2="208.5"/><line class="cls-5" x1="178.5" y1="39.5" x2="264.5" y2="105.5"/><rect class="cls-6" x="443" y="34" width="52" height="60" rx="4.7" ry="4.7" transform="translate(405 533) rotate(-90)"/><rect class="cls-7" x="504" y="34" width="52" height="60" rx="4.7" ry="4.7" transform="translate(466 594) rotate(-90)"/><rect class="cls-7" x="565" y="34" width="52" height="60" rx="4.7" ry="4.7" transform="translate(527 655) rotate(-90)"/><rect class="cls-7" x="626" y="34" width="52" height="60" rx="4.7" ry="4.7" transform="translate(588 716) rotate(-90)"/><rect class="cls-6" x="504" y="87" width="52" height="60" rx="4.7" ry="4.7" transform="translate(413 647) rotate(-90)"/><rect class="cls-7" x="565" y="87" width="52" height="60" rx="4.7" ry="4.7" transform="translate(474 708) rotate(-90)"/><rect class="cls-7" x="443" y="87" width="52" height="60" rx="4.7" ry="4.7" transform="translate(352 586) rotate(-90)"/><rect class="cls-7" x="626" y="87" width="52" height="60" rx="4.7" ry="4.7" transform="translate(535 769) rotate(-90)"/><rect class="cls-6" x="565" y="140" width="52" height="60" rx="4.7" ry="4.7" transform="translate(421 761) rotate(-90)"/><rect class="cls-7" x="504" y="140" width="52" height="60" rx="4.7" ry="4.7" transform="translate(360 700) rotate(-90)"/><rect class="cls-7" x="443" y="140" width="52" height="60" rx="4.7" ry="4.7" transform="translate(299 639) rotate(-90)"/><rect class="cls-7" x="626" y="140" width="52" height="60" rx="4.7" ry="4.7" transform="translate(482 822) rotate(-90)"/><rect class="cls-6" x="626" y="193" width="52" height="60" rx="4.7" ry="4.7" transform="translate(429 875) rotate(-90)"/><rect class="cls-7" x="565" y="193" width="52" height="60" rx="4.7" ry="4.7" transform="translate(368 814) rotate(-90)"/><rect class="cls-7" x="443" y="193" width="52" height="60" rx="4.7" ry="4.7" transform="translate(246 692) rotate(-90)"/><rect class="cls-7" x="504" y="193" width="52" height="60" rx="4.7" ry="4.7" transform="translate(307 753) rotate(-90)"/><path d="M466.89,3,456.67,25.86c-.59,1.31,1.35,2.46,1.94,1.13L468.84,4.13c.58-1.31-1.36-2.46-1.95-1.14Z"/><path d="M467.52,4.62l12.48,22a1.12,1.12,0,0,0,1.94-1.13l-12.47-22a1.13,1.13,0,0,0-2,1.14Z"/><path d="M462,18.21,472.9,16c1.41-.28.81-2.45-.6-2.17L461.43,16c-1.41.29-.81,2.46.6,2.17Z"/><path d="M412.89,52,402.67,74.86c-.59,1.31,1.35,2.46,1.94,1.13l10.23-22.86c.58-1.31-1.36-2.46-1.95-1.14Z"/><path d="M413.52,53.62l12.48,22a1.12,1.12,0,0,0,1.94-1.13l-12.47-22a1.13,1.13,0,0,0-2,1.14Z"/><path d="M408,67.21,418.9,65c1.41-.28.81-2.45-.6-2.17L407.43,65c-1.41.29-.81,2.46.6,2.17Z"/><path d="M526.53,3.48,525.17,27c-.12,1.93,2.88,1.92,3,0l1.36-23.54c.11-1.93-2.89-1.92-3,0Z"/><path d="M529.05,5c2.83-.41,10.36-.22,8.65,4.42-1.39,3.76-6.23,3.38-9.46,3-1.92-.2-1.91,2.8,0,3,5.1.54,12.1-.35,12.67-6.76.59-6.58-8-7.27-12.66-6.59-1.9.27-1.09,3.16.8,2.89Z"/><path d="M528.71,16.94a16.48,16.48,0,0,1,6.22-.09c2.1.53,4.51,2.53,3.57,4.94C537,25.6,530.2,25.42,527,25c-1.91-.24-1.9,2.77,0,3,4.94.6,14.85-.39,14.72-7.35-.14-7.17-8.75-7.34-13.82-6.63-1.91.26-1.1,3.15.8,2.89Z"/><path d="M406.53,105.48,405.17,129c-.12,1.93,2.88,1.92,3,0l1.36-23.54c.11-1.93-2.89-1.92-3,0Z"/><path d="M409.05,107c2.83-.41,10.36-.22,8.65,4.42-1.39,3.76-6.23,3.38-9.46,3-1.92-.2-1.91,2.8,0,3,5.1.54,12.1-.35,12.67-6.76.59-6.58-8-7.27-12.66-6.59-1.9.27-1.09,3.16.8,2.89Z"/><path d="M408.71,118.94a16.48,16.48,0,0,1,6.22-.09c2.1.53,4.51,2.53,3.57,4.94-1.5,3.81-8.3,3.63-11.49,3.24-1.91-.24-1.9,2.77,0,3,4.94.6,14.85-.39,14.72-7.35-.14-7.17-8.75-7.34-13.82-6.63-1.91.26-1.1,3.15.8,2.89Z"/><path d="M599.68,4.61a9.42,9.42,0,0,0-9.58,1.74c-3.58,3.24-3.64,9.4-3.24,13.83.84,9.4,10.39,13.6,16.76,5.82,1.22-1.48-.9-3.61-2.12-2.12-2.06,2.52-5.07,4.27-8.4,2.68s-3.39-6.65-3.3-9.55.08-6,2.12-8.08a6.26,6.26,0,0,1,7-1.43c1.82.66,2.6-2.24.8-2.89Z"/><path d="M418.68,159.61a9.42,9.42,0,0,0-9.58,1.74c-3.58,3.24-3.64,9.4-3.24,13.83.84,9.4,10.39,13.6,16.76,5.82,1.22-1.48-.9-3.61-2.12-2.12-2.06,2.52-5.07,4.27-8.4,2.68s-3.39-6.65-3.3-9.55.08-6,2.12-8.08a6.26,6.26,0,0,1,7-1.43c1.82.66,2.6-2.24.8-2.89Z"/><path d="M408,210c4.84,1.68,11.5,3.36,12.84,9.12,1.92,8.3-7,10.45-13.07,10.72-1.92.09-1.93,3.09,0,3,7.28-.33,16-2.63,16.27-11.52s-8.37-11.83-15.24-14.21c-1.83-.64-2.62,2.26-.8,2.89Z"/><path d="M405.89,208.76l-.51,21.78c0,1.93,3,1.93,3,0l.51-21.78c0-1.93-3-1.93-3,0Z"/><path d="M649,7c4.84,1.68,11.5,3.36,12.84,9.12,1.92,8.3-6.95,10.45-13.07,10.72-1.92.09-1.93,3.09,0,3,7.28-.33,16-2.63,16.27-11.52S656.62,6.5,649.75,4.12c-1.83-.64-2.62,2.26-.8,2.89Z"/><path d="M646.89,5.76l-.51,21.78c0,1.93,3,1.93,3,0l.51-21.78c0-1.93-3-1.93-3,0Z"/><text class="cls-8" transform="translate(462.13 71.91)">0</text><text class="cls-8" transform="translate(462.13 124.91)">1</text><text class="cls-8" transform="translate(462.13 177.91)">1</text><text class="cls-8" transform="translate(462.13 230.91)">1</text><text class="cls-8" transform="translate(522.13 230.91)">1</text><text class="cls-8" transform="translate(583.13 230.91)">1</text><text class="cls-8" transform="translate(583.13 123.91)">1</text><text class="cls-8" transform="translate(583.13 71.91)">1</text><text class="cls-8" transform="translate(522.13 71.91)">1</text><text class="cls-8" transform="translate(644.13 71.91)">1</text><text class="cls-8" transform="translate(644.13 124.91)">1</text><text class="cls-8" transform="translate(644.13 177.91)">1</text><text class="cls-8" transform="translate(522.13 177.91)">1</text><text class="cls-8" transform="translate(522.13 124.91)">0</text><text class="cls-8" transform="translate(583.13 179.91)">0</text><text class="cls-8" transform="translate(644.13 230.91)">0</text></g></g></svg>