<svg xmlns="http://www.w3.org/2000/svg" viewBox="0 0 786 249.01"><defs><style>.cls-1,.cls-4,.cls-6{fill:#00aa94;}.cls-1,.cls-6{opacity:0.8;}.cls-2,.cls-4{opacity:0.5;}.cls-3{fill:#666;}.cls-5,.cls-8{fill:none;}.cls-5,.cls-6,.cls-8{stroke:#000;stroke-miterlimit:10;}.cls-7{fill:#b2ecff;}.cls-8{stroke-width:0.25px;}.cls-9{font-size:18px;font-family:NanumGothic, Nanum Gothic;}</style></defs><title>자산 24</title><g id="레이어_2" data-name="레이어 2"><g id="레이어_1-2" data-name="레이어 1"><path class="cls-1" d="M771.68,39.2V77.65c0,1.53-.78,2.77-1.74,2.77H731c-1,0-1.74-1.24-1.74-2.77V39.2c0-1.54.78-2.78,1.74-2.78h38.91C770.9,36.42,771.68,37.66,771.68,39.2Z"/><path class="cls-1" d="M559.68,39.2V77.65c0,1.53-.78,2.77-1.74,2.77H519c-1,0-1.74-1.24-1.74-2.77V39.2c0-1.54.78-2.78,1.74-2.78h38.91C558.9,36.42,559.68,37.66,559.68,39.2Z"/><g class="cls-2"><path class="cls-3" d="M713.92,230.89a1.19,1.19,0,0,1,2.38,0,1.19,1.19,0,0,1-2.38,0Zm.31,3.22H716v10.2h-1.73Z"/><path class="cls-3" d="M719.41,234.11h1.42l.15,1.47H721a4.85,4.85,0,0,1,3.42-1.72c2.15,0,3.12,1.38,3.12,4v6.46h-1.73v-6.24c0-1.9-.58-2.72-1.93-2.72-1,0-1.76.54-2.79,1.57v7.39h-1.72Z"/><path class="cls-3" d="M730.11,246.27a2.86,2.86,0,0,1,1.5-2.3v-.09a1.88,1.88,0,0,1-.91-1.67,2.46,2.46,0,0,1,1.12-1.9v-.08a3.53,3.53,0,0,1-1.32-2.74,3.62,3.62,0,0,1,3.83-3.63,4,4,0,0,1,1.44.25h3.56v1.33h-2.1a3,3,0,0,1,.83,2.1,3.49,3.49,0,0,1-3.73,3.54,3.75,3.75,0,0,1-1.53-.35,1.52,1.52,0,0,0-.65,1.21c0,.64.42,1.1,1.79,1.1h2c2.37,0,3.56.75,3.56,2.44,0,1.9-2,3.53-5.16,3.53C731.83,249,730.11,248,730.11,246.27Zm7.69-.53c0-1-.71-1.27-2-1.27H734a5.83,5.83,0,0,1-1.33-.15,2.13,2.13,0,0,0-1,1.71c0,1.1,1.1,1.79,3,1.79S737.8,246.8,737.8,245.74Zm-1.31-8.25a2.17,2.17,0,1,0-4.33,0,2.18,2.18,0,1,0,4.33,0Z"/><path class="cls-3" d="M740.7,246.27a2.86,2.86,0,0,1,1.5-2.3v-.09a1.88,1.88,0,0,1-.91-1.67,2.46,2.46,0,0,1,1.12-1.9v-.08a3.53,3.53,0,0,1-1.32-2.74,3.62,3.62,0,0,1,3.83-3.63,4,4,0,0,1,1.44.25h3.56v1.33h-2.1a3,3,0,0,1,.83,2.1,3.49,3.49,0,0,1-3.73,3.54,3.75,3.75,0,0,1-1.53-.35,1.52,1.52,0,0,0-.65,1.21c0,.64.42,1.1,1.79,1.1h2c2.37,0,3.56.75,3.56,2.44,0,1.9-2,3.53-5.16,3.53C742.42,249,740.7,248,740.7,246.27Zm7.69-.53c0-1-.71-1.27-2-1.27h-1.76a5.83,5.83,0,0,1-1.33-.15,2.13,2.13,0,0,0-1,1.71c0,1.1,1.1,1.79,3,1.79S748.39,246.8,748.39,245.74Zm-1.31-8.25a2.17,2.17,0,1,0-4.33,0,2.18,2.18,0,1,0,4.33,0Z"/><path class="cls-3" d="M751.71,243.26a1.25,1.25,0,1,1,1.25,1.3A1.26,1.26,0,0,1,751.71,243.26Z"/><path class="cls-3" d="M757,230.89a1.2,1.2,0,0,1,2.39,0,1.2,1.2,0,0,1-2.39,0Zm.32,3.22H759v10.2H757.3Z"/><path class="cls-3" d="M761.71,239.22c0-3.4,2.23-5.36,4.73-5.36s4.73,2,4.73,5.36-2.23,5.34-4.73,5.34S761.71,242.6,761.71,239.22Zm7.68,0c0-2.34-1.19-3.93-2.95-3.93s-2.94,1.59-2.94,3.93,1.19,3.91,2.94,3.91S769.39,241.56,769.39,239.22Z"/></g><rect class="cls-4" x="437.5" y="34.5" width="44" height="47" rx="4.7" ry="4.7" transform="translate(401.5 517.5) rotate(-90)"/><path d="M404.89,43,394.67,65.86c-.59,1.31,1.35,2.46,1.94,1.13l10.23-22.86c.58-1.31-1.36-2.46-1.95-1.14Z"/><path d="M405.52,44.62l12.48,22a1.12,1.12,0,0,0,1.94-1.13l-12.47-22a1.13,1.13,0,0,0-2,1.14Z"/><path d="M400,58.21,410.9,56c1.41-.28.81-2.45-.6-2.17L399.43,56c-1.41.29-.81,2.46.6,2.17Z"/><path d="M398.53,96.48,397.17,120c-.12,1.93,2.88,1.92,3,0l1.36-23.54c.11-1.93-2.89-1.92-3,0Z"/><path d="M401.05,98c2.83-.41,10.36-.22,8.65,4.42-1.39,3.76-6.23,3.38-9.46,3-1.92-.2-1.91,2.8,0,3,5.1.54,12.1-.35,12.67-6.76.59-6.58-8-7.27-12.66-6.59-1.9.27-1.09,3.16.8,2.89Z"/><path d="M400.71,109.94a16.48,16.48,0,0,1,6.22-.09c2.1.53,4.51,2.53,3.57,4.94-1.5,3.81-8.3,3.63-11.49,3.24-1.91-.24-1.9,2.77,0,3,4.94.6,14.85-.39,14.72-7.35-.14-7.17-8.75-7.34-13.82-6.63-1.91.26-1.1,3.15.8,2.89Z"/><path d="M410.68,150.61a9.42,9.42,0,0,0-9.58,1.74c-3.58,3.24-3.64,9.4-3.24,13.83.84,9.4,10.39,13.6,16.76,5.82,1.22-1.48-.9-3.61-2.12-2.12-2.06,2.52-5.07,4.27-8.4,2.68s-3.39-6.65-3.3-9.55.08-6,2.12-8.08a6.26,6.26,0,0,1,7-1.43c1.82.66,2.6-2.24.8-2.89Z"/><path d="M400,204c4.84,1.68,11.5,3.36,12.84,9.12,1.92,8.3-7,10.45-13.07,10.72-1.92.09-1.93,3.09,0,3,7.28-.33,16-2.63,16.27-11.52s-8.37-11.83-15.24-14.21c-1.83-.64-2.62,2.26-.8,2.89Z"/><path d="M397.89,202.76l-.51,21.78c0,1.93,3,1.93,3,0l.51-21.78c0-1.93-3-1.93-3,0Z"/><line class="cls-5" x1="504" y1="57.54" x2="459.5" y2="57.5"/><polygon points="502.12 65.25 502.53 49.02 512.1 57.82 502.12 65.25"/><line class="cls-5" x1="237.5" y1="122.5" x2="52.5" y2="123.5"/><polygon points="235.62 127.25 236.03 117.25 245.6 122.67 235.62 127.25"/><line class="cls-5" x1="124.5" y1="45.5" x2="46.5" y2="105.5"/><line class="cls-5" x1="45.5" y1="140.5" x2="121.5" y2="202.5"/><rect class="cls-6" x="0.5" y="96.5" width="52" height="52" rx="26" ry="26" transform="translate(-96.09 148.6) rotate(-89.81)"/><path d="M25.89,108,15.67,130.86c-.59,1.31,1.35,2.46,1.94,1.13l10.23-22.86c.58-1.31-1.36-2.46-1.95-1.14Z"/><path d="M26.52,109.62l12.48,22a1.12,1.12,0,0,0,1.94-1.13l-12.47-22a1.13,1.13,0,0,0-1.95,1.14Z"/><path d="M21,123.21,31.9,121c1.41-.28.81-2.45-.6-2.17L20.43,121c-1.41.29-.81,2.46.6,2.17Z"/><rect class="cls-6" x="129.5" y="0.5" width="52" height="52" rx="26" ry="26" transform="translate(128.49 181.91) rotate(-89.81)"/><path d="M148.53,14.48,147.17,38c-.12,1.93,2.88,1.92,3,0l1.36-23.54c.11-1.93-2.89-1.92-3,0Z"/><path d="M151.05,16c2.83-.41,10.36-.22,8.65,4.42-1.39,3.76-6.23,3.38-9.46,3-1.92-.2-1.91,2.8,0,3,5.1.54,12.1-.35,12.67-6.76.59-6.58-8-7.27-12.66-6.59-1.9.27-1.09,3.16.8,2.89Z"/><path d="M150.71,27.94a16.48,16.48,0,0,1,6.22-.09c2.1.53,4.51,2.53,3.57,4.94C159,36.6,152.2,36.42,149,36c-1.91-.24-1.9,2.77,0,3,4.94.6,14.85-.39,14.72-7.35-.14-7.17-8.75-7.34-13.82-6.63-1.91.26-1.1,3.15.8,2.89Z"/><rect class="cls-6" x="258.5" y="96.5" width="52" height="52" rx="26" ry="26" transform="translate(161.08 406.6) rotate(-89.81)"/><path d="M288.68,110.61a9.42,9.42,0,0,0-9.58,1.74c-3.58,3.24-3.64,9.4-3.24,13.83.84,9.4,10.39,13.6,16.76,5.82,1.22-1.48-.9-3.61-2.12-2.12-2.06,2.52-5.07,4.27-8.4,2.68s-3.39-6.65-3.3-9.55.08-6,2.12-8.08a6.26,6.26,0,0,1,7-1.43c1.82.66,2.6-2.24.8-2.89Z"/><rect class="cls-6" x="129.5" y="195.5" width="52" height="52" rx="26" ry="26" transform="translate(-66.5 376.28) rotate(-89.81)"/><path d="M149,212c4.84,1.68,11.5,3.36,12.84,9.12,1.92,8.3-6.95,10.45-13.07,10.72-1.92.09-1.93,3.09,0,3,7.28-.33,16-2.63,16.27-11.52s-8.37-11.83-15.24-14.21c-1.83-.64-2.62,2.26-.8,2.89Z"/><path d="M146.89,210.76l-.51,21.78c0,1.93,3,1.93,3,0l.51-21.78c0-1.93-3-1.93-3,0Z"/><polygon points="122.92 52.84 117.54 44.4 128.5 43.39 122.92 52.84"/><polygon points="117.51 205.32 122.81 196.83 128.44 206.28 117.51 205.32"/><path d="M528.53,46.27l-1.36,23.54c-.11,1.92,2.89,1.92,3,0l1.36-23.54c.11-1.93-2.89-1.92-3,0Z"/><path d="M531.05,47.82c2.83-.41,10.36-.22,8.65,4.42-1.39,3.76-6.23,3.38-9.46,3-1.92-.2-1.9,2.8,0,3,5.1.54,12.1-.35,12.68-6.77s-8-7.26-12.67-6.58c-1.9.27-1.09,3.16.8,2.89Z"/><path d="M530.71,59.73a16.48,16.48,0,0,1,6.22-.09c2.1.53,4.51,2.53,3.57,4.94-1.5,3.8-8.3,3.63-11.49,3.24-1.91-.24-1.89,2.77,0,3,4.94.6,14.85-.39,14.72-7.35-.14-7.17-8.75-7.34-13.82-6.63-1.9.26-1.09,3.15.8,2.89Z"/><path d="M741.89,48.76l-.51,21.78c0,1.93,3,1.93,3,0l.51-21.78c0-1.93-3-1.93-3,0Z"/><path d="M743,49c4.84,1.68,11.5,3.36,12.84,9.12,1.92,8.3-6.95,10.45-13.07,10.72-1.92.09-1.93,3.09,0,3,7.28-.33,16-2.63,16.27-11.52s-8.37-11.83-15.24-14.21c-1.83-.64-2.62,2.26-.8,2.89Z"/><path class="cls-7" d="M542.32,50.75h44a0,0,0,0,1,0,0V62.1a4,4,0,0,1-4,4H545.77a3.45,3.45,0,0,1-3.45-3.45V50.75A0,0,0,0,1,542.32,50.75Z" transform="translate(505.9 622.75) rotate(-90)"/><path class="cls-1" d="M666.68,39.2V77.65c0,1.53-.78,2.77-1.74,2.77H626c-1,0-1.74-1.24-1.74-2.77V39.2c0-1.54.78-2.78,1.74-2.78h38.91C665.9,36.42,666.68,37.66,666.68,39.2Z"/><path class="cls-7" d="M649.32,50.75h44a0,0,0,0,1,0,0V62.1a4,4,0,0,1-4,4H652.77a3.45,3.45,0,0,1-3.45-3.45V50.75A0,0,0,0,1,649.32,50.75Z" transform="translate(612.9 729.75) rotate(-90)"/><rect class="cls-4" x="437.5" y="87.5" width="44" height="47" rx="4.7" ry="4.7" transform="translate(348.5 570.5) rotate(-90)"/><rect class="cls-4" x="437.5" y="141.5" width="44" height="47" rx="4.7" ry="4.7" transform="translate(294.5 624.5) rotate(-90)"/><path class="cls-7" d="M756.32,50.75h44a0,0,0,0,1,0,0V62.1a4,4,0,0,1-4,4H759.77a3.45,3.45,0,0,1-3.45-3.45V50.75a0,0,0,0,1,0,0Z" transform="translate(719.9 836.75) rotate(-90)"/><line class="cls-8" x1="771" y1="80" x2="785" y2="38"/><rect class="cls-4" x="437.5" y="194.5" width="44" height="47" rx="4.7" ry="4.7" transform="translate(241.5 677.5) rotate(-90)"/><line class="cls-5" x1="609" y1="57.54" x2="564.5" y2="57.5"/><polygon points="607.12 65.25 607.53 49.02 617.1 57.82 607.12 65.25"/><path d="M650.68,48.4a9.42,9.42,0,0,0-9.58,1.74c-3.58,3.24-3.64,9.4-3.24,13.83.84,9.4,10.39,13.59,16.76,5.82,1.22-1.48-.89-3.62-2.12-2.12-2.06,2.52-5.07,4.27-8.39,2.68s-3.4-6.65-3.3-9.55.08-6,2.11-8.08a6.25,6.25,0,0,1,7-1.43c1.82.66,2.61-2.24.8-2.89Z"/><line class="cls-5" x1="714" y1="57.54" x2="669.5" y2="57.5"/><polygon points="712.12 65.25 712.53 49.02 722.1 57.82 712.12 65.25"/><text class="cls-9" transform="translate(442 116.94)">null</text><text class="cls-9" transform="translate(442 169.94)">null</text><text class="cls-9" transform="translate(442 222.94)">null</text></g></g></svg>