<svg xmlns="http://www.w3.org/2000/svg" viewBox="0 0 508.36 310.57"><defs><style>.cls-1,.cls-2{fill:#4d4d4d;}.cls-1,.cls-5{stroke:#000;stroke-miterlimit:10;}.cls-1{stroke-width:3px;}.cls-3{opacity:0.5;}.cls-4{fill:#666;}.cls-5{font-size:18px;font-family:MyriadPro-Regular, Myriad Pro;}.cls-6{letter-spacing:0em;}.cls-7{letter-spacing:-0.03em;}.cls-8{letter-spacing:-0.01em;}.cls-9{letter-spacing:0em;}.cls-10,.cls-11{fill:#00aa94;}.cls-10,.cls-12{opacity:0.8;}.cls-12,.cls-13{fill:#008194;}</style></defs><title>자산 11</title><g id="레이어_2" data-name="레이어 2"><g id="레이어_1-2" data-name="레이어 1"><line class="cls-1" x1="269.21" y1="159.15" x2="235.44" y2="160.24"/><polygon class="cls-2" points="269.05 176.04 267.78 141.5 282.36 158.36 269.05 176.04"/><g class="cls-3"><path class="cls-4" d="M1.19,292.8a.89.89,0,0,1,1-.9.9.9,0,0,1,1,.9.91.91,0,0,1-1,.9A.91.91,0,0,1,1.19,292.8Zm.25,2.6h1.4v8.27H1.44Z" transform="translate(-1.19)"/><path class="cls-4" d="M5.63,295.4H6.78l.12,1.19H7a4,4,0,0,1,2.77-1.39c1.74,0,2.52,1.12,2.52,3.23v5.24h-1.4v-5.06c0-1.54-.46-2.2-1.55-2.2A3.12,3.12,0,0,0,7,297.68v6H5.63Z" transform="translate(-1.19)"/><path class="cls-4" d="M14.29,305.25a2.34,2.34,0,0,1,1.22-1.87v-.06a1.55,1.55,0,0,1-.74-1.36,2,2,0,0,1,.91-1.53v-.07a2.86,2.86,0,0,1-1.07-2.22,2.93,2.93,0,0,1,3.1-2.94,3.45,3.45,0,0,1,1.16.2h2.89v1.08h-1.7a2.38,2.38,0,0,1,.67,1.7,2.82,2.82,0,0,1-3,2.86,2.8,2.8,0,0,1-1.23-.28,1.22,1.22,0,0,0-.53,1c0,.52.34.9,1.45.9H19c1.93,0,2.89.6,2.89,2,0,1.54-1.62,2.86-4.18,2.86C15.69,307.47,14.29,306.68,14.29,305.25Zm6.23-.43c0-.76-.58-1-1.66-1H17.43a4.62,4.62,0,0,1-1.07-.12,1.73,1.73,0,0,0-.85,1.39c0,.88.9,1.44,2.4,1.44S20.52,305.68,20.52,304.82Zm-1.06-6.68a1.76,1.76,0,1,0-3.51,0,1.77,1.77,0,1,0,3.51,0Z" transform="translate(-1.19)"/><path class="cls-4" d="M22.87,305.25a2.33,2.33,0,0,1,1.21-1.87v-.06a1.55,1.55,0,0,1-.74-1.36,2,2,0,0,1,.91-1.53v-.07a2.86,2.86,0,0,1-1.07-2.22,2.93,2.93,0,0,1,3.1-2.94,3.51,3.51,0,0,1,1.17.2h2.88v1.08h-1.7a2.38,2.38,0,0,1,.67,1.7,3,3,0,0,1-4.25,2.58,1.22,1.22,0,0,0-.53,1c0,.52.34.9,1.45.9h1.61c1.92,0,2.88.6,2.88,2,0,1.54-1.62,2.86-4.17,2.86C24.26,307.47,22.87,306.68,22.87,305.25Zm6.22-.43c0-.76-.58-1-1.66-1H26a4.67,4.67,0,0,1-1.07-.12,1.72,1.72,0,0,0-.84,1.39c0,.88.89,1.44,2.39,1.44S29.09,305.68,29.09,304.82ZM28,298.14a1.77,1.77,0,1,0-3.52,0,1.77,1.77,0,1,0,3.52,0Z" transform="translate(-1.19)"/><path class="cls-4" d="M31.78,302.81a1,1,0,1,1,1,1.06A1,1,0,0,1,31.78,302.81Z" transform="translate(-1.19)"/><path class="cls-4" d="M36.05,292.8a1,1,0,0,1,1.93,0,1,1,0,0,1-1.93,0Zm.25,2.6h1.4v8.27H36.3Z" transform="translate(-1.19)"/><path class="cls-4" d="M39.88,299.54c0-2.75,1.8-4.34,3.82-4.34s3.83,1.59,3.83,4.34-1.8,4.33-3.83,4.33S39.88,302.28,39.88,299.54Zm6.21,0c0-1.89-1-3.18-2.39-3.18s-2.38,1.29-2.38,3.18,1,3.17,2.38,3.17S46.09,301.44,46.09,299.54Z" transform="translate(-1.19)"/></g><polygon points="127.43 119.8 129.09 121.3 91.37 182.95 89.71 181.45 127.43 119.8"/><polygon points="88.42 175.38 95.87 182.1 84.34 191.94 88.42 175.38"/><text class="cls-5" transform="translate(70.45 271.57)"><tspan class="cls-6">R</tspan><tspan x="9.76" y="0">ear</tspan></text><text class="cls-5" transform="translate(422.45 305.57)"><tspan class="cls-6">R</tspan><tspan x="9.76" y="0">ear</tspan></text><text class="cls-5" transform="translate(74.45 48.57)"><tspan class="cls-7">F</tspan><tspan class="cls-8" x="8.3" y="0">r</tspan><tspan x="14" y="0">o</tspan><tspan class="cls-9" x="23.89" y="0">n</tspan><tspan x="33.8" y="0">t</tspan></text><text class="cls-5" transform="translate(428.45 15.57)"><tspan class="cls-7">F</tspan><tspan class="cls-8" x="8.3" y="0">r</tspan><tspan x="14" y="0">o</tspan><tspan class="cls-9" x="23.89" y="0">n</tspan><tspan x="33.8" y="0">t</tspan></text><rect class="cls-10" x="48.55" y="58.5" width="37" height="73" rx="2.26" ry="2.26" transform="translate(-29.14 162.05) rotate(-90)"/><path class="cls-11" d="M111.87,63.71l-8.5,11.16a1.71,1.71,0,0,1-1.35.63H66.76a1.41,1.41,0,0,1-1.31-2.26l9.38-11.16a1.67,1.67,0,0,1,1.3-.58h34.38A1.43,1.43,0,0,1,111.87,63.71Z" transform="translate(-1.19)"/><path class="cls-11" d="M77.87,63.71l-8.5,11.16A1.71,1.71,0,0,1,68,75.5H32.76a1.41,1.41,0,0,1-1.31-2.26l9.38-11.16a1.67,1.67,0,0,1,1.3-.58H76.51A1.43,1.43,0,0,1,77.87,63.71Z" transform="translate(-1.19)"/><rect class="cls-12" x="105.55" y="75.5" width="37" height="39" rx="2.26" ry="2.26" transform="translate(27.86 219.05) rotate(-90)"/><path class="cls-13" d="M152.27,63.71l-8.49,11.16a1.71,1.71,0,0,1-1.35.63H107.17a1.42,1.42,0,0,1-1.31-2.26l9.38-11.16a1.69,1.69,0,0,1,1.31-.58h34.37A1.42,1.42,0,0,1,152.27,63.71Z" transform="translate(-1.19)"/><path class="cls-13" d="M146.12,113.22l8-8.67a2.12,2.12,0,0,0,.45-1.38v-36c0-1.36-1-2.14-1.62-1.33l-8,9.57a2.14,2.14,0,0,0-.41,1.34v35.1C144.55,113.16,145.45,114,146.12,113.22Z" transform="translate(-1.19)"/><rect class="cls-10" x="48.55" y="195.5" width="37" height="73" rx="2.26" ry="2.26" transform="translate(-166.14 299.05) rotate(-90)"/><path class="cls-11" d="M111.87,200.71l-8.5,11.16a1.71,1.71,0,0,1-1.35.63H66.76a1.41,1.41,0,0,1-1.31-2.26l9.38-11.16a1.67,1.67,0,0,1,1.3-.58h34.38A1.43,1.43,0,0,1,111.87,200.71Z" transform="translate(-1.19)"/><path class="cls-11" d="M77.87,200.71l-8.5,11.16a1.71,1.71,0,0,1-1.35.63H32.76a1.41,1.41,0,0,1-1.31-2.26l9.38-11.16a1.67,1.67,0,0,1,1.3-.58H76.51A1.43,1.43,0,0,1,77.87,200.71Z" transform="translate(-1.19)"/><rect class="cls-12" x="105.55" y="212.5" width="37" height="39" rx="2.26" ry="2.26" transform="translate(-109.14 356.05) rotate(-90)"/><path class="cls-13" d="M152.27,200.71l-8.49,11.16a1.71,1.71,0,0,1-1.35.63H107.17a1.42,1.42,0,0,1-1.31-2.26l9.38-11.16a1.69,1.69,0,0,1,1.31-.58h34.37A1.42,1.42,0,0,1,152.27,200.71Z" transform="translate(-1.19)"/><path class="cls-13" d="M146.12,250.22l8-8.67a2.12,2.12,0,0,0,.45-1.38v-36c0-1.36-1-2.14-1.62-1.33l-8,9.57a2.14,2.14,0,0,0-.41,1.34v35.1C144.55,250.16,145.45,251,146.12,250.22Z" transform="translate(-1.19)"/><path d="M151.66,227.34c8.13-1.76,10.71,7.73,10.28,13.92-.49,6.89-4.21,11.7-11,13.35-6.25,1.5-12.5.77-16.3-4.94-3.37-5-5.06-11.2-5.73-17.17a1.51,1.51,0,0,0-2.95-.4L123.11,240l2.89.8a27.84,27.84,0,0,1,2.77-7.53l-2.35.3a41.83,41.83,0,0,0,5.81,4.37c1.64,1,3.14-1.56,1.51-2.59a38.55,38.55,0,0,1-5.2-3.9,1.52,1.52,0,0,0-2.36.31,30.2,30.2,0,0,0-3.07,8.24,1.5,1.5,0,0,0,2.89.8l2.84-7.85-3-.4c.89,7.9,3.44,18.27,10.3,23.24,5.93,4.31,15.52,3,21.44-.68,11.15-7,9.91-34.22-6.77-30.62-1.89.41-1.09,3.3.8,2.9Z" transform="translate(-1.19)"/><rect class="cls-10" x="403.55" y="22.5" width="37" height="73" rx="2.26" ry="2.26" transform="translate(361.86 481.05) rotate(-90)"/><path class="cls-11" d="M466.87,27.71l-8.5,11.16a1.71,1.71,0,0,1-1.35.63H421.76a1.41,1.41,0,0,1-1.31-2.26l9.38-11.16a1.67,1.67,0,0,1,1.3-.58h34.38A1.43,1.43,0,0,1,466.87,27.71Z" transform="translate(-1.19)"/><path class="cls-11" d="M432.87,27.71l-8.5,11.16a1.71,1.71,0,0,1-1.35.63H387.76a1.41,1.41,0,0,1-1.31-2.26l9.38-11.16a1.67,1.67,0,0,1,1.3-.58h34.38A1.43,1.43,0,0,1,432.87,27.71Z" transform="translate(-1.19)"/><rect class="cls-12" x="460.55" y="39.5" width="37" height="39" rx="2.26" ry="2.26" transform="translate(418.86 538.05) rotate(-90)"/><path class="cls-13" d="M507.27,27.71l-8.49,11.16a1.71,1.71,0,0,1-1.35.63H462.17a1.42,1.42,0,0,1-1.31-2.26l9.38-11.16a1.69,1.69,0,0,1,1.31-.58h34.37A1.42,1.42,0,0,1,507.27,27.71Z" transform="translate(-1.19)"/><path class="cls-13" d="M501.12,77.22l8-8.67a2.12,2.12,0,0,0,.45-1.38v-36c0-1.36-.95-2.14-1.62-1.33l-8,9.57a2.14,2.14,0,0,0-.41,1.34v35.1C499.55,77.16,500.45,78,501.12,77.22Z" transform="translate(-1.19)"/><rect class="cls-10" x="399.55" y="228.5" width="37" height="73" rx="2.26" ry="2.26" transform="translate(151.86 683.05) rotate(-90)"/><path class="cls-11" d="M462.87,233.71l-8.5,11.16a1.71,1.71,0,0,1-1.35.63H417.76a1.41,1.41,0,0,1-1.31-2.26l9.38-11.16a1.67,1.67,0,0,1,1.3-.58h34.38A1.43,1.43,0,0,1,462.87,233.71Z" transform="translate(-1.19)"/><path class="cls-11" d="M428.87,233.71l-8.5,11.16a1.71,1.71,0,0,1-1.35.63H383.76a1.41,1.41,0,0,1-1.31-2.26l9.38-11.16a1.67,1.67,0,0,1,1.3-.58h34.38A1.43,1.43,0,0,1,428.87,233.71Z" transform="translate(-1.19)"/><rect class="cls-12" x="456.55" y="245.5" width="37" height="39" rx="2.26" ry="2.26" transform="translate(208.86 740.05) rotate(-90)"/><path class="cls-13" d="M503.27,233.71l-8.49,11.16a1.71,1.71,0,0,1-1.35.63H458.17a1.42,1.42,0,0,1-1.31-2.26l9.38-11.16a1.69,1.69,0,0,1,1.31-.58h34.37A1.42,1.42,0,0,1,503.27,233.71Z" transform="translate(-1.19)"/><path class="cls-13" d="M497.12,283.22l8-8.67a2.12,2.12,0,0,0,.45-1.38v-36c0-1.36-.95-2.14-1.62-1.33l-8,9.57a2.14,2.14,0,0,0-.41,1.34v35.1C495.55,283.16,496.45,284,497.12,283.22Z" transform="translate(-1.19)"/><rect class="cls-10" x="365.55" y="126.5" width="37" height="73" rx="2.26" ry="2.26" transform="translate(219.86 547.05) rotate(-90)"/><path class="cls-11" d="M428.87,131.71l-8.5,11.16a1.71,1.71,0,0,1-1.35.63H383.76a1.41,1.41,0,0,1-1.31-2.26l9.38-11.16a1.67,1.67,0,0,1,1.3-.58h34.38A1.43,1.43,0,0,1,428.87,131.71Z" transform="translate(-1.19)"/><path class="cls-11" d="M394.87,131.71l-8.5,11.16a1.71,1.71,0,0,1-1.35.63H349.76a1.41,1.41,0,0,1-1.31-2.26l9.38-11.16a1.67,1.67,0,0,1,1.3-.58h34.38A1.43,1.43,0,0,1,394.87,131.71Z" transform="translate(-1.19)"/><rect class="cls-12" x="422.55" y="143.5" width="37" height="39" rx="2.26" ry="2.26" transform="translate(276.86 604.05) rotate(-90)"/><path class="cls-13" d="M469.27,131.71l-8.49,11.16a1.71,1.71,0,0,1-1.35.63H424.17a1.42,1.42,0,0,1-1.31-2.26l9.38-11.16a1.69,1.69,0,0,1,1.31-.58h34.37A1.42,1.42,0,0,1,469.27,131.71Z" transform="translate(-1.19)"/><path class="cls-13" d="M463.12,181.22l8-8.67a2.12,2.12,0,0,0,.45-1.38v-36c0-1.36-.95-2.14-1.62-1.33l-8,9.57a2.14,2.14,0,0,0-.41,1.34v35.1C461.55,181.16,462.45,182,463.12,181.22Z" transform="translate(-1.19)"/><text class="cls-5" transform="translate(371.45 198.57)">ptrNode</text><polygon points="486.25 68.5 487.36 69.69 462.06 118.4 460.94 117.22 486.25 68.5"/><polygon points="460.08 112.42 465.07 117.73 457.34 125.5 460.08 112.42"/><polygon points="440.62 173.04 442.03 172.62 454.58 217.12 453.17 217.54 440.62 173.04"/><polygon points="449.78 216.06 456.11 214.19 455.75 224.5 449.78 216.06"/><polygon points="487.84 240.77 486.65 241.5 469.34 186.37 470.52 185.64 487.84 240.77"/><polygon points="473.7 187.04 468.4 190.33 467.27 177.1 473.7 187.04"/></g></g></svg>