<svg xmlns="http://www.w3.org/2000/svg" viewBox="0 0 674.84 229.01"><defs><style>.cls-1{opacity:0.5;}.cls-2{fill:#666;}.cls-3{fill:#00aa94;opacity:0.8;}.cls-4{fill:#999;}.cls-5{font-size:18.65px;font-family:NanumGothicBold, Nanum Gothic;font-weight:700;}</style></defs><title>자산 5</title><g id="레이어_2" data-name="레이어 2"><g id="레이어_1-2" data-name="레이어 1"><g class="cls-1"><path class="cls-2" d="M615.76,210.89a1.19,1.19,0,0,1,2.38,0,1.19,1.19,0,0,1-2.38,0Zm.31,3.22h1.73v10.2h-1.73Z"/><path class="cls-2" d="M621.24,214.11h1.43l.15,1.47h0a4.9,4.9,0,0,1,3.43-1.73c2.15,0,3.11,1.39,3.11,4v6.46h-1.72v-6.24c0-1.9-.58-2.72-1.93-2.72-1,0-1.77.54-2.79,1.57v7.39h-1.73Z"/><path class="cls-2" d="M632,226.27a2.87,2.87,0,0,1,1.49-2.3v-.09a1.9,1.9,0,0,1-.91-1.67,2.47,2.47,0,0,1,1.13-1.9v-.08a3.54,3.54,0,0,1-1.33-2.74,3.63,3.63,0,0,1,3.83-3.64,4.16,4.16,0,0,1,1.44.26h3.56v1.33h-2.09a3,3,0,0,1,.83,2.1,3.49,3.49,0,0,1-3.74,3.54,3.71,3.71,0,0,1-1.52-.35,1.5,1.5,0,0,0-.65,1.21c0,.64.42,1.1,1.79,1.1h2c2.37,0,3.56.75,3.56,2.44,0,1.9-2,3.53-5.16,3.53C633.67,229,632,228,632,226.27Zm7.69-.53c0-1-.72-1.27-2.06-1.27h-1.76a5.75,5.75,0,0,1-1.32-.15,2.13,2.13,0,0,0-1,1.71c0,1.1,1.11,1.79,3,1.79S639.64,226.8,639.64,225.74Zm-1.31-8.25a2.18,2.18,0,1,0-4.34,0,2.18,2.18,0,1,0,4.34,0Z"/><path class="cls-2" d="M642.54,226.27A2.87,2.87,0,0,1,644,224v-.09a1.9,1.9,0,0,1-.91-1.67,2.47,2.47,0,0,1,1.13-1.9v-.08a3.54,3.54,0,0,1-1.33-2.74,3.63,3.63,0,0,1,3.83-3.64,4.16,4.16,0,0,1,1.44.26h3.56v1.33h-2.09a3,3,0,0,1,.83,2.1,3.49,3.49,0,0,1-3.74,3.54,3.71,3.71,0,0,1-1.52-.35,1.5,1.5,0,0,0-.65,1.21c0,.64.42,1.1,1.79,1.1h2c2.37,0,3.56.75,3.56,2.44,0,1.9-2,3.53-5.16,3.53C644.26,229,642.54,228,642.54,226.27Zm7.69-.53c0-1-.72-1.27-2.06-1.27h-1.76a5.75,5.75,0,0,1-1.32-.15A2.13,2.13,0,0,0,644,226c0,1.1,1.11,1.79,3,1.79S650.23,226.8,650.23,225.74Zm-1.31-8.25a2.18,2.18,0,1,0-4.34,0,2.18,2.18,0,1,0,4.34,0Z"/><path class="cls-2" d="M653.55,223.26a1.25,1.25,0,1,1,1.25,1.3A1.26,1.26,0,0,1,653.55,223.26Z"/><path class="cls-2" d="M658.82,210.89a1.19,1.19,0,0,1,2.38,0,1.19,1.19,0,0,1-2.38,0Zm.32,3.22h1.72v10.2h-1.72Z"/><path class="cls-2" d="M663.55,219.22c0-3.4,2.23-5.37,4.73-5.37s4.73,2,4.73,5.37-2.23,5.34-4.73,5.34S663.55,222.6,663.55,219.22Zm7.67,0c0-2.34-1.19-3.93-2.94-3.93s-2.95,1.59-2.95,3.93,1.19,3.91,2.95,3.91S671.22,221.56,671.22,219.22Z"/></g><rect class="cls-3" x="317.23" y="87.43" width="40.66" height="139.81" rx="4.84" ry="4.84" transform="translate(180.23 494.89) rotate(-90)"/><polygon points="206.7 90.86 206.46 113.38 217.84 102 206.7 90.86"/><polygon points="459.84 90.86 459.6 113.38 470.98 102 459.84 90.86"/><polygon class="cls-4" points="255 0 255 190 419.84 190 419.84 0 411.31 0 411.06 182.19 263.26 182.19 263.4 0 255 0"/><polygon class="cls-4" points="510 0 510 190 674.84 190 674.84 0 666.31 0 666.06 182.19 518.26 182.19 518.4 0 510 0"/><polygon class="cls-4" points="0 0 0 190 164.84 190 164.84 0 156.31 0 156.06 182.19 8.26 182.19 8.4 0 0 0"/><text class="cls-5" transform="translate(280.02 164.92) scale(1.05 1)">전역 컨텍스트</text><rect class="cls-3" x="572.23" y="87.43" width="40.66" height="139.81" rx="4.84" ry="4.84" transform="translate(435.23 749.89) rotate(-90)"/><rect class="cls-3" x="572.23" y="41.43" width="40.66" height="139.81" rx="4.84" ry="4.84" transform="translate(481.23 703.89) rotate(-90)"/><text class="cls-5" transform="translate(535.02 164.92) scale(1.05 1)">전역 컨텍스트</text><text class="cls-5" transform="translate(569.02 116.92) scale(1.05 1)">outer</text></g></g></svg>