<svg xmlns="http://www.w3.org/2000/svg" viewBox="0 0 995.24 229.01"><defs><style>.cls-1{opacity:0.5;}.cls-2{fill:#666;}.cls-3{fill:#999;}.cls-4{fill:#00aa94;opacity:0.8;}.cls-5{font-size:18.65px;font-family:NanumGothicBold, Nanum Gothic;font-weight:700;}</style></defs><title>자산 6</title><g id="레이어_2" data-name="레이어 2"><g id="레이어_1-2" data-name="레이어 1"><g class="cls-1"><path class="cls-2" d="M937.16,210.89a1.19,1.19,0,0,1,2.38,0,1.19,1.19,0,0,1-2.38,0Zm.31,3.22h1.73v10.2h-1.73Z"/><path class="cls-2" d="M942.65,214.11h1.42l.15,1.47h.06a4.85,4.85,0,0,1,3.42-1.72c2.15,0,3.12,1.38,3.12,4v6.46h-1.73v-6.24c0-1.9-.58-2.72-1.93-2.72-1,0-1.76.54-2.79,1.57v7.39h-1.72Z"/><path class="cls-2" d="M953.35,226.27a2.86,2.86,0,0,1,1.5-2.3v-.09a1.88,1.88,0,0,1-.91-1.67,2.46,2.46,0,0,1,1.12-1.9v-.08a3.53,3.53,0,0,1-1.32-2.74,3.62,3.62,0,0,1,3.83-3.63,4,4,0,0,1,1.44.25h3.56v1.33h-2.1a3,3,0,0,1,.83,2.1,3.49,3.49,0,0,1-3.73,3.54,3.75,3.75,0,0,1-1.53-.35,1.52,1.52,0,0,0-.65,1.21c0,.64.42,1.1,1.79,1.1h2c2.37,0,3.56.75,3.56,2.44,0,1.9-2,3.53-5.16,3.53C955.07,229,953.35,228,953.35,226.27Zm7.69-.53c0-1-.71-1.27-2-1.27h-1.76a5.83,5.83,0,0,1-1.33-.15,2.13,2.13,0,0,0-1,1.71c0,1.1,1.1,1.79,3,1.79S961,226.8,961,225.74Zm-1.31-8.25a2.17,2.17,0,1,0-4.33,0,2.18,2.18,0,1,0,4.33,0Z"/><path class="cls-2" d="M963.94,226.27a2.86,2.86,0,0,1,1.5-2.3v-.09a1.88,1.88,0,0,1-.91-1.67,2.46,2.46,0,0,1,1.12-1.9v-.08a3.53,3.53,0,0,1-1.32-2.74,3.62,3.62,0,0,1,3.83-3.63,4,4,0,0,1,1.44.25h3.56v1.33h-2.1a3,3,0,0,1,.83,2.1,3.49,3.49,0,0,1-3.73,3.54,3.75,3.75,0,0,1-1.53-.35,1.52,1.52,0,0,0-.65,1.21c0,.64.42,1.1,1.79,1.1h2c2.37,0,3.56.75,3.56,2.44,0,1.9-2,3.53-5.16,3.53C965.66,229,963.94,228,963.94,226.27Zm7.69-.53c0-1-.71-1.27-2-1.27h-1.76a5.83,5.83,0,0,1-1.33-.15,2.13,2.13,0,0,0-1,1.71c0,1.1,1.1,1.79,3,1.79S971.63,226.8,971.63,225.74Zm-1.31-8.25a2.17,2.17,0,1,0-4.33,0,2.18,2.18,0,1,0,4.33,0Z"/><path class="cls-2" d="M975,223.26a1.25,1.25,0,1,1,1.25,1.3A1.26,1.26,0,0,1,975,223.26Z"/><path class="cls-2" d="M980.22,210.89a1.2,1.2,0,0,1,2.39,0,1.2,1.2,0,0,1-2.39,0Zm.32,3.22h1.73v10.2h-1.73Z"/><path class="cls-2" d="M985,219.22c0-3.4,2.23-5.36,4.73-5.36s4.73,2,4.73,5.36-2.23,5.34-4.73,5.34S985,222.6,985,219.22Zm7.68,0c0-2.34-1.19-3.93-3-3.93s-2.94,1.59-2.94,3.93,1.19,3.91,2.94,3.91S992.63,221.56,992.63,219.22Z"/></g><polygon points="0.24 90.86 0 113.38 11.38 102 0.24 90.86"/><polygon class="cls-3" points="50.4 0 50.4 190 215.24 190 215.24 0 206.71 0 206.46 182.19 58.66 182.19 58.8 0 50.4 0"/><rect class="cls-4" x="112.63" y="87.43" width="40.66" height="139.81" rx="4.84" ry="4.84" transform="translate(-24.37 290.29) rotate(-90)"/><rect class="cls-4" x="112.63" y="41.43" width="40.66" height="139.81" rx="4.84" ry="4.84" transform="translate(21.63 244.29) rotate(-90)"/><rect class="cls-4" x="112.63" y="-4.57" width="40.66" height="139.81" rx="4.84" ry="4.84" transform="translate(67.63 198.29) rotate(-90)"/><text class="cls-5" transform="translate(75.43 164.92) scale(1.05 1)">전역 컨텍스트</text><text class="cls-5" transform="translate(109.43 117.92) scale(1.05 1)">outer</text><text class="cls-5" transform="translate(110.43 71.92) scale(1.05 1)">inner</text><polygon points="260.24 90.86 260 113.38 271.38 102 260.24 90.86"/><polygon class="cls-3" points="310.4 0 310.4 190 475.24 190 475.24 0 466.71 0 466.46 182.19 318.66 182.19 318.8 0 310.4 0"/><rect class="cls-4" x="372.63" y="87.43" width="40.66" height="139.81" rx="4.84" ry="4.84" transform="translate(235.63 550.29) rotate(-90)"/><rect class="cls-4" x="372.63" y="41.43" width="40.66" height="139.81" rx="4.84" ry="4.84" transform="translate(281.63 504.29) rotate(-90)"/><text class="cls-5" transform="translate(335.43 164.92) scale(1.05 1)">전역 컨텍스트</text><text class="cls-5" transform="translate(369.43 117.92) scale(1.05 1)">outer</text><polygon points="520.24 90.86 520 113.38 531.38 102 520.24 90.86"/><polygon class="cls-3" points="570.4 0 570.4 190 735.24 190 735.24 0 726.71 0 726.46 182.19 578.66 182.19 578.8 0 570.4 0"/><rect class="cls-4" x="632.63" y="87.43" width="40.66" height="139.81" rx="4.84" ry="4.84" transform="translate(495.63 810.29) rotate(-90)"/><text class="cls-5" transform="translate(595.43 164.92) scale(1.05 1)">전역 컨텍스트</text><polygon points="780.24 90.86 780 113.38 791.38 102 780.24 90.86"/><polygon class="cls-3" points="830.4 0 830.4 190 995.24 190 995.24 0 986.71 0 986.46 182.19 838.66 182.19 838.8 0 830.4 0"/></g></g></svg>